<svg id="8fcef35f-ca00-4dbf-ba36-f43213ed514c" data-name="179ed7b6-6394-4da1-9231-ceb710b7dc13" xmlns="http://www.w3.org/2000/svg" width="500" height="123" viewBox="0 0 500 123">
  <defs>
    <style>
      .\36 892e4f4-1cf8-434c-8002-244b2e4579b9 {
        fill: #fff;
      }

      .\34 2f27744-6ae5-4403-ac78-852801832394 {
        fill: #e50012;
      }

      .\35 681b7b2-4616-43fe-8cd7-eda401fb1ef5 {
        fill: #d70c18;
      }
    </style>
  </defs>
  <title>cwef-logo</title>
  <g>
    <g>
      <path class="6892e4f4-1cf8-434c-8002-244b2e4579b9" d="M453.75,38.68c0-20.51-17.68-37.21-39.63-37.78-.38,0-.75-.08-1.14-.08s-.75.06-1.13.08c-22,.57-39.63,17.27-39.63,37.78S389.9,75.9,411.85,76.47c.38,0,.75.08,1.13.08s.76-.06,1.14-.08C436.07,75.9,453.75,59.19,453.75,38.68ZM372.92,39h12.57a50.31,50.31,0,0,0,2.08,14.14h-11.5A34.4,34.4,0,0,1,372.92,39Zm80.14-.68H440.49a50.08,50.08,0,0,0-2.4-15.07h11.33A34.73,34.73,0,0,1,453.06,38.34Zm-13.3,0H413.32V23.27h24A49.36,49.36,0,0,1,439.76,38.34ZM413.32,22.52V1.57c10.45.18,19.45,8.69,23.74,21Zm-.67,0H388.91c4.3-12.26,13.29-20.77,23.74-20.95Zm0,.75V38.34H386.21a49.06,49.06,0,0,1,2.44-15.07ZM385.49,38.34H372.92a34.72,34.72,0,0,1,3.63-15.07h11.33A49.77,49.77,0,0,0,385.49,38.34Zm.72.68h26.44V53.16H388.32A49.84,49.84,0,0,1,386.21,39Zm26.44,14.9V75.79c-10.71-.18-19.9-9.11-24.06-21.87Zm.67,0h24.07C433.22,66.68,424,75.61,413.32,75.79Zm0-.76V39h26.44a49.49,49.49,0,0,1-2.11,14.14ZM440.49,39h12.57a34.56,34.56,0,0,1-3.16,14.14H438.4A50.31,50.31,0,0,0,440.49,39ZM449,22.52h-11.2C434.4,12.58,427.93,5,420.06,2.14A39.9,39.9,0,0,1,449,22.52ZM405.91,2.14C398,5,391.57,12.58,388.14,22.52h-11.2A39.9,39.9,0,0,1,405.91,2.14ZM376.46,53.92h11.36c3.34,10.4,10,18.33,18.09,21.31C392.75,73,381.82,64.9,376.46,53.92Zm43.6,21.31c8.11-3,14.75-10.91,18.09-21.31h11.36C444.15,64.9,433.22,73,420.06,75.23Z"/>
      <polygon class="6892e4f4-1cf8-434c-8002-244b2e4579b9" points="381.14 10.53 381.14 8.03 370.89 8.08 370.89 10.5 374.64 10.51 361.84 53.35 351.11 10.46 354.65 10.46 354.67 8.03 335.85 7.98 335.85 10.42 339.15 10.43 346.83 38.49 340.33 55.41 329.3 10.41 332.56 10.42 332.57 7.99 313.99 7.94 313.99 10.38 317.43 10.38 333.27 69.22 337.72 69.23 347.95 42.59 355.24 69.27 359.73 69.28 377.41 10.51 381.14 10.53"/>
      <path class="6892e4f4-1cf8-434c-8002-244b2e4579b9" d="M310.35,49.94a26.9,26.9,0,0,1-2.23,6.28,21.49,21.49,0,0,1-3.73,5.34,17.46,17.46,0,0,1-5.06,3.74A14.29,14.29,0,0,1,293,66.7a20.68,20.68,0,0,1-7.62-1.26,10.54,10.54,0,0,1-5.08-4.31,24,24,0,0,1-3-8.56,84.34,84.34,0,0,1-1-13.9c0-4.27.17-8.24.49-11.79A28.87,28.87,0,0,1,279,17.76,13.06,13.06,0,0,1,284,11.93c2.16-1.39,5.2-2.1,9-2.1A14.88,14.88,0,0,1,300,11.34a15.27,15.27,0,0,1,4.77,3.91,22.71,22.71,0,0,1,3.17,5.3c.78,1.85,1.48,3.68,2.15,5.62l.15.44h2.16V8.7H310l-.11.51c-.17.78-.4.95-.48,1a3.22,3.22,0,0,1-1.42.22,8,8,0,0,1-2.41-.46c-1-.32-2.2-.67-3.48-1s-2.74-.72-4.19-1a23.19,23.19,0,0,0-5-.5A29.5,29.5,0,0,0,282,9.6a33,33,0,0,0-17.36,16.07,28.56,28.56,0,0,0-2.88,12.84,28.43,28.43,0,0,0,2.59,12.09,31.73,31.73,0,0,0,16.79,16.16,30.06,30.06,0,0,0,11.73,2.37,26.69,26.69,0,0,0,5.09-.46c1.56-.3,3-.63,4.41-1s2.52-.69,3.55-1c2.22-.63,3.39-.36,3.71-.15a2.3,2.3,0,0,1,.74,1l.16.39h2.38V49.43h-2.47Z"/>
      <path class="6892e4f4-1cf8-434c-8002-244b2e4579b9" d="M448.06,8.62v2.43h7.51V65.48h-7.51v2.43h28.18V65.48h-7.58V39.81h4.81a9.88,9.88,0,0,1,4.47.91,9,9,0,0,1,3,2.47,13,13,0,0,1,2,3.69,42.82,42.82,0,0,1,1.33,4.5l.12.5h2.21V25.25h-2.23l-.11.52a28.14,28.14,0,0,1-1.43,4.89,12.68,12.68,0,0,1-2.16,3.65,8.71,8.71,0,0,1-3.22,2.27,12.92,12.92,0,0,1-4.85.81h-3.92V11.05h11.66a15.55,15.55,0,0,1,5.43.86,11.88,11.88,0,0,1,4,2.43,16.28,16.28,0,0,1,3,3.88,39.77,39.77,0,0,1,2.44,5.21l.16.41h2.15V8.62Z"/>
    </g>
    <g>
      <path class="6892e4f4-1cf8-434c-8002-244b2e4579b9" d="M267,120.44a4.69,4.69,0,0,1-3.35-1.37c-1.22-1.23-1.24-2.41-1.24-5.44s0-4.21,1.24-5.44a4.74,4.74,0,0,1,3.35-1.37,4.45,4.45,0,0,1,4.56,3.91h-1a3.53,3.53,0,0,0-3.53-3,3.58,3.58,0,0,0-2.54,1c-1,1-1,2-1,4.88s.07,3.91,1,4.88a3.62,3.62,0,0,0,6.1-2h1a4.46,4.46,0,0,1-4.56,3.91"/>
      <path class="6892e4f4-1cf8-434c-8002-244b2e4579b9" d="M267,120.77a5.09,5.09,0,0,1-3.58-1.47c-1.33-1.34-1.33-2.7-1.33-5.66s0-4.34,1.34-5.67A5,5,0,0,1,267,106.5a4.75,4.75,0,0,1,4.87,4.18l.07.38h-1.67l-.06-.26A3.19,3.19,0,0,0,267,108a3.32,3.32,0,0,0-2.32.94c-.84.85-.93,1.69-.93,4.66s.09,3.79.94,4.64a3.29,3.29,0,0,0,5.55-1.82l.06-.26H272l-.07.38A4.76,4.76,0,0,1,267,120.77Zm0-13.62a4.4,4.4,0,0,0-3.12,1.27c-1.1,1.1-1.15,2.06-1.15,5.22s.05,4.1,1.15,5.21a4.42,4.42,0,0,0,3.12,1.27,4.11,4.11,0,0,0,4.16-3.27h-.35a3.81,3.81,0,0,1-3.81,3,3.93,3.93,0,0,1-2.77-1.12c-1.08-1.1-1.13-2.28-1.13-5.1s.05-4,1.13-5.11A3.89,3.89,0,0,1,267,107.4a3.82,3.82,0,0,1,3.78,3h.38A4.06,4.06,0,0,0,267,107.15Z"/>
      <path class="6892e4f4-1cf8-434c-8002-244b2e4579b9" d="M272.21,93.36q-1.72,5.65-9,8.86l-.76-1.06A18.29,18.29,0,0,0,266.52,99a10.72,10.72,0,0,0,4.83-7.42h-8.14V90.41h8.26c0-.28,0-.53,0-.79V85.54h-7.38V84.35h16.25v1.19h-7.6v4.08c0,.27,0,.53,0,.79h8.45V91.6H273a.49.49,0,0,0,.06.22c.83,3.78,3.79,6.94,8.89,9.44l-.75,1a.72.72,0,0,0-.24-.11c-4.5-2-7.4-5-8.7-8.82"/>
      <path class="6892e4f4-1cf8-434c-8002-244b2e4579b9" d="M281.18,102.51l-.13-.09a.47.47,0,0,0-.19-.08c-4.36-2-7.26-4.83-8.64-8.48-1.26,3.58-4.27,6.45-8.94,8.51l-.12,0-1-1.34.2-.08a18,18,0,0,0,4-2.11,10.68,10.68,0,0,0,4.74-7.12h-8.12V90.24h8.27c0-.21,0-.41,0-.62V85.7H264V84.19h16.57V85.7h-7.6v3.92c0,.19,0,.38,0,.56v.06h8.44v1.53h-8.16c.81,3.73,3.77,6.87,8.8,9.33l.17.09Zm-9-9.68.16.48c1.29,3.78,4.18,6.71,8.61,8.72a.55.55,0,0,1,.13,0l.55-.76c-5-2.5-8-5.67-8.79-9.45a.54.54,0,0,1-.07-.27v-.16H281v-.87h-8.46l0-.41a4.89,4.89,0,0,0,0-.54V85.37h7.6v-.86H264.27v.86h7.38v4.25c0,.26,0,.52,0,.8v.15h-8.24v.87h8.16l0,.18a10.88,10.88,0,0,1-4.89,7.53,17.61,17.61,0,0,1-3.92,2.08l.57.79c4.71-2.1,7.66-5,8.78-8.71Z"/>
      <path class="6892e4f4-1cf8-434c-8002-244b2e4579b9" d="M315.37,89.36V101.9h-1.28V85.47H306v-1.2h18.52v1.2h-9.12V87.9a94.93,94.93,0,0,1,7.85,5.88l-.89,1.15c-1.89-1.7-4.22-3.56-7-5.57"/>
      <path class="6892e4f4-1cf8-434c-8002-244b2e4579b9" d="M315.53,102.06h-1.6V85.63h-8.12V84.11h18.84v1.52h-9.12v2.19a95.82,95.82,0,0,1,7.8,5.83l.12.1-1.09,1.41-.13-.11c-1.82-1.63-4.07-3.43-6.7-5.37Zm-1.28-.32h.95V89l.26.19c2.69,2,5,3.81,6.85,5.46l.69-.89A95.46,95.46,0,0,0,315.28,88L315.2,88V85.3h9.13v-.87h-18.2v.87h8.12Z"/>
      <path class="6892e4f4-1cf8-434c-8002-244b2e4579b9" d="M366,86l1.09.51a17.52,17.52,0,0,1-1.39,2.78c-.1.16-.1.27,0,.37a19.51,19.51,0,0,1,1.77,2.79l-1,.67A14.65,14.65,0,0,0,364.75,90c-.31-.32-.38-.61-.21-.85A9.56,9.56,0,0,0,366,86m-3.65,0,1,.58a18.61,18.61,0,0,1-1.71,2.77.23.23,0,0,0,0,.32,17.66,17.66,0,0,1,2,2.85l-1,.68a15,15,0,0,0-1.84-3c-.4-.47-.49-.82-.28-1A10.49,10.49,0,0,0,362.37,86m-4,0,1.07.52c-.25.61-.5,1.13-.74,1.59a.88.88,0,0,0-.16.28c-.53.8-.76,1.27-.67,1.39a11.82,11.82,0,0,1,1.71,3l-1,.6A14.52,14.52,0,0,0,357,90.2c-.32-.45-.4-.77-.24-.94A9.79,9.79,0,0,0,358.36,86m-2-2.13h11.42v1.18H356.32Zm5.26,16.31v-4.7H357v-1.2h10.61v1.2h-4.81v4.7h5.29v1.2H355.84v-1.2ZM355.64,95l.71,4.19-1.18.18-.71-4.06Zm-3.43-1.77-3.14.3-.26-1.18,1.17-.11a29.69,29.69,0,0,0,1.94-2.53A17.82,17.82,0,0,0,348.71,87l.6-1a3.76,3.76,0,0,1,1,.66c.54-1.06,1.07-2.23,1.56-3.49l1.07.52a32.76,32.76,0,0,1-1.77,3.7c.4.35.86.77,1.39,1.27A16.93,16.93,0,0,0,354,85.42l1.15.32A16.29,16.29,0,0,1,351.5,92l3.33-.36c-.33-.78-.53-1.28-.62-1.5l1.11-.4a30.27,30.27,0,0,1,1.41,3.8l-1.14.33c-.09-.36-.2-.7-.32-1l-1.88.21v9.08h-1.18ZM350,95l1.18.25a26.78,26.78,0,0,1-1.45,5.7l-1.15-.32A30.44,30.44,0,0,0,350,95"/>
      <path class="6892e4f4-1cf8-434c-8002-244b2e4579b9" d="M353.55,102.3H352v-9l-3.1.3-.33-1.49L349.9,92a28.82,28.82,0,0,0,1.81-2.35,17.63,17.63,0,0,0-3.08-2.55l-.14-.08.74-1.24.11,0a2.66,2.66,0,0,1,.9.57c.54-1.08,1-2.19,1.47-3.3l.06-.16,1.37.66-.05.14a33.85,33.85,0,0,1-1.73,3.6c.34.3.71.64,1.15,1a17,17,0,0,0,1.34-3l0-.15,1.45.41-.05.16a16.25,16.25,0,0,1-3.41,6l2.71-.3c-.16-.37-.28-.66-.37-.89l-.17-.4-.07-.16,1.41-.51.06.13a28.39,28.39,0,0,1,1.42,3.83l.05.15-1.45.42,0-.16c-.08-.3-.17-.6-.28-.9l-1.61.17Zm-1.18-.32h.85V92.91l2.16-.23.05.12c.1.3.2.59.28.89l.82-.24a28.9,28.9,0,0,0-1.3-3.49l-.81.3.1.25.46,1.08.08.2-4,.44.27-.31A16.45,16.45,0,0,0,355,85.85l-.84-.23a17.32,17.32,0,0,1-1.42,3.11l-.1.18-.15-.14c-.55-.52-1-.93-1.39-1.27l-.1-.08.07-.12a34.26,34.26,0,0,0,1.71-3.54l-.79-.38a35.53,35.53,0,0,1-1.5,3.34l-.09.18-.15-.12a6.78,6.78,0,0,0-.82-.59l-.45.75A18.34,18.34,0,0,1,352,89.55l.09.09-.08.11a27.17,27.17,0,0,1-1.95,2.54l0,0-1.05.11.19.85,3.17-.3Zm15.85-.44H355.68V100h5.74V95.64h-4.61V94.12h10.93v1.52h-4.81V100h5.29ZM356,101.22h11.9v-.87h-5.29v-5h4.81v-.87H357.14v.87h4.6v5H356Zm-6.22-.09-1.46-.41.06-.17A30.46,30.46,0,0,0,349.79,95l0-.18,1.5.32v.15a27.8,27.8,0,0,1-1.47,5.73Zm-1-.63.84.23A28.17,28.17,0,0,0,351,95.36l-.88-.19A30.77,30.77,0,0,1,348.74,100.5Zm6.3-1-.76-4.37,1.49-.39.76,4.52Zm-.39-4.13.66,3.76.85-.14-.65-3.85Zm3.81-1.81-.06-.18a13.76,13.76,0,0,0-1.58-3.09c-.14-.2-.56-.79-.23-1.15a9.92,9.92,0,0,0,1.62-3.2l.05-.18,1.38.68-.06.14c-.22.54-.47,1.06-.75,1.59a1.25,1.25,0,0,0-.15.27A4.15,4.15,0,0,0,358,89.7a12.29,12.29,0,0,1,1.72,3l.06.13Zm0-7.34a10.28,10.28,0,0,1-1.62,3.13c-.11.12,0,.39.24.75a13.55,13.55,0,0,1,1.55,3l.74-.44a11.71,11.71,0,0,0-1.63-2.77c-.11-.15-.14-.38.65-1.59a1.05,1.05,0,0,1,.17-.28c.24-.47.46-.94.66-1.42Zm4.13,7.2-.09-.16a13.87,13.87,0,0,0-1.82-3c-.45-.55-.54-1-.27-1.25a10.5,10.5,0,0,0,1.81-3.09l.06-.17,1.35.74-.08.15a18.65,18.65,0,0,1-1.73,2.79c-.05.07,0,.09,0,.12a18.39,18.39,0,0,1,2,2.86l.07.13Zm-.14-7.21a10.84,10.84,0,0,1-1.8,3c-.18.19.05.55.28.82A14.17,14.17,0,0,1,362.71,93l.71-.49a18.14,18.14,0,0,0-1.85-2.69.38.38,0,0,1,0-.53,18.25,18.25,0,0,0,1.63-2.61Zm4,7.14-.07-.18a14.61,14.61,0,0,0-1.74-3c-.45-.47-.36-.83-.21-1A9.33,9.33,0,0,0,365.86,86l.05-.19,1.41.65-.06.15a18.86,18.86,0,0,1-1.4,2.81c-.08.12-.05.14,0,.17a18.33,18.33,0,0,1,1.8,2.82l.08.13Zm-.31-7.13a9.7,9.7,0,0,1-1.44,3.06c-.05.06-.19.25.19.64a14.54,14.54,0,0,1,1.7,2.94l.71-.47a18.43,18.43,0,0,0-1.68-2.63.42.42,0,0,1,0-.56,18.25,18.25,0,0,0,1.33-2.62Zm1.79-1H356.16V83.7h11.75Zm-11.42-.32h11.09V84H356.49Z"/>
      <path class="6892e4f4-1cf8-434c-8002-244b2e4579b9" d="M407.48,88.35a5.78,5.78,0,0,1-.57.1c-.11,0-.16.09-.16.22v3l1.46-.42.3,1.15a15.61,15.61,0,0,1-3.5.78L404.79,92a6.59,6.59,0,0,1,.76-.1V87.8c0-.17.1-.25.22-.23a11.46,11.46,0,0,0,3.58-1.24l.79.92a13.8,13.8,0,0,1-1.53.74,12.3,12.3,0,0,0,2.32,4.37l-1.12.47a13,13,0,0,1-2.33-4.48m-4.59.1a20.55,20.55,0,0,0-1.84-1.76l.83-.83a16.15,16.15,0,0,1,1.63,1.54l1.7-1.6.79.89-1,1c-.34.28-.63.54-.89.78v4.73h-1.19Zm4.77,7.27h-8.18v1.56h8.18ZM403,84.35v-1h1.19v1h6.34v1.19H396.83V84.35Zm4.69,14.11h-8.24a4.89,4.89,0,0,1-2.69,3.63l-.8-.93a4.43,4.43,0,0,0,1-.63,3.38,3.38,0,0,0,1.31-2.75V93.4h1.2v1.13h8.18V93.4h1.19v8.5h-1.19Zm-9.64-10h-1.17v-1.2h4.34l.25,0a.25.25,0,0,1,.14.18l0,.12a17.05,17.05,0,0,1-.33,4.44,1.56,1.56,0,0,1-.62.65,3.7,3.7,0,0,1-2.1.08l-.19-1.37a3.53,3.53,0,0,0,1.6.12c.26-.17.41-.59.44-1.26a5.82,5.82,0,0,0,0-1.73.18.18,0,0,0-.15-.08h-1.08a5.51,5.51,0,0,1-2.41,4.5l-.87-.87A4.6,4.6,0,0,0,398,88.45m-5.53-3.62.7-1a15.84,15.84,0,0,1,2.91,2.23l-.76.94a20.32,20.32,0,0,0-2.85-2.18m2.28,9,1.17.18a18.85,18.85,0,0,1-2.83,7.56l-1.13-.47a16.8,16.8,0,0,0,2.79-7.27m-3-4.85.67-1a17.33,17.33,0,0,1,3.08,2.2l-.72,1a19,19,0,0,0-3-2.17"/>
      <path class="6892e4f4-1cf8-434c-8002-244b2e4579b9" d="M396.69,102.29l-1-1.19.2-.09a3.89,3.89,0,0,0,1-.6,3.21,3.21,0,0,0,1.26-2.63V93.24h1.52v1.12h7.85V93.24H409v8.82h-1.52V98.63h-7.94a5.06,5.06,0,0,1-2.74,3.6Zm-.5-1.07.57.66a4.59,4.59,0,0,0,2.49-3.44l0-.14h8.55v3.44h.86V93.56h-.86v1.13h-8.5V93.56h-.88v4.22a3.52,3.52,0,0,1-1.37,2.87A4.32,4.32,0,0,1,396.19,101.22Zm-3,.54-1.43-.59.1-.17a16.68,16.68,0,0,0,2.77-7.2l0-.17,1.5.24,0,.16a19.42,19.42,0,0,1-2.85,7.62Zm-.95-.74.83.34a18.88,18.88,0,0,0,2.7-7.22l-.84-.14A17.06,17.06,0,0,1,392.22,101Zm15.6-3.58h-8.5V95.56h8.5Zm-8.18-.33h7.85V95.88h-7.85Zm5.24-3.7-.28-1.49.16,0,.63-.09v-4a.45.45,0,0,1,.15-.33.33.33,0,0,1,.23-.07,10.81,10.81,0,0,0,3.5-1.22l.12-.06,1,1.18-.18.09a12.51,12.51,0,0,1-1.42.69,12,12,0,0,0,2.26,4.18l.13.17-1.44.6-.07-.1a13.37,13.37,0,0,1-2.31-4.39c-.17,0-.31.06-.44.07s0,0,0,.06v2.84c.46-.12.88-.25,1.24-.37l.17,0,.38,1.46-.13,0a16.23,16.23,0,0,1-3.54.79Zm.1-1.24.16.88a14.8,14.8,0,0,0,3.17-.71l-.22-.84c-.39.12-.82.25-1.3.38l-.21.06V88.67a.35.35,0,0,1,.32-.38l.55-.1.15,0,0,.14a13.16,13.16,0,0,0,2.22,4.34l.81-.34A12.34,12.34,0,0,1,408.45,88l0-.13.13-.06c.32-.13.79-.34,1.34-.63l-.58-.68a11.59,11.59,0,0,1-3.51,1.2h-.05s0,0,0,.08V92.1h-.16A5.7,5.7,0,0,0,405,92.17Zm-.74,1.17h-1.51V88.51c-.3-.32-.62-.65-1-1h0v0a17.32,17.32,0,0,1-.34,4.51,1.66,1.66,0,0,1-.69.72,3.89,3.89,0,0,1-2.21.1l-.11,0-.17-1.2a5.45,5.45,0,0,1-1.42,1.37l-.11.08-1.1-1.1.17-.11a4.46,4.46,0,0,0,2-3.34h-1.15V87.09h4.59l-.33-.29-.14-.11,1-1h-5.16V84.19h6.15V83.13h1.52v1.06h6.33V85.7h-5.33l.9,1-.11.11-1,1c-.32.27-.6.51-.84.74ZM403.05,93h.87V88.38l.05,0c.26-.24.55-.5.9-.79s.71-.66.91-.86L405.2,86l-1.57,1.48-.12.12-.11-.12a15.67,15.67,0,0,0-1.51-1.43l-.6.6A20.88,20.88,0,0,1,403,88.34l0,0Zm-6.91-.9.63.63a5.13,5.13,0,0,0,1.43-1.51v0h0a6,6,0,0,0,.79-2.76v-.15h1.23a.33.33,0,0,1,.27.13c.06.09.16.27.07,1.85a1.69,1.69,0,0,1-.51,1.39l0,0a3.17,3.17,0,0,1-1.46-.08l.14,1a3.52,3.52,0,0,0,1.89-.08,1.4,1.4,0,0,0,.55-.58c.13-.28.29-1.26.31-4.35a.41.41,0,0,1,0-.08c0-.06,0-.08-.07-.1l-.19,0H397v.88h1.19l0,.17A4.78,4.78,0,0,1,396.14,92.11Zm2.4-.84a3.37,3.37,0,0,0,1.36.11,1.53,1.53,0,0,0,.36-1.12,5.53,5.53,0,0,0,0-1.65h-.94A6.52,6.52,0,0,1,398.54,91.27Zm3.39-5.57.05,0a16,16,0,0,1,1.54,1.43c.52-.5,1.05-1,1.57-1.47ZM397,85.37h13.35v-.86H404V83.46h-.87v1.05H397Zm-2.15,6-.13-.11a18.62,18.62,0,0,0-3-2.14l-.15-.09.84-1.28.13.07A17.19,17.19,0,0,1,395.63,90l.12.1ZM392,88.92a19.78,19.78,0,0,1,2.77,2l.53-.71a16.22,16.22,0,0,0-2.81-2Zm3.34-1.67-.12-.12A20.33,20.33,0,0,0,392.41,85l-.16-.09.9-1.25.12.07A16.14,16.14,0,0,1,396.21,86l.12.1Zm-2.63-2.47a19.93,19.93,0,0,1,2.59,2l.57-.7a17.53,17.53,0,0,0-2.64-2Z"/>
      <path class="6892e4f4-1cf8-434c-8002-244b2e4579b9" d="M449.93,91.27v3.9h2V91.35a.1.1,0,0,0-.1-.08Zm-1.19,0h-2.12v3.9h2.12Zm-4.93-3.85h7.54v1.19h-7.54Zm1.61,7.75v-3.9h-1.95c-.06,0-.09,0-.09.08v3.82Zm3.32,1.2h-2.12v5h-1.2v-5h-2v5.35h-1.19V90.36a.26.26,0,0,1,.28-.28h10.39c.2,0,.3.12.3.28v10.23a1.24,1.24,0,0,1-.57,1.11,3.6,3.6,0,0,1-2.58.09v-1.32a2.92,2.92,0,0,0,1.64.2.66.66,0,0,0,.32-.55V96.37h-2v5h-1.19Zm-1-12a17.74,17.74,0,0,1-5.35,3.56l-.7-1a19.66,19.66,0,0,0,5.73-3.66h.67a25.52,25.52,0,0,0,5.69,3.86l-.73.94a17.12,17.12,0,0,1-5.31-3.72M436.6,99h2.68c.16,0,.25-.07.25-.24V96.14c0-.11-.06-.18-.21-.18H436.8a.18.18,0,0,0-.2.2Zm-.87-6.86h4.63V93.3h-4.63Zm0-2.83h4.63v1.19h-4.63ZM435.57,84h4.86v1.19h-4.86Zm1,16.14v1.73h-1.19V95.14a.32.32,0,0,1,.37-.37h4.53c.27,0,.41.13.41.39v4.58a.38.38,0,0,1-.42.43Zm-1.52-13.65H441v1.2h-5.92Z"/>
      <path class="6892e4f4-1cf8-434c-8002-244b2e4579b9" d="M451.48,102.12A7.62,7.62,0,0,1,450,102l-.13,0v-.35h-1.28v-5h-1.79v5h-1.52v-5h-1.72v5.36H442V90.36a.42.42,0,0,1,.44-.44h10.39a.44.44,0,0,1,.46.44v10.23a1.39,1.39,0,0,1-.64,1.24A2,2,0,0,1,451.48,102.12Zm-1.3-.46c1.44.26,2.06.1,2.32-.09a1.1,1.1,0,0,0,.5-1V90.36s0-.1-.16-.12H442.47c-.07,0-.11,0-.12.14v11.18h.87V96.21h2.37v5.05h.87V96.21h2.44v5.05h.87V96.21h2.36v3.91a.79.79,0,0,1-.39.68c-.16.1-.49.18-1.56-.12Zm-.08-1.34c1.13.33,1.41.24,1.47.21a.49.49,0,0,0,.24-.41V96.53H450.1Zm-13.34,1.74h-1.51V95.14a.48.48,0,0,1,.53-.53h4.53a.51.51,0,0,1,.57.55v4.58a.53.53,0,0,1-.58.59h-3.54Zm-1.19-.32h.87V100h3.86c.19,0,.26-.08.26-.27V95.16c0-.14,0-.22-.25-.22h-4.53c-.16,0-.21,0-.21.2Zm3.71-2.61h-2.84v-3a.34.34,0,0,1,.36-.36h2.52a.33.33,0,0,1,.37.34v2.59A.37.37,0,0,1,439.28,99.13Zm-2.52-.32h2.52c.09,0,.09,0,.09-.08V96.14s0,0-.05,0H436.8l0,0Zm15.37-3.48h-2.36V91.11h2.1a.26.26,0,0,1,.26.21Zm-2-.32h1.71V91.44H450.1Zm-1.2.32h-2.44V91.11h2.44ZM446.78,95h1.79V91.44h-1.79Zm-1.19.32h-2.37v-4a.23.23,0,0,1,.25-.24h2.12Zm-2-.32h1.72V91.44h-1.72Zm-3-1.55h-5V92h5Zm-4.63-.32h4.31v-.87h-4.31Zm4.63-2.51h-5V89.12h5Zm-4.63-.33h4.31v-.86h-4.31Zm15.62-1.52h-7.86v-1.3c-.4.21-.81.41-1.23.59l-.12.06-.88-1.27.18-.07a19.38,19.38,0,0,0,5.68-3.63l0,0h.8l0,0A25.68,25.68,0,0,0,453.82,87l.17.09-.92,1.2-.12-.06c-.51-.25-1-.5-1.44-.76ZM444,88.45h7.22v-.87H444Zm3.75-4.32.11.13A17,17,0,0,0,453,87.88l.52-.69A25.67,25.67,0,0,1,448,83.44h-.54A19.89,19.89,0,0,1,441.91,87l.5.71a17.61,17.61,0,0,0,5.18-3.47Zm-3.66,3.13h7.1a15,15,0,0,1-3.46-2.66A17.41,17.41,0,0,1,444.06,87.26Zm-2.9.62h-6.24V86.36h6.24Zm-5.91-.32h5.58v-.87h-5.58Zm5.35-2.18h-5.2V83.86h5.2Zm-4.87-.33h4.54v-.86h-4.54Z"/>
      <path class="6892e4f4-1cf8-434c-8002-244b2e4579b9" d="M492.6,89.46h-4.89s0,0,0,0v.81s0,.06,0,.06h4.89c.07,0,.1-.05.1-.11V89.5s-.05,0-.1,0m1.11,1.85h-7.09c-.1,0-.14-.06-.14-.15v-2.5c0-.11,0-.15.14-.15h7.11c.1,0,.16,0,.16.15v2.5q0,.15-.18.15m.93,6.15h-8.75v1.09s0,0,0,0h8.6c.07,0,.11,0,.11-.09Zm-8.75-1.12h8.75V95.23s0,0-.11,0h-8.6s0,0,0,0Zm9-9h-9.42a.05.05,0,0,0,0,0v4.52s0,.06,0,.06h9.42c.07,0,.1,0,.1-.1V87.4a.07.07,0,0,0-.1,0m.79,12.36H484.86c-.11,0-.16-.06-.16-.18v-5.3a.15.15,0,0,1,.16-.15h10.79c.12,0,.18.07.18.15v5.3a.16.16,0,0,1-.18.18M496,93.1h-11.6c-.12,0-.17-.07-.17-.19v-6.5c0-.11.07-.16.17-.16H496c.11,0,.17.06.17.16v6.5c0,.12-.06.19-.17.19m-12.41,7.41h13.27v1.19H483.57Zm5.81-16.41v-.8h1.2v.8h6.1v1.19H483.33V84.1ZM480.1,98.26V90.14h-1.7V89h1.7V83.54h1.19V89h1.89v1.19h-1.89v7.42c.8-.53,1.45-1,1.95-1.4l.79.89a27.49,27.49,0,0,1-5.18,3.23l-.74-1,2-1.06"/>
      <path class="6892e4f4-1cf8-434c-8002-244b2e4579b9" d="M497,101.86H483.41v-1.51H497Zm-13.27-.32h12.95v-.87H483.73Zm-4.93-1.05-.93-1.22.17-.09,1.9-1V90.3h-1.7V88.79h1.7V83.38h1.51v5.41h1.89V90.3h-1.89v7A19,19,0,0,0,483.14,96l.12-.09,1,1.13-.12.1a28.54,28.54,0,0,1-5.22,3.26Zm-.44-1.12.53.71a28.57,28.57,0,0,0,4.91-3l-.57-.65c-.48.38-1.08.81-1.86,1.31l-.25.17V90H483v-.87h-1.9V83.7h-.86v5.41h-1.7V90h1.7v8.38l-.09,0Zm17.29.52H484.86a.32.32,0,0,1-.32-.35v-5.3a.31.31,0,0,1,.32-.31h10.79a.31.31,0,0,1,.34.31v5.3A.32.32,0,0,1,495.65,99.89Zm0-5.65H484.86v5.29a.06.06,0,0,0,0,0l10.78,0h0Zm-9.74,4.52a.21.21,0,0,1-.19-.15V97.3h9.07v1.21a.25.25,0,0,1-.26.25Zm.12-.32h8.43v-.82h-8.43Zm8.75-1.94h-9.07V95.23a.22.22,0,0,1,.09-.16l.05,0h8.66a.22.22,0,0,1,.26.14V96.5Zm-8.75-.32h8.43v-.83h-8.43Zm8.52-.83ZM496,93.26h-11.6a.32.32,0,0,1-.33-.35v-6.5c.05-.29.23-.33.33-.33H496a.33.33,0,0,1,.34.33v6.5A.33.33,0,0,1,496,93.26Zm-11.6-6.85a.1.1,0,0,0,0,0v6.46l11.61,0h0V86.41Zm0,0Zm1.06,5.73c-.08,0-.14-.06-.18-.16l0-.06V87.4a.25.25,0,0,1,.12-.19h9.48a.22.22,0,0,1,.27.14v4.54a.26.26,0,0,1-.24.26Zm.13-.33h9.23V87.52h-9.23Zm8.14-.33h-7.09a.3.3,0,0,1-.3-.32v-2.5a.28.28,0,0,1,.3-.31h7.11a.3.3,0,0,1,.32.31v2.5A.31.31,0,0,1,493.71,91.48Zm-7.07-2.81v2.49h7.1V88.66Zm1.07,1.86s-.15,0-.19-.18V89.5a.21.21,0,0,1,.12-.18l0,0h5a.22.22,0,0,1,.22.15v.82a.25.25,0,0,1-.23.26Zm.13-.33h4.7v-.58h-4.7Zm9-4.75H483.17V83.94h6.05v-.81h1.53v.81h6.09Zm-13.35-.32h13v-.86h-6.1v-.81h-.87v.81h-6.06Z"/>
      <path class="6892e4f4-1cf8-434c-8002-244b2e4579b9" d="M278,112.77a2.59,2.59,0,0,0-1.89-.77,2.57,2.57,0,0,0-1.87.77,6,6,0,0,0,0,6,2.61,2.61,0,0,0,1.87.78,2.64,2.64,0,0,0,1.89-.78,6.05,6.05,0,0,0,0-6m.64,6.68a3.7,3.7,0,0,1-5,0,6.48,6.48,0,0,1,0-7.31,3.7,3.7,0,0,1,5,0,6.48,6.48,0,0,1,0,7.31"/>
      <path class="6892e4f4-1cf8-434c-8002-244b2e4579b9" d="M276.09,120.77a3.75,3.75,0,0,1-2.74-1.09,6.8,6.8,0,0,1,0-7.77,3.79,3.79,0,0,1,2.74-1.09,3.87,3.87,0,0,1,2.76,1.09,6.8,6.8,0,0,1,0,7.77A3.8,3.8,0,0,1,276.09,120.77Zm0-9.3a3.19,3.19,0,0,0-2.29.9,6.21,6.21,0,0,0,0,6.85,3.14,3.14,0,0,0,2.29.9,3.1,3.1,0,0,0,2.3-.9h0a6.16,6.16,0,0,0,0-6.85A3.18,3.18,0,0,0,276.09,111.47Zm0,8.46a3,3,0,0,1-2.1-.88,6.28,6.28,0,0,1,0-6.51,3,3,0,0,1,4.21,0,4.45,4.45,0,0,1,.91,3.26,4.4,4.4,0,0,1-.91,3.25A2.94,2.94,0,0,1,276.09,119.93Zm0-7.61a2.21,2.21,0,0,0-1.64.68,3.92,3.92,0,0,0-.72,2.8,4,4,0,0,0,.71,2.8,2.35,2.35,0,0,0,3.31,0,5.8,5.8,0,0,0,0-5.6h0A2.26,2.26,0,0,0,276.09,112.32Z"/>
      <path class="6892e4f4-1cf8-434c-8002-244b2e4579b9" d="M293.06,120.34v-5.63c0-1.76-.88-2.71-2.5-2.71a2.39,2.39,0,0,0-2.56,2.53v5.81h-1v-5.63c0-1.76-.89-2.71-2.51-2.71a2.4,2.4,0,0,0-2.55,2.71v5.63h-1v-9.08h1v1.07a3.43,3.43,0,0,1,2.69-1.18,3.09,3.09,0,0,1,2.91,1.65,3.52,3.52,0,0,1,3.09-1.65,3.12,3.12,0,0,1,3.33,3.38v5.81Z"/>
      <path class="6892e4f4-1cf8-434c-8002-244b2e4579b9" d="M294.32,120.66h-1.58v-6c0-1.59-.73-2.39-2.18-2.39a2.07,2.07,0,0,0-2.24,2.21v6.13h-1.6v-6c0-1.59-.74-2.39-2.19-2.39a2.09,2.09,0,0,0-2.23,2.39v6h-1.61v-9.72h1.61v.64a3.9,3.9,0,0,1,2.37-.76,3.45,3.45,0,0,1,2.94,1.4,3.82,3.82,0,0,1,3.06-1.4,3.43,3.43,0,0,1,3.65,3.71Zm-.93-.64h.29v-5.49a2.8,2.8,0,0,0-3-3.06,3.19,3.19,0,0,0-2.82,1.5l-.3.47-.25-.5a2.79,2.79,0,0,0-2.63-1.47,3.12,3.12,0,0,0-2.44,1.07l-.57.67v-1.62h-.32V120h.32v-5.31a2.72,2.72,0,0,1,2.87-3c1.8,0,2.83,1.11,2.83,3V120h.31v-5.49a2.72,2.72,0,0,1,2.89-2.86c1.8,0,2.83,1.11,2.83,3Z"/>
      <path class="6892e4f4-1cf8-434c-8002-244b2e4579b9" d="M307.73,120.34v-5.63c0-1.76-.89-2.71-2.5-2.71a2.39,2.39,0,0,0-2.57,2.53v5.81h-1v-5.63c0-1.76-.89-2.71-2.51-2.71a2.41,2.41,0,0,0-2.56,2.71v5.63h-1v-9.08h1v1.07a3.44,3.44,0,0,1,2.69-1.18,3.09,3.09,0,0,1,2.92,1.65,3.52,3.52,0,0,1,3.08-1.65,3.12,3.12,0,0,1,3.34,3.38v5.81Z"/>
      <path class="6892e4f4-1cf8-434c-8002-244b2e4579b9" d="M309,120.66H307.4v-6c0-1.59-.73-2.39-2.17-2.39a2.06,2.06,0,0,0-2.24,2.21v6.13h-1.61v-6c0-1.59-.73-2.39-2.18-2.39a2.09,2.09,0,0,0-2.24,2.39v6h-1.6v-9.72H297v.64a3.86,3.86,0,0,1,2.37-.76,3.47,3.47,0,0,1,2.95,1.4,3.82,3.82,0,0,1,3.05-1.4,3.44,3.44,0,0,1,3.66,3.71Zm-.94-.64h.3v-5.49a2.82,2.82,0,0,0-3-3.06,3.2,3.2,0,0,0-2.81,1.5l-.3.47-.25-.5a2.81,2.81,0,0,0-2.64-1.47,3.15,3.15,0,0,0-2.45,1.07l-.56.65v-1.6H296V120h.31v-5.31a2.72,2.72,0,0,1,2.88-3c1.8,0,2.83,1.11,2.83,3V120h.31v-5.49a2.72,2.72,0,0,1,2.89-2.86c1.79,0,2.82,1.11,2.82,3Z"/>
      <path class="6892e4f4-1cf8-434c-8002-244b2e4579b9" d="M315.35,112.77a2.68,2.68,0,0,0-3.76,0,6.12,6.12,0,0,0,0,6,2.66,2.66,0,0,0,3.76,0,6,6,0,0,0,0-6m.64,6.68a3.7,3.7,0,0,1-5,0,6.52,6.52,0,0,1,0-7.31,3.7,3.7,0,0,1,5,0,6.43,6.43,0,0,1,0,7.31"/>
      <path class="6892e4f4-1cf8-434c-8002-244b2e4579b9" d="M313.47,120.77a3.79,3.79,0,0,1-2.75-1.09,6.82,6.82,0,0,1,0-7.77,3.79,3.79,0,0,1,2.74-1.09,3.83,3.83,0,0,1,2.75,1.09,6.75,6.75,0,0,1,0,7.77A3.79,3.79,0,0,1,313.47,120.77Zm0-9.3a3.17,3.17,0,0,0-2.29.9,4.67,4.67,0,0,0-1,3.43,4.62,4.62,0,0,0,1,3.42,3.12,3.12,0,0,0,2.29.9,3.08,3.08,0,0,0,2.29-.9h0a6.18,6.18,0,0,0,0-6.85A3.17,3.17,0,0,0,313.47,111.47Zm0,8.46a3,3,0,0,1-2.1-.88,6.28,6.28,0,0,1,0-6.51,3,3,0,0,1,4.21,0,4.46,4.46,0,0,1,.91,3.26,4.37,4.37,0,0,1-.92,3.25A2.93,2.93,0,0,1,313.47,119.93Zm0-7.61a2.29,2.29,0,0,0-1.65.68,3.88,3.88,0,0,0-.71,2.8,3.84,3.84,0,0,0,.71,2.79,2.38,2.38,0,0,0,3.3,0,5.8,5.8,0,0,0,0-5.6h0A2.23,2.23,0,0,0,313.47,112.32Z"/>
      <path class="6892e4f4-1cf8-434c-8002-244b2e4579b9" d="M324.41,120.34v-5.63c0-1.76-.88-2.71-2.5-2.71a2.41,2.41,0,0,0-2.56,2.71v5.63h-1v-9.08h1v1.07a3.36,3.36,0,0,1,2.67-1.18,3.12,3.12,0,0,1,3.35,3.38v5.81Z"/>
      <path class="6892e4f4-1cf8-434c-8002-244b2e4579b9" d="M325.69,120.66h-1.6v-6c0-1.59-.73-2.39-2.18-2.39a2.09,2.09,0,0,0-2.24,2.39v6h-1.6v-9.72h1.6v.64a3.78,3.78,0,0,1,2.35-.76,3.43,3.43,0,0,1,3.67,3.71Zm-.95-.64h.3v-5.49a3.1,3.1,0,0,0-5.44-2l-.57.65v-1.6h-.32V120H319v-5.31a2.73,2.73,0,0,1,2.88-3c1.8,0,2.83,1.11,2.83,3Z"/>
      <polygon class="6892e4f4-1cf8-434c-8002-244b2e4579b9" points="336.62 120.34 335.58 120.34 332.43 108.66 329.26 120.34 328.23 120.34 324.87 106.93 325.94 106.93 328.77 118.59 331.89 106.93 332.95 106.93 336.07 118.59 338.89 106.93 339.97 106.93 336.62 120.34"/>
      <path class="6892e4f4-1cf8-434c-8002-244b2e4579b9" d="M336.87,120.66h-1.53l-.07-.24-2.84-10.52-2.92,10.76H328l-3.52-14h1.74l2.58,10.67,2.87-10.67h1.55l.07.24,2.79,10.43,2.58-10.67h1.74Zm-1-.64h.54l3.19-12.76h-.41l-2.76,11.4h-.63l-3.05-11.41h-.57l-3.06,11.41h-.62l-2.77-11.4h-.4L328.48,120H329l3.42-12.59Z"/>
      <path class="6892e4f4-1cf8-434c-8002-244b2e4579b9" d="M345,113.52a2.58,2.58,0,0,0-4.7,0,4,4,0,0,0-.32,1.71h5.34a4.2,4.2,0,0,0-.32-1.71M340,116c0,2.3,1,3.58,3,3.58a3.17,3.17,0,0,0,2.5-1.08l.72.55a4.12,4.12,0,0,1-3.27,1.39c-2.52,0-3.86-1.62-3.86-4.64s1.34-4.65,3.63-4.65,3.64,1.65,3.64,4.43V116Z"/>
      <path class="6892e4f4-1cf8-434c-8002-244b2e4579b9" d="M342.92,120.77c-2.7,0-4.19-1.77-4.19-5s1.48-5,4-5,4,1.83,4,4.76v.75h-6.3c.07,1.4.61,2.93,2.62,2.93a2.87,2.87,0,0,0,2.28-1l.2-.2,1.22,1-.25.26A4.41,4.41,0,0,1,342.92,120.77Zm-.23-9.3c-2.11,0-3.31,1.58-3.31,4.33,0,2,.61,4.32,3.54,4.32a3.72,3.72,0,0,0,2.78-1l-.2-.16a3.39,3.39,0,0,1-2.53,1c-2.08,0-3.27-1.42-3.27-3.9v-.32H346v-.1C346,113,344.76,111.47,342.69,111.47Zm3,4.08h-6v-.33a4.28,4.28,0,0,1,.34-1.82,2.89,2.89,0,0,1,5.3,0h0a4.59,4.59,0,0,1,.35,1.8Zm-5.34-.64H345a3.39,3.39,0,0,0-.28-1.26,2.24,2.24,0,0,0-4.1,0A3.08,3.08,0,0,0,340.36,114.91Z"/>
      <path class="6892e4f4-1cf8-434c-8002-244b2e4579b9" d="M353.63,116H350.8c-1.56,0-2.31.62-2.31,1.82s.73,1.77,2.37,1.77a3,3,0,0,0,2.25-.69,2.29,2.29,0,0,0,.52-1.74Zm0,4.33v-.91a4.53,4.53,0,0,1-5.45.19,2.65,2.65,0,0,1-.66-1.78c0-1.65,1.19-2.61,3.17-2.61h2.94v-1c0-1.44-.72-2.21-2.57-2.21a2.58,2.58,0,0,0-2.5,1.14l-.7-.6a3.45,3.45,0,0,1,3.2-1.39c2.4,0,3.52,1.07,3.52,3v6.22Z"/>
      <path class="6892e4f4-1cf8-434c-8002-244b2e4579b9" d="M350.86,120.77a3.65,3.65,0,0,1-2.91-.93,2.93,2.93,0,0,1-.75-2c0-1.82,1.34-2.94,3.49-2.94h2.61v-.7c0-1.32-.67-1.89-2.24-1.89a2.27,2.27,0,0,0-2.23,1l-.2.3-1.2-1,.17-.24a3.76,3.76,0,0,1,3.46-1.53c3.18,0,3.85,1.8,3.85,3.3v6.54H353.3v-.53A3.9,3.9,0,0,1,350.86,120.77Zm-.17-5.22c-1.81,0-2.84.84-2.84,2.3a2.29,2.29,0,0,0,.57,1.55,4.22,4.22,0,0,0,5-.19l.55-.55V120h.31v-5.9c0-1.78-1-2.65-3.2-2.65a3.15,3.15,0,0,0-2.75,1l.2.17a2.94,2.94,0,0,1,2.55-1c1.94,0,2.89.84,2.89,2.54v1.34Zm.17,4.37c-1.81,0-2.7-.68-2.7-2.09,0-1,.46-2.15,2.64-2.15H354v1.49a2.54,2.54,0,0,1-.62,2A3.29,3.29,0,0,1,350.86,119.92Zm-.06-3.59c-1.79,0-2,.85-2,1.5s.25,1.45,2.05,1.45a2.62,2.62,0,0,0,2-.61,2,2,0,0,0,.41-1.5v-.84Z"/>
      <path class="6892e4f4-1cf8-434c-8002-244b2e4579b9" d="M358.44,120.34a2.08,2.08,0,0,1-2.18-2.36v-11h1v11c0,1,.32,1.53,1.39,1.53h.67v.85Z"/>
      <path class="6892e4f4-1cf8-434c-8002-244b2e4579b9" d="M359.6,120.66h-1.16a2.39,2.39,0,0,1-2.5-2.68V106.61h1.6V118c0,.92.25,1.2,1.07,1.2h1Zm-3-13.4V118c0,.93.32,2,1.85,2H359v-.21h-.34c-1.52,0-1.71-1-1.71-1.85v-10.7Z"/>
      <path class="6892e4f4-1cf8-434c-8002-244b2e4579b9" d="M362.26,120.34a2.13,2.13,0,0,1-2.19-2.38v-6h-1.25v-.72h1.25v-2.89h1v2.89h2.05V112H361v6c0,1,.43,1.51,1.39,1.51h.66v.85Z"/>
      <path class="6892e4f4-1cf8-434c-8002-244b2e4579b9" d="M363.41,120.66h-1.15a2.44,2.44,0,0,1-2.51-2.7V112.3H358.5v-1.36h1.25V108h1.6v2.9h2.06v1.36h-2.06V118c0,.82.33,1.18,1.07,1.18h1Zm-4.26-9h1.24V118a1.81,1.81,0,0,0,1.87,2.06h.5v-.21h-.34a1.6,1.6,0,0,1-1.71-1.83v-6.32h2.05v-.07h-2.05v-2.9h-.32v2.9h-1.24Z"/>
      <path class="6892e4f4-1cf8-434c-8002-244b2e4579b9" d="M370.12,120.34v-5.63c0-1.76-.88-2.71-2.5-2.71a2.41,2.41,0,0,0-2.56,2.71v5.63h-1V106.93h1v5.4a3.38,3.38,0,0,1,2.67-1.18,3.13,3.13,0,0,1,3.36,3.38v5.81Z"/>
      <path class="6892e4f4-1cf8-434c-8002-244b2e4579b9" d="M371.41,120.66H369.8v-6c0-1.59-.73-2.39-2.18-2.39a2.09,2.09,0,0,0-2.24,2.39v6h-1.6v-14h1.6v5a3.82,3.82,0,0,1,2.35-.76,3.46,3.46,0,0,1,3.68,3.71Zm-1-.64h.33v-5.49a2.8,2.8,0,0,0-3-3.06,3.09,3.09,0,0,0-2.43,1.07l-.56.65v-5.93h-.31V120h.31v-5.31a2.72,2.72,0,0,1,2.88-3c1.79,0,2.82,1.11,2.82,3Z"/>
      <polygon class="6892e4f4-1cf8-434c-8002-244b2e4579b9" points="379.59 120.34 379.59 106.93 387.73 106.93 387.73 107.84 380.62 107.84 380.62 113.12 386.68 113.12 386.68 114.03 380.62 114.03 380.62 119.43 387.73 119.43 387.73 120.34 379.59 120.34"/>
      <path class="6892e4f4-1cf8-434c-8002-244b2e4579b9" d="M388.05,120.66h-8.78v-14h8.78v1.55h-7.11v4.64H387v1.56h-6.06v4.75h7.11Zm-8.13-.64h7.48v-.26h-7.11v-6.05h6.06v-.27h-6.06v-5.93h7.11v-.25h-7.48Z"/>
      <path class="6892e4f4-1cf8-434c-8002-244b2e4579b9" d="M392.21,120.44c-2.46,0-4-1.77-4-4.64s1.53-4.65,4-4.65a3.57,3.57,0,0,1,3,1.39l-.67.6a2.75,2.75,0,0,0-2.33-1.14,2.84,2.84,0,0,0-2.41,1.2,5.74,5.74,0,0,0,0,5.19,2.83,2.83,0,0,0,2.41,1.21,2.8,2.8,0,0,0,2.33-1.14l.67.59a3.54,3.54,0,0,1-3,1.39"/>
      <path class="6892e4f4-1cf8-434c-8002-244b2e4579b9" d="M392.21,120.77c-2.66,0-4.31-1.91-4.31-5s1.65-5,4.31-5a3.89,3.89,0,0,1,3.23,1.5l.22.24-1.15,1-.21-.25a2.45,2.45,0,0,0-2.09-1,2.53,2.53,0,0,0-2.15,1.07,5.42,5.42,0,0,0,0,4.82,2.48,2.48,0,0,0,2.14,1.07,2.45,2.45,0,0,0,2.09-1l.21-.24,1.15,1-.22.24A3.85,3.85,0,0,1,392.21,120.77Zm0-9.3c-2.29,0-3.67,1.62-3.67,4.33s1.38,4.32,3.67,4.32a3.09,3.09,0,0,0,2.53-1.05l-.18-.16a3,3,0,0,1-2.35,1,3.09,3.09,0,0,1-2.67-1.35,4.41,4.41,0,0,1-.68-2.77,4.51,4.51,0,0,1,.68-2.78,3.15,3.15,0,0,1,2.67-1.35,2.94,2.94,0,0,1,2.35,1l.18-.17A3.11,3.11,0,0,0,392.21,111.47Z"/>
      <path class="6892e4f4-1cf8-434c-8002-244b2e4579b9" d="M401.18,112.77a2.69,2.69,0,0,0-3.77,0,6.05,6.05,0,0,0,0,6,2.67,2.67,0,0,0,3.77,0,6.05,6.05,0,0,0,0-6m.63,6.68a3.7,3.7,0,0,1-5,0,6.48,6.48,0,0,1,0-7.31,3.7,3.7,0,0,1,5,0,6.48,6.48,0,0,1,0,7.31"/>
      <path class="6892e4f4-1cf8-434c-8002-244b2e4579b9" d="M399.29,120.77a3.76,3.76,0,0,1-2.75-1.09,6.8,6.8,0,0,1,0-7.77,4,4,0,0,1,5.5,0,6.77,6.77,0,0,1,0,7.77h0A3.8,3.8,0,0,1,399.29,120.77Zm0-9.3a3.15,3.15,0,0,0-2.29.9,6.16,6.16,0,0,0,0,6.85,3.38,3.38,0,0,0,4.58,0h0a6.21,6.21,0,0,0,0-6.85A3.18,3.18,0,0,0,399.29,111.47Zm0,8.46a3,3,0,0,1-2.11-.88,6.34,6.34,0,0,1,0-6.51,2.92,2.92,0,0,1,2.11-.87,3,3,0,0,1,2.12.87,4.5,4.5,0,0,1,.9,3.26,4.42,4.42,0,0,1-.91,3.25A3,3,0,0,1,399.29,119.93Zm0-7.61a2.28,2.28,0,0,0-1.65.68,5.8,5.8,0,0,0,0,5.6,2.4,2.4,0,0,0,3.31,0,5.8,5.8,0,0,0,0-5.6h0A2.27,2.27,0,0,0,399.29,112.32Z"/>
      <path class="6892e4f4-1cf8-434c-8002-244b2e4579b9" d="M410.23,120.34v-5.63c0-1.76-.88-2.71-2.5-2.71a2.42,2.42,0,0,0-2.57,2.71v5.63h-1v-9.08h1v1.07a3.42,3.42,0,0,1,2.69-1.18,3.12,3.12,0,0,1,3.34,3.38v5.81Z"/>
      <path class="6892e4f4-1cf8-434c-8002-244b2e4579b9" d="M411.52,120.66h-1.61v-6c0-1.59-.74-2.39-2.18-2.39a2.09,2.09,0,0,0-2.24,2.39v6h-1.6v-9.72h1.6v.64a3.81,3.81,0,0,1,2.36-.76,3.45,3.45,0,0,1,3.67,3.71Zm-1-.64h.32v-5.49a2.8,2.8,0,0,0-3-3.06,3.1,3.1,0,0,0-2.44,1.07l-.57.64v-1.59h-.3V120h.3v-5.31a2.73,2.73,0,0,1,2.89-3c1.79,0,2.82,1.11,2.82,3Z"/>
      <path class="6892e4f4-1cf8-434c-8002-244b2e4579b9" d="M417.88,112.77a2.68,2.68,0,0,0-3.76,0,6.05,6.05,0,0,0,0,6,2.66,2.66,0,0,0,3.76,0,6.05,6.05,0,0,0,0-6m.64,6.68a3.7,3.7,0,0,1-5,0,6.43,6.43,0,0,1,0-7.31,3.7,3.7,0,0,1,5,0,6.48,6.48,0,0,1,0,7.31"/>
      <path class="6892e4f4-1cf8-434c-8002-244b2e4579b9" d="M416,120.77a3.76,3.76,0,0,1-2.75-1.09,6.75,6.75,0,0,1,0-7.77,4,4,0,0,1,5.5,0A5.34,5.34,0,0,1,420,115.8a5.4,5.4,0,0,1-1.23,3.88h0A3.76,3.76,0,0,1,416,120.77Zm0-9.3a3.19,3.19,0,0,0-2.3.9,6.16,6.16,0,0,0,0,6.85,3.38,3.38,0,0,0,4.59,0h0a6.16,6.16,0,0,0,0-6.85A3.15,3.15,0,0,0,416,111.47Zm0,8.46a3,3,0,0,1-2.11-.88,6.34,6.34,0,0,1,0-6.51,2.91,2.91,0,0,1,2.11-.87,3,3,0,0,1,2.11.87h0a6.34,6.34,0,0,1,0,6.51A3,3,0,0,1,416,119.93Zm0-7.61a2.29,2.29,0,0,0-1.66.68,3.93,3.93,0,0,0-.71,2.8,3.89,3.89,0,0,0,.71,2.79,2.38,2.38,0,0,0,3.31,0,5.8,5.8,0,0,0,0-5.6h0A2.25,2.25,0,0,0,416,112.32Z"/>
      <path class="6892e4f4-1cf8-434c-8002-244b2e4579b9" d="M433,120.34v-5.63c0-1.76-.88-2.71-2.5-2.71a2.39,2.39,0,0,0-2.56,2.53v5.81h-1v-5.63c0-1.76-.88-2.71-2.5-2.71a2.41,2.41,0,0,0-2.56,2.71v5.63h-1v-9.08h1v1.07a3.4,3.4,0,0,1,2.68-1.18,3.08,3.08,0,0,1,2.92,1.65,3.53,3.53,0,0,1,3.1-1.65A3.34,3.34,0,0,1,433,112a3.37,3.37,0,0,1,.94,2.51v5.81Z"/>
      <path class="6892e4f4-1cf8-434c-8002-244b2e4579b9" d="M434.22,120.66h-1.59v-6c0-1.59-.73-2.39-2.17-2.39a2.07,2.07,0,0,0-2.24,2.21v6.13h-1.6v-6c0-1.59-.73-2.39-2.18-2.39a2.09,2.09,0,0,0-2.24,2.39v6h-1.6v-9.72h1.6v.64a3.92,3.92,0,0,1,2.36-.76,3.44,3.44,0,0,1,2.95,1.4,3.86,3.86,0,0,1,3.07-1.4,3.46,3.46,0,0,1,3.64,3.71Zm-.94-.64h.3v-5.49a2.81,2.81,0,0,0-3-3.06,3.22,3.22,0,0,0-2.83,1.5l-.3.47-.26-.5a2.76,2.76,0,0,0-2.63-1.47,3.08,3.08,0,0,0-2.43,1.07l-.57.66v-1.61h-.32V120h.32v-5.31a2.73,2.73,0,0,1,2.88-3c1.8,0,2.82,1.11,2.82,3V120h.31v-5.49a2.72,2.72,0,0,1,2.89-2.86c1.79,0,2.82,1.11,2.82,3Z"/>
      <path class="6892e4f4-1cf8-434c-8002-244b2e4579b9" d="M435.58,120.34h1v-9.08h-1Zm-.11-12.23h1.19v-1.18h-1.19Z"/>
      <path class="6892e4f4-1cf8-434c-8002-244b2e4579b9" d="M436.86,120.66h-1.6v-9.72h1.6Zm-.95-.64h.31v-8.43h-.31ZM437,108.44h-1.83v-1.83H437Zm-1.19-.65h.55v-.54h-.55Z"/>
      <path class="6892e4f4-1cf8-434c-8002-244b2e4579b9" d="M441.8,120.44c-2.47,0-4-1.77-4-4.64s1.52-4.65,4-4.65a3.58,3.58,0,0,1,3,1.39l-.67.6A2.75,2.75,0,0,0,441.8,112a2.83,2.83,0,0,0-2.41,1.2,5.66,5.66,0,0,0,0,5.19,3,3,0,0,0,4.74.07l.67.59a3.55,3.55,0,0,1-3,1.39"/>
      <path class="6892e4f4-1cf8-434c-8002-244b2e4579b9" d="M441.8,120.77c-2.66,0-4.31-1.91-4.31-5s1.65-5,4.31-5a3.88,3.88,0,0,1,3.23,1.5l.22.24-1.14,1-.22-.24a2.45,2.45,0,0,0-2.09-1,2.5,2.5,0,0,0-2.15,1.07,5.38,5.38,0,0,0,0,4.82,2.5,2.5,0,0,0,2.15,1.07,2.47,2.47,0,0,0,2.09-1l.22-.24,1.14,1-.22.24A3.86,3.86,0,0,1,441.8,120.77Zm0-9.3c-2.3,0-3.67,1.62-3.67,4.33s1.37,4.32,3.67,4.32a3.12,3.12,0,0,0,2.53-1.05l-.18-.16a3,3,0,0,1-2.35,1,3.16,3.16,0,0,1-2.68-1.35,6,6,0,0,1,0-5.55,3.17,3.17,0,0,1,2.68-1.35,3,3,0,0,1,2.35,1l.18-.16A3.1,3.1,0,0,0,441.8,111.47Z"/>
      <polygon class="6892e4f4-1cf8-434c-8002-244b2e4579b9" points="452.88 107.84 452.88 113.35 458.93 113.35 458.93 114.25 452.88 114.25 452.88 120.34 451.86 120.34 451.86 106.93 459.99 106.93 459.99 107.84 452.88 107.84"/>
      <path class="6892e4f4-1cf8-434c-8002-244b2e4579b9" d="M453.2,120.66h-1.67v-14h8.78v1.55H453.2V113h6.05v1.54H453.2Zm-1-.64h.37v-6.09h6.06v-.26h-6.06v-6.16h7.11v-.26h-7.48Z"/>
      <path class="6892e4f4-1cf8-434c-8002-244b2e4579b9" d="M465.61,112.77a2.7,2.7,0,0,0-3.78,0,6.12,6.12,0,0,0,0,6,2.68,2.68,0,0,0,3.78,0,6.12,6.12,0,0,0,0-6m.63,6.68a3.7,3.7,0,0,1-5,0,6.48,6.48,0,0,1,0-7.31,3.7,3.7,0,0,1,5,0,6.48,6.48,0,0,1,0,7.31"/>
      <path class="6892e4f4-1cf8-434c-8002-244b2e4579b9" d="M463.72,120.77a3.73,3.73,0,0,1-2.75-1.09,6.75,6.75,0,0,1,0-7.77,4,4,0,0,1,5.5,0,6.75,6.75,0,0,1,0,7.77A3.76,3.76,0,0,1,463.72,120.77Zm0-9.3a3.12,3.12,0,0,0-2.29.9,4.74,4.74,0,0,0-1,3.43,4.69,4.69,0,0,0,1,3.42,3.09,3.09,0,0,0,2.29.9,3.15,3.15,0,0,0,2.29-.89h0a4.71,4.71,0,0,0,1-3.42,4.76,4.76,0,0,0-1-3.43A3.15,3.15,0,0,0,463.72,111.47Zm0,8.46a3,3,0,0,1-2.12-.88,4.49,4.49,0,0,1-.89-3.25,4.54,4.54,0,0,1,.89-3.26,3,3,0,0,1,4.23,0h0a6.34,6.34,0,0,1,0,6.51A3,3,0,0,1,463.72,119.93Zm0-7.61a2.27,2.27,0,0,0-1.66.68,5.88,5.88,0,0,0,0,5.6,2.42,2.42,0,0,0,3.32,0,5.88,5.88,0,0,0,0-5.6h0A2.29,2.29,0,0,0,463.72,112.32Z"/>
      <path class="6892e4f4-1cf8-434c-8002-244b2e4579b9" d="M473.74,112.72A2.05,2.05,0,0,0,472,112a2.5,2.5,0,0,0-2.43,2.75v5.59h-1v-9.08h1v1.21a3.1,3.1,0,0,1,2.66-1.32,2.81,2.81,0,0,1,2.18.86Z"/>
      <path class="6892e4f4-1cf8-434c-8002-244b2e4579b9" d="M469.92,120.66h-1.61v-9.72h1.61v.68a3.59,3.59,0,0,1,2.33-.8,3.12,3.12,0,0,1,2.41,1l.22.22-1.14,1.17-.23-.24a1.73,1.73,0,0,0-1.49-.62,2.17,2.17,0,0,0-2.1,2.43Zm-1-.64h.31v-5.27a2.8,2.8,0,0,1,2.75-3.08,2.3,2.3,0,0,1,1.71.6L474,112a2.51,2.51,0,0,0-1.72-.56,2.82,2.82,0,0,0-2.38,1.16l-.6,1v-2H469Z"/>
      <path class="6892e4f4-1cf8-434c-8002-244b2e4579b9" d="M481.12,120.34v-1.08a3.36,3.36,0,0,1-2.67,1.18,3.29,3.29,0,0,1-2.41-.86,3.39,3.39,0,0,1-1-2.52v-5.8h1v5.63c0,1.75.89,2.71,2.5,2.71a2.41,2.41,0,0,0,2.57-2.71v-5.63h.95v9.08Z"/>
      <path class="6892e4f4-1cf8-434c-8002-244b2e4579b9" d="M478.45,120.77a3.64,3.64,0,0,1-2.64-1,3.72,3.72,0,0,1-1-2.75v-6.12h1.61v6c0,1.59.73,2.39,2.18,2.39a2.09,2.09,0,0,0,2.24-2.39v-6h1.6v9.72h-1.6V120A3.78,3.78,0,0,1,478.45,120.77Zm-3-9.18v5.47a3.12,3.12,0,0,0,.85,2.29,3,3,0,0,0,2.19.77,3.06,3.06,0,0,0,2.42-1.07l.57-.65V120h.31v-8.43h-.31v5.3a2.72,2.72,0,0,1-2.88,3c-1.8,0-2.83-1.1-2.83-3v-5.3Z"/>
      <path class="6892e4f4-1cf8-434c-8002-244b2e4579b9" d="M495.92,120.34v-5.63c0-1.76-.89-2.71-2.51-2.71a2.38,2.38,0,0,0-2.55,2.53v5.81h-1v-5.63c0-1.76-.88-2.71-2.5-2.71a2.41,2.41,0,0,0-2.56,2.71v5.63h-1v-9.08h1v1.07a3.44,3.44,0,0,1,2.69-1.18,3.1,3.1,0,0,1,2.92,1.65,3.5,3.5,0,0,1,3.08-1.65,3.12,3.12,0,0,1,3.34,3.38v5.81Z"/>
      <path class="6892e4f4-1cf8-434c-8002-244b2e4579b9" d="M497.18,120.66h-1.59v-6c0-1.59-.73-2.39-2.18-2.39a2.06,2.06,0,0,0-2.23,2.21v6.13h-1.61v-6c0-1.59-.74-2.39-2.18-2.39a2.09,2.09,0,0,0-2.24,2.39v6h-1.6v-9.72h1.6v.65a3.87,3.87,0,0,1,2.37-.77,3.46,3.46,0,0,1,2.94,1.4,3.85,3.85,0,0,1,3.06-1.4,3.67,3.67,0,0,1,2.62,1,3.72,3.72,0,0,1,1,2.75Zm-.94-.64h.29v-5.49a2.8,2.8,0,0,0-3-3.06,3.19,3.19,0,0,0-2.81,1.5l-.3.47-.25-.49a2.81,2.81,0,0,0-2.64-1.48,3.14,3.14,0,0,0-2.45,1.07l-.57.65v-1.6h-.31V120h.31v-5.31a2.73,2.73,0,0,1,2.89-3c1.79,0,2.82,1.11,2.82,3V120h.32v-5.49a2.72,2.72,0,0,1,2.88-2.86c1.8,0,2.83,1.11,2.83,3Z"/>
    </g>
    <path class="42f27744-6ae5-4403-ac78-852801832394" d="M438.39,49l-.08.3A28.84,28.84,0,0,1,436,55.81a19.91,19.91,0,0,1-3.8,5.23A16.43,16.43,0,0,1,427,64.51a17.06,17.06,0,0,1-6.6,1.23h-13V39.59h5.07a10.11,10.11,0,0,1,4.59.94,9.29,9.29,0,0,1,3.1,2.53,13.3,13.3,0,0,1,2,3.77,46.91,46.91,0,0,1,1.34,4.52l.07.3h1.75V25.54h-1.76l-.06.3A29.4,29.4,0,0,1,422,30.79a13.19,13.19,0,0,1-2.21,3.72,9,9,0,0,1-3.32,2.34,13.29,13.29,0,0,1-4.94.82h-4.18V10.79H422a13.76,13.76,0,0,1,6.58,1.46A15.8,15.8,0,0,1,433,15.71a17.43,17.43,0,0,1,2.67,4.1A28.56,28.56,0,0,1,437,23.3l.08.28h1.74V8.88H387.31v1.91h7.49v55h-8.32v1.92h53.66V49Z"/>
    <rect class="5681b7b2-4616-43fe-8cd7-eda401fb1ef5" x="2.86" y="7.55" width="237.04" height="88.86"/>
    <path class="6892e4f4-1cf8-434c-8002-244b2e4579b9" d="M62.82,21.47a4,4,0,0,1-1.42,4.24c-3.48,1.71-7.26,2.84-10.61,4.72-6.67,1.3-12.92,3.6-19.4,5.19a6.65,6.65,0,0,1-6.56-2.36c.36-1.53-1.82-2.65-.22-4,3-.29,5.3-1.06,8.49-.94,3.24-2.65,6.9-3,11-3.54.65-.94,1.77-.83,2.54-1.42,1.77-1.41,4.13-1.94,5.54-3.71,2-1.65,4.66-1.36,7.2-1,1.18.82,2.88,1.24,3.42,2.83"/>
    <path class="6892e4f4-1cf8-434c-8002-244b2e4579b9" d="M111.18,44a5.12,5.12,0,0,0-.13-3.94c-.11-.77.36-1.37-.41-1.72-1.41-1-2.71.59-4.12.82-1.89,1-3.25,3.31-5.49,3.84-1.72,2.18-4.25,3-6.37,4.42a14,14,0,0,1-8.38-.47c-.64-1.12-2-.53-2.82-1.23-2-1.31-4.66-1.31-6.07-3.54-.89-1.6-3.49-1.6-3-3.84a6.1,6.1,0,0,1,3.3-1.41c4.06-.77,8.49-.18,12.44-1.54,2.24-.58,4.6-1.12,6.78-1.89.82-.88,2.59-.34,3.25-1.65a24,24,0,0,1,4.42-.7c1.24-1,3.07-.41,4.24-1.6,2.42,0,4.25-1.59,6.78-1.4,1.89-1.89,4.84-1.13,7.08-2.13,3.3-1,6.9-3.54,10.62-1.54h1.53c2.53.65,5.83.65,7.08,3.25.17,1.71-1,3.18-1.72,4.65-2.42,1.42-6.42,2.3-8.9.3-2.95-1.89-6.55-.77-9.61.12-.82.94-2.24.94-2.71,2.29.11,1.42-.24,3,.29,4.25,1.12,2.36-.36,4.72.71,7.08.47,3.18,1.41,7.67,1.3,11.33A105.65,105.65,0,0,0,122.5,74c.34,1.83,1,3.83,1.29,6,1.12,1.29.12,3,.83,4.48-1.24,3.13-.06,7.6-3.66,9.2-1.83,2-5.37,1.64-7.66.89-1.6-.54-2-2.25-3.07-3.13,0-2.07-1.48-4-.71-6.37,1.18-13.56,2.36-26.42,1.66-39.93"/>
    <path class="6892e4f4-1cf8-434c-8002-244b2e4579b9" d="M45.25,37.5a15.72,15.72,0,0,1,2.41,4.37c1.24,1.35,2.66-.18,4-.29,2.12-2.19,4.84-5,8.61-4.66,1.53.58,3.48.53,4.25,2.12a3.54,3.54,0,0,1,.18,3.24c-1.36,2.78-4.72,3.78-7.08,5.55-1.89,1-4.42,1.71-5.37,3.83-.06,3.36,2.65,6.08,4.78,8,3.24,3.36,6.25,8.5,10.61,10.5C70,71.53,71.84,74.24,74.84,75c.66.64,1.89.87,2.55,1.64,1.35.18,1.94,2.13,3.53,1.6,2.77,1.89,5.6,3.77,8.91,4.36.82.59,1.94,1.06,2.41,1.83,1.06.24,1.54,1.35,2.12,2.12.3.89-.47,1.65-.7,2.42-1.65,1.6-4.25,1-6.08,2-5.83.17-12.38,1.71-18.16.53l-6.48-5c-4.14-5.07-7.26-10.68-11.33-15.8-.47-1.18-2.18-1.65-2.71-3-2-1.3-2.71-3.71-5.37-4a9.22,9.22,0,0,0-1.41,5.08c-.65,1.41-.42,3.48-1.24,5-.88,1-.53,2.48-1.42,3.42-.06,1.18-.94,1.54-1,2.72-2,4.6-5.72,8.37-9.49,11.56-3.31.65-6.25,3.12-9.79,1.18a5.69,5.69,0,0,1-4.78-3.54c.47-1.07-.88-1.42-.88-2.3.64-1.42-1.3-2.77.59-3.66a2.52,2.52,0,0,1,1.53-1.83c1.7-.3,3.48-.35,4.84,1.13.64.17,1.06-.36,1.53-.59.11-.89,1.48-1,1.41-2a11.48,11.48,0,0,0,3.43-5.13c2.12-2.25,2.35-5.43,1.53-8.5-2.19-.17-4.48.94-6.79.18-1.53-1.12-3.76-1.71-4.54-3.41A7.45,7.45,0,0,1,14.93,59c.65-1.76,3.13-1.23,4.55-1.53,1.29-.53,2.82-.65,4.12-1.29,3.31-.65,5.25-3.6,8.61-4.08,2-1.23,4.77-3,4.42-5.83-1-2.3.59-4.31.24-6.78A4.47,4.47,0,0,1,39.29,37c1.24-.35,2.65.18,4-.41.46.77,1.41.41,2,.88"/>
    <path class="6892e4f4-1cf8-434c-8002-244b2e4579b9" d="M148.26,54.32c2.71,3,5.67,6.54,3.84,10.9-.18,1.48-2.31,1-2.42,2.54a18.15,18.15,0,0,1-8.9-.53c-.06-1.06-.84-1.42-1.72-2-3.41-3.12-6.07-7.43-4.53-11.73,3.41-2.77,8.14-.24,12,0a3.35,3.35,0,0,0,1.71.83"/>
    <path class="6892e4f4-1cf8-434c-8002-244b2e4579b9" d="M195,67.11c-.14.2-.18.46-.43.57l-5.08.06-.18.15c-.16,1.44-.06,3-.08,4.49l.21.18,4.42,0c.11.13.36.18.38.39s-.09.3-.13.46l-.38.18-4.22,0c-.08.07-.2.08-.28.21v4.49c0,.28.32.25.5.3l4.21,0c.13.12.36.17.39.38s0,.45-.26.51c-1.59.13-3.14-.06-4.68.18l-.16.22.08,4.31a2.38,2.38,0,0,0,1.2.18,19.47,19.47,0,0,1,4.31.12.44.44,0,0,1,.09.6l-.24.16c-4.3.09-8.53,0-12.8,0a2.32,2.32,0,0,1-1.91-1,32.6,32.6,0,0,1-.21-4.08V69.59l0,0c-.69.61-1.14,1.62-2,2.08a1.09,1.09,0,0,1-.81-.21.73.73,0,0,1-.12-.69,25.18,25.18,0,0,0,3.91-8.32c.35-.62,1.09-.6,1.73-.51a1.21,1.21,0,0,1,.93.82l0,.51a23.32,23.32,0,0,0-1.7,3.34l.07.09,4.73,0a9,9,0,0,1,1.35-2.52c.57-.76.8-2.1,2-2.15a1.93,1.93,0,0,1,1.57.67,1.29,1.29,0,0,1-.46,1.24,20.75,20.75,0,0,0-2.45,2.7l.12.09,6.16.08"/>
    <path class="6892e4f4-1cf8-434c-8002-244b2e4579b9" d="M199.4,67.33c.16-.18.3-.5.59-.55,4.38-.11,7.41-.16,11.85-.14.48-.34,1.16-.19,1.73-.28l5.79-.06c.48-.3.13-1,.3-1.49.19-.93-.55-2.6.79-2.87.66-.1,1.58-.17,1.91.6v3.55l.13.18c2.55.1,5,0,7.39.12.11.09.29.15.34.31s0,.56-.3.63c-2.3.16-4.83,0-7.22.12-.06.09-.19,0-.24.09l-.13.21c-.09,1.65,0,3-.05,4.71l.18.21,6.06.09c.17.18.48.4.3.72l-.3.31-6.1.07-9.13,0c-.21-.16-.51-.32-.39-.67a.71.71,0,0,1,.6-.39l5.68,0c.63-.22.19-1.09.39-1.53V67.7l-.26-.21c-2.39,0-4.64,0-7,0a.61.61,0,0,0-.37-.12,1.14,1.14,0,0,1-.73.42l-10.79.09a4.57,4.57,0,0,1-.68-.14"/>
    <path class="6892e4f4-1cf8-434c-8002-244b2e4579b9" d="M172.82,62.44a23.82,23.82,0,0,1,.09,2.94l.28.21c1.57.17,3.17-.18,4.67.12.22.18.19.35.14.6a.54.54,0,0,1-.51.31l-9.52.07-3.82,0c-.21-.05-.3-.22-.43-.39,0-.23.06-.53.34-.58,1.79-.11,3.86,0,5.73-.09a.5.5,0,0,0,.36-.33c.27-1.12-.73-3.17,1-3.4.59.07,1.32-.06,1.66.58"/>
    <path class="6892e4f4-1cf8-434c-8002-244b2e4579b9" d="M210.74,63.17c.12,0,.29.11.34.25s.06.61-.27.72l-.88.09-8.71,0a.86.86,0,0,1-.42-.38.52.52,0,0,1,.21-.55c1.08-.36,2.32,0,3.43-.13,2,0,4.24,0,6.3.05"/>
    <path class="6892e4f4-1cf8-434c-8002-244b2e4579b9" d="M169.67,67.11a.89.89,0,0,1,.33,1c-.12.87-1.53,1.64-.58,2.55.36.85,1.38,1.59,1.65,2.41.07.1-.07.26-.07.38a.92.92,0,0,1-1,.3c-.71-.58-1.24-1.34-1.95-1.9a.83.83,0,0,0-.56.51c-.8,1-1.53,2.29-2.67,2.79a1,1,0,0,1-.76-.46l0-.42c1.72-2.16,2.62-4.66,3.82-7a1.45,1.45,0,0,1,1.79-.14"/>
    <path class="6892e4f4-1cf8-434c-8002-244b2e4579b9" d="M176.55,68c.07.9-.69,1.58-1,2.37a15.4,15.4,0,0,0,1.69,3.49c.13.21,0,.41-.12.6a1.18,1.18,0,0,1-1,.21,25,25,0,0,1-1.82-2.09c-.8.45-.92,2.14-2.22,1.49a.67.67,0,0,1-.25-.82,18.19,18.19,0,0,0,2.25-5.42,1.32,1.32,0,0,1,.89-.59c.6.06,1.29.13,1.57.76"/>
    <path class="5681b7b2-4616-43fe-8cd7-eda401fb1ef5" d="M186.71,68.13c0,1.49,0,3.1-.06,4.28a18.83,18.83,0,0,1-4,.1l-.08-.1V68.1c0-.46.52-.21.79-.3,1.07,0,2.23,0,3.24,0Z"/>
    <path class="6892e4f4-1cf8-434c-8002-244b2e4579b9" d="M210.65,70.45c.18.11.46.23.46.49s-.16.51-.42.58l-.51,0h-8.92a1.27,1.27,0,0,1-.46-.33.64.64,0,0,1,.42-.79l.22,0Z"/>
    <path class="6892e4f4-1cf8-434c-8002-244b2e4579b9" d="M210.53,74.07a.72.72,0,0,1,.42.35.53.53,0,0,1-.08.5.73.73,0,0,1-.69.21l-9.08,0a.55.55,0,0,1-.26-.73c.14-.25.44-.25.68-.3,3-.06,5.93-.06,9,0"/>
    <path class="5681b7b2-4616-43fe-8cd7-eda401fb1ef5" d="M186.62,73.78l-.06,4.76a37.55,37.55,0,0,1-4,0l-.09-.13,0-4.58c.09-.13.23-.13.35-.17a24.28,24.28,0,0,1,3.74.12"/>
    <path class="6892e4f4-1cf8-434c-8002-244b2e4579b9" d="M172.55,74.5c.69.73.1,1.51.36,2.43.11.18.33.09.49.15h4.46c.18.09.44.16.48.4a.65.65,0,0,1-.42.63l-4.21.09c-.31.11,0,.34,0,.51A18.31,18.31,0,0,0,178,82.4c.18.38-.1.67-.39.85h-.72a38.13,38.13,0,0,1-4.2-3l-.14.08a33.28,33.28,0,0,1,.18,5.68c-.34.68-1.13.7-1.79.64a1.11,1.11,0,0,1-.84-.64l-.1-.54a27.79,27.79,0,0,1,.4-5.52c-.4-.32-.41.33-.73.51,0,.21-.27.2-.3.39a27,27,0,0,1-2.55,2.59c0,.26-.35.26-.46.41-.62.54-1.4,1.62-2.42,1.07a.58.58,0,0,1-.16-.55c.12-.32.51-.54.8-.76a20.72,20.72,0,0,0,4.2-5.15c0-.09,0-.19-.08-.25-1.63-.11-3.23,0-4.85-.12-.18-.16-.37-.48-.16-.73l.37-.2,5.66-.07c.16,0,.3-.15.38-.28.16-.88-.42-2.12.63-2.54.58-.11,1.38-.21,1.82.24"/>
    <path class="6892e4f4-1cf8-434c-8002-244b2e4579b9" d="M218.51,75.13c.58.53.11,1.37.24,2.09,0,2.6,0,4.76.06,7.18.13.31.45.36.71.46h3.78a2.93,2.93,0,0,0,1.88-2.42,1.48,1.48,0,0,1,1.1-.73,1.67,1.67,0,0,1,1.57.7,3.29,3.29,0,0,1-1.45,3c-2.35,1-5.48.41-8.11.51a2.28,2.28,0,0,1-2-1.2l-.08-.46c0-2.74.08-5.92.12-8.71.11-.41.55-.55.9-.67a1.84,1.84,0,0,1,1.28.28"/>
    <path class="6892e4f4-1cf8-434c-8002-244b2e4579b9" d="M223.05,76.7a13.43,13.43,0,0,1,1.85,3,1,1,0,0,1-.2.84,1.94,1.94,0,0,1-1.52.45c-1.54-.23-1.05-2-1.76-3-.22-.93-1.27-1.56-1.09-2.59.25-.43.84-.41,1.27-.33a8.78,8.78,0,0,1,1.45,1.6"/>
    <path class="6892e4f4-1cf8-434c-8002-244b2e4579b9" d="M228.52,77.65c.82,1,1.62,1.92,2.34,2.93a1.2,1.2,0,0,1-.22,1.1,2.09,2.09,0,0,1-1.82.42c-.81-.43-.85-1.41-1.18-2.16A22.47,22.47,0,0,0,225.76,77a.74.74,0,0,1,.18-.75,1.31,1.31,0,0,1,1-.13c.65.28,1.06,1.08,1.57,1.53"/>
    <path class="6892e4f4-1cf8-434c-8002-244b2e4579b9" d="M214.26,77.09a16,16,0,0,1-.42,3.83c-.39,1.11-.12,2.78-1.54,3.21a4,4,0,0,1-1.49-.2,1.85,1.85,0,0,1-1,1.57l-1,.33a56.07,56.07,0,0,1-6.76-.08,2.25,2.25,0,0,1-1.19-.77l-.17-.45.09-5.83a2,2,0,0,1,.85-1.19,4.54,4.54,0,0,1,2.3-.29h5.17c2.6.28,1.23,3.2,1.66,4.88.19.11.3-.19.43-.39a14.2,14.2,0,0,0,1.26-4.58c.13-.43.57-.4.89-.51a1.27,1.27,0,0,1,.9.47"/>
    <path class="5681b7b2-4616-43fe-8cd7-eda401fb1ef5" d="M208.11,78.52l-.05,6.1-.22.15-4.37,0-.09-.09c0-2,0-4.18.06-6.08.05-.2.3-.13.46-.2l4.08,0Z"/>
    <path class="5681b7b2-4616-43fe-8cd7-eda401fb1ef5" d="M186.56,79.81l.09.09c-.05,1.54.13,3,0,4.41l-.09.09h-3.89l-.14-.09c0-1.52-.12-3,0-4.41,0-.12.14-.17.24-.22a26,26,0,0,1,3.82.13"/>
    <rect class="6892e4f4-1cf8-434c-8002-244b2e4579b9" x="3.37" y="44.25" width="29.37" height="1.26"/>
    <rect class="6892e4f4-1cf8-434c-8002-244b2e4579b9" x="65.17" y="44.25" width="13.27" height="1.26"/>
    <rect class="6892e4f4-1cf8-434c-8002-244b2e4579b9" x="102.33" y="44.25" width="8.55" height="1.26"/>
    <rect class="6892e4f4-1cf8-434c-8002-244b2e4579b9" x="121.49" y="44.52" width="118.04" height="1.27"/>
    <rect class="6892e4f4-1cf8-434c-8002-244b2e4579b9" x="2.5" y="67.83" width="19.92" height="1.27"/>
    <rect class="6892e4f4-1cf8-434c-8002-244b2e4579b9" x="43.06" y="67.83" width="5.01" height="1.27"/>
    <rect class="6892e4f4-1cf8-434c-8002-244b2e4579b9" x="66.94" y="67.83" width="41.58" height="1.27"/>
    <rect class="6892e4f4-1cf8-434c-8002-244b2e4579b9" x="123.55" y="67.83" width="16.81" height="1.27"/>
    <rect class="6892e4f4-1cf8-434c-8002-244b2e4579b9" x="151.56" y="67.83" width="9.74" height="1.27"/>
    <rect class="6892e4f4-1cf8-434c-8002-244b2e4579b9" x="231.77" y="67.83" width="7.77" height="1.27"/>
    <rect class="6892e4f4-1cf8-434c-8002-244b2e4579b9" x="3.37" y="77.27" width="19.35" height="1.27"/>
    <rect class="6892e4f4-1cf8-434c-8002-244b2e4579b9" x="40.7" y="77.27" width="13.27" height="1.27"/>
    <rect class="6892e4f4-1cf8-434c-8002-244b2e4579b9" x="82.57" y="77.27" width="25.36" height="1.27"/>
    <rect class="6892e4f4-1cf8-434c-8002-244b2e4579b9" x="125.03" y="77.27" width="36.27" height="1.27"/>
    <rect class="6892e4f4-1cf8-434c-8002-244b2e4579b9" x="231.77" y="77.27" width="7.77" height="1.27"/>
    <rect class="6892e4f4-1cf8-434c-8002-244b2e4579b9" x="3.37" y="82.28" width="8.44" height="1.27"/>
    <rect class="6892e4f4-1cf8-434c-8002-244b2e4579b9" x="38.35" y="82.28" width="19.16" height="1.27"/>
    <rect class="6892e4f4-1cf8-434c-8002-244b2e4579b9" x="92.89" y="82.28" width="14.15" height="1.27"/>
    <rect class="6892e4f4-1cf8-434c-8002-244b2e4579b9" x="126.5" y="82.28" width="35.09" height="1.27"/>
    <rect class="6892e4f4-1cf8-434c-8002-244b2e4579b9" x="231.17" y="82.28" width="8.36" height="1.27"/>
    <rect class="6892e4f4-1cf8-434c-8002-244b2e4579b9" x="3.37" y="90.83" width="8.73" height="1.27"/>
    <rect class="6892e4f4-1cf8-434c-8002-244b2e4579b9" x="32.15" y="90.83" width="32.73" height="1.27"/>
    <rect class="6892e4f4-1cf8-434c-8002-244b2e4579b9" x="94.66" y="90.83" width="12.97" height="1.27"/>
    <rect class="6892e4f4-1cf8-434c-8002-244b2e4579b9" x="125.91" y="90.83" width="113.62" height="1.27"/>
    <g>
      <g>
        <path class="6892e4f4-1cf8-434c-8002-244b2e4579b9" d="M14.83,105v3.51h-.35a5.79,5.79,0,0,0-.67-1.75,2.66,2.66,0,0,0-1-.84,3.42,3.42,0,0,0-1.27-.17h-1v10a4.21,4.21,0,0,0,.11,1.24,1,1,0,0,0,.43.43,1.7,1.7,0,0,0,.87.19h.43V118H5.62v-.35h.43a1.86,1.86,0,0,0,.91-.2,1,1,0,0,0,.39-.46,4,4,0,0,0,.1-1.2v-10H6.52a2.71,2.71,0,0,0-1.9.55,3.6,3.6,0,0,0-1.05,2.21H3.21V105Z"/>
        <path class="6892e4f4-1cf8-434c-8002-244b2e4579b9" d="M19.67,116.65a4.7,4.7,0,0,1-2.93,1.44,1.72,1.72,0,0,1-1.27-.51,1.67,1.67,0,0,1-.5-1.25,2.48,2.48,0,0,1,.87-1.84,17.1,17.1,0,0,1,3.83-2.17v-.89a4.51,4.51,0,0,0-.11-1.28,1,1,0,0,0-.42-.45,1.16,1.16,0,0,0-.68-.2,1.69,1.69,0,0,0-1,.28.46.46,0,0,0-.25.4.81.81,0,0,0,.27.49,1.24,1.24,0,0,1,.36.79,1.06,1.06,0,0,1-.35.8,1.27,1.27,0,0,1-.91.33,1.47,1.47,0,0,1-1-.36,1.11,1.11,0,0,1-.4-.85,2,2,0,0,1,.54-1.31,3.38,3.38,0,0,1,1.52-1,6,6,0,0,1,2-.34,3.33,3.33,0,0,1,2,.54,2.58,2.58,0,0,1,1,1.17,7.59,7.59,0,0,1,.13,1.84v3.47a3.57,3.57,0,0,0,.05.76.46.46,0,0,0,.14.24.37.37,0,0,0,.22.08q.26,0,.51-.36l.28.23a3.48,3.48,0,0,1-1,1,2.17,2.17,0,0,1-1.16.32,1.83,1.83,0,0,1-1.2-.36A1.63,1.63,0,0,1,19.67,116.65Zm0-.7v-3A5.69,5.69,0,0,0,18,114.41a1.76,1.76,0,0,0-.37,1,1.1,1.1,0,0,0,.31.78.88.88,0,0,0,.67.25A1.8,1.8,0,0,0,19.67,116Z"/>
        <path class="6892e4f4-1cf8-434c-8002-244b2e4579b9" d="M28.33,109v7.07a2.12,2.12,0,0,0,.22,1.21,1.24,1.24,0,0,0,.86.3V118H24.59v-.34a1.19,1.19,0,0,0,.88-.34,2.24,2.24,0,0,0,.19-1.17V110.9a2.05,2.05,0,0,0-.22-1.2,1.18,1.18,0,0,0-.85-.31V109ZM27,104.72a1.4,1.4,0,0,1,1.05.43,1.43,1.43,0,0,1,.43,1,1.4,1.4,0,0,1-.43,1,1.48,1.48,0,0,1-2.09,0,1.43,1.43,0,0,1-.42-1,1.46,1.46,0,0,1,.42-1A1.42,1.42,0,0,1,27,104.72Z"/>
        <path class="6892e4f4-1cf8-434c-8002-244b2e4579b9" d="M39.45,118.23,37,111.68l-2.39,6.55h-.5l-2.38-6.47a7.15,7.15,0,0,0-.9-1.93,1.36,1.36,0,0,0-.73-.44V109h4.51v.35a1,1,0,0,0-.63.14.38.38,0,0,0-.18.3,5.11,5.11,0,0,0,.31,1l1.31,3.48,1.26-3.48-.1-.23a2.74,2.74,0,0,0-.5-.91,1.35,1.35,0,0,0-.66-.28V109H40v.35a1.34,1.34,0,0,0-.68.15.4.4,0,0,0-.14.34,3.68,3.68,0,0,0,.27.93l1.26,3.48,1.15-3.21a3.78,3.78,0,0,0,.25-.93.71.71,0,0,0-.19-.55,1.23,1.23,0,0,0-.7-.21V109h2.64v.35a1.23,1.23,0,0,0-.69.31,4.34,4.34,0,0,0-.67,1.44L40,118.23Z"/>
        <path class="6892e4f4-1cf8-434c-8002-244b2e4579b9" d="M50,116.65A4.72,4.72,0,0,1,47,118.09a1.72,1.72,0,0,1-1.27-.51,1.67,1.67,0,0,1-.51-1.25,2.5,2.5,0,0,1,.88-1.84A17.1,17.1,0,0,1,50,112.32v-.89a4.51,4.51,0,0,0-.11-1.28,1.12,1.12,0,0,0-.42-.45,1.17,1.17,0,0,0-.69-.2,1.73,1.73,0,0,0-1,.28.47.47,0,0,0-.24.4.78.78,0,0,0,.26.49,1.26,1.26,0,0,1,.37.79,1.06,1.06,0,0,1-.35.8,1.29,1.29,0,0,1-.91.33,1.47,1.47,0,0,1-1-.36,1.12,1.12,0,0,1-.41-.85,2,2,0,0,1,.55-1.31,3.4,3.4,0,0,1,1.51-1,6.05,6.05,0,0,1,2-.34,3.37,3.37,0,0,1,2,.54,2.49,2.49,0,0,1,.95,1.17,7.41,7.41,0,0,1,.14,1.84v3.47a3,3,0,0,0,.05.76.46.46,0,0,0,.14.24.35.35,0,0,0,.22.08c.16,0,.33-.12.5-.36l.29.23a3.63,3.63,0,0,1-1,1,2.15,2.15,0,0,1-1.16.32,1.82,1.82,0,0,1-1.19-.36A1.59,1.59,0,0,1,50,116.65Zm0-.7v-3a5.57,5.57,0,0,0-1.72,1.45,1.76,1.76,0,0,0-.37,1,1.1,1.1,0,0,0,.31.78.87.87,0,0,0,.67.25A1.8,1.8,0,0,0,50,116Z"/>
        <path class="6892e4f4-1cf8-434c-8002-244b2e4579b9" d="M58.78,109v1.16a5.34,5.34,0,0,1,1.32-1.09,2.88,2.88,0,0,1,1.35-.34,2.11,2.11,0,0,1,1.44.49,2.35,2.35,0,0,1,.77,1.19,9.45,9.45,0,0,1,.15,2.09V116A2.74,2.74,0,0,0,64,117.3a1.14,1.14,0,0,0,.78.32V118H60.26v-.34a1,1,0,0,0,.72-.42,2.56,2.56,0,0,0,.16-1.18v-4a6.28,6.28,0,0,0-.09-1.39.82.82,0,0,0-.29-.44.71.71,0,0,0-.45-.16q-.83,0-1.53,1.17V116a2.6,2.6,0,0,0,.19,1.27,1,1,0,0,0,.69.33V118H55.15v-.34a1.14,1.14,0,0,0,.8-.36,2.83,2.83,0,0,0,.16-1.24v-5a2.45,2.45,0,0,0-.19-1.26,1.13,1.13,0,0,0-.77-.33V109Z"/>
      </g>
      <path class="6892e4f4-1cf8-434c-8002-244b2e4579b9" d="M67.18,110.3l-.51-2.82a10.27,10.27,0,0,1-.22-1.59,1.27,1.27,0,0,1,.25-.88.83.83,0,0,1,.67-.28.93.93,0,0,1,.71.28,1,1,0,0,1,.29.74,15.89,15.89,0,0,1-.25,1.74l-.52,2.81Z"/>
      <g>
        <path class="6892e4f4-1cf8-434c-8002-244b2e4579b9" d="M75.82,108.79l.15,3h-.33a4.81,4.81,0,0,0-1.2-1.85,2,2,0,0,0-1.25-.5,1,1,0,0,0-.67.26.84.84,0,0,0-.27.61.76.76,0,0,0,.19.49,9,9,0,0,0,1.7,1.34A7,7,0,0,1,76,113.81a2.55,2.55,0,0,1,.44,1.48,3.1,3.1,0,0,1-.37,1.46,2.65,2.65,0,0,1-1,1.1,3,3,0,0,1-1.5.38,5.1,5.1,0,0,1-1.7-.4,1.48,1.48,0,0,0-.39-.11c-.21,0-.39.16-.53.48h-.31l-.16-3.2h.33a4.06,4.06,0,0,0,1.18,1.88,2.26,2.26,0,0,0,1.41.63,1,1,0,0,0,.75-.28.89.89,0,0,0,.29-.68,1.16,1.16,0,0,0-.28-.79,7.59,7.59,0,0,0-1.28-1,10.33,10.33,0,0,1-1.89-1.55,2.69,2.69,0,0,1-.63-1.73,2.81,2.81,0,0,1,.71-1.86,2.54,2.54,0,0,1,2.06-.84,3,3,0,0,1,1.4.36,1,1,0,0,0,.42.14.49.49,0,0,0,.28-.07,1.7,1.7,0,0,0,.33-.41Z"/>
        <path class="6892e4f4-1cf8-434c-8002-244b2e4579b9" d="M93.67,113.42,93.18,118H81.69v-.35h.43a1.83,1.83,0,0,0,.91-.2.85.85,0,0,0,.38-.46,3.83,3.83,0,0,0,.11-1.2v-8.51a4.16,4.16,0,0,0-.11-1.24,1,1,0,0,0-.42-.44,1.79,1.79,0,0,0-.87-.18h-.43V105h6.9v.36H88a1.73,1.73,0,0,0-.91.2,1,1,0,0,0-.39.46,4,4,0,0,0-.1,1.2v8.24a4.57,4.57,0,0,0,.11,1.27.78.78,0,0,0,.45.4,4.3,4.3,0,0,0,1.15.09h1.08a3.56,3.56,0,0,0,1.72-.37,3.22,3.22,0,0,0,1.19-1.14,9.41,9.41,0,0,0,1-2.31Z"/>
        <path class="6892e4f4-1cf8-434c-8002-244b2e4579b9" d="M102.91,113.18H98A4.67,4.67,0,0,0,99,116a2,2,0,0,0,1.59.79,1.85,1.85,0,0,0,1-.32,4.13,4.13,0,0,0,1-1.15l.32.21a5.36,5.36,0,0,1-1.6,2.09,3.46,3.46,0,0,1-2,.62,3.38,3.38,0,0,1-3-1.53,5.42,5.42,0,0,1-.82-3,5,5,0,0,1,1.21-3.55,3.73,3.73,0,0,1,2.83-1.33,3.05,3.05,0,0,1,2.35,1.12A5.09,5.09,0,0,1,102.91,113.18Zm-2.34-.64a8.91,8.91,0,0,0-.17-2.11,1.7,1.7,0,0,0-.52-.86.77.77,0,0,0-.54-.18,1,1,0,0,0-.81.49,4.23,4.23,0,0,0-.56,2.33v.33Z"/>
        <path class="6892e4f4-1cf8-434c-8002-244b2e4579b9" d="M109.28,116.65a4.68,4.68,0,0,1-2.92,1.44,1.7,1.7,0,0,1-1.27-.51,1.67,1.67,0,0,1-.51-1.25,2.46,2.46,0,0,1,.88-1.84,17,17,0,0,1,3.82-2.17v-.89a4.15,4.15,0,0,0-.11-1.28,1,1,0,0,0-.41-.45,1.17,1.17,0,0,0-.69-.2,1.73,1.73,0,0,0-1,.28.49.49,0,0,0-.25.4.81.81,0,0,0,.27.49,1.24,1.24,0,0,1,.36.79,1.05,1.05,0,0,1-.34.8,1.3,1.3,0,0,1-.92.33,1.44,1.44,0,0,1-1-.36,1.12,1.12,0,0,1-.41-.85,1.93,1.93,0,0,1,.55-1.31,3.34,3.34,0,0,1,1.51-1,6.05,6.05,0,0,1,2-.34,3.32,3.32,0,0,1,2,.54,2.45,2.45,0,0,1,1,1.17,7.41,7.41,0,0,1,.14,1.84v3.47a3.87,3.87,0,0,0,0,.76.47.47,0,0,0,.15.24.33.33,0,0,0,.22.08c.16,0,.33-.12.5-.36l.29.23a3.63,3.63,0,0,1-1,1,2.17,2.17,0,0,1-1.16.32,1.8,1.8,0,0,1-1.19-.36A1.64,1.64,0,0,1,109.28,116.65Zm0-.7v-3a5.52,5.52,0,0,0-1.71,1.45,1.78,1.78,0,0,0-.38,1,1.11,1.11,0,0,0,.32.78.87.87,0,0,0,.67.25A1.78,1.78,0,0,0,109.28,116Z"/>
        <path class="6892e4f4-1cf8-434c-8002-244b2e4579b9" d="M123.12,105v10.27a8.49,8.49,0,0,0,0,1.23.75.75,0,0,0,.3.47,1.59,1.59,0,0,0,.74.19v.31l-3.76.74v-1.41a4.83,4.83,0,0,1-1.21,1.11,2.38,2.38,0,0,1-1.2.3,3.07,3.07,0,0,1-2.7-1.53,5.5,5.5,0,0,1-.8-3,6.25,6.25,0,0,1,.5-2.58,3.83,3.83,0,0,1,1.35-1.72,3.28,3.28,0,0,1,1.86-.59,2.58,2.58,0,0,1,1.14.25,4.06,4.06,0,0,1,1.06.87V107.2a4.59,4.59,0,0,0-.09-1.23.82.82,0,0,0-.34-.41,1.91,1.91,0,0,0-.86-.13V105Zm-2.67,6c-.48-.9-1-1.35-1.73-1.35a.85.85,0,0,0-.58.19,2.11,2.11,0,0,0-.58,1,8.49,8.49,0,0,0-.23,2.28,9.42,9.42,0,0,0,.25,2.5,2.42,2.42,0,0,0,.68,1.17.93.93,0,0,0,.6.18c.56,0,1.09-.43,1.59-1.31Z"/>
        <path class="6892e4f4-1cf8-434c-8002-244b2e4579b9" d="M129.11,109v7.07a2.12,2.12,0,0,0,.22,1.21,1.21,1.21,0,0,0,.85.3V118h-4.81v-.34a1.16,1.16,0,0,0,.87-.34,2.14,2.14,0,0,0,.19-1.17V110.9a2.17,2.17,0,0,0-.21-1.2,1.18,1.18,0,0,0-.85-.31V109Zm-1.34-4.32a1.47,1.47,0,0,1,1.48,1.48,1.44,1.44,0,0,1-.43,1,1.47,1.47,0,0,1-1,.43,1.44,1.44,0,0,1-1-.43,1.4,1.4,0,0,1-.43-1,1.43,1.43,0,0,1,.43-1A1.4,1.4,0,0,1,127.77,104.72Z"/>
        <path class="6892e4f4-1cf8-434c-8002-244b2e4579b9" d="M135,109v1.16a5.34,5.34,0,0,1,1.32-1.09,2.88,2.88,0,0,1,1.35-.34,2.11,2.11,0,0,1,1.44.49,2.35,2.35,0,0,1,.77,1.19,9.45,9.45,0,0,1,.15,2.09V116a2.74,2.74,0,0,0,.18,1.28,1.14,1.14,0,0,0,.78.32V118h-4.51v-.34a1,1,0,0,0,.72-.42,2.56,2.56,0,0,0,.16-1.18v-4a6.28,6.28,0,0,0-.09-1.39.82.82,0,0,0-.29-.44.71.71,0,0,0-.45-.16q-.83,0-1.53,1.17V116a2.6,2.6,0,0,0,.19,1.27,1,1,0,0,0,.69.33V118h-4.52v-.34a1.14,1.14,0,0,0,.81-.36,2.83,2.83,0,0,0,.16-1.24v-5a2.45,2.45,0,0,0-.19-1.26,1.14,1.14,0,0,0-.78-.33V109Z"/>
        <path class="6892e4f4-1cf8-434c-8002-244b2e4579b9" d="M148.29,109.15h3v1h-1.71a3.29,3.29,0,0,1,.65.84,2.78,2.78,0,0,1-.3,2.74,3.65,3.65,0,0,1-1.44,1.1,4.22,4.22,0,0,1-1.62.39l-1.15,0a1,1,0,0,0-.72.28.94.94,0,0,0-.29.68.71.71,0,0,0,.26.56,1.32,1.32,0,0,0,.86.22l1.65,0a6.09,6.09,0,0,1,2.76.44,2,2,0,0,1,1.07,1.88,2.39,2.39,0,0,1-.49,1.47,2.87,2.87,0,0,1-1.31,1,8,8,0,0,1-2.83.47,10,10,0,0,1-2.2-.23,3.19,3.19,0,0,1-1.42-.65,1.21,1.21,0,0,1-.43-.88,1.1,1.1,0,0,1,.33-.78,2.69,2.69,0,0,1,1.23-.59,1.87,1.87,0,0,1-1.24-1.7,2.05,2.05,0,0,1,.5-1.28,4,4,0,0,1,1.61-1.07,4,4,0,0,1-1.86-1.24,2.85,2.85,0,0,1-.57-1.76,3,3,0,0,1,1.07-2.27,4,4,0,0,1,2.75-1A5,5,0,0,1,148.29,109.15Zm-2.21,10.13a3.28,3.28,0,0,0-1.29.16.91.91,0,0,0-.55.8,1.11,1.11,0,0,0,.57.89,4,4,0,0,0,2.12.39,5.13,5.13,0,0,0,2.08-.35,1.1,1.1,0,0,0,.76-1,.59.59,0,0,0-.14-.4,1.39,1.39,0,0,0-.78-.4A20.79,20.79,0,0,0,146.08,119.28Zm.56-9.92a1.13,1.13,0,0,0-.94.56,4.73,4.73,0,0,0-.38,2.32,3.57,3.57,0,0,0,.38,2,1.09,1.09,0,0,0,.89.53,1.17,1.17,0,0,0,1-.53,3.8,3.8,0,0,0,.38-2,4.49,4.49,0,0,0-.43-2.33A1,1,0,0,0,146.64,109.36Z"/>
        <path class="6892e4f4-1cf8-434c-8002-244b2e4579b9" d="M166.17,113.55l3.51-8.53H175v.36h-.42a1.75,1.75,0,0,0-.92.2.9.9,0,0,0-.38.45,3.79,3.79,0,0,0-.11,1.19v8.53a4.21,4.21,0,0,0,.11,1.24.93.93,0,0,0,.43.43,1.65,1.65,0,0,0,.87.19H175V118h-6.76v-.35h.42a1.87,1.87,0,0,0,.92-.2,1,1,0,0,0,.38-.46,4,4,0,0,0,.1-1.2v-9.59l-5,11.8h-.23l-5-11.71v9.11a8.22,8.22,0,0,0,.05,1.17,1.33,1.33,0,0,0,.54.78,2.25,2.25,0,0,0,1.3.3V118h-4.42v-.35h.13a1.93,1.93,0,0,0,.8-.14,1.21,1.21,0,0,0,.56-.4,1.71,1.71,0,0,0,.3-.69c0-.07,0-.4,0-1v-8.19A4.08,4.08,0,0,0,159,106a1,1,0,0,0-.43-.43,1.75,1.75,0,0,0-.86-.18h-.41V105h5.28Z"/>
        <path class="6892e4f4-1cf8-434c-8002-244b2e4579b9" d="M181.21,116.65a4.7,4.7,0,0,1-2.93,1.44,1.73,1.73,0,0,1-1.77-1.76,2.46,2.46,0,0,1,.88-1.84,17,17,0,0,1,3.82-2.17v-.89a4.15,4.15,0,0,0-.11-1.28,1,1,0,0,0-.41-.45,1.19,1.19,0,0,0-.69-.2,1.73,1.73,0,0,0-1,.28.46.46,0,0,0-.25.4.81.81,0,0,0,.27.49,1.24,1.24,0,0,1,.36.79,1,1,0,0,1-.35.8,1.26,1.26,0,0,1-.91.33,1.44,1.44,0,0,1-1-.36,1.09,1.09,0,0,1-.41-.85,2,2,0,0,1,.54-1.31,3.43,3.43,0,0,1,1.52-1,6,6,0,0,1,2-.34,3.33,3.33,0,0,1,2,.54,2.58,2.58,0,0,1,1,1.17,7.59,7.59,0,0,1,.13,1.84v3.47a3.57,3.57,0,0,0,0,.76.46.46,0,0,0,.14.24.37.37,0,0,0,.22.08q.25,0,.51-.36l.29.23a3.63,3.63,0,0,1-1,1,2.17,2.17,0,0,1-1.16.32,1.78,1.78,0,0,1-1.19-.36A1.64,1.64,0,0,1,181.21,116.65Zm0-.7v-3a5.69,5.69,0,0,0-1.72,1.45,1.83,1.83,0,0,0-.37,1,1.11,1.11,0,0,0,.32.78.87.87,0,0,0,.67.25A1.81,1.81,0,0,0,181.21,116Z"/>
        <path class="6892e4f4-1cf8-434c-8002-244b2e4579b9" d="M192.12,109.15h3v1h-1.71a3.07,3.07,0,0,1,.65.84,2.56,2.56,0,0,1,.23,1.08,2.64,2.64,0,0,1-.53,1.66,3.51,3.51,0,0,1-1.44,1.1,4.22,4.22,0,0,1-1.62.39l-1.14,0a1,1,0,0,0-.72.28.9.9,0,0,0-.29.68.71.71,0,0,0,.26.56,1.31,1.31,0,0,0,.85.22l1.65,0a6,6,0,0,1,2.76.44,2,2,0,0,1,1.08,1.88,2.34,2.34,0,0,1-.5,1.47,2.84,2.84,0,0,1-1.3,1,8,8,0,0,1-2.84.47,9.88,9.88,0,0,1-2.19-.23,3.13,3.13,0,0,1-1.42-.65,1.21,1.21,0,0,1-.43-.88,1.1,1.1,0,0,1,.33-.78,2.65,2.65,0,0,1,1.22-.59,1.88,1.88,0,0,1-1.24-1.7,2,2,0,0,1,.51-1.28,4,4,0,0,1,1.6-1.07,4,4,0,0,1-1.85-1.24,2.85,2.85,0,0,1-.57-1.76,2.94,2.94,0,0,1,1.07-2.27,3.93,3.93,0,0,1,2.74-1A5,5,0,0,1,192.12,109.15Zm-2.22,10.13a3.28,3.28,0,0,0-1.29.16.9.9,0,0,0-.54.8,1.12,1.12,0,0,0,.56.89,4,4,0,0,0,2.12.39,5.15,5.15,0,0,0,2.09-.35,1.11,1.11,0,0,0,.76-1,.55.55,0,0,0-.15-.4,1.32,1.32,0,0,0-.78-.4A20.69,20.69,0,0,0,189.9,119.28Zm.57-9.92a1.13,1.13,0,0,0-.94.56,4.73,4.73,0,0,0-.38,2.32,3.48,3.48,0,0,0,.38,2,1.08,1.08,0,0,0,.89.53,1.14,1.14,0,0,0,1-.53,3.71,3.71,0,0,0,.38-2,4.39,4.39,0,0,0-.43-2.33A1,1,0,0,0,190.47,109.36Z"/>
        <path class="6892e4f4-1cf8-434c-8002-244b2e4579b9" d="M201.42,116.65a4.72,4.72,0,0,1-2.93,1.44,1.72,1.72,0,0,1-1.27-.51,1.67,1.67,0,0,1-.51-1.25,2.5,2.5,0,0,1,.88-1.84,17.1,17.1,0,0,1,3.83-2.17v-.89a4.51,4.51,0,0,0-.11-1.28,1.05,1.05,0,0,0-.42-.45,1.17,1.17,0,0,0-.69-.2,1.73,1.73,0,0,0-1,.28.47.47,0,0,0-.24.4.78.78,0,0,0,.26.49,1.26,1.26,0,0,1,.37.79,1.06,1.06,0,0,1-.35.8,1.27,1.27,0,0,1-.91.33,1.47,1.47,0,0,1-1-.36,1.12,1.12,0,0,1-.41-.85,2,2,0,0,1,.55-1.31,3.4,3.4,0,0,1,1.51-1,6.05,6.05,0,0,1,2-.34,3.37,3.37,0,0,1,2,.54,2.49,2.49,0,0,1,.95,1.17,7.41,7.41,0,0,1,.14,1.84v3.47a3,3,0,0,0,0,.76.46.46,0,0,0,.14.24.35.35,0,0,0,.22.08c.16,0,.33-.12.5-.36l.29.23a3.63,3.63,0,0,1-1,1,2.15,2.15,0,0,1-1.16.32,1.82,1.82,0,0,1-1.19-.36A1.63,1.63,0,0,1,201.42,116.65Zm0-.7v-3a5.57,5.57,0,0,0-1.72,1.45,1.76,1.76,0,0,0-.37,1,1.1,1.1,0,0,0,.31.78.87.87,0,0,0,.67.25A1.8,1.8,0,0,0,201.42,116Z"/>
        <path class="6892e4f4-1cf8-434c-8002-244b2e4579b9" d="M213.9,118h-7.76v-.21l4.9-8.13h-1.43a3.8,3.8,0,0,0-1.33.17,1.43,1.43,0,0,0-.64.53,5,5,0,0,0-.52,1.32h-.33V109h7.51v.26l-4.87,8H210a5,5,0,0,0,2.64-.52,3.26,3.26,0,0,0,1.22-1.92h.27Z"/>
        <path class="6892e4f4-1cf8-434c-8002-244b2e4579b9" d="M219.08,109v7.07a2.21,2.21,0,0,0,.22,1.21,1.24,1.24,0,0,0,.86.3V118h-4.82v-.34a1.17,1.17,0,0,0,.88-.34,2.14,2.14,0,0,0,.19-1.17V110.9a2.05,2.05,0,0,0-.22-1.2,1.16,1.16,0,0,0-.85-.31V109Zm-1.33-4.32a1.43,1.43,0,0,1,1.05.43,1.47,1.47,0,0,1,.43,1,1.41,1.41,0,0,1-.44,1,1.46,1.46,0,0,1-1,.43,1.43,1.43,0,0,1-1-.43,1.4,1.4,0,0,1-.43-1,1.43,1.43,0,0,1,.43-1A1.39,1.39,0,0,1,217.75,104.72Z"/>
        <path class="6892e4f4-1cf8-434c-8002-244b2e4579b9" d="M225,109v1.16a5.14,5.14,0,0,1,1.31-1.09,2.89,2.89,0,0,1,1.36-.34,2.11,2.11,0,0,1,1.44.49,2.27,2.27,0,0,1,.76,1.19,9.26,9.26,0,0,1,.16,2.09V116a2.74,2.74,0,0,0,.18,1.28,1.12,1.12,0,0,0,.78.32V118h-4.51v-.34a1,1,0,0,0,.72-.42,2.77,2.77,0,0,0,.15-1.18v-4a7.33,7.33,0,0,0-.08-1.39.88.88,0,0,0-.29-.44.72.72,0,0,0-.46-.16c-.54,0-1.05.39-1.52,1.17V116a2.77,2.77,0,0,0,.18,1.27,1,1,0,0,0,.69.33V118h-4.51v-.34a1.12,1.12,0,0,0,.8-.36,2.63,2.63,0,0,0,.17-1.24v-5a2.57,2.57,0,0,0-.19-1.26,1.14,1.14,0,0,0-.78-.33V109Z"/>
        <path class="6892e4f4-1cf8-434c-8002-244b2e4579b9" d="M240.1,113.18h-4.9a4.68,4.68,0,0,0,1,2.81,2,2,0,0,0,1.58.79,1.82,1.82,0,0,0,1-.32,4,4,0,0,0,1-1.15l.33.21a5.36,5.36,0,0,1-1.6,2.09,3.49,3.49,0,0,1-2,.62,3.38,3.38,0,0,1-3-1.53,5.34,5.34,0,0,1-.82-3,5.07,5.07,0,0,1,1.2-3.55,3.74,3.74,0,0,1,2.83-1.33,3,3,0,0,1,2.35,1.12A5,5,0,0,1,240.1,113.18Zm-2.35-.64a9.06,9.06,0,0,0-.16-2.11,1.71,1.71,0,0,0-.53-.86.76.76,0,0,0-.53-.18,1,1,0,0,0-.81.49,4.14,4.14,0,0,0-.56,2.33v.33Z"/>
      </g>
    </g>
  </g>
</svg>
