<svg width="1440" height="488" viewBox="0 0 1440 488" fill="none" xmlns="http://www.w3.org/2000/svg">
<g opacity="0.6">
<path d="M251.357 170.08C251.357 198.88 248.317 224 242.237 245.44C236.157 266.88 227.997 284.64 217.757 298.72C207.517 312.48 195.357 322.88 181.277 329.92C167.197 336.64 152.317 340 136.637 340H76.1575V0.160004H137.117C152.797 0.160004 167.517 3.68 181.277 10.72C195.357 17.44 207.517 27.84 217.757 41.92C228.317 56 236.477 73.76 242.237 95.2C248.317 116.32 251.357 141.28 251.357 170.08ZM86.7175 9.75999V330.4H135.197C149.917 330.4 163.677 327.2 176.477 320.8C189.277 314.4 200.477 304.64 210.077 291.52C219.677 278.4 227.197 261.76 232.637 241.6C238.077 221.44 240.797 197.6 240.797 170.08C240.797 142.56 238.077 118.72 232.637 98.56C227.197 78.4 219.677 61.76 210.077 48.64C200.477 35.52 189.277 25.76 176.477 19.36C163.677 12.96 149.917 9.75999 135.197 9.75999H86.7175Z" fill="white"/>
<path d="M251.357 170.08C251.357 198.88 248.317 224 242.237 245.44C236.157 266.88 227.997 284.64 217.757 298.72C207.517 312.48 195.357 322.88 181.277 329.92C167.197 336.64 152.317 340 136.637 340H76.1575V0.160004H137.117C152.797 0.160004 167.517 3.68 181.277 10.72C195.357 17.44 207.517 27.84 217.757 41.92C228.317 56 236.477 73.76 242.237 95.2C248.317 116.32 251.357 141.28 251.357 170.08ZM86.7175 9.75999V330.4H135.197C149.917 330.4 163.677 327.2 176.477 320.8C189.277 314.4 200.477 304.64 210.077 291.52C219.677 278.4 227.197 261.76 232.637 241.6C238.077 221.44 240.797 197.6 240.797 170.08C240.797 142.56 238.077 118.72 232.637 98.56C227.197 78.4 219.677 61.76 210.077 48.64C200.477 35.52 189.277 25.76 176.477 19.36C163.677 12.96 149.917 9.75999 135.197 9.75999H86.7175Z" fill="url(#paint0_linear_81_562)" fill-opacity="0.2"/>
<path d="M559.104 243.04H439.584L413.664 340H403.104L490.944 0.160004H509.184L594.144 340H583.584L559.104 243.04ZM441.984 233.44H556.704L501.024 7.36H499.104L441.984 233.44Z" fill="white"/>
<path d="M559.104 243.04H439.584L413.664 340H403.104L490.944 0.160004H509.184L594.144 340H583.584L559.104 243.04ZM441.984 233.44H556.704L501.024 7.36H499.104L441.984 233.44Z" fill="url(#paint1_linear_81_562)" fill-opacity="0.2"/>
<path d="M772.564 340V0.160004H783.124V340H772.564Z" fill="white"/>
<path d="M772.564 340V0.160004H783.124V340H772.564Z" fill="url(#paint2_linear_81_562)" fill-opacity="0.2"/>
<path d="M998.657 340V0.160004H1009.22V329.92H1152V340H998.657Z" fill="white"/>
<path d="M998.657 340V0.160004H1009.22V329.92H1152V340H998.657Z" fill="url(#paint3_linear_81_562)" fill-opacity="0.2"/>
<path d="M1318.82 191.2V453H1308.74V191.2L1225.7 0.160004H1236.74L1314.02 178.72L1391.78 0.160004H1403.3L1318.82 191.2Z" fill="white"/>
<path d="M1318.82 191.2V453H1308.74V191.2L1225.7 0.160004H1236.74L1314.02 178.72L1391.78 0.160004H1403.3L1318.82 191.2Z" fill="url(#paint4_linear_81_562)" fill-opacity="0.2"/>
</g>
<defs>
<linearGradient id="paint0_linear_81_562" x1="739.731" y1="0.160004" x2="739.731" y2="453" gradientUnits="userSpaceOnUse">
<stop stop-color="#AAAAAA"/>
<stop offset="1" stop-color="#B0B0B0"/>
</linearGradient>
<linearGradient id="paint1_linear_81_562" x1="739.731" y1="0.160004" x2="739.731" y2="453" gradientUnits="userSpaceOnUse">
<stop stop-color="#AAAAAA"/>
<stop offset="1" stop-color="#B0B0B0"/>
</linearGradient>
<linearGradient id="paint2_linear_81_562" x1="739.731" y1="0.160004" x2="739.731" y2="453" gradientUnits="userSpaceOnUse">
<stop stop-color="#AAAAAA"/>
<stop offset="1" stop-color="#B0B0B0"/>
</linearGradient>
<linearGradient id="paint3_linear_81_562" x1="739.731" y1="0.160004" x2="739.731" y2="453" gradientUnits="userSpaceOnUse">
<stop stop-color="#AAAAAA"/>
<stop offset="1" stop-color="#B0B0B0"/>
</linearGradient>
<linearGradient id="paint4_linear_81_562" x1="739.731" y1="0.160004" x2="739.731" y2="453" gradientUnits="userSpaceOnUse">
<stop stop-color="#AAAAAA"/>
<stop offset="1" stop-color="#B0B0B0"/>
</linearGradient>
</defs>
</svg>
