<?xml version="1.0" encoding="UTF-8"?><svg id="_圖層_2" xmlns="http://www.w3.org/2000/svg" viewBox="0 0 200 200"><defs><style>.cls-1{fill:#fff;}</style></defs><g id="_圖層_1-2"><path class="cls-1" d="m100,8c12.42,0,24.47,2.43,35.81,7.23,10.96,4.63,20.8,11.27,29.24,19.72,8.45,8.45,15.09,18.29,19.72,29.24,4.8,11.34,7.23,23.38,7.23,35.81s-2.43,24.47-7.23,35.81c-4.63,10.96-11.27,20.8-19.72,29.24-8.45,8.45-18.29,15.09-29.24,19.72-11.34,4.8-23.38,7.23-35.81,7.23s-24.47-2.43-35.81-7.23c-10.96-4.63-20.8-11.27-29.24-19.72-8.45-8.45-15.09-18.29-19.72-29.24-4.8-11.34-7.23-23.38-7.23-35.81s2.43-24.47,7.23-35.81c4.63-10.96,11.27-20.8,19.72-29.24,8.45-8.45,18.29-15.09,29.24-19.72,11.34-4.8,23.38-7.23,35.81-7.23Zm0-8C44.77,0,0,44.77,0,100s44.77,100,100,100,100-44.77,100-100S155.23,0,100,0Z"/><path class="cls-1" d="m100,165c-.4,0-.8,0-1.2-.02v35.02h2.4v-35.02c-.4,0-.8.02-1.2.02Z"/><path class="cls-1" d="m100,35c.4,0,.8,0,1.2.02V0h-2.4v35.02c.4,0,.8-.02,1.2-.02Z"/><path class="cls-1" d="m35,100c0-.4,0-.8.02-1.2H0v2.4h35.02c0-.4-.02-.8-.02-1.2Z"/><path class="cls-1" d="m164.98,98.8c0,.4.02.8.02,1.2s0,.8-.02,1.2h35.02v-2.4h-35.02Z"/><path class="cls-1" d="m100,43c15.22,0,29.54,5.93,40.3,16.7,10.76,10.76,16.7,25.08,16.7,40.3s-5.93,29.54-16.7,40.3c-10.76,10.76-25.08,16.7-40.3,16.7s-29.54-5.93-40.3-16.7c-10.76-10.76-16.7-25.08-16.7-40.3s5.93-29.54,16.7-40.3c10.76-10.76,25.08-16.7,40.3-16.7Zm0-8c-35.9,0-65,29.1-65,65s29.1,65,65,65,65-29.1,65-65-29.1-65-65-65Z"/></g></svg>