<svg width="139" height="40" viewBox="0 0 139 40" fill="none" xmlns="http://www.w3.org/2000/svg">
<rect width="139" height="40" rx="4" fill="black"/>
<path d="M51.3429 10.861C51.3429 11.6046 51.1182 12.1977 50.6689 12.6315C50.1657 13.1538 49.5098 13.4193 48.6921 13.4193C47.8744 13.4193 47.2453 13.1538 46.7062 12.6226C46.167 12.0915 45.8975 11.4275 45.8975 10.6485C45.8975 9.86949 46.167 9.20556 46.7062 8.67441C47.2453 8.14326 47.9103 7.86884 48.6921 7.86884C49.0874 7.86884 49.4648 7.93966 49.8153 8.07244C50.1657 8.21408 50.4533 8.40884 50.6779 8.6567L50.1837 9.14359C50.022 8.94884 49.8063 8.78949 49.5367 8.68326C49.2761 8.56818 48.9886 8.51506 48.6921 8.51506C48.108 8.51506 47.6048 8.71867 47.2004 9.11703C46.796 9.52425 46.5984 10.0288 46.5984 10.6397C46.5984 11.2505 46.796 11.7551 47.2004 12.1623C47.6048 12.5606 48.099 12.7642 48.6921 12.7642C49.2312 12.7642 49.6715 12.6138 50.031 12.3216C50.3904 12.0295 50.5971 11.6134 50.651 11.1H48.6921V10.4626H51.3069C51.3339 10.6042 51.3429 10.737 51.3429 10.861Z" fill="white" stroke="white" stroke-width="0.2" stroke-miterlimit="10"/>
<path d="M55.4854 7.99277V8.64785H53.0322V10.3298H55.2428V10.9672H53.0322V12.6492H55.4854V13.3042H52.3403V7.99277H55.4854Z" fill="white" stroke="white" stroke-width="0.2" stroke-miterlimit="10"/>
<path d="M58.4059 8.64785V13.3042H57.714V8.64785H56.2043V7.99277H59.9065V8.64785H58.3969H58.4059Z" fill="white" stroke="white" stroke-width="0.2" stroke-miterlimit="10"/>
<path d="M63.2852 13.3042H62.5933V7.99277H63.2852V13.3042Z" fill="white" stroke="white" stroke-width="0.2" stroke-miterlimit="10"/>
<path d="M66.3583 8.64785V13.3042H65.6664V8.64785H64.1567V7.99277H67.8589V8.64785H66.3493H66.3583Z" fill="white" stroke="white" stroke-width="0.2" stroke-miterlimit="10"/>
<path d="M75.6678 10.6485C75.6678 11.4364 75.3982 12.0915 74.868 12.6226C74.3289 13.1538 73.6729 13.4193 72.8911 13.4193C72.1094 13.4193 71.4534 13.1538 70.9142 12.6226C70.3841 12.0915 70.1145 11.4364 70.1145 10.6485C70.1145 9.86064 70.3841 9.20556 70.9142 8.67441C71.4444 8.14326 72.1004 7.86884 72.8911 7.86884C73.6819 7.86884 74.3289 8.13441 74.868 8.67441C75.3982 9.20556 75.6678 9.86064 75.6678 10.6397V10.6485ZM70.8334 10.6485C70.8334 11.2593 71.0311 11.7728 71.4175 12.1711C71.8128 12.5695 72.3071 12.7731 72.8911 12.7731C73.4752 12.7731 73.9694 12.5695 74.3558 12.1711C74.7512 11.7728 74.9489 11.2682 74.9489 10.6485C74.9489 10.0288 74.7512 9.52424 74.3558 9.12588C73.9605 8.72752 73.4752 8.52392 72.8911 8.52392C72.3071 8.52392 71.8128 8.72752 71.4175 9.12588C71.0221 9.52424 70.8334 10.0377 70.8334 10.6485Z" fill="white" stroke="white" stroke-width="0.2" stroke-miterlimit="10"/>
<path d="M77.3301 13.3042H76.6382V7.99277H77.4829L80.1067 12.1269H80.1337L80.1067 11.1V7.99277H80.7986V13.3042H80.0798L77.3391 8.97539H77.3121L77.3391 10.0023V13.3131L77.3301 13.3042Z" fill="white" stroke="white" stroke-width="0.2" stroke-miterlimit="10"/>
<path d="M69.9616 21.0502C67.8499 21.0502 66.1246 22.6347 66.1246 24.8124C66.1246 26.9902 67.8499 28.5747 69.9616 28.5747C72.0733 28.5747 73.7986 26.9813 73.7986 24.8124C73.7986 22.6436 72.0733 21.0502 69.9616 21.0502ZM69.9616 27.0964C68.8024 27.0964 67.805 26.158 67.805 24.8124C67.805 23.4669 68.8024 22.5285 69.9616 22.5285C71.1208 22.5285 72.1182 23.458 72.1182 24.8124C72.1182 26.1669 71.1208 27.0964 69.9616 27.0964ZM61.5958 21.0502C59.4841 21.0502 57.7588 22.6347 57.7588 24.8124C57.7588 26.9902 59.4841 28.5747 61.5958 28.5747C63.7074 28.5747 65.4327 26.9813 65.4327 24.8124C65.4327 22.6436 63.7074 21.0502 61.5958 21.0502ZM61.5958 27.0964C60.4366 27.0964 59.4391 26.158 59.4391 24.8124C59.4391 23.4669 60.4366 22.5285 61.5958 22.5285C62.7549 22.5285 63.7524 23.458 63.7524 24.8124C63.7524 26.1669 62.7549 27.0964 61.5958 27.0964ZM51.6394 22.201V23.7944H55.5213C55.4045 24.6885 55.099 25.3524 54.6407 25.8039C54.0746 26.3616 53.194 26.9724 51.6484 26.9724C49.2582 26.9724 47.3891 25.078 47.3891 22.7233C47.3891 20.3685 49.2582 18.4741 51.6484 18.4741C52.9334 18.4741 53.8769 18.9698 54.5688 19.6161L55.71 18.4918C54.7395 17.58 53.4546 16.8806 51.6394 16.8806C48.3686 16.8806 45.6189 19.501 45.6189 22.7321C45.6189 25.9633 48.3686 28.5836 51.6394 28.5836C53.4096 28.5836 54.7395 28.017 55.7819 26.9459C56.8512 25.8924 57.1837 24.4052 57.1837 23.2102C57.1837 22.8384 57.1567 22.4931 57.0938 22.2098H51.6394V22.201ZM92.3543 23.4403C92.0398 22.5993 91.0694 21.0413 89.0835 21.0413C87.0976 21.0413 85.4802 22.5639 85.4802 24.8036C85.4802 26.9105 87.0976 28.5659 89.2722 28.5659C91.0244 28.5659 92.0398 27.5124 92.4532 26.9016L91.1502 26.0429C90.7189 26.6715 90.1259 27.0875 89.2722 27.0875C88.4185 27.0875 87.8075 26.7069 87.4211 25.9456L92.5341 23.8652L92.3633 23.4403H92.3543ZM87.1426 24.6974C87.0976 23.2456 88.2838 22.502 89.1374 22.502C89.8024 22.502 90.3685 22.8295 90.5572 23.2987L87.1426 24.6974ZM82.9911 28.3446H84.6714V17.279H82.9911V28.3446ZM80.2414 21.8823H80.1875C79.8101 21.4397 79.0912 21.0413 78.1747 21.0413C76.2607 21.0413 74.5084 22.6967 74.5084 24.8213C74.5084 26.9459 76.2607 28.5747 78.1747 28.5747C79.0822 28.5747 79.8101 28.1764 80.1875 27.7161H80.2414V28.2561C80.2414 29.699 79.4596 30.4692 78.2016 30.4692C77.1772 30.4692 76.5392 29.7433 76.2786 29.1324L74.814 29.7344C75.2363 30.7347 76.3505 31.9564 78.2016 31.9564C80.1695 31.9564 81.8319 30.8144 81.8319 28.0347V21.2715H80.2414V21.8823ZM78.3184 27.0875C77.1593 27.0875 76.1888 26.1315 76.1888 24.8213C76.1888 23.5111 77.1593 22.5285 78.3184 22.5285C79.4776 22.5285 80.3582 23.5023 80.3582 24.8213C80.3582 26.1403 79.4596 27.0875 78.3184 27.0875ZM100.226 17.279H96.2093V28.3446H97.8896V24.1485H100.235C102.095 24.1485 103.919 22.8206 103.919 20.7138C103.919 18.6069 102.095 17.279 100.235 17.279H100.226ZM100.271 22.617H97.8896V18.8193H100.271C101.529 18.8193 102.239 19.8462 102.239 20.7138C102.239 21.5813 101.529 22.6082 100.271 22.6082V22.617ZM110.632 21.0236C109.419 21.0236 108.16 21.5547 107.639 22.7144L109.131 23.3252C109.445 22.7144 110.039 22.5108 110.659 22.5108C111.521 22.5108 112.411 23.0243 112.42 23.9361V24.0511C112.114 23.8829 111.467 23.6262 110.668 23.6262C109.059 23.6262 107.433 24.4938 107.433 26.1138C107.433 27.5921 108.745 28.5482 110.218 28.5482C111.341 28.5482 111.97 28.0524 112.357 27.4682H112.411V28.318H114.028V24.0777C114.028 22.1124 112.537 21.0147 110.614 21.0147L110.632 21.0236ZM110.425 27.0875C109.877 27.0875 109.113 26.8131 109.113 26.1492C109.113 25.2993 110.065 24.9718 110.892 24.9718C111.629 24.9718 111.979 25.1311 112.42 25.3436C112.294 26.3705 111.395 27.0964 110.425 27.0964V27.0875ZM119.932 21.2626L118.009 26.0606H117.955L115.96 21.2626H114.154L117.146 27.9728L115.439 31.6997H117.191L121.801 21.2626H119.941H119.932ZM104.827 28.3446H106.507V17.279H104.827V28.3446Z" fill="white"/>
<path d="M27.3507 18.9875L17.7808 28.9908C18.0773 30.0797 19.0837 30.8764 20.2788 30.8764C20.7551 30.8764 21.2044 30.7524 21.5908 30.5223L21.6177 30.5046L32.3828 24.3875L27.3417 18.9787L27.3507 18.9875Z" fill="#EA4335"/>
<path d="M37.0284 17.2879H37.0195L32.3738 14.6233L27.135 19.2177L32.3917 24.3964L37.0195 21.7672C37.8282 21.3334 38.3763 20.4924 38.3763 19.5275C38.3763 18.5626 37.8372 17.7216 37.0284 17.2967V17.2879Z" fill="#FBBC04"/>
<path d="M17.7808 10.0111C17.7269 10.2236 17.6909 10.436 17.6909 10.6662V28.3446C17.6909 28.5747 17.7179 28.7872 17.7808 28.9996L27.6742 19.2531L17.7808 10.0111Z" fill="#4285F4"/>
<path d="M27.4226 19.501L32.3738 14.6233L21.6177 8.47965C21.2313 8.24949 20.7731 8.1167 20.2788 8.1167C19.0837 8.1167 18.0773 8.92227 17.7808 10.0023L27.4226 19.4921V19.501Z" fill="#34A853"/>
</svg>
