<svg width="90" height="90" viewBox="0 0 90 90" fill="none" xmlns="http://www.w3.org/2000/svg">
<g clip-path="url(#clip0_8_557)">
<rect width="90" height="90" rx="20" fill="#D60C18"/>
<path d="M70.5682 0H19.4318C8.69992 0 0 8.69992 0 19.4318V70.5682C0 81.3001 8.69992 90 19.4318 90H70.5682C81.3001 90 90 81.3001 90 70.5682V19.4318C90 8.69992 81.3001 0 70.5682 0Z" fill="#D60C18"/>
<path d="M16.6126 55.4754V56.5317H27.9422V55.4754H16.6126ZM15.0895 66.4371V67.4933H30.613V66.4371H15.0895ZM16.1327 51.7198V52.7761H30.5712V51.7198H16.1327ZM27.5249 55.4754V55.7336C27.2537 65.193 26.9199 68.5026 26.3565 69.2772C26.1687 69.5354 25.9809 69.5824 25.5845 69.5824C25.1881 69.5824 24.124 69.5589 23.0181 69.465C23.1641 69.7466 23.2476 70.1691 23.2685 70.4274C24.2909 70.5212 25.3342 70.5447 25.8975 70.5212C26.5025 70.4743 26.8782 70.3335 27.2329 69.8405C27.9214 68.8781 28.2134 65.7798 28.4848 56.1326C28.4848 55.9448 28.5056 55.4754 28.5056 55.4754H27.5249ZM16.091 55.4754C15.7363 59.1606 15.0269 64.4888 14.4844 67.4698H15.5068C16.0075 64.5593 16.6752 59.278 17.1134 55.4754H16.091ZM17.1342 49.0909C16.0075 52.0954 14.2131 55.1468 12.2727 57.0716C12.5439 57.2593 12.9821 57.5879 13.1699 57.7757C15.0269 55.7101 16.8839 52.6118 18.1357 49.3961L17.1342 49.0909ZM19.4711 57.6583C20.9525 58.386 22.6634 59.5831 23.5189 60.4985L24.1448 59.7239C23.2685 58.8085 21.5367 57.6818 20.0971 56.9542L19.4711 57.6583ZM18.7826 62.9866C20.3474 63.8785 22.2044 65.2634 23.1015 66.2963L23.7067 65.4981C22.7886 64.4888 20.9525 63.1509 19.3876 62.2825L18.7826 62.9866ZM12.3144 60.8976V61.9538H15.924V61.9303H27.8588V61.9538H31.2597V60.8976H27.8588V60.921H15.924V60.8976H12.3144Z" fill="white"/>
<path d="M37.4048 50.8983V70.2865H38.4272V52.0484H49.5064V70.1222H50.5706V50.8983H37.4048ZM38.0725 59.1841V60.3107H49.9654V59.1841H38.0725ZM38.0307 67.6341V68.7608H50.0072V67.6341H38.0307Z" fill="white"/>
<path d="M68.0872 58.2687V59.2545H75.1813V58.2687H68.0872ZM67.5865 50.3584V70.4977H68.5462V51.4146H74.8683V50.3584H67.5865ZM74.4719 50.3584V54.959C74.4719 55.2172 74.3885 55.2876 74.0545 55.3111C73.6999 55.3581 72.6567 55.3581 71.1753 55.3111C71.3422 55.6397 71.4882 56.0387 71.5508 56.3439C73.1991 56.3439 74.2007 56.3439 74.7431 56.1561C75.2856 55.9683 75.4108 55.6162 75.4108 54.9356V50.3584H74.4719ZM69.7773 58.6911L68.9218 58.9493C70.1946 63.949 72.6567 68.3617 75.9533 70.4038C76.1411 70.0987 76.4749 69.6527 76.7044 69.418C73.4495 67.6576 70.9458 63.3857 69.7773 58.6911ZM74.8683 58.2687V58.5737C74.0963 62.8927 71.8429 67.4932 68.3585 69.8171C68.6088 70.0283 68.9009 70.3099 69.0678 70.5682C72.6984 68.0801 75.0144 63.4091 75.9116 58.4798L75.2439 58.1982L75.0561 58.2687H74.8683ZM58.3433 51.8137V52.8465H66.1051V51.8137H58.3433ZM57.6965 64.4184V65.4277H66.6893V64.4184H57.6965ZM57.7174 55.6397V56.696H66.6475V55.6397H57.7174ZM58.1138 60.3811V61.4139H66.2929V60.3811H58.1138ZM61.786 49.2083V55.9683H62.7458V49.2083H61.786ZM61.786 60.7802V70.4508H62.7458V60.7802H61.786ZM64.4985 56.8368C64.0812 57.9635 63.2883 59.63 62.6415 60.6629L63.4343 60.9679C64.1021 59.9586 64.8114 58.4329 65.4373 57.1419L64.4985 56.8368ZM59.2197 57.2124C59.6995 58.1748 60.1794 59.4422 60.3255 60.2638L61.1601 59.9117C60.9932 59.1372 60.4924 57.8696 59.9916 56.9541L59.2197 57.2124Z" fill="white"/>
<path fill-rule="evenodd" clip-rule="evenodd" d="M22.5103 21.4267C22.9591 22.7288 21.1452 23.1539 20.3069 23.4963C20.017 23.6146 19.7279 23.736 19.4438 23.8681C19.2489 23.9588 19.0707 24.0837 18.8709 24.1638C18.6811 24.2394 18.4743 24.2661 18.2755 24.3096C17.8282 24.4084 17.3831 24.5196 16.9405 24.6391C16.0529 24.8785 15.1738 25.1493 14.2897 25.4031C13.7859 25.5476 13.2807 25.6868 12.7716 25.8118C12.2339 25.9439 11.6874 25.8002 11.2204 25.5254C10.7869 25.2707 10.7584 24.8647 10.561 24.4457C10.4609 24.234 10.4761 24.0041 10.6699 23.8382C10.721 23.7952 10.9435 23.8076 11.0145 23.7978C11.131 23.7818 11.2467 23.764 11.3628 23.7449C11.5918 23.7079 11.8199 23.6662 12.0489 23.6314C12.2779 23.5968 12.5078 23.5683 12.7387 23.5537C12.9921 23.5381 13.2034 23.5977 13.4252 23.4492C13.6623 23.2909 13.8904 23.1366 14.1514 23.0174C14.6526 22.7888 15.1933 22.6682 15.7354 22.5829C15.9253 22.5531 16.1156 22.5273 16.3064 22.5029C16.4051 22.49 16.514 22.5082 16.6106 22.4798C16.7258 22.4459 16.7568 22.3832 16.8507 22.3116C17.0446 22.1631 17.3105 22.1605 17.5039 22.012C18.0523 21.573 18.783 21.4084 19.2214 20.8602C19.5371 20.6 19.9392 20.4911 20.3416 20.4702C20.7653 20.4484 21.1963 20.4172 21.5791 20.6276C21.9353 20.8232 22.3707 21.0092 22.5103 21.4267Z" fill="white"/>
<path fill-rule="evenodd" clip-rule="evenodd" d="M37.4936 28.181C37.5505 27.9724 37.5994 27.7549 37.5986 27.538C37.5981 27.3134 37.4655 27.1177 37.4505 26.8958C37.438 26.7174 37.5376 26.5235 37.3286 26.4267C36.8902 26.1163 36.4881 26.6098 36.0497 26.6832C35.6908 26.8619 35.4226 27.1755 35.1207 27.4312C34.9094 27.6104 34.6462 27.706 34.4204 27.8626C34.2042 28.0111 34.0361 28.2165 33.8254 28.3739C33.3731 28.712 32.8457 28.9285 32.377 29.2411C31.9808 29.5053 31.0869 29.4012 30.6502 29.3171C29.8587 29.1646 29.1641 28.772 28.4285 28.474C28.1075 28.3442 27.7691 28.2423 27.4746 28.0546C27.1362 27.838 26.9499 27.4575 26.6106 27.2306C26.306 27.0274 26.0027 26.8477 26.0917 26.4267C26.3656 26.1345 26.7493 26.0798 27.1149 25.9886C28.3751 25.7506 29.7457 25.9339 30.9704 25.5133C31.6637 25.3309 32.3952 25.1664 33.0716 24.9285C33.2495 24.8662 33.4385 24.7772 33.6269 24.7141C33.8333 24.6452 33.9623 24.4927 34.1522 24.3979C34.5725 24.1871 35.0149 24.3113 35.4395 24.1952C36.0355 24.0329 36.626 23.8505 37.2139 23.6602C37.5559 23.5494 37.889 23.4076 38.2399 23.3271C38.5177 23.2631 38.8099 23.2676 39.0571 23.1083C39.6584 22.721 40.4206 22.8926 41.057 22.6085C41.5941 22.3684 42.2025 22.1304 42.7739 21.9885C43.0723 21.9143 43.3809 21.877 43.6873 21.9179C44.2045 21.9868 44.7399 22.1144 45.2518 22.2224C45.687 22.3146 46.1326 22.3794 46.5231 22.6076C46.7356 22.7317 46.9074 22.9148 47.0136 23.1381C47.043 23.4231 46.9464 23.6958 46.822 23.9475C46.7593 24.0751 46.6885 24.1982 46.6196 24.3228C46.4008 24.7208 46.0433 24.8141 45.6289 24.9253C45.2139 25.037 44.7817 25.08 44.3583 24.9809C44.1342 24.928 43.9047 24.8181 43.7251 24.6728C42.9989 24.2085 42.1118 24.3392 41.3229 24.5429C41.2139 24.5709 41.1063 24.6016 41.0005 24.6385C40.8848 24.6776 40.7795 24.6946 40.6825 24.7724C40.5922 24.8448 40.4984 24.9027 40.3962 24.9573C40.132 25.0992 39.9034 25.2192 39.9052 25.5448C39.9078 25.9299 39.8407 26.3737 39.9964 26.7379C40.3436 27.4685 39.8865 28.1992 40.2156 28.9302C40.3623 29.917 40.6545 31.3054 40.618 32.438C40.618 34.0096 40.7456 35.9644 41.0013 37.4799C41.0605 37.8295 41.1704 38.1715 41.2526 38.5156C41.3047 38.7309 41.317 38.9541 41.3687 39.1697C41.4794 39.6341 41.587 39.9725 41.5674 40.4572C41.5452 41.0099 41.4799 41.56 41.4003 42.107C41.313 42.7091 41.1267 43.2996 40.5265 43.5655C39.939 44.2104 38.8948 44.0867 38.1509 43.8395C37.8298 43.7327 37.4295 43.2752 37.2668 42.9843C37.1672 42.807 37.1818 42.5934 37.136 42.3983C37.0187 41.8953 36.8123 41.4186 36.9818 40.8978C37.3468 36.6946 37.7119 32.7123 37.4936 28.5283" fill="white"/>
<path fill-rule="evenodd" clip-rule="evenodd" d="M17.0663 26.3994C17.4319 26.8009 17.5956 27.2763 17.8153 27.7517C18.0034 27.9572 18.239 27.9456 18.4823 27.8549C18.6926 27.7766 18.923 27.7419 19.1022 27.5974C19.2796 27.4542 19.4259 27.2639 19.5967 27.1109C19.9654 26.7809 20.3593 26.4745 20.8356 26.3189C21.1184 26.2264 21.4102 26.1886 21.7072 26.2162C22.1825 26.3994 22.7855 26.3812 23.023 26.8739C23.2419 27.1851 23.1866 27.5502 23.0773 27.8793C22.6575 28.738 21.616 29.0493 20.885 29.5971C20.2997 29.9071 19.5144 30.1268 19.2222 30.7845C19.204 31.8265 20.0449 32.666 20.7022 33.269C21.7072 34.311 22.6393 35.8994 23.9911 36.5211C24.3896 36.7043 24.7223 37.0796 25.0575 37.354C25.2403 37.5034 25.4297 37.6479 25.6347 37.7667C25.8641 37.8996 26.1141 37.9485 26.3374 38.0997C26.5597 38.2496 26.8461 38.3193 27.0239 38.5301C27.0951 38.6147 27.2169 38.6325 27.3099 38.6814C27.5068 38.7859 27.6399 38.9975 27.8684 39.0443C27.9947 39.07 28.1064 39.042 28.2278 39.0967C28.3456 39.1501 28.4563 39.2515 28.5649 39.323C29.0722 39.6562 29.5965 39.9719 30.1693 40.1809C30.3903 40.2618 30.6313 40.2738 30.851 40.3584C31.0627 40.4388 31.1992 40.6069 31.3806 40.7336C31.6919 40.9519 32.1135 41.1481 32.262 41.5243C32.359 41.7693 32.2313 42.1393 32.0734 42.3314C31.848 42.6062 31.4348 42.677 31.1045 42.7285C30.7691 42.7806 30.4232 42.9362 30.0866 42.974C29.9006 42.9949 29.7099 42.9922 29.5232 43.0065C29.1229 43.0363 28.7227 43.0781 28.3229 43.1185C27.5149 43.2008 26.7033 43.2853 25.89 43.2702C25.4457 43.2626 24.9242 43.3298 24.523 43.099C23.9747 42.7837 23.4775 42.31 22.9745 41.9267C22.3142 41.4233 21.8646 40.7256 21.391 40.0448C20.8966 39.3333 20.4233 38.6075 19.9258 37.8983C19.5237 37.3255 19.1226 36.6656 18.5757 36.2187C18.3827 36.0613 18.2555 35.8389 18.0647 35.6757C17.8988 35.5343 17.7521 35.3795 17.6066 35.2172C17.3118 34.8868 17.0001 34.5893 16.5368 34.5479C16.3637 34.8072 16.2442 35.0998 16.1747 35.4035C16.1281 35.609 16.1383 35.8215 16.1031 36.0279C16.0738 36.2013 16.0093 36.3654 15.9777 36.5389C15.9097 36.9124 15.9035 37.3148 15.7141 37.6542C15.5993 37.8587 15.5348 38.0263 15.4797 38.2576C15.4259 38.4848 15.3134 38.7272 15.2231 38.9433C15.1724 39.0651 15.092 39.1719 15.0377 39.2914C14.938 39.5116 14.8847 39.7455 14.77 39.9634C14.6424 40.2067 14.5018 40.4446 14.3488 40.6732C14.0415 41.132 13.6885 41.5608 13.3052 41.9579C13.0895 42.1816 12.8645 42.3959 12.6314 42.6013C12.4495 42.7615 12.2935 42.9416 12.0818 43.0665C11.8666 43.1937 11.6242 43.2431 11.3881 43.3177C10.8864 43.4766 10.432 43.701 9.89523 43.7269C9.57905 43.7415 9.26643 43.6531 8.98939 43.5005C8.87154 43.4361 8.66253 43.4459 8.52868 43.3951C8.37081 43.3355 8.21606 43.2528 8.08043 43.1518C7.92701 43.0372 7.77137 42.9122 7.65797 42.7556C7.59527 42.6694 7.54101 42.5778 7.52545 42.4715C7.49343 42.25 7.5339 42.1744 7.39293 41.9877C7.21194 41.7466 7.30977 41.5856 7.25686 41.3246C7.23151 41.1992 7.17103 41.0801 7.16036 40.9525C7.14302 40.7425 7.32045 40.578 7.43651 40.4232C7.56502 40.2516 7.67709 40.0648 7.89322 39.9919C8.13779 39.9101 8.48377 39.9185 8.73368 39.9692C8.87644 39.9982 9.0134 40.0493 9.13747 40.1262C9.33758 40.2503 9.42741 40.4357 9.67999 40.2885C9.86988 40.1787 9.9806 39.9749 10.1434 39.8344C10.2679 39.7277 10.3159 39.5499 10.4387 39.4312C10.576 39.2973 10.705 39.1563 10.8216 39.0038C11.0608 38.6903 11.2409 38.3377 11.3653 37.964C12.0231 37.2695 12.096 36.284 11.8403 35.3337C11.1644 35.2795 10.4519 35.6259 9.73914 35.3888C9.26376 35.042 8.56959 34.8593 8.33213 34.3292C8.00305 33.9823 7.72912 33.5434 7.67398 33.0497C7.87542 32.5024 8.64252 32.666 9.08143 32.5753C9.48344 32.4112 9.95837 32.3742 10.3599 32.1729C10.5872 32.0598 10.8544 32.0243 11.0856 31.8989C11.3138 31.7748 11.5277 31.6267 11.7443 31.4845C11.9604 31.3421 12.1791 31.2021 12.4153 31.0949C12.667 30.9815 12.9463 30.9455 13.1927 30.8121C13.4038 30.6978 13.5987 30.5372 13.7832 30.3847C14.1661 30.0681 14.4631 29.6194 14.3987 29.1031C14.3769 28.9288 14.2937 28.7704 14.2941 28.5814C14.2941 28.3938 14.3315 28.2084 14.3697 28.0256C14.408 27.8419 14.4524 27.6592 14.4733 27.4724C14.5049 27.1923 14.4333 27.0042 14.6028 26.7538C14.7517 26.5328 14.9723 26.35 15.2209 26.2526C15.421 26.1748 15.6713 26.2162 15.8804 26.217C16.0503 26.2175 16.2668 26.0992 16.4318 26.1459C16.5323 26.1744 16.6025 26.2642 16.715 26.2922C16.8356 26.3224 16.9637 26.3166 17.0663 26.3994Z" fill="white"/>
<path fill-rule="evenodd" clip-rule="evenodd" d="M54.9325 35.5112L54.8715 35.5196C54.8262 35.3681 54.7351 35.2501 54.5985 35.1662C54.4624 35.0821 54.2929 35.0399 54.0897 35.0399C53.7825 35.0399 53.5437 35.1479 53.3725 35.3632C53.2017 35.5788 53.1163 35.8808 53.1163 36.2703C53.1163 36.6901 53.203 37.0103 53.3778 37.2304C53.5522 37.4515 53.8052 37.5613 54.1378 37.5613C54.2806 37.5613 54.4255 37.5333 54.5705 37.4776C54.7159 37.4221 54.8476 37.3443 54.9658 37.2442L55.0183 37.2566L54.9196 37.6155C54.7834 37.6822 54.6412 37.7316 54.4935 37.7645C54.345 37.7969 54.1889 37.8134 54.0253 37.8134C53.5259 37.8134 53.1377 37.6791 52.8598 37.411C52.5814 37.1424 52.4426 36.768 52.4426 36.2868C52.4426 35.8309 52.592 35.4663 52.8918 35.1919C53.1915 34.918 53.5922 34.7814 54.0938 34.7814C54.2526 34.7814 54.4099 34.7988 54.566 34.8335C54.7226 34.8682 54.8813 34.9215 55.0432 34.9941C55.0183 35.0719 54.9961 35.1537 54.9774 35.2391C54.9582 35.3245 54.9436 35.4152 54.9325 35.5112Z" fill="white"/>
<path fill-rule="evenodd" clip-rule="evenodd" d="M55.8596 36.7357C55.8596 37.0599 55.8934 37.2875 55.9606 37.4196C56.0282 37.5517 56.1411 37.618 56.2994 37.618C56.4591 37.618 56.5734 37.5517 56.6414 37.4187C56.7094 37.2858 56.7437 37.0585 56.7437 36.7357C56.7437 36.412 56.7094 36.1829 56.6414 36.0486C56.5734 35.9143 56.4591 35.8476 56.2994 35.8476C56.1411 35.8476 56.0282 35.9139 55.9606 36.0463C55.8934 36.1794 55.8596 36.4093 55.8596 36.7357ZM55.2317 36.7336C55.2317 36.3929 55.326 36.1284 55.5154 35.9394C55.7044 35.75 55.9667 35.6557 56.3038 35.6557C56.6458 35.6557 56.9091 35.749 57.0941 35.9358C57.2791 36.123 57.3715 36.389 57.3715 36.7336C57.3715 37.0715 57.2772 37.3348 57.0888 37.5229C56.9006 37.7114 56.6378 37.8057 56.2994 37.8057C55.9601 37.8057 55.6972 37.7114 55.5114 37.5238C55.3246 37.3366 55.2317 37.0728 55.2317 36.7336Z" fill="white"/>
<path fill-rule="evenodd" clip-rule="evenodd" d="M57.7468 37.7578C57.7553 37.5301 57.762 37.3309 57.766 37.1583C57.7699 36.9867 57.7722 36.8449 57.7722 36.7341C57.7722 36.6229 57.7699 36.4833 57.766 36.3148C57.762 36.1463 57.7553 35.947 57.7468 35.7162C57.7936 35.722 57.8402 35.7264 57.8887 35.7291C57.9372 35.7317 57.99 35.7331 58.0457 35.7331C58.104 35.7331 58.1572 35.7317 58.2049 35.7291C58.2529 35.7264 58.2983 35.722 58.3418 35.7162V35.9986C58.429 35.8843 58.5233 35.8012 58.6242 35.7487C58.7248 35.6967 58.8399 35.6709 58.9693 35.6709C59.1125 35.6709 59.2344 35.7046 59.3367 35.7718C59.4376 35.8394 59.5127 35.9372 59.5617 36.0667C59.6452 35.9323 59.7422 35.8323 59.8537 35.7673C59.9645 35.7029 60.0939 35.6709 60.2412 35.6709C60.3438 35.6709 60.4372 35.6878 60.5195 35.722C60.6027 35.7558 60.673 35.8065 60.7317 35.875C60.7898 35.9417 60.8303 36.0284 60.8548 36.136C60.8779 36.2427 60.89 36.4358 60.89 36.715V36.9801C60.89 37.1002 60.8917 37.2242 60.8948 37.3527C60.8989 37.4812 60.9037 37.6164 60.9108 37.7578C60.8481 37.7507 60.7908 37.7462 60.7387 37.7422C60.6867 37.7392 60.636 37.7369 60.5876 37.7369C60.5387 37.7369 60.4893 37.7392 60.4385 37.7422C60.3874 37.7462 60.3336 37.7507 60.2767 37.7578C60.2896 37.5715 60.2985 37.399 60.3052 37.2411C60.3109 37.0824 60.3145 36.9343 60.3145 36.7968C60.3145 36.4784 60.2896 36.2699 60.2393 36.1724C60.1891 36.0742 60.1001 36.0253 59.9725 36.0253C59.8458 36.0253 59.756 36.0742 59.7022 36.1724C59.6488 36.2699 59.6221 36.4442 59.6221 36.6941V37.37C59.6221 37.4354 59.6266 37.5506 59.6368 37.716C59.6376 37.7356 59.6386 37.7494 59.6386 37.7578C59.5789 37.7507 59.5229 37.7462 59.4709 37.7422C59.4185 37.7392 59.3682 37.7369 59.3197 37.7369C59.2708 37.7369 59.221 37.7392 59.1703 37.7431C59.1196 37.7471 59.0636 37.7516 59.0026 37.7578C59.0133 37.5981 59.0218 37.4434 59.028 37.2945C59.0329 37.1455 59.0365 37.0045 59.0365 36.8707C59.0365 36.4976 59.0115 36.2637 58.9631 36.168C58.9142 36.0728 58.8257 36.0253 58.6962 36.0253C58.5708 36.0253 58.4819 36.0737 58.429 36.1711C58.3765 36.2681 58.3498 36.4428 58.3498 36.6941V37.37C58.3498 37.4367 58.3543 37.5528 58.364 37.7182C58.3659 37.7365 58.3659 37.7494 58.364 37.7578C58.3116 37.7507 58.26 37.7462 58.2089 37.7422C58.1586 37.7392 58.1079 37.7369 58.0576 37.7369C58.0118 37.7369 57.9638 37.7392 57.914 37.7422C57.8638 37.7462 57.8082 37.7507 57.7468 37.7578Z" fill="white"/>
<path fill-rule="evenodd" clip-rule="evenodd" d="M61.4507 37.7578C61.4587 37.5301 61.4653 37.3309 61.4693 37.1583C61.4738 36.9867 61.4755 36.8449 61.4755 36.7341C61.4755 36.6229 61.4738 36.4833 61.4693 36.3148C61.4653 36.1463 61.4587 35.947 61.4507 35.7162C61.4969 35.722 61.5437 35.7264 61.5925 35.7291C61.641 35.7317 61.6935 35.7331 61.749 35.7331C61.8073 35.7331 61.8607 35.7317 61.9087 35.7291C61.9567 35.7264 62.002 35.722 62.0452 35.7162V35.9986C62.1328 35.8843 62.2266 35.8012 62.3281 35.7487C62.4285 35.6967 62.5433 35.6709 62.6731 35.6709C62.8159 35.6709 62.9381 35.7046 63.04 35.7718C63.1409 35.8394 63.2161 35.9372 63.2654 36.0667C63.3487 35.9323 63.4455 35.8323 63.5572 35.7673C63.6679 35.7029 63.7973 35.6709 63.9445 35.6709C64.0477 35.6709 64.1407 35.6878 64.2233 35.722C64.306 35.7558 64.3763 35.8065 64.435 35.875C64.4933 35.9417 64.5342 36.0284 64.5581 36.136C64.5814 36.2427 64.5933 36.4358 64.5933 36.715V36.9801C64.5933 37.1002 64.5956 37.2242 64.5986 37.3527C64.6022 37.4812 64.6071 37.6164 64.6142 37.7578C64.5515 37.7507 64.4941 37.7462 64.4422 37.7422C64.3901 37.7392 64.3394 37.7369 64.2914 37.7369C64.242 37.7369 64.1926 37.7392 64.142 37.7422C64.0913 37.7462 64.0375 37.7507 63.9805 37.7578C63.993 37.5715 64.0023 37.399 64.0085 37.2411C64.0148 37.0824 64.0178 36.9343 64.0178 36.7968C64.0178 36.4784 63.993 36.2699 63.9428 36.1724C63.893 36.0742 63.8036 36.0253 63.6759 36.0253C63.5496 36.0253 63.4593 36.0742 63.4055 36.1724C63.3526 36.2699 63.3254 36.4442 63.3254 36.6941V37.37C63.3254 37.4354 63.3299 37.5506 63.3402 37.716C63.3415 37.7356 63.3424 37.7494 63.3424 37.7578C63.2824 37.7507 63.2263 37.7462 63.1743 37.7422C63.1222 37.7392 63.0716 37.7369 63.0235 37.7369C62.9741 37.7369 62.9248 37.7392 62.8741 37.7431C62.823 37.7471 62.7669 37.7516 62.7065 37.7578C62.7171 37.5981 62.7256 37.4434 62.7313 37.2945C62.7363 37.1455 62.7398 37.0045 62.7398 36.8707C62.7398 36.4976 62.7154 36.2637 62.6665 36.168C62.618 36.0728 62.529 36.0253 62.3997 36.0253C62.2747 36.0253 62.1857 36.0737 62.1328 36.1711C62.0799 36.2681 62.0533 36.4428 62.0533 36.6941V37.37C62.0533 37.4367 62.0581 37.5528 62.0679 37.7182C62.0692 37.7365 62.0692 37.7494 62.0679 37.7578C62.015 37.7507 61.9639 37.7462 61.9128 37.7422C61.862 37.7392 61.8117 37.7369 61.7615 37.7369C61.7157 37.7369 61.6677 37.7392 61.6174 37.7422C61.5676 37.7462 61.512 37.7507 61.4507 37.7578Z" fill="white"/>
<path fill-rule="evenodd" clip-rule="evenodd" d="M65.6412 36.7357C65.6412 37.0599 65.6749 37.2875 65.7425 37.4196C65.8101 37.5517 65.9226 37.618 66.0813 37.618C66.241 37.618 66.3548 37.5517 66.4233 37.4187C66.4909 37.2858 66.5256 37.0585 66.5256 36.7357C66.5256 36.412 66.4909 36.1829 66.4233 36.0486C66.3548 35.9143 66.241 35.8476 66.0813 35.8476C65.9226 35.8476 65.8101 35.9139 65.7425 36.0463C65.6749 36.1794 65.6412 36.4093 65.6412 36.7357ZM65.0139 36.7336C65.0139 36.3929 65.1082 36.1284 65.2972 35.9394C65.4862 35.75 65.749 35.6557 66.086 35.6557C66.428 35.6557 66.6913 35.749 66.8763 35.9358C67.0608 36.123 67.1538 36.389 67.1538 36.7336C67.1538 37.0715 67.0591 37.3348 66.871 37.5229C66.6824 37.7114 66.4196 37.8057 66.0816 37.8057C65.7419 37.8057 65.4791 37.7114 65.2936 37.5238C65.1069 37.3366 65.0139 37.0728 65.0139 36.7336Z" fill="white"/>
<path fill-rule="evenodd" clip-rule="evenodd" d="M67.5298 37.7578C67.5408 37.5693 67.5493 37.3909 67.5546 37.2233C67.5605 37.0552 67.5631 36.8947 67.5631 36.7404C67.5631 36.5669 67.5605 36.3948 67.5546 36.2241C67.5493 36.0537 67.5408 35.8843 67.5298 35.7162C67.5742 35.722 67.6205 35.7264 67.6689 35.7291C67.7165 35.7317 67.7685 35.7331 67.8241 35.7331C67.8798 35.7331 67.9309 35.7317 67.9775 35.7291C68.0238 35.7264 68.0683 35.722 68.1101 35.7162V36.0106C68.1972 35.8955 68.2951 35.8096 68.404 35.754C68.5121 35.6984 68.6335 35.6709 68.7686 35.6709C68.8727 35.6709 68.9684 35.6887 69.0542 35.7238C69.1405 35.7594 69.2134 35.8109 69.2729 35.879C69.3206 35.9345 69.3543 36.0031 69.3748 36.0844C69.3948 36.1658 69.4051 36.305 69.4051 36.5029C69.4051 36.5305 69.4037 36.6034 69.4028 36.723C69.4011 36.8413 69.4006 36.9462 69.4006 37.0365C69.4006 37.1699 69.4028 37.2958 69.4081 37.414C69.4126 37.5319 69.4202 37.6466 69.4299 37.7578C69.3699 37.7507 69.3138 37.7462 69.2619 37.7422C69.2098 37.7392 69.1591 37.7369 69.1106 37.7369C69.0617 37.7369 69.0123 37.7392 68.9617 37.7422C68.9106 37.7462 68.8559 37.7507 68.7958 37.7578C68.8055 37.6373 68.8131 37.4924 68.8199 37.3242C68.826 37.1561 68.8292 36.9693 68.8292 36.7635C68.8292 36.4531 68.8047 36.2534 68.7549 36.1641C68.7059 36.0742 68.6165 36.0293 68.4872 36.0293C68.3578 36.0293 68.2652 36.0826 68.2088 36.1898C68.1527 36.297 68.1243 36.4775 68.1243 36.7319C68.1243 36.8515 68.1265 36.997 68.1301 37.1678C68.1349 37.339 68.1398 37.5354 68.147 37.7578C68.094 37.7507 68.0425 37.7462 67.9909 37.7422C67.9393 37.7392 67.8895 37.7369 67.8406 37.7369C67.7934 37.7369 67.744 37.7392 67.6929 37.7422C67.641 37.7462 67.5866 37.7507 67.5298 37.7578Z" fill="white"/>
<path fill-rule="evenodd" clip-rule="evenodd" d="M70.5877 37.7571C70.4649 37.2887 70.3297 36.8111 70.1821 36.3255C70.0341 35.8399 69.8731 35.3445 69.6992 34.8394C69.7534 34.8451 69.8099 34.8496 69.8695 34.8523C69.9282 34.8554 69.9926 34.8567 70.0621 34.8567C70.1301 34.8567 70.1932 34.8554 70.2515 34.8523C70.3102 34.8496 70.3667 34.8451 70.421 34.8394C70.5028 35.197 70.5916 35.5536 70.6878 35.9098C70.7838 36.2655 70.8857 36.6191 70.9941 36.9708C71.1289 36.5831 71.2565 36.2144 71.3757 35.8644C71.4953 35.5153 71.6101 35.1733 71.7199 34.8394C71.7528 34.8451 71.787 34.8496 71.8213 34.8523C71.855 34.8554 71.8919 34.8567 71.9329 34.8567C71.9747 34.8567 72.0129 34.8554 72.0481 34.8523C72.0841 34.8496 72.1184 34.8451 72.1517 34.8394C72.2517 35.1773 72.3593 35.5216 72.4737 35.871C72.5888 36.2206 72.7093 36.5777 72.8374 36.9419C72.957 36.5995 73.0686 36.254 73.1727 35.9045C73.2759 35.5549 73.3719 35.2 73.4613 34.8394C73.4907 34.8451 73.521 34.8496 73.553 34.8523C73.585 34.8554 73.6196 34.8567 73.6574 34.8567C73.6948 34.8567 73.729 34.8554 73.7606 34.8523C73.7918 34.8496 73.8219 34.8451 73.8513 34.8394C73.6992 35.2721 73.5435 35.7305 73.3831 36.2149C73.2225 36.6996 73.0557 37.2136 72.8837 37.7571C72.8445 37.7499 72.8072 37.7455 72.7699 37.7415C72.7329 37.7383 72.6968 37.7361 72.6622 37.7361C72.6302 37.7361 72.5964 37.7383 72.5604 37.7415C72.5243 37.7455 72.4843 37.7499 72.4417 37.7571C72.3425 37.4279 72.2366 37.0914 72.1224 36.7476C72.0085 36.4047 71.8853 36.0521 71.7528 35.6909C71.6251 36.0161 71.5007 36.3509 71.3793 36.6956C71.2574 37.0406 71.1382 37.3946 71.0213 37.7571C70.9821 37.7499 70.9448 37.7455 70.9088 37.7415C70.8723 37.7383 70.8376 37.7361 70.8047 37.7361C70.7709 37.7361 70.7367 37.7383 70.7011 37.7415C70.666 37.7455 70.6282 37.7499 70.5877 37.7571Z" fill="white"/>
<path fill-rule="evenodd" clip-rule="evenodd" d="M74.567 36.5265H75.2905C75.2905 36.5114 75.2914 36.4922 75.2927 36.4691C75.2941 36.4464 75.295 36.4313 75.295 36.4246C75.295 36.2312 75.267 36.0849 75.2105 35.9862C75.1545 35.8879 75.0708 35.8381 74.9615 35.8381C74.8365 35.8381 74.7391 35.8946 74.6702 36.0071C74.6013 36.1196 74.567 36.2801 74.567 36.4887V36.5265ZM74.5657 36.738C74.5657 36.984 74.6244 37.1791 74.7418 37.3237C74.8596 37.4682 75.0175 37.5406 75.2162 37.5406C75.315 37.5406 75.4097 37.5238 75.4999 37.4904C75.5902 37.4575 75.6783 37.4069 75.7628 37.3383L75.8046 37.37L75.7107 37.6118C75.6214 37.6741 75.5169 37.7222 75.3968 37.7555C75.2768 37.7889 75.146 37.8057 75.0054 37.8057C74.6733 37.8057 74.4132 37.7074 74.2246 37.5113C74.0365 37.3156 73.9426 37.0444 73.9426 36.6984C73.9426 36.3871 74.036 36.135 74.2237 35.9433C74.4113 35.7513 74.66 35.6557 74.9685 35.6557C75.2612 35.6557 75.4866 35.7371 75.6427 35.8998C75.7993 36.0621 75.8779 36.296 75.8779 36.6001C75.8779 36.6361 75.8775 36.6642 75.8762 36.6838C75.8758 36.7033 75.8745 36.7207 75.8731 36.7358L74.5657 36.738Z" fill="white"/>
<path fill-rule="evenodd" clip-rule="evenodd" d="M77.2738 36.6317C77.0764 36.6722 76.9345 36.7331 76.8464 36.8154C76.7589 36.8972 76.7152 37.0111 76.7152 37.1569C76.7152 37.2796 76.737 37.3713 76.7815 37.4322C76.8264 37.4936 76.8923 37.5243 76.9794 37.5243C77.0741 37.5243 77.1466 37.49 77.1982 37.422C77.2485 37.3539 77.2738 37.2561 77.2738 37.128V36.6317ZM77.292 37.4874C77.2311 37.59 77.1506 37.6692 77.0514 37.7248C76.9518 37.7804 76.8397 37.8084 76.7148 37.8084C76.5351 37.8084 76.3942 37.7551 76.2923 37.6487C76.1901 37.5425 76.1389 37.397 76.1389 37.2139C76.1389 37.0791 76.1753 36.9679 76.2474 36.8804C76.3198 36.7927 76.4333 36.7234 76.5867 36.6718C76.6374 36.6549 76.7094 36.6322 76.8042 36.6029C77.0265 36.5361 77.179 36.4748 77.2608 36.4192C77.2622 36.4112 77.2631 36.4014 77.264 36.3916C77.2644 36.3806 77.2648 36.3658 77.2648 36.3463C77.2648 36.2173 77.2279 36.1145 77.1542 36.038C77.0807 35.9616 76.983 35.9229 76.8607 35.9229C76.7646 35.9229 76.6774 35.9501 76.5987 36.0047C76.5204 36.059 76.4475 36.1412 76.3808 36.2524C76.3599 36.1861 76.3425 36.1323 76.3283 36.0919C76.3145 36.0519 76.3007 36.0141 76.287 35.9794C76.4133 35.8696 76.5382 35.7878 76.6618 35.7344C76.7859 35.681 76.9149 35.6539 77.0483 35.6539C77.304 35.6539 77.5006 35.713 77.6371 35.8314C77.774 35.9496 77.843 36.1181 77.843 36.3382V36.3587L77.8296 37.1031V37.1849C77.8296 37.3584 77.8492 37.47 77.8875 37.5194C77.9257 37.5688 78.0004 37.5936 78.1116 37.5936H78.1244V37.6999C78.0515 37.7301 77.9769 37.7538 77.899 37.7693C77.8212 37.7853 77.7464 37.7938 77.6762 37.7938C77.5726 37.7938 77.489 37.7675 77.4232 37.7155C77.3582 37.6635 77.3142 37.587 77.292 37.4874Z" fill="white"/>
<path fill-rule="evenodd" clip-rule="evenodd" d="M78.4138 37.7547C78.424 37.5146 78.4329 37.2638 78.4391 37.0023C78.4436 36.7408 78.4472 36.4606 78.4472 36.1618C78.4472 35.8447 78.4436 35.5552 78.4391 35.2933C78.4329 35.0314 78.424 34.7837 78.4138 34.552C78.4814 34.5627 78.5396 34.5706 78.5886 34.5747C78.637 34.5787 78.6841 34.5809 78.7309 34.5809C78.7758 34.5809 78.8246 34.5782 78.8763 34.5738C78.9274 34.5689 78.9856 34.5613 79.0497 34.552C79.0382 34.7922 79.0301 35.0429 79.0244 35.3044C79.0186 35.566 79.0159 35.8461 79.0159 36.1449C79.0159 36.462 79.0186 36.7515 79.0244 37.0134C79.0301 37.2757 79.0382 37.523 79.0497 37.7547C79.0021 37.7454 78.9523 37.7382 78.8994 37.7329C78.8464 37.728 78.7913 37.7257 78.7344 37.7257C78.6775 37.7257 78.6228 37.728 78.5695 37.7329C78.5169 37.7382 78.4644 37.7454 78.4138 37.7547Z" fill="white"/>
<path fill-rule="evenodd" clip-rule="evenodd" d="M79.636 35.9525H79.5585C79.5012 35.9525 79.4585 35.9529 79.4283 35.9534C79.3985 35.9542 79.3709 35.9551 79.3464 35.9564C79.3482 35.9413 79.3504 35.9267 79.3513 35.9129C79.3518 35.8987 79.3523 35.8764 79.3523 35.8462C79.3523 35.8155 79.3513 35.7924 79.3496 35.7763C79.3482 35.7604 79.3474 35.7461 79.3464 35.7332C79.3513 35.735 79.3598 35.7363 79.3709 35.7377C79.4723 35.7475 79.5447 35.7523 79.5883 35.7523L79.636 35.7502C79.6373 35.7305 79.6381 35.7097 79.639 35.6879C79.6394 35.6656 79.64 35.6314 79.64 35.5856C79.64 35.53 79.6386 35.4704 79.636 35.4082C79.6328 35.3455 79.6288 35.2676 79.6235 35.1747C79.7218 35.1369 79.8191 35.0978 79.9152 35.0559C80.0112 35.0141 80.1047 34.971 80.1949 34.9266L80.2403 34.9621C80.2322 35.1245 80.2256 35.2605 80.222 35.3699C80.2176 35.4788 80.2159 35.5616 80.2159 35.6185V35.7523C80.2932 35.7523 80.3666 35.7506 80.4333 35.7479C80.5009 35.7457 80.5666 35.7413 80.6307 35.7354C80.6259 35.7674 80.624 35.7906 80.6236 35.8044C80.6227 35.8186 80.6227 35.8324 80.6227 35.8462C80.6227 35.8697 80.6244 35.9026 80.6285 35.944C80.6312 35.9498 80.6316 35.9538 80.6307 35.9564C80.5969 35.9551 80.5528 35.9542 80.4986 35.9534C80.4439 35.9529 80.3475 35.9525 80.2074 35.9525C80.2074 35.9733 80.206 36.0058 80.2051 36.0507C80.1954 36.3456 80.1905 36.5555 80.1905 36.6813V36.853C80.1905 37.1793 80.206 37.3817 80.2385 37.4595C80.2705 37.5378 80.3323 37.577 80.4239 37.577C80.4702 37.577 80.552 37.5618 80.6703 37.5311L80.6725 37.5289V37.6876C80.5787 37.729 80.4928 37.7597 80.4123 37.7792C80.3327 37.7988 80.2558 37.8086 80.182 37.8086C80.0002 37.8086 79.861 37.7601 79.7653 37.6632C79.6693 37.5658 79.6218 37.4257 79.6218 37.2416C79.6218 37.2345 79.6239 37.1131 79.6284 36.8765C79.6333 36.6399 79.636 36.4074 79.636 36.1784V35.9525Z" fill="white"/>
<path fill-rule="evenodd" clip-rule="evenodd" d="M80.9456 37.7547C80.9576 37.6049 80.9665 37.4189 80.9713 37.197C80.9762 36.9756 80.9785 36.6545 80.9785 36.2347C80.9785 35.7896 80.9762 35.4431 80.9713 35.1941C80.9665 34.9456 80.9576 34.7312 80.9456 34.552C81.0039 34.5627 81.0581 34.5711 81.1088 34.5769C81.1595 34.5822 81.2088 34.5849 81.256 34.5849C81.3063 34.5849 81.3565 34.5822 81.408 34.5769C81.4592 34.5711 81.5135 34.5627 81.569 34.552C81.5548 34.6689 81.5442 34.7939 81.5362 34.9274C81.529 35.0603 81.5246 35.2048 81.5246 35.3586V36.0222C81.6029 35.9039 81.6967 35.8154 81.8065 35.7563C81.9163 35.6971 82.0417 35.6677 82.1836 35.6677C82.2868 35.6677 82.3811 35.6855 82.4664 35.7207C82.5523 35.7563 82.6243 35.8078 82.6821 35.8758C82.7324 35.9328 82.7675 36.0039 82.7888 36.0889C82.8093 36.1733 82.82 36.3103 82.82 36.4998C82.82 36.5273 82.8191 36.6002 82.8178 36.7199C82.8159 36.8382 82.8155 36.9432 82.8155 37.0334C82.8155 37.1903 82.8178 37.3256 82.8222 37.439C82.8261 37.5524 82.8324 37.6573 82.8409 37.7547C82.7826 37.7475 82.727 37.7431 82.6741 37.7391C82.6212 37.736 82.5718 37.7338 82.5256 37.7338C82.4771 37.7338 82.4273 37.736 82.3771 37.7391C82.3259 37.7431 82.2708 37.7475 82.2112 37.7547C82.2205 37.6342 82.2281 37.4892 82.2339 37.3212C82.2392 37.153 82.2419 36.9663 82.2419 36.7604C82.2419 36.45 82.2183 36.2503 82.1694 36.1609C82.1209 36.0711 82.032 36.0262 81.9025 36.0262C81.7731 36.0262 81.6807 36.0796 81.6242 36.1867C81.5682 36.2938 81.5397 36.4744 81.5397 36.7288C81.5397 36.8622 81.5419 37.0161 81.5472 37.1899C81.5517 37.3634 81.558 37.5519 81.5664 37.7547C81.5108 37.7475 81.4578 37.7431 81.4059 37.7391C81.3548 37.736 81.3049 37.7338 81.256 37.7338C81.2088 37.7338 81.1595 37.736 81.1075 37.7391C81.0563 37.7431 81.002 37.7475 80.9456 37.7547Z" fill="white"/>
<path fill-rule="evenodd" clip-rule="evenodd" d="M52.5261 42.5196C52.5608 42.2999 52.5911 42.1118 52.6159 41.9544C52.6409 41.7974 52.6577 41.6853 52.6662 41.6191L52.9392 39.6019C52.9668 39.6078 52.9957 39.6122 53.0259 39.6148C53.0553 39.618 53.0878 39.6193 53.1225 39.6193C53.1571 39.6193 53.1905 39.618 53.2216 39.6148C53.2528 39.6122 53.2835 39.6078 53.3123 39.6019C53.4649 39.943 53.624 40.2792 53.7891 40.6106C53.9535 40.9422 54.1234 41.2709 54.2986 41.5982C54.4668 41.2825 54.6322 40.9583 54.7949 40.6261C54.9577 40.2939 55.1165 39.9528 55.2726 39.6019C55.3028 39.6078 55.3343 39.6122 55.3663 39.6148C55.3984 39.618 55.4322 39.6193 55.4686 39.6193C55.5047 39.6193 55.5394 39.618 55.5718 39.6148C55.6047 39.6122 55.6358 39.6078 55.6644 39.6019L55.9085 41.6435C55.9352 41.8694 55.9587 42.0469 55.9796 42.1758C56.0005 42.3048 56.0218 42.4191 56.0445 42.5196C55.9743 42.5133 55.9102 42.5089 55.8511 42.505C55.7924 42.501 55.736 42.4987 55.6812 42.4987C55.6274 42.4987 55.5705 42.501 55.5114 42.504C55.4522 42.5076 55.3913 42.5125 55.329 42.5196C55.3277 42.5099 55.3259 42.4951 55.3246 42.4756C55.3121 42.1768 55.3019 41.9917 55.2939 41.9211L55.1556 40.5594C54.9955 40.8653 54.8359 41.1802 54.6762 41.5043C54.5162 41.8281 54.3529 42.1665 54.1861 42.5196C54.1764 42.5169 54.1657 42.5147 54.1537 42.5133C54.1421 42.512 54.1226 42.5112 54.0963 42.5112C54.0728 42.5112 54.0554 42.512 54.0443 42.5133C54.0332 42.5147 54.0225 42.5169 54.0128 42.5196C53.8473 42.1723 53.6854 41.841 53.5271 41.5262C53.3689 41.2113 53.2127 40.9121 53.0602 40.6283L52.9579 41.5145L52.9534 41.5475C52.9019 42.0082 52.8756 42.3319 52.8748 42.5196C52.8422 42.5125 52.8116 42.5076 52.7831 42.504C52.7534 42.501 52.7263 42.4987 52.7013 42.4987C52.6737 42.4987 52.6458 42.501 52.6182 42.504C52.5901 42.5076 52.5595 42.5125 52.5261 42.5196Z" fill="white"/>
<path fill-rule="evenodd" clip-rule="evenodd" d="M57.4918 41.3956C57.2944 41.4357 57.152 41.4971 57.064 41.5793C56.9768 41.6607 56.9329 41.7749 56.9329 41.9208C56.9329 42.0436 56.9551 42.1351 57 42.1961C57.0444 42.2575 57.1107 42.2877 57.1974 42.2877C57.2921 42.2877 57.3647 42.2539 57.4158 42.1859C57.4664 42.1179 57.4918 42.0196 57.4918 41.8919V41.3956ZM57.5119 42.2507C57.4502 42.3539 57.3701 42.4331 57.271 42.4886C57.1714 42.5442 57.0593 42.5718 56.9339 42.5718C56.7547 42.5718 56.6137 42.5189 56.5118 42.4126C56.4095 42.3058 56.3584 42.1609 56.3584 41.9776C56.3584 41.843 56.3945 41.7318 56.4669 41.6437C56.5394 41.5566 56.6528 41.4872 56.8067 41.4352C56.8565 41.4187 56.929 41.396 57.0233 41.3667C57.246 41.3 57.3986 41.2386 57.4804 41.183C57.4818 41.175 57.4826 41.1652 57.4839 41.1555C57.4844 41.1443 57.4844 41.1297 57.4844 41.1101C57.4844 40.9807 57.4475 40.878 57.3737 40.8015C57.3003 40.725 57.2025 40.6868 57.0801 40.6868C56.9841 40.6868 56.897 40.7139 56.8182 40.7682C56.74 40.8224 56.6671 40.9051 56.6004 41.0163C56.5794 40.9496 56.5621 40.8962 56.5483 40.8557C56.5341 40.8153 56.5203 40.7779 56.5061 40.7432C56.6328 40.6334 56.7578 40.5516 56.8818 40.4982C57.0055 40.4449 57.1339 40.4177 57.2678 40.4177C57.5235 40.4177 57.7201 40.4769 57.8566 40.5951C57.9935 40.7129 58.0625 40.882 58.0625 41.1017V41.1225L58.0496 41.867V41.9488C58.0496 42.1223 58.0687 42.2338 58.107 42.2832C58.1452 42.3325 58.22 42.3575 58.3311 42.3575H58.344V42.4637C58.2715 42.494 58.1963 42.5175 58.1185 42.5331C58.0407 42.5491 57.966 42.5575 57.8958 42.5575C57.7922 42.5575 57.7085 42.5313 57.6431 42.4789C57.5778 42.4272 57.5337 42.3508 57.5119 42.2507Z" fill="white"/>
<path fill-rule="evenodd" clip-rule="evenodd" d="M59.115 41.0987C59.115 41.2739 59.1408 41.4025 59.1911 41.4847C59.2422 41.5665 59.3222 41.6074 59.4321 41.6074C59.5464 41.6074 59.6282 41.5648 59.6784 41.478C59.7282 41.3922 59.7536 41.2499 59.7536 41.0506C59.7536 40.8968 59.7278 40.7817 59.6775 40.7069C59.6264 40.6317 59.5491 40.594 59.4449 40.594C59.3404 40.594 59.2595 40.638 59.2017 40.7256C59.144 40.8128 59.115 40.9372 59.115 41.0987ZM59.1144 42.6436C59.0451 42.6796 58.9907 42.7312 58.9521 42.798C58.9129 42.8647 58.8934 42.9402 58.8934 43.0251C58.8934 43.1711 58.9428 43.288 59.0406 43.3756C59.1388 43.4632 59.2705 43.5072 59.4359 43.5072C59.6289 43.5072 59.7805 43.4671 59.8903 43.388C60.0002 43.3084 60.0549 43.1991 60.0549 43.0586C60.0549 42.9323 60.0193 42.838 59.9477 42.7757C59.8761 42.7143 59.7623 42.6787 59.6066 42.6707L59.1144 42.6436ZM58.9272 42.6171L58.9313 42.5832C58.845 42.557 58.7778 42.5148 58.7303 42.4561C58.6818 42.3978 58.6583 42.3275 58.6583 42.2457C58.6583 42.1497 58.6952 42.0607 58.7685 41.9789C58.8423 41.8971 58.9477 41.8264 59.0856 41.7681V41.7156C58.9033 41.6796 58.7663 41.6107 58.6734 41.5084C58.5814 41.4061 58.535 41.2732 58.535 41.109C58.535 40.9018 58.6147 40.7355 58.7734 40.6097C58.9331 40.4843 59.1469 40.4207 59.4151 40.4207C59.44 40.4207 59.5351 40.4269 59.6997 40.4385C59.8643 40.4509 60.0167 40.4562 60.1573 40.4562C60.2146 40.4562 60.2747 40.4549 60.3387 40.4532C60.4023 40.4514 60.4703 40.4483 60.5411 40.4439V40.6524C60.4535 40.6484 60.3352 40.6435 60.1849 40.6377C60.1538 40.6368 60.1324 40.6359 60.1199 40.6359C60.1938 40.6831 60.2489 40.7431 60.2858 40.8151C60.3223 40.8872 60.341 40.9726 60.341 41.0717C60.341 41.2927 60.2565 41.4658 60.0875 41.5898C59.919 41.7143 59.6824 41.7766 59.3796 41.7766H59.3066C59.251 41.7824 59.2056 41.8037 59.1705 41.8415C59.1359 41.8788 59.1189 41.9251 59.1189 41.9807C59.1189 42.1101 59.3209 42.1826 59.726 42.1977C59.7353 42.1977 59.7433 42.1977 59.7486 42.1977C59.7611 42.1991 59.7785 42.2004 59.8012 42.2017C60.0603 42.2142 60.2285 42.2417 60.3036 42.2835C60.3894 42.3333 60.4557 42.4014 60.5002 42.4877C60.546 42.5739 60.5686 42.674 60.5686 42.7878C60.5686 43.0506 60.4601 43.2659 60.2432 43.4335C60.0262 43.6007 59.7446 43.6848 59.3982 43.6848C59.1136 43.6848 58.8908 43.6358 58.7312 43.5376C58.5711 43.4397 58.4915 43.3055 58.4915 43.1342C58.4915 43.0093 58.527 42.9038 58.6 42.8193C58.6716 42.7341 58.781 42.6669 58.9272 42.6171Z" fill="white"/>
<path fill-rule="evenodd" clip-rule="evenodd" d="M61.8408 41.3956C61.6434 41.4357 61.501 41.4971 61.413 41.5793C61.3258 41.6607 61.2822 41.7749 61.2822 41.9208C61.2822 42.0436 61.304 42.1351 61.3485 42.1961C61.3934 42.2575 61.4593 42.2877 61.5464 42.2877C61.6411 42.2877 61.714 42.2539 61.7648 42.1859C61.8155 42.1179 61.8408 42.0196 61.8408 41.8919V41.3956ZM61.8589 42.2507C61.7971 42.3539 61.717 42.4331 61.6178 42.4886C61.5182 42.5442 61.4062 42.5718 61.2812 42.5718C61.1015 42.5718 60.9606 42.5189 60.8587 42.4126C60.7565 42.3058 60.7053 42.1609 60.7053 41.9776C60.7053 41.843 60.7413 41.7318 60.8138 41.6437C60.8858 41.5566 60.9997 41.4872 61.1536 41.4352C61.2034 41.4187 61.2759 41.396 61.3706 41.3667C61.5929 41.3 61.745 41.2386 61.8273 41.183C61.8286 41.175 61.8295 41.1652 61.8304 41.1555C61.8308 41.1443 61.8312 41.1297 61.8312 41.1101C61.8312 40.9807 61.7944 40.878 61.7206 40.8015C61.6472 40.725 61.5494 40.6868 61.4271 40.6868C61.331 40.6868 61.2439 40.7139 61.1651 40.7682C61.0869 40.8224 61.014 40.9051 60.9472 41.0163C60.9263 40.9496 60.9089 40.8962 60.8947 40.8557C60.881 40.8153 60.8672 40.7779 60.8534 40.7432C60.9797 40.6334 61.1051 40.5516 61.2288 40.4982C61.3524 40.4449 61.4813 40.4177 61.6147 40.4177C61.8704 40.4177 62.067 40.4769 62.2035 40.5951C62.3409 40.7129 62.4094 40.882 62.4094 41.1017V41.1225L62.3965 41.867V41.9488C62.3965 42.1223 62.4156 42.2338 62.4539 42.2832C62.4921 42.3325 62.5668 42.3575 62.678 42.3575H62.6904V42.4637C62.6184 42.494 62.5433 42.5175 62.4654 42.5331C62.3876 42.5491 62.3128 42.5575 62.2426 42.5575C62.139 42.5575 62.0554 42.5313 61.9901 42.4789C61.9247 42.4272 61.8806 42.3508 61.8589 42.2507Z" fill="white"/>
<path fill-rule="evenodd" clip-rule="evenodd" d="M62.7439 42.5162L62.7422 42.4478C62.9022 42.2071 63.1509 41.8283 63.4888 41.3111L63.8868 40.7023C63.7978 40.6979 63.7285 40.6957 63.6796 40.6943C63.6302 40.6939 63.5827 40.6934 63.5364 40.6934C63.4212 40.6934 63.2384 40.6983 62.988 40.7085C62.9659 40.7085 62.9498 40.7089 62.9405 40.7103C62.9427 40.6952 62.945 40.6796 62.9467 40.6646C62.9481 40.6494 62.949 40.6254 62.949 40.5938C62.949 40.5614 62.9481 40.5373 62.9467 40.5209C62.945 40.504 62.9427 40.4884 62.9405 40.4746C63.0681 40.4804 63.202 40.4849 63.3416 40.4871C63.4812 40.4898 63.6306 40.4915 63.7889 40.4915C63.9491 40.4915 64.0967 40.4898 64.2332 40.4871C64.3693 40.4849 64.4983 40.4804 64.621 40.4746V40.5267C64.5209 40.6769 64.3817 40.8896 64.2029 41.164C64.0247 41.4388 63.784 41.8092 63.4825 42.2766C63.5853 42.281 63.6622 42.2836 63.713 42.284C63.7636 42.2846 63.8117 42.2846 63.8584 42.2846C63.9868 42.2846 64.1136 42.2827 64.2364 42.2779C64.3595 42.2725 64.4805 42.2658 64.6006 42.2579C64.5974 42.2841 64.5952 42.3068 64.5938 42.3263C64.5925 42.3459 64.5921 42.3632 64.5921 42.3783C64.5921 42.3944 64.5925 42.4117 64.5938 42.4308C64.5952 42.4504 64.5974 42.4789 64.6006 42.5162C64.4751 42.5092 64.34 42.5042 64.1946 42.5007C64.0495 42.4976 63.881 42.4953 63.6912 42.4953C63.5017 42.4953 63.3305 42.4976 63.178 42.5007C63.0246 42.5042 62.8805 42.5092 62.7439 42.5162Z" fill="white"/>
<path fill-rule="evenodd" clip-rule="evenodd" d="M64.9797 42.5166C64.9904 42.2987 64.998 42.1089 65.0024 41.9487C65.0073 41.7877 65.0096 41.637 65.0096 41.497C65.0096 41.336 65.0069 41.1714 65.0015 41.0038C64.9962 40.8366 64.9891 40.6601 64.9797 40.475C65.0291 40.4794 65.0798 40.4826 65.1327 40.4848C65.1857 40.4866 65.2403 40.4874 65.2959 40.4874C65.352 40.4874 65.4067 40.4866 65.4605 40.4848C65.5138 40.4826 65.5645 40.4794 65.612 40.475C65.6023 40.6601 65.5948 40.8366 65.5903 41.0038C65.5849 41.1714 65.5827 41.336 65.5827 41.497C65.5827 41.637 65.5849 41.7882 65.5903 41.9496C65.5948 42.1106 65.6023 42.3 65.612 42.5166C65.5578 42.5095 65.5041 42.5046 65.452 42.5011C65.3995 42.4979 65.348 42.4957 65.2959 42.4957C65.2457 42.4957 65.1945 42.4979 65.142 42.5011C65.0895 42.5046 65.0357 42.5095 64.9797 42.5166ZM64.9751 39.7063C64.9751 39.6161 65.0063 39.5396 65.0686 39.4769C65.1313 39.4141 65.2086 39.383 65.3006 39.383C65.3887 39.383 65.4643 39.4146 65.5265 39.4777C65.5884 39.5413 65.6191 39.6169 65.6191 39.7063C65.6191 39.7966 65.5879 39.8731 65.5256 39.9344C65.4625 39.9967 65.386 40.0274 65.2958 40.0274C65.2055 40.0274 65.1294 39.9967 65.0677 39.9344C65.0059 39.8731 64.9751 39.7966 64.9751 39.7063Z" fill="white"/>
<path fill-rule="evenodd" clip-rule="evenodd" d="M66.1479 42.5189C66.1595 42.3303 66.1675 42.1519 66.1733 41.9843C66.1786 41.8163 66.1817 41.6557 66.1817 41.5014C66.1817 41.3279 66.1786 41.1559 66.1733 40.9851C66.1675 40.8143 66.1595 40.6453 66.1479 40.4772C66.1924 40.483 66.2387 40.4874 66.2871 40.4897C66.3347 40.4923 66.3868 40.4942 66.4423 40.4942C66.4979 40.4942 66.5491 40.4923 66.5957 40.4897C66.642 40.4874 66.6864 40.483 66.7282 40.4772V40.7716C66.8154 40.656 66.9137 40.5707 67.0222 40.515C67.1307 40.4595 67.2521 40.4315 67.3873 40.4315C67.4909 40.4315 67.5865 40.4497 67.6728 40.4848C67.759 40.5204 67.8316 40.572 67.8916 40.64C67.9387 40.6956 67.9725 40.7641 67.9929 40.8455C68.013 40.9268 68.0232 41.066 68.0232 41.2635C68.0232 41.2915 68.0223 41.3644 68.0214 41.4836C68.0192 41.6023 68.0187 41.7072 68.0187 41.7975C68.0187 41.9309 68.0214 42.0568 68.0263 42.1751C68.0312 42.293 68.0383 42.4077 68.0481 42.5189C67.9885 42.5117 67.9325 42.5068 67.8804 42.5032C67.828 42.5002 67.7772 42.4979 67.7293 42.4979C67.6803 42.4979 67.6305 42.5002 67.5803 42.5032C67.5291 42.5068 67.474 42.5117 67.4144 42.5189C67.4238 42.3979 67.4318 42.2534 67.4384 42.0848C67.4442 41.9167 67.4477 41.7299 67.4477 41.5245C67.4477 41.2141 67.4233 41.014 67.3735 40.9246C67.3242 40.8348 67.2348 40.7899 67.1058 40.7899C66.9764 40.7899 66.8835 40.8436 66.8269 40.9508C66.771 41.058 66.743 41.2385 66.743 41.493C66.743 41.6125 66.7451 41.758 66.7487 41.9288C66.7532 42.1 66.7585 42.2965 66.7656 42.5189C66.7127 42.5117 66.6606 42.5068 66.6091 42.5032C66.558 42.5002 66.5076 42.4979 66.4592 42.4979C66.4121 42.4979 66.3623 42.5002 66.3116 42.5032C66.2591 42.5068 66.2053 42.5117 66.1479 42.5189Z" fill="white"/>
<path fill-rule="evenodd" clip-rule="evenodd" d="M69.0645 41.2922H69.7875C69.7875 41.2766 69.7885 41.258 69.7898 41.2343C69.7911 41.2117 69.7925 41.1966 69.7925 41.1899C69.7925 40.9964 69.764 40.8506 69.7075 40.7519C69.6514 40.6536 69.5679 40.6038 69.4584 40.6038C69.3336 40.6038 69.2361 40.6603 69.1677 40.7728C69.0987 40.8853 69.0645 41.0458 69.0645 41.2544V41.2922ZM69.0644 41.5035C69.0644 41.749 69.1231 41.9447 69.2405 42.0892C69.3579 42.2337 69.5158 42.3057 69.7145 42.3057C69.8137 42.3057 69.908 42.2893 69.9982 42.2559C70.0885 42.2226 70.1762 42.1719 70.2611 42.1039L70.3029 42.1355L70.209 42.3773C70.1196 42.4396 70.0156 42.4877 69.8951 42.521C69.7751 42.5544 69.6443 42.5708 69.5037 42.5708C69.1716 42.5708 68.9115 42.4729 68.7229 42.2769C68.5348 42.0811 68.4409 41.8099 68.4409 41.4635C68.4409 41.1522 68.5343 40.9005 68.722 40.7088C68.9096 40.5168 69.1583 40.4207 69.4668 40.4207C69.7594 40.4207 69.9849 40.5026 70.141 40.6649C70.2976 40.8276 70.3758 41.0615 70.3758 41.3656C70.3758 41.4017 70.3758 41.4297 70.3745 41.4493C70.374 41.4688 70.3727 41.4862 70.3713 41.5014L69.0644 41.5035Z" fill="white"/>
<path fill-rule="evenodd" clip-rule="evenodd" d="M59.2264 24.5566C59.1459 24.1458 58.9156 23.2737 58.7053 22.712L59.0259 22.552C59.4368 23.0029 59.8677 23.7851 60.0482 24.2458L59.2264 24.5566ZM57.9937 30.6902H58.9658V28.9564H57.9937V30.6902ZM57.9937 28.5044H58.9658V26.9409H57.9937V28.5044ZM57.9937 26.4894H58.9658V25.1464H57.9937V26.4894ZM56.8706 24.2354H52.5508V23.7844H54.7859C54.4252 23.4034 54.0641 23.0926 53.6835 22.7822L53.8236 22.4713C54.3847 22.6314 55.0665 22.9222 55.4871 23.2229L55.0864 23.7844H56.8706V24.2354ZM52.6601 27.3645L52.3893 27.1341C52.8603 26.3724 53.2111 25.2793 53.3917 24.3072L54.2036 24.498C54.1534 24.7484 54.0432 25.0391 53.9129 25.35C54.2939 25.6101 54.6244 25.8912 54.8751 26.1816L54.3037 26.7233C54.1432 26.4021 53.9528 26.0616 53.7425 25.7307C53.4419 26.3421 53.0408 26.9638 52.6601 27.3645ZM61.3602 30.6905V31.1517H57.9924V31.9134H57.1102L57.1204 26.6612C56.9799 26.8817 56.8398 27.1023 56.6891 27.3028L56.4084 27.0925C56.529 26.8417 56.6392 26.6016 56.729 26.3508L56.2582 26.7817C56.1078 26.4708 55.9273 26.14 55.7067 25.8296C55.5266 26.2103 55.2963 26.5811 55.0557 26.9115H55.226V27.8538H56.8896V28.3052H55.226V28.6658C55.8272 29.0065 56.3987 29.3573 56.8193 29.7584L56.2283 30.4197C55.9473 29.9991 55.5266 29.4978 55.226 29.147V31.9734H54.3638V29.3476C53.9831 29.919 53.3116 30.7003 52.4893 31.2918L52.2791 31.0013C53.0008 30.2796 53.6824 29.3974 54.1534 28.3052H52.4996V27.8538H54.3638V26.9115H54.6244C55.0352 26.1702 55.246 25.2581 55.3563 24.3456L56.1679 24.5462C56.1181 24.817 56.0175 25.1079 55.8975 25.4183C56.2484 25.649 56.569 25.8993 56.7993 26.1702C57.1502 25.1478 57.2703 24.065 57.4206 22.602L58.3331 22.7825C58.2726 23.4438 58.1526 24.0854 57.972 24.6969H61.2293V25.1478H59.8264V26.4908H60.979V26.9417H59.8264V28.5053H60.9892V28.9567H59.8264V30.6905H61.3602Z" fill="white"/>
<path fill-rule="evenodd" clip-rule="evenodd" d="M72.5275 30.1874L71.7355 30.5783C71.4851 29.7765 71.224 29.0846 70.8937 28.4033L71.1742 28.213C71.7355 28.7942 72.1967 29.4657 72.5275 30.1874ZM68.9792 26.968C69.4701 27.1784 70.3821 27.6795 70.7633 28.0704L70.1719 28.7419C69.821 28.3012 69.1895 27.6297 68.7986 27.2589L68.9792 26.968ZM70.9447 29.4162C71.4054 31.0598 71.4859 31.7015 69.9223 31.7015C68.4589 31.7015 68.2583 31.5912 68.2583 30.5089V27.9025H69.1401V30.3483C69.1401 30.7489 69.2308 30.8797 69.8619 30.8797C70.5836 30.8797 70.5934 30.7489 70.5836 29.4162H70.9447ZM69.1592 24.756H67.0945V24.3046H69.1592V22.621H70.0614V24.3046H72.1666V24.756H70.0614V26.4899H72.0359V26.9408H67.3053V26.4899H69.1592V24.756ZM64.6494 30.7388H65.7918V28.9147H64.6494V30.7388ZM67.6366 28.4329L67.9875 28.5028C67.927 29.5652 67.6967 30.4474 67.2355 31.0589L66.5636 30.5578V31.7704H65.8023V31.179H64.6496V31.9109H63.8679V28.473H66.5636V30.4576C67.0749 29.936 67.4658 29.3348 67.6366 28.4329ZM63.8375 27.5006H66.6542V27.0795H63.8375V27.5006ZM63.8375 26.1181H66.6542V25.697H63.8375V26.1181ZM66.8845 24.757H63.5466V24.3056H65.0804C64.7496 23.7346 64.3786 23.1129 64.1483 22.7825L64.3987 22.5317C64.8696 22.8425 65.5313 23.3837 65.9422 23.9049L65.421 24.3056H66.8845V24.757Z" fill="white"/>
<path fill-rule="evenodd" clip-rule="evenodd" d="M49.3556 31.7893C49.1395 31.5434 48.9073 31.3962 48.7838 31.3295C48.7539 31.3161 48.7251 31.3019 48.6961 31.2854L48.6944 31.2846C48.5556 31.2055 48.4257 31.0987 48.2723 31.0591C48.0406 30.9991 47.7929 31.028 47.559 30.9782C47.2299 30.9084 46.9027 30.8265 46.5696 30.7754C46.1547 30.7114 45.7247 30.6949 45.3182 30.8163C45.135 30.871 44.9158 30.943 44.7833 31.0885C44.673 31.2094 44.6757 31.3517 44.641 31.5016C44.6085 31.6426 44.5903 31.7862 44.5889 31.9307C44.5844 32.4679 44.7917 33.0002 45.0581 33.4582C45.2008 33.7042 45.3681 33.9354 45.5526 34.1511C45.7216 34.3494 45.9208 34.6113 46.1383 34.7568C46.3526 34.9 46.4993 35.0022 46.635 35.221C46.7297 35.3749 46.7408 35.4202 46.9209 35.4896C47.2149 35.6026 47.5497 35.5994 47.8596 35.6217C48.2656 35.651 48.7041 35.6577 49.1061 35.5865C49.4116 35.5319 49.4699 35.3162 49.7184 35.1712C49.9515 35.0356 50.0689 35.0134 50.1765 34.7568C50.6604 33.6014 50.0631 32.6204 49.3556 31.7893Z" fill="white"/>
</g>
<defs>
<clipPath id="clip0_8_557">
<rect width="90" height="90" rx="20" fill="white"/>
</clipPath>
</defs>
</svg>
