<svg width="30" height="30" viewBox="0 0 30 30" fill="none" xmlns="http://www.w3.org/2000/svg">
<g id="Small Audio Player">
<path id="Shape" fill-rule="evenodd" clip-rule="evenodd" d="M8 7.55937V22.4406C8 22.75 8.22346 23 8.5 23H10.5C10.7765 23 11 22.75 11 22.4406V7.55937C11 7.25 10.7765 7 10.5 7H8.5C8.22346 7 8 7.25 8 7.55937ZM19 7.55937V22.4406C19 22.75 19.2235 23 19.5 23H21.5C21.7765 23 22 22.75 22 22.4406V7.55937C22 7.25 21.7765 7 21.5 7H19.5C19.2235 7 19 7.25 19 7.55937Z" fill="black"/>
</g>
</svg>
