<svg width="139" height="40" viewBox="0 0 139 40" fill="none" xmlns="http://www.w3.org/2000/svg">
<rect width="139" height="40" rx="4" fill="black"/>
<path d="M33.9553 20.3007C33.9662 19.466 34.191 18.6476 34.6087 17.9217C35.0264 17.1957 35.6234 16.5858 36.3443 16.1486C35.8863 15.5034 35.2822 14.9725 34.5798 14.598C33.8775 14.2234 33.0963 14.0156 32.2983 13.9909C30.5959 13.8147 28.9456 14.9958 28.0781 14.9958C27.1939 14.9958 25.8583 14.0084 24.42 14.0376C23.4897 14.0673 22.5831 14.3341 21.7884 14.8122C20.9938 15.2902 20.3382 15.9632 19.8856 16.7655C17.925 20.1139 19.3874 25.035 21.2655 27.7416C22.2052 29.0669 23.3033 30.5474 24.7403 30.4949C26.1464 30.4373 26.6716 29.6104 28.3689 29.6104C30.0504 29.6104 30.5432 30.4949 32.0092 30.4615C33.5181 30.4373 34.4687 29.1302 35.3754 27.7923C36.0505 26.848 36.57 25.8043 36.9147 24.6998C36.0381 24.3341 35.29 23.7219 34.7638 22.9396C34.2375 22.1573 33.9563 21.2395 33.9553 20.3007Z" fill="white"/>
<path d="M31.1862 12.2109C32.0089 11.2367 32.4142 9.98449 32.316 8.72026C31.0592 8.85048 29.8982 9.44304 29.0644 10.3799C28.6567 10.8375 28.3445 11.37 28.1455 11.9467C27.9466 12.5235 27.8648 13.1333 27.9049 13.7413C28.5336 13.7476 29.1555 13.6132 29.7239 13.3481C30.2923 13.0831 30.7923 12.6942 31.1862 12.2109Z" fill="white"/>
<path d="M51.7298 27.1396H46.9314L45.779 30.4961H43.7466L48.2916 18.0781H50.4033L54.9483 30.4961H52.8812L51.7298 27.1396ZM47.4283 25.5908H51.2319L49.3569 20.1435H49.3044L47.4283 25.5908Z" fill="white"/>
<path d="M64.764 25.9697C64.764 28.7832 63.2374 30.5908 60.9337 30.5908C60.3502 30.6209 59.7698 30.4883 59.2591 30.2082C58.7484 29.928 58.3279 29.5117 58.0459 29.0068H58.0024V33.4912H56.1184V21.4424H57.942V22.9482H57.9766C58.2716 22.4458 58.6991 22.0316 59.2137 21.7497C59.7283 21.4679 60.3108 21.3289 60.8991 21.3476C63.2285 21.3477 64.764 23.1641 64.764 25.9697ZM62.8276 25.9697C62.8276 24.1367 61.8673 22.9316 60.4021 22.9316C58.9627 22.9316 57.9945 24.1621 57.9945 25.9697C57.9945 27.7939 58.9627 29.0156 60.4021 29.0156C61.8673 29.0156 62.8276 27.8193 62.8276 25.9697Z" fill="white"/>
<path d="M74.8658 25.9697C74.8658 28.7832 73.3392 30.5908 71.0355 30.5908C70.452 30.6209 69.8716 30.4883 69.3609 30.2082C68.8502 29.928 68.4297 29.5117 68.1478 29.0068H68.1042V33.4912H66.2202V21.4424H68.0438V22.9482H68.0784C68.3734 22.4458 68.8009 22.0316 69.3155 21.7497C69.8301 21.4679 70.4126 21.3289 71.0009 21.3476C73.3303 21.3476 74.8658 23.164 74.8658 25.9697ZM72.9294 25.9697C72.9294 24.1367 71.9691 22.9316 70.5039 22.9316C69.0645 22.9316 68.0963 24.1621 68.0963 25.9697C68.0963 27.7939 69.0645 29.0156 70.5039 29.0156C71.9691 29.0156 72.9294 27.8193 72.9294 25.9697Z" fill="white"/>
<path d="M81.5423 27.0361C81.6819 28.2676 82.8946 29.0761 84.5519 29.0761C86.1398 29.0761 87.2822 28.2675 87.2822 27.1572C87.2822 26.1933 86.5932 25.6162 84.9617 25.2207L83.3302 24.833C81.0186 24.2822 79.9454 23.2158 79.9454 21.4853C79.9454 19.3427 81.8383 17.871 84.5261 17.871C87.1862 17.871 89.0098 19.3427 89.0712 21.4853H87.1694C87.0555 20.246 86.017 19.498 84.4994 19.498C82.9817 19.498 81.9432 20.2548 81.9432 21.3564C81.9432 22.2343 82.6065 22.7509 84.2291 23.1464L85.6161 23.4823C88.1989 24.0849 89.2721 25.1083 89.2721 26.9247C89.2721 29.248 87.3961 30.703 84.4122 30.703C81.6205 30.703 79.7355 29.2821 79.6138 27.036L81.5423 27.0361Z" fill="white"/>
<path d="M93.3379 19.2998V21.4424H95.0833V22.914H93.3379V27.9053C93.3379 28.6806 93.6874 29.042 94.4547 29.042C94.6619 29.0384 94.8687 29.0241 95.0744 28.999V30.4619C94.7294 30.5254 94.3788 30.5542 94.028 30.5478C92.1698 30.5478 91.4451 29.8593 91.4451 28.1035V22.914H90.1106V21.4424H91.4451V19.2998H93.3379Z" fill="white"/>
<path d="M96.0942 25.9697C96.0942 23.1211 97.795 21.3311 100.447 21.3311C103.108 21.3311 104.801 23.1211 104.801 25.9697C104.801 28.8262 103.117 30.6084 100.447 30.6084C97.7782 30.6084 96.0942 28.8262 96.0942 25.9697ZM102.882 25.9697C102.882 24.0156 101.974 22.8623 100.447 22.8623C98.9206 22.8623 98.0138 24.0244 98.0138 25.9697C98.0138 27.9316 98.9206 29.0762 100.447 29.0762C101.974 29.0762 102.882 27.9316 102.882 25.9697Z" fill="white"/>
<path d="M106.354 21.4424H108.151V22.9834H108.195C108.316 22.5021 108.602 22.0768 109.004 21.7789C109.406 21.481 109.9 21.3287 110.402 21.3476C110.619 21.3469 110.836 21.3701 111.048 21.417V23.1552C110.774 23.0726 110.488 23.0347 110.201 23.0429C109.928 23.032 109.655 23.0796 109.402 23.1825C109.148 23.2854 108.921 23.4411 108.734 23.639C108.548 23.8369 108.407 24.0722 108.321 24.3289C108.235 24.5856 108.207 24.8575 108.238 25.1259V30.4961H106.354L106.354 21.4424Z" fill="white"/>
<path d="M119.734 27.8369C119.481 29.4804 117.858 30.6084 115.782 30.6084C113.112 30.6084 111.455 28.8437 111.455 26.0127C111.455 23.1728 113.121 21.331 115.703 21.331C118.242 21.331 119.839 23.0517 119.839 25.7969V26.4336H113.357V26.5459C113.327 26.8791 113.369 27.2147 113.481 27.5306C113.592 27.8464 113.771 28.1352 114.004 28.3778C114.238 28.6203 114.521 28.8111 114.835 28.9374C115.149 29.0637 115.487 29.1226 115.826 29.1103C116.271 29.1515 116.718 29.0498 117.099 28.8203C117.481 28.5909 117.778 28.246 117.945 27.8369L119.734 27.8369ZM113.366 25.1347H117.954C117.971 24.8352 117.925 24.5353 117.819 24.2541C117.713 23.9729 117.549 23.7164 117.337 23.5006C117.126 23.2849 116.872 23.1145 116.59 23.0003C116.309 22.8861 116.007 22.8305 115.703 22.8369C115.396 22.8351 115.092 22.8932 114.808 23.008C114.524 23.1227 114.266 23.2918 114.049 23.5054C113.832 23.7191 113.659 23.973 113.542 24.2527C113.425 24.5323 113.365 24.8321 113.366 25.1347Z" fill="white"/>
<path d="M47.1922 8.731C47.5872 8.70304 47.9835 8.7619 48.3526 8.90333C48.7218 9.04477 49.0545 9.26525 49.3267 9.54887C49.599 9.8325 49.8041 10.1722 49.9272 10.5435C50.0502 10.9147 50.0882 11.3083 50.0384 11.6958C50.0384 13.6021 48.994 14.6978 47.1922 14.6978H45.0073V8.731H47.1922ZM45.9468 13.854H47.0873C47.3695 13.8706 47.652 13.825 47.914 13.7204C48.1761 13.6158 48.4113 13.4548 48.6024 13.2492C48.7935 13.0437 48.9357 12.7987 49.0187 12.5321C49.1016 12.2654 49.1233 11.9839 49.0821 11.708C49.1203 11.4332 49.0965 11.1534 49.0122 10.8887C48.9279 10.6241 48.7854 10.3811 48.5947 10.1771C48.4041 9.9732 48.1701 9.81339 47.9094 9.70916C47.6488 9.60492 47.3681 9.55884 47.0873 9.57421H45.9468V13.854Z" fill="white"/>
<path d="M51.0998 12.4443C51.0711 12.1484 51.1054 11.8498 51.2005 11.5678C51.2957 11.2857 51.4495 11.0264 51.6522 10.8064C51.8549 10.5864 52.102 10.4106 52.3775 10.2904C52.6531 10.1701 52.9512 10.108 53.2525 10.108C53.5539 10.108 53.8519 10.1701 54.1275 10.2904C54.4031 10.4106 54.6501 10.5864 54.8528 10.8064C55.0555 11.0264 55.2094 11.2857 55.3045 11.5678C55.3996 11.8498 55.4339 12.1484 55.4052 12.4443C55.4345 12.7406 55.4006 13.0395 55.3057 13.3221C55.2108 13.6046 55.0571 13.8644 54.8543 14.0848C54.6516 14.3052 54.4043 14.4814 54.1285 14.6019C53.8526 14.7224 53.5542 14.7847 53.2525 14.7847C52.9508 14.7847 52.6524 14.7224 52.3766 14.6019C52.1007 14.4814 51.8534 14.3052 51.6507 14.0848C51.448 13.8644 51.2942 13.6046 51.1993 13.3221C51.1044 13.0395 51.0705 12.7406 51.0998 12.4443ZM54.4786 12.4443C54.4786 11.4683 54.0341 10.8975 53.254 10.8975C52.4709 10.8975 52.0304 11.4683 52.0304 12.4443C52.0304 13.4282 52.4709 13.9946 53.254 13.9946C54.0341 13.9946 54.4786 13.4243 54.4786 12.4443Z" fill="white"/>
<path d="M61.1284 14.6977H60.1938L59.2504 11.3813H59.1791L58.2396 14.6977H57.3139L56.0557 10.1948H56.9694L57.7872 13.6308H57.8545L58.793 10.1948H59.6572L60.5957 13.6308H60.667L61.4808 10.1948H62.3817L61.1284 14.6977Z" fill="white"/>
<path d="M63.4399 10.1948H64.3072V10.9102H64.3745C64.4887 10.6532 64.6813 10.4379 64.9255 10.2941C65.1697 10.1502 65.4533 10.0852 65.7367 10.1079C65.9588 10.0914 66.1818 10.1245 66.3893 10.2046C66.5967 10.2847 66.7832 10.4098 66.9349 10.5706C67.0866 10.7314 67.1997 10.9239 67.2658 11.1337C67.3319 11.3435 67.3493 11.5654 67.3167 11.7827V14.6977H66.4158V12.0059C66.4158 11.2822 66.0971 10.9224 65.4308 10.9224C65.28 10.9154 65.1295 10.9408 64.9895 10.9966C64.8496 11.0524 64.7235 11.1374 64.62 11.2458C64.5164 11.3542 64.4379 11.4834 64.3897 11.6245C64.3415 11.7657 64.3249 11.9154 64.3408 12.0635V14.6978H63.4399L63.4399 10.1948Z" fill="white"/>
<path d="M68.7522 8.437H69.6531V14.6977H68.7522V8.437Z" fill="white"/>
<path d="M70.9054 12.4443C70.8767 12.1484 70.9111 11.8498 71.0062 11.5677C71.1014 11.2857 71.2553 11.0263 71.458 10.8063C71.6607 10.5863 71.9078 10.4106 72.1834 10.2903C72.459 10.17 72.757 10.1079 73.0584 10.1079C73.3598 10.1079 73.6578 10.17 73.9334 10.2903C74.209 10.4106 74.4561 10.5863 74.6588 10.8063C74.8615 11.0263 75.0154 11.2857 75.1106 11.5677C75.2057 11.8498 75.24 12.1484 75.2114 12.4443C75.2406 12.7406 75.2066 13.0396 75.1117 13.3221C75.0168 13.6046 74.863 13.8644 74.6603 14.0848C74.4575 14.3052 74.2103 14.4814 73.9344 14.6019C73.6585 14.7224 73.3601 14.7847 73.0584 14.7847C72.7567 14.7847 72.4583 14.7224 72.1824 14.6019C71.9065 14.4814 71.6593 14.3052 71.4565 14.0848C71.2538 13.8644 71.1 13.6046 71.0051 13.3221C70.9102 13.0396 70.8762 12.7406 70.9054 12.4443ZM74.2842 12.4443C74.2842 11.4683 73.8397 10.8975 73.0596 10.8975C72.2766 10.8975 71.836 11.4683 71.836 12.4444C71.836 13.4282 72.2766 13.9946 73.0596 13.9946C73.8397 13.9946 74.2842 13.4243 74.2842 12.4443Z" fill="white"/>
<path d="M76.1597 13.4243C76.1597 12.6138 76.7715 12.1465 77.8575 12.0801L79.094 12.0098V11.6211C79.094 11.1455 78.7752 10.877 78.1594 10.877C77.6565 10.877 77.3081 11.0591 77.2081 11.3774H76.3359C76.428 10.604 77.1655 10.1079 78.201 10.1079C79.3455 10.1079 79.9909 10.6699 79.9909 11.6211V14.6978H79.1237V14.0649H79.0524C78.9077 14.2919 78.7046 14.477 78.4637 14.6012C78.2228 14.7254 77.9528 14.7843 77.6813 14.7719C77.4896 14.7916 77.296 14.7714 77.1127 14.7127C76.9295 14.654 76.7607 14.5581 76.6174 14.4311C76.474 14.3042 76.3592 14.149 76.2804 13.9756C76.2015 13.8021 76.1604 13.6144 76.1597 13.4243ZM79.094 13.0395V12.6631L77.9793 12.7334C77.3506 12.7749 77.0655 12.9858 77.0655 13.3828C77.0655 13.7881 77.4219 14.0239 77.912 14.0239C78.0556 14.0382 78.2006 14.0239 78.3385 13.9819C78.4764 13.9398 78.6043 13.8707 78.7145 13.7789C78.8248 13.6871 78.9152 13.5743 78.9804 13.4473C79.0456 13.3202 79.0842 13.1816 79.094 13.0395Z" fill="white"/>
<path d="M81.175 12.4443C81.175 11.0215 81.9166 10.1201 83.0699 10.1201C83.3552 10.1071 83.6383 10.1746 83.8862 10.3144C84.1341 10.4543 84.3365 10.6609 84.4697 10.9101H84.5371V8.437H85.4379V14.6977H84.5747V13.9863H84.5034C84.3598 14.2338 84.1504 14.4378 83.8977 14.5763C83.645 14.7148 83.3588 14.7824 83.0699 14.7719C81.9086 14.772 81.175 13.8706 81.175 12.4443ZM82.1057 12.4443C82.1057 13.3994 82.5621 13.9741 83.3253 13.9741C84.0846 13.9741 84.5539 13.3911 84.5539 12.4482C84.5539 11.5098 84.0797 10.9185 83.3253 10.9185C82.567 10.9185 82.1057 11.4971 82.1057 12.4443Z" fill="white"/>
<path d="M89.1652 12.4443C89.1365 12.1484 89.1708 11.8498 89.266 11.5678C89.3611 11.2857 89.5149 11.0264 89.7176 10.8064C89.9203 10.5864 90.1674 10.4106 90.443 10.2904C90.7185 10.1701 91.0166 10.108 91.3179 10.108C91.6193 10.108 91.9173 10.1701 92.1929 10.2904C92.4685 10.4106 92.7156 10.5864 92.9182 10.8064C93.1209 11.0264 93.2748 11.2857 93.3699 11.5678C93.465 11.8498 93.4994 12.1484 93.4707 12.4443C93.4999 12.7406 93.466 13.0395 93.3711 13.3221C93.2762 13.6046 93.1225 13.8644 92.9197 14.0848C92.717 14.3052 92.4698 14.4814 92.1939 14.6019C91.918 14.7224 91.6197 14.7847 91.3179 14.7847C91.0162 14.7847 90.7178 14.7224 90.442 14.6019C90.1661 14.4814 89.9189 14.3052 89.7161 14.0848C89.5134 13.8644 89.3596 13.6046 89.2648 13.3221C89.1699 13.0395 89.136 12.7406 89.1652 12.4443ZM92.544 12.4443C92.544 11.4683 92.0995 10.8975 91.3194 10.8975C90.5363 10.8975 90.0958 11.4683 90.0958 12.4443C90.0958 13.4282 90.5364 13.9946 91.3194 13.9946C92.0995 13.9946 92.544 13.4243 92.544 12.4443Z" fill="white"/>
<path d="M94.6794 10.1948H95.5467V10.9102H95.614C95.7282 10.6532 95.9208 10.4379 96.165 10.2941C96.4092 10.1502 96.6928 10.0852 96.9762 10.1079C97.1983 10.0914 97.4214 10.1245 97.6288 10.2046C97.8362 10.2847 98.0227 10.4098 98.1744 10.5706C98.3261 10.7314 98.4393 10.9239 98.5053 11.1337C98.5714 11.3435 98.5888 11.5654 98.5562 11.7827V14.6977H97.6554V12.0059C97.6554 11.2822 97.3366 10.9224 96.6703 10.9224C96.5195 10.9154 96.369 10.9408 96.229 10.9966C96.0891 11.0524 95.963 11.1374 95.8595 11.2458C95.7559 11.3542 95.6774 11.4834 95.6292 11.6245C95.581 11.7657 95.5644 11.9154 95.5803 12.0635V14.6978H94.6794V10.1948Z" fill="white"/>
<path d="M103.647 9.07373V10.2153H104.636V10.9639H103.647V13.2793C103.647 13.751 103.844 13.9575 104.292 13.9575C104.407 13.9572 104.522 13.9503 104.636 13.937V14.6772C104.474 14.7058 104.31 14.721 104.146 14.7227C103.144 14.7227 102.745 14.375 102.745 13.5068V10.9638H102.02V10.2153H102.745V9.07373H103.647Z" fill="white"/>
<path d="M105.866 8.437H106.759V10.9184H106.83C106.95 10.6591 107.148 10.4425 107.397 10.2982C107.646 10.1538 107.934 10.0888 108.222 10.1118C108.443 10.0999 108.664 10.1363 108.869 10.2184C109.074 10.3004 109.258 10.4261 109.409 10.5864C109.559 10.7468 109.671 10.9378 109.738 11.146C109.805 11.3541 109.824 11.5742 109.794 11.7905V14.6977H108.893V12.0097C108.893 11.2905 108.553 10.9262 107.917 10.9262C107.762 10.9137 107.606 10.9347 107.46 10.9878C107.314 11.0408 107.182 11.1247 107.073 11.2334C106.963 11.3421 106.879 11.4731 106.826 11.6173C106.774 11.7614 106.753 11.9152 106.767 12.0678V14.6977H105.866L105.866 8.437Z" fill="white"/>
<path d="M115.048 13.4819C114.925 13.8935 114.66 14.2495 114.298 14.4876C113.937 14.7258 113.502 14.8309 113.07 14.7847C112.769 14.7925 112.47 14.7357 112.194 14.6181C111.917 14.5006 111.67 14.3252 111.47 14.1041C111.269 13.8829 111.12 13.6214 111.032 13.3375C110.944 13.0537 110.92 12.7544 110.961 12.4604C110.921 12.1656 110.945 11.8656 111.033 11.581C111.121 11.2963 111.269 11.0335 111.469 10.8104C111.669 10.5874 111.914 10.4092 112.19 10.288C112.465 10.1668 112.764 10.1054 113.066 10.1079C114.336 10.1079 115.102 10.9639 115.102 12.3779V12.688H111.879V12.7378C111.864 12.903 111.886 13.0694 111.94 13.2261C111.995 13.3829 112.083 13.5266 112.197 13.648C112.312 13.7695 112.451 13.866 112.605 13.9314C112.76 13.9968 112.926 14.0296 113.094 14.0278C113.31 14.0533 113.528 14.015 113.721 13.9178C113.915 13.8206 114.075 13.6689 114.18 13.4819L115.048 13.4819ZM111.879 12.0308H114.184C114.196 11.8796 114.175 11.7278 114.123 11.5851C114.071 11.4424 113.99 11.3119 113.884 11.2021C113.778 11.0922 113.651 11.0054 113.509 10.9472C113.367 10.889 113.214 10.8608 113.061 10.8643C112.905 10.8623 112.75 10.8912 112.606 10.9491C112.462 11.0071 112.33 11.0929 112.22 11.2016C112.11 11.3104 112.023 11.4397 111.964 11.5821C111.906 11.7245 111.877 11.8771 111.879 12.0308Z" fill="white"/>
</svg>
