<svg width="340" height="272" viewBox="0 0 340 272" fill="none" xmlns="http://www.w3.org/2000/svg">
<path d="M114.244 202.906C115.26 197.176 120.241 193 126.06 193H208.94C214.759 193 219.74 197.176 220.756 202.906L230.502 257.906C231.805 265.257 226.152 272 218.686 272H116.314C108.848 272 103.195 265.257 104.498 257.906L114.244 202.906Z" fill="#48545D"/>
<path d="M114.244 197.906C115.26 192.176 120.241 188 126.06 188H208.94C214.759 188 219.74 192.176 220.756 197.906L230.502 252.906C231.805 260.257 226.152 267 218.686 267H116.314C108.848 267 103.195 260.257 104.498 252.906L114.244 197.906Z" fill="black"/>
<path d="M121.087 199.557C121.784 195.758 125.095 193 128.956 193H206.044C209.905 193 213.216 195.758 213.913 199.557L223.268 250.557C224.169 255.471 220.395 260 215.399 260H119.601C114.605 260 110.831 255.471 111.732 250.557L121.087 199.557Z" fill="white"/>
<path d="M144.829 190.249C145.494 189.457 146.475 189 147.509 189H187.491C188.525 189 189.506 189.457 190.171 190.249C192.083 192.527 190.464 196 187.491 196H147.509C144.536 196 142.917 192.527 144.829 190.249Z" fill="black"/>
<path d="M128.812 212.219C129.197 209.789 131.291 208 133.751 208H202.846C205.265 208 207.336 209.731 207.766 212.111L209.935 224.111C210.49 227.178 208.133 230 205.015 230H131.853C128.78 230 126.434 227.254 126.914 224.219L128.812 212.219Z" fill="#EBEBEB"/>
<rect x="126" y="236.478" width="80" height="4.6087" rx="2.30435" fill="#EBEBEB"/>
<rect x="123" y="245.159" width="53.012" height="3.84058" rx="1.92029" fill="#EBEBEB"/>
<g filter="url(#filter0_d_50_931)">
<path fill-rule="evenodd" clip-rule="evenodd" d="M102.284 12C93.9993 12 87.2836 18.7157 87.2836 27V120C87.2836 128.284 93.9993 135 102.284 135H164.471C164.498 135.046 164.527 135.092 164.559 135.138L169.762 142.659C170.55 143.798 172.23 143.811 173.035 142.683L178.401 135.162C178.439 135.109 178.474 135.055 178.506 135H237.716C246.001 135 252.716 128.284 252.716 120V27C252.716 18.7157 246.001 12 237.716 12H102.284Z" fill="white"/>
</g>
<path d="M117.296 149.817H118.707V157H117.994V150.521H116.866L117.296 149.817ZM124.31 153.411C124.31 152.464 124.41 151.731 124.612 151.214C124.817 150.696 125.105 150.304 125.477 150.037C125.848 149.77 126.263 149.637 126.722 149.637C127.187 149.637 127.609 149.772 127.986 150.042C128.364 150.309 128.662 150.711 128.88 151.248C129.101 151.785 129.212 152.506 129.212 153.411C129.212 154.313 129.103 155.031 128.885 155.564C128.67 156.098 128.372 156.502 127.991 156.775C127.61 157.046 127.187 157.181 126.722 157.181C126.263 157.181 125.849 157.049 125.481 156.785C125.114 156.521 124.826 156.129 124.617 155.608C124.412 155.084 124.31 154.352 124.31 153.411ZM124.988 153.426C124.988 154.236 125.06 154.85 125.203 155.267C125.35 155.68 125.564 155.994 125.848 156.209C126.131 156.424 126.43 156.531 126.746 156.531C127.065 156.531 127.363 156.427 127.64 156.219C127.916 156.007 128.126 155.691 128.27 155.271C128.449 154.76 128.538 154.145 128.538 153.426C128.538 152.703 128.458 152.112 128.299 151.653C128.139 151.191 127.918 150.854 127.635 150.643C127.355 150.428 127.059 150.32 126.746 150.32C126.427 150.32 126.128 150.428 125.848 150.643C125.568 150.854 125.354 151.168 125.208 151.585C125.062 151.998 124.988 152.612 124.988 153.426ZM134.39 149.817H135.801V157H135.088V150.521H133.96L134.39 149.817ZM141.403 153.411C141.403 152.464 141.504 151.731 141.706 151.214C141.911 150.696 142.199 150.304 142.57 150.037C142.941 149.77 143.356 149.637 143.815 149.637C144.281 149.637 144.702 149.772 145.08 150.042C145.458 150.309 145.756 150.711 145.974 151.248C146.195 151.785 146.306 152.506 146.306 153.411C146.306 154.313 146.197 155.031 145.979 155.564C145.764 156.098 145.466 156.502 145.085 156.775C144.704 157.046 144.281 157.181 143.815 157.181C143.356 157.181 142.943 157.049 142.575 156.785C142.207 156.521 141.919 156.129 141.711 155.608C141.506 155.084 141.403 154.352 141.403 153.411ZM142.082 153.426C142.082 154.236 142.154 154.85 142.297 155.267C142.443 155.68 142.658 155.994 142.941 156.209C143.225 156.424 143.524 156.531 143.84 156.531C144.159 156.531 144.457 156.427 144.733 156.219C145.01 156.007 145.22 155.691 145.363 155.271C145.542 154.76 145.632 154.145 145.632 153.426C145.632 152.703 145.552 152.112 145.393 151.653C145.233 151.191 145.012 150.854 144.729 150.643C144.449 150.428 144.152 150.32 143.84 150.32C143.521 150.32 143.221 150.428 142.941 150.643C142.661 150.854 142.448 151.168 142.302 151.585C142.155 151.998 142.082 152.612 142.082 153.426ZM151.483 149.817H152.895V157H152.182V150.521H151.054L151.483 149.817ZM158.497 153.411C158.497 152.464 158.598 151.731 158.8 151.214C159.005 150.696 159.293 150.304 159.664 150.037C160.035 149.77 160.45 149.637 160.909 149.637C161.375 149.637 161.796 149.772 162.174 150.042C162.551 150.309 162.849 150.711 163.067 151.248C163.289 151.785 163.399 152.506 163.399 153.411C163.399 154.313 163.29 155.031 163.072 155.564C162.857 156.098 162.56 156.502 162.179 156.775C161.798 157.046 161.375 157.181 160.909 157.181C160.45 157.181 160.037 157.049 159.669 156.785C159.301 156.521 159.013 156.129 158.805 155.608C158.6 155.084 158.497 154.352 158.497 153.411ZM159.176 153.426C159.176 154.236 159.247 154.85 159.391 155.267C159.537 155.68 159.752 155.994 160.035 156.209C160.318 156.424 160.618 156.531 160.934 156.531C161.253 156.531 161.55 156.427 161.827 156.219C162.104 156.007 162.314 155.691 162.457 155.271C162.636 154.76 162.726 154.145 162.726 153.426C162.726 152.703 162.646 152.112 162.486 151.653C162.327 151.191 162.105 150.854 161.822 150.643C161.542 150.428 161.246 150.32 160.934 150.32C160.615 150.32 160.315 150.428 160.035 150.643C159.755 150.854 159.542 151.168 159.396 151.585C159.249 151.998 159.176 152.612 159.176 153.426ZM168.577 149.817H169.988V157H169.275V150.521H168.147L168.577 149.817ZM175.591 153.411C175.591 152.464 175.692 151.731 175.894 151.214C176.099 150.696 176.387 150.304 176.758 150.037C177.129 149.77 177.544 149.637 178.003 149.637C178.468 149.637 178.89 149.772 179.268 150.042C179.645 150.309 179.943 150.711 180.161 151.248C180.382 151.785 180.493 152.506 180.493 153.411C180.493 154.313 180.384 155.031 180.166 155.564C179.951 156.098 179.653 156.502 179.272 156.775C178.892 157.046 178.468 157.181 178.003 157.181C177.544 157.181 177.131 157.049 176.763 156.785C176.395 156.521 176.107 156.129 175.898 155.608C175.693 155.084 175.591 154.352 175.591 153.411ZM176.27 153.426C176.27 154.236 176.341 154.85 176.484 155.267C176.631 155.68 176.846 155.994 177.129 156.209C177.412 156.424 177.712 156.531 178.027 156.531C178.346 156.531 178.644 156.427 178.921 156.219C179.198 156.007 179.408 155.691 179.551 155.271C179.73 154.76 179.819 154.145 179.819 153.426C179.819 152.703 179.74 152.112 179.58 151.653C179.421 151.191 179.199 150.854 178.916 150.643C178.636 150.428 178.34 150.32 178.027 150.32C177.708 150.32 177.409 150.428 177.129 150.643C176.849 150.854 176.636 151.168 176.489 151.585C176.343 151.998 176.27 152.612 176.27 153.426ZM185.671 149.817H187.082V157H186.369V150.521H185.241L185.671 149.817ZM192.685 153.411C192.685 152.464 192.785 151.731 192.987 151.214C193.192 150.696 193.48 150.304 193.852 150.037C194.223 149.77 194.638 149.637 195.097 149.637C195.562 149.637 195.984 149.772 196.361 150.042C196.739 150.309 197.037 150.711 197.255 151.248C197.476 151.785 197.587 152.506 197.587 153.411C197.587 154.313 197.478 155.031 197.26 155.564C197.045 156.098 196.747 156.502 196.366 156.775C195.985 157.046 195.562 157.181 195.097 157.181C194.638 157.181 194.224 157.049 193.856 156.785C193.489 156.521 193.201 156.129 192.992 155.608C192.787 155.084 192.685 154.352 192.685 153.411ZM193.363 153.426C193.363 154.236 193.435 154.85 193.578 155.267C193.725 155.68 193.939 155.994 194.223 156.209C194.506 156.424 194.805 156.531 195.121 156.531C195.44 156.531 195.738 156.427 196.015 156.219C196.291 156.007 196.501 155.691 196.645 155.271C196.824 154.76 196.913 154.145 196.913 153.426C196.913 152.703 196.833 152.112 196.674 151.653C196.514 151.191 196.293 150.854 196.01 150.643C195.73 150.428 195.434 150.32 195.121 150.32C194.802 150.32 194.503 150.428 194.223 150.643C193.943 150.854 193.729 151.168 193.583 151.585C193.437 151.998 193.363 152.612 193.363 153.426ZM202.765 149.817H204.176V157H203.463V150.521H202.335L202.765 149.817ZM209.778 153.411C209.778 152.464 209.879 151.731 210.081 151.214C210.286 150.696 210.574 150.304 210.945 150.037C211.316 149.77 211.731 149.637 212.19 149.637C212.656 149.637 213.077 149.772 213.455 150.042C213.833 150.309 214.131 150.711 214.349 151.248C214.57 151.785 214.681 152.506 214.681 153.411C214.681 154.313 214.572 155.031 214.354 155.564C214.139 156.098 213.841 156.502 213.46 156.775C213.079 157.046 212.656 157.181 212.19 157.181C211.731 157.181 211.318 157.049 210.95 156.785C210.582 156.521 210.294 156.129 210.086 155.608C209.881 155.084 209.778 154.352 209.778 153.411ZM210.457 153.426C210.457 154.236 210.529 154.85 210.672 155.267C210.818 155.68 211.033 155.994 211.316 156.209C211.6 156.424 211.899 156.531 212.215 156.531C212.534 156.531 212.832 156.427 213.108 156.219C213.385 156.007 213.595 155.691 213.738 155.271C213.917 154.76 214.007 154.145 214.007 153.426C214.007 152.703 213.927 152.112 213.768 151.653C213.608 151.191 213.387 150.854 213.104 150.643C212.824 150.428 212.527 150.32 212.215 150.32C211.896 150.32 211.596 150.428 211.316 150.643C211.036 150.854 210.823 151.168 210.677 151.585C210.53 151.998 210.457 152.612 210.457 153.426ZM219.858 149.817H221.27V157H220.557V150.521H219.429L219.858 149.817ZM120.036 166.411C120.036 165.464 120.137 164.731 120.339 164.214C120.544 163.696 120.832 163.304 121.203 163.037C121.574 162.77 121.989 162.637 122.448 162.637C122.914 162.637 123.335 162.772 123.713 163.042C124.09 163.309 124.388 163.711 124.606 164.248C124.828 164.785 124.938 165.506 124.938 166.411C124.938 167.313 124.829 168.031 124.611 168.564C124.396 169.098 124.099 169.502 123.718 169.775C123.337 170.046 122.914 170.181 122.448 170.181C121.989 170.181 121.576 170.049 121.208 169.785C120.84 169.521 120.552 169.129 120.344 168.608C120.139 168.084 120.036 167.352 120.036 166.411ZM120.715 166.426C120.715 167.236 120.786 167.85 120.93 168.267C121.076 168.68 121.291 168.994 121.574 169.209C121.857 169.424 122.157 169.531 122.473 169.531C122.792 169.531 123.09 169.427 123.366 169.219C123.643 169.007 123.853 168.691 123.996 168.271C124.175 167.76 124.265 167.145 124.265 166.426C124.265 165.703 124.185 165.112 124.025 164.653C123.866 164.191 123.645 163.854 123.361 163.643C123.081 163.428 122.785 163.32 122.473 163.32C122.154 163.32 121.854 163.428 121.574 163.643C121.294 163.854 121.081 164.168 120.935 164.585C120.788 164.998 120.715 165.612 120.715 166.426ZM130.116 162.817H131.527V170H130.814V163.521H129.687L130.116 162.817ZM137.13 166.411C137.13 165.464 137.231 164.731 137.433 164.214C137.638 163.696 137.926 163.304 138.297 163.037C138.668 162.77 139.083 162.637 139.542 162.637C140.007 162.637 140.429 162.772 140.807 163.042C141.184 163.309 141.482 163.711 141.7 164.248C141.922 164.785 142.032 165.506 142.032 166.411C142.032 167.313 141.923 168.031 141.705 168.564C141.49 169.098 141.192 169.502 140.812 169.775C140.431 170.046 140.007 170.181 139.542 170.181C139.083 170.181 138.67 170.049 138.302 169.785C137.934 169.521 137.646 169.129 137.438 168.608C137.232 168.084 137.13 167.352 137.13 166.411ZM137.809 166.426C137.809 167.236 137.88 167.85 138.023 168.267C138.17 168.68 138.385 168.994 138.668 169.209C138.951 169.424 139.251 169.531 139.566 169.531C139.885 169.531 140.183 169.427 140.46 169.219C140.737 169.007 140.947 168.691 141.09 168.271C141.269 167.76 141.358 167.145 141.358 166.426C141.358 165.703 141.279 165.112 141.119 164.653C140.96 164.191 140.738 163.854 140.455 163.643C140.175 163.428 139.879 163.32 139.566 163.32C139.247 163.32 138.948 163.428 138.668 163.643C138.388 163.854 138.175 164.168 138.028 164.585C137.882 164.998 137.809 165.612 137.809 166.426ZM147.21 162.817H148.621V170H147.908V163.521H146.78L147.21 162.817ZM154.224 166.411C154.224 165.464 154.325 164.731 154.526 164.214C154.731 163.696 155.02 163.304 155.391 163.037C155.762 162.77 156.177 162.637 156.636 162.637C157.101 162.637 157.523 162.772 157.9 163.042C158.278 163.309 158.576 163.711 158.794 164.248C159.015 164.785 159.126 165.506 159.126 166.411C159.126 167.313 159.017 168.031 158.799 168.564C158.584 169.098 158.286 169.502 157.905 169.775C157.524 170.046 157.101 170.181 156.636 170.181C156.177 170.181 155.763 170.049 155.396 169.785C155.028 169.521 154.74 169.129 154.531 168.608C154.326 168.084 154.224 167.352 154.224 166.411ZM154.902 166.426C154.902 167.236 154.974 167.85 155.117 168.267C155.264 168.68 155.479 168.994 155.762 169.209C156.045 169.424 156.344 169.531 156.66 169.531C156.979 169.531 157.277 169.427 157.554 169.219C157.83 169.007 158.04 168.691 158.184 168.271C158.363 167.76 158.452 167.145 158.452 166.426C158.452 165.703 158.372 165.112 158.213 164.653C158.053 164.191 157.832 163.854 157.549 163.643C157.269 163.428 156.973 163.32 156.66 163.32C156.341 163.32 156.042 163.428 155.762 163.643C155.482 163.854 155.269 164.168 155.122 164.585C154.976 164.998 154.902 165.612 154.902 166.426ZM164.304 162.817H165.715V170H165.002V163.521H163.874L164.304 162.817ZM171.317 166.411C171.317 165.464 171.418 164.731 171.62 164.214C171.825 163.696 172.113 163.304 172.484 163.037C172.855 162.77 173.271 162.637 173.729 162.637C174.195 162.637 174.617 162.772 174.994 163.042C175.372 163.309 175.67 163.711 175.888 164.248C176.109 164.785 176.22 165.506 176.22 166.411C176.22 167.313 176.111 168.031 175.893 168.564C175.678 169.098 175.38 169.502 174.999 169.775C174.618 170.046 174.195 170.181 173.729 170.181C173.271 170.181 172.857 170.049 172.489 169.785C172.121 169.521 171.833 169.129 171.625 168.608C171.42 168.084 171.317 167.352 171.317 166.411ZM171.996 166.426C171.996 167.236 172.068 167.85 172.211 168.267C172.357 168.68 172.572 168.994 172.855 169.209C173.139 169.424 173.438 169.531 173.754 169.531C174.073 169.531 174.371 169.427 174.647 169.219C174.924 169.007 175.134 168.691 175.277 168.271C175.456 167.76 175.546 167.145 175.546 166.426C175.546 165.703 175.466 165.112 175.307 164.653C175.147 164.191 174.926 163.854 174.643 163.643C174.363 163.428 174.066 163.32 173.754 163.32C173.435 163.32 173.135 163.428 172.855 163.643C172.576 163.854 172.362 164.168 172.216 164.585C172.069 164.998 171.996 165.612 171.996 166.426ZM181.397 162.817H182.809V170H182.096V163.521H180.968L181.397 162.817ZM188.411 166.411C188.411 165.464 188.512 164.731 188.714 164.214C188.919 163.696 189.207 163.304 189.578 163.037C189.949 162.77 190.364 162.637 190.823 162.637C191.289 162.637 191.71 162.772 192.088 163.042C192.465 163.309 192.763 163.711 192.981 164.248C193.203 164.785 193.313 165.506 193.313 166.411C193.313 167.313 193.204 168.031 192.986 168.564C192.771 169.098 192.474 169.502 192.093 169.775C191.712 170.046 191.289 170.181 190.823 170.181C190.364 170.181 189.951 170.049 189.583 169.785C189.215 169.521 188.927 169.129 188.719 168.608C188.514 168.084 188.411 167.352 188.411 166.411ZM189.09 166.426C189.09 167.236 189.161 167.85 189.305 168.267C189.451 168.68 189.666 168.994 189.949 169.209C190.232 169.424 190.532 169.531 190.848 169.531C191.167 169.531 191.465 169.427 191.741 169.219C192.018 169.007 192.228 168.691 192.371 168.271C192.55 167.76 192.64 167.145 192.64 166.426C192.64 165.703 192.56 165.112 192.4 164.653C192.241 164.191 192.02 163.854 191.736 163.643C191.456 163.428 191.16 163.32 190.848 163.32C190.529 163.32 190.229 163.428 189.949 163.643C189.669 163.854 189.456 164.168 189.31 164.585C189.163 164.998 189.09 165.612 189.09 166.426ZM198.491 162.817H199.902V170H199.189V163.521H198.062L198.491 162.817ZM205.505 166.411C205.505 165.464 205.606 164.731 205.808 164.214C206.013 163.696 206.301 163.304 206.672 163.037C207.043 162.77 207.458 162.637 207.917 162.637C208.382 162.637 208.804 162.772 209.182 163.042C209.559 163.309 209.857 163.711 210.075 164.248C210.297 164.785 210.407 165.506 210.407 166.411C210.407 167.313 210.298 168.031 210.08 168.564C209.865 169.098 209.567 169.502 209.187 169.775C208.806 170.046 208.382 170.181 207.917 170.181C207.458 170.181 207.045 170.049 206.677 169.785C206.309 169.521 206.021 169.129 205.812 168.608C205.607 168.084 205.505 167.352 205.505 166.411ZM206.184 166.426C206.184 167.236 206.255 167.85 206.398 168.267C206.545 168.68 206.76 168.994 207.043 169.209C207.326 169.424 207.626 169.531 207.941 169.531C208.26 169.531 208.558 169.427 208.835 169.219C209.112 169.007 209.322 168.691 209.465 168.271C209.644 167.76 209.733 167.145 209.733 166.426C209.733 165.703 209.654 165.112 209.494 164.653C209.335 164.191 209.113 163.854 208.83 163.643C208.55 163.428 208.254 163.32 207.941 163.32C207.622 163.32 207.323 163.428 207.043 163.643C206.763 163.854 206.55 164.168 206.403 164.585C206.257 164.998 206.184 165.612 206.184 166.426ZM215.585 162.817H216.996V170H216.283V163.521H215.155L215.585 162.817ZM121.569 175.817H122.98V183H122.268V176.521H121.14L121.569 175.817ZM128.583 179.411C128.583 178.464 128.684 177.731 128.886 177.214C129.091 176.696 129.379 176.304 129.75 176.037C130.121 175.77 130.536 175.637 130.995 175.637C131.461 175.637 131.882 175.772 132.26 176.042C132.637 176.309 132.935 176.711 133.153 177.248C133.375 177.785 133.485 178.506 133.485 179.411C133.485 180.313 133.376 181.031 133.158 181.564C132.943 182.098 132.646 182.502 132.265 182.775C131.884 183.046 131.461 183.181 130.995 183.181C130.536 183.181 130.123 183.049 129.755 182.785C129.387 182.521 129.099 182.129 128.891 181.608C128.686 181.084 128.583 180.352 128.583 179.411ZM129.262 179.426C129.262 180.236 129.333 180.85 129.477 181.267C129.623 181.68 129.838 181.994 130.121 182.209C130.404 182.424 130.704 182.531 131.02 182.531C131.339 182.531 131.636 182.427 131.913 182.219C132.19 182.007 132.4 181.691 132.543 181.271C132.722 180.76 132.812 180.145 132.812 179.426C132.812 178.703 132.732 178.112 132.572 177.653C132.413 177.191 132.191 176.854 131.908 176.643C131.628 176.428 131.332 176.32 131.02 176.32C130.701 176.32 130.401 176.428 130.121 176.643C129.841 176.854 129.628 177.168 129.481 177.585C129.335 177.998 129.262 178.612 129.262 179.426ZM138.663 175.817H140.074V183H139.361V176.521H138.233L138.663 175.817ZM145.677 179.411C145.677 178.464 145.778 177.731 145.979 177.214C146.185 176.696 146.473 176.304 146.844 176.037C147.215 175.77 147.63 175.637 148.089 175.637C148.554 175.637 148.976 175.772 149.354 176.042C149.731 176.309 150.029 176.711 150.247 177.248C150.468 177.785 150.579 178.506 150.579 179.411C150.579 180.313 150.47 181.031 150.252 181.564C150.037 182.098 149.739 182.502 149.358 182.775C148.978 183.046 148.554 183.181 148.089 183.181C147.63 183.181 147.216 183.049 146.849 182.785C146.481 182.521 146.193 182.129 145.984 181.608C145.779 181.084 145.677 180.352 145.677 179.411ZM146.355 179.426C146.355 180.236 146.427 180.85 146.57 181.267C146.717 181.68 146.932 181.994 147.215 182.209C147.498 182.424 147.798 182.531 148.113 182.531C148.432 182.531 148.73 182.427 149.007 182.219C149.284 182.007 149.493 181.691 149.637 181.271C149.816 180.76 149.905 180.145 149.905 179.426C149.905 178.703 149.826 178.112 149.666 177.653C149.507 177.191 149.285 176.854 149.002 176.643C148.722 176.428 148.426 176.32 148.113 176.32C147.794 176.32 147.495 176.428 147.215 176.643C146.935 176.854 146.722 177.168 146.575 177.585C146.429 177.998 146.355 178.612 146.355 179.426ZM155.757 175.817H157.168V183H156.455V176.521H155.327L155.757 175.817ZM162.771 179.411C162.771 178.464 162.871 177.731 163.073 177.214C163.278 176.696 163.566 176.304 163.938 176.037C164.309 175.77 164.724 175.637 165.183 175.637C165.648 175.637 166.07 175.772 166.447 176.042C166.825 176.309 167.123 176.711 167.341 177.248C167.562 177.785 167.673 178.506 167.673 179.411C167.673 180.313 167.564 181.031 167.346 181.564C167.131 182.098 166.833 182.502 166.452 182.775C166.071 183.046 165.648 183.181 165.183 183.181C164.724 183.181 164.31 183.049 163.942 182.785C163.575 182.521 163.286 182.129 163.078 181.608C162.873 181.084 162.771 180.352 162.771 179.411ZM163.449 179.426C163.449 180.236 163.521 180.85 163.664 181.267C163.811 181.68 164.025 181.994 164.309 182.209C164.592 182.424 164.891 182.531 165.207 182.531C165.526 182.531 165.824 182.427 166.101 182.219C166.377 182.007 166.587 181.691 166.73 181.271C166.91 180.76 166.999 180.145 166.999 179.426C166.999 178.703 166.919 178.112 166.76 177.653C166.6 177.191 166.379 176.854 166.096 176.643C165.816 176.428 165.52 176.32 165.207 176.32C164.888 176.32 164.589 176.428 164.309 176.643C164.029 176.854 163.815 177.168 163.669 177.585C163.522 177.998 163.449 178.612 163.449 179.426ZM172.851 175.817H174.262V183H173.549V176.521H172.421L172.851 175.817ZM179.864 179.411C179.864 178.464 179.965 177.731 180.167 177.214C180.372 176.696 180.66 176.304 181.031 176.037C181.402 175.77 181.817 175.637 182.276 175.637C182.742 175.637 183.163 175.772 183.541 176.042C183.919 176.309 184.216 176.711 184.435 177.248C184.656 177.785 184.767 178.506 184.767 179.411C184.767 180.313 184.658 181.031 184.439 181.564C184.225 182.098 183.927 182.502 183.546 182.775C183.165 183.046 182.742 183.181 182.276 183.181C181.817 183.181 181.404 183.049 181.036 182.785C180.668 182.521 180.38 182.129 180.172 181.608C179.967 181.084 179.864 180.352 179.864 179.411ZM180.543 179.426C180.543 180.236 180.615 180.85 180.758 181.267C180.904 181.68 181.119 181.994 181.402 182.209C181.686 182.424 181.985 182.531 182.301 182.531C182.62 182.531 182.918 182.427 183.194 182.219C183.471 182.007 183.681 181.691 183.824 181.271C184.003 180.76 184.093 180.145 184.093 179.426C184.093 178.703 184.013 178.112 183.854 177.653C183.694 177.191 183.473 176.854 183.189 176.643C182.91 176.428 182.613 176.32 182.301 176.32C181.982 176.32 181.682 176.428 181.402 176.643C181.122 176.854 180.909 177.168 180.763 177.585C180.616 177.998 180.543 178.612 180.543 179.426ZM189.944 175.817H191.355V183H190.643V176.521H189.515L189.944 175.817ZM196.958 179.411C196.958 178.464 197.059 177.731 197.261 177.214C197.466 176.696 197.754 176.304 198.125 176.037C198.496 175.77 198.911 175.637 199.37 175.637C199.836 175.637 200.257 175.772 200.635 176.042C201.012 176.309 201.31 176.711 201.528 177.248C201.75 177.785 201.86 178.506 201.86 179.411C201.86 180.313 201.751 181.031 201.533 181.564C201.318 182.098 201.021 182.502 200.64 182.775C200.259 183.046 199.836 183.181 199.37 183.181C198.911 183.181 198.498 183.049 198.13 182.785C197.762 182.521 197.474 182.129 197.266 181.608C197.061 181.084 196.958 180.352 196.958 179.411ZM197.637 179.426C197.637 180.236 197.708 180.85 197.852 181.267C197.998 181.68 198.213 181.994 198.496 182.209C198.779 182.424 199.079 182.531 199.395 182.531C199.714 182.531 200.011 182.427 200.288 182.219C200.565 182.007 200.775 181.691 200.918 181.271C201.097 180.76 201.187 180.145 201.187 179.426C201.187 178.703 201.107 178.112 200.947 177.653C200.788 177.191 200.566 176.854 200.283 176.643C200.003 176.428 199.707 176.32 199.395 176.32C199.076 176.32 198.776 176.428 198.496 176.643C198.216 176.854 198.003 177.168 197.856 177.585C197.71 177.998 197.637 178.612 197.637 179.426ZM207.038 175.817H208.449V183H207.736V176.521H206.608L207.038 175.817ZM214.052 179.411C214.052 178.464 214.153 177.731 214.354 177.214C214.56 176.696 214.848 176.304 215.219 176.037C215.59 175.77 216.005 175.637 216.464 175.637C216.929 175.637 217.351 175.772 217.729 176.042C218.106 176.309 218.404 176.711 218.622 177.248C218.843 177.785 218.954 178.506 218.954 179.411C218.954 180.313 218.845 181.031 218.627 181.564C218.412 182.098 218.114 182.502 217.733 182.775C217.353 183.046 216.929 183.181 216.464 183.181C216.005 183.181 215.591 183.049 215.224 182.785C214.856 182.521 214.568 182.129 214.359 181.608C214.154 181.084 214.052 180.352 214.052 179.411ZM214.73 179.426C214.73 180.236 214.802 180.85 214.945 181.267C215.092 181.68 215.307 181.994 215.59 182.209C215.873 182.424 216.173 182.531 216.488 182.531C216.807 182.531 217.105 182.427 217.382 182.219C217.659 182.007 217.868 181.691 218.012 181.271C218.191 180.76 218.28 180.145 218.28 179.426C218.28 178.703 218.201 178.112 218.041 177.653C217.882 177.191 217.66 176.854 217.377 176.643C217.097 176.428 216.801 176.32 216.488 176.32C216.169 176.32 215.87 176.428 215.59 176.643C215.31 176.854 215.097 177.168 214.95 177.585C214.804 177.998 214.73 178.612 214.73 179.426Z" fill="white"/>
<path d="M103 40V27H116" stroke="#D9D9D9" stroke-width="3" stroke-linecap="round"/>
<path d="M103 107V120H116" stroke="#D9D9D9" stroke-width="3" stroke-linecap="round"/>
<path d="M235 40V27H222" stroke="#D9D9D9" stroke-width="3" stroke-linecap="round"/>
<path d="M235 107V120H222" stroke="#D9D9D9" stroke-width="3" stroke-linecap="round"/>
<rect x="161.795" y="69.8728" width="59.8268" height="7.25455" rx="3.62727" fill="#D3D5D7"/>
<rect x="161.795" y="83.3455" width="46.4173" height="7.25455" rx="3.62727" fill="#D3D5D7"/>
<rect x="161.795" y="56.3999" width="15.4724" height="7.25455" rx="3.62727" fill="#D3D5D7"/>
<rect x="118" y="56" width="35" height="35" rx="10" fill="#D9D9D9"/>
<circle cx="110.5" cy="86.5" r="4.5" fill="#D60C18"/>
<circle cx="110.5" cy="86.5" r="4.5" fill="#D60C18"/>
<circle cx="110.5" cy="86.5" r="4.5" fill="#D60C18"/>
<circle cx="227.5" cy="50.5" r="4.5" fill="#D60C18"/>
<circle cx="227.5" cy="50.5" r="4.5" fill="#D60C18"/>
<circle cx="227.5" cy="50.5" r="4.5" fill="#D60C18"/>
<path d="M112 85C114.657 76.9305 121.885 62.8088 129.537 70.8784C139.103 80.9652 150.263 84.5965 157.438 70.8784C164.612 57.1602 174.378 37.7802 190.932 58.1901C207 78 223.913 57.0522 227.5 51" stroke="#D60C18" stroke-width="3" stroke-linecap="round"/>
<g filter="url(#filter1_d_50_931)">
<circle cx="209" cy="96" r="19" fill="#D60C19"/>
</g>
<path d="M206.167 91.6626L210.521 101H209.519L208.052 97.9277H204.028L202.568 101H201.527L205.938 91.6626H206.167ZM206.053 93.6431L204.447 97.0264H207.64L206.053 93.6431ZM214.842 91.6626H215.775V101H214.842V91.6626Z" fill="white"/>
<defs>
<filter id="filter0_d_50_931" x="77.2836" y="7" width="185.433" height="151.521" filterUnits="userSpaceOnUse" color-interpolation-filters="sRGB">
<feFlood flood-opacity="0" result="BackgroundImageFix"/>
<feColorMatrix in="SourceAlpha" type="matrix" values="0 0 0 0 0 0 0 0 0 0 0 0 0 0 0 0 0 0 127 0" result="hardAlpha"/>
<feOffset dy="5"/>
<feGaussianBlur stdDeviation="5"/>
<feComposite in2="hardAlpha" operator="out"/>
<feColorMatrix type="matrix" values="0 0 0 0 0 0 0 0 0 0 0 0 0 0 0 0 0 0 0.15 0"/>
<feBlend mode="normal" in2="BackgroundImageFix" result="effect1_dropShadow_50_931"/>
<feBlend mode="normal" in="SourceGraphic" in2="effect1_dropShadow_50_931" result="shape"/>
</filter>
<filter id="filter1_d_50_931" x="185" y="72" width="48" height="48" filterUnits="userSpaceOnUse" color-interpolation-filters="sRGB">
<feFlood flood-opacity="0" result="BackgroundImageFix"/>
<feColorMatrix in="SourceAlpha" type="matrix" values="0 0 0 0 0 0 0 0 0 0 0 0 0 0 0 0 0 0 127 0" result="hardAlpha"/>
<feOffset/>
<feGaussianBlur stdDeviation="2.5"/>
<feComposite in2="hardAlpha" operator="out"/>
<feColorMatrix type="matrix" values="0 0 0 0 0 0 0 0 0 0 0 0 0 0 0 0 0 0 0.15 0"/>
<feBlend mode="normal" in2="BackgroundImageFix" result="effect1_dropShadow_50_931"/>
<feBlend mode="normal" in="SourceGraphic" in2="effect1_dropShadow_50_931" result="shape"/>
</filter>
</defs>
</svg>
