<svg width="396" height="93" viewBox="0 0 396 93" fill="none" xmlns="http://www.w3.org/2000/svg">
<path d="M24.867 71.613H6.804C5.481 73.854 3.942 75.825 2.403 77.337C2.16 77.121 1.593 76.716 1.269 76.527C3.753 74.313 6.075 70.857 7.533 67.347L8.802 67.725C8.397 68.616 7.965 69.534 7.479 70.398H24.867V71.613ZM16.551 79.578L15.768 80.469C14.661 79.416 12.447 78.039 10.557 77.202L11.34 76.419C13.23 77.229 15.444 78.552 16.551 79.578ZM9.666 83.304L10.422 82.521C12.42 83.493 14.85 85.059 16.011 86.193L15.201 87.111C14.04 85.923 11.691 84.33 9.666 83.304ZM5.643 87.273H20.25C20.412 86.004 20.547 84.303 20.655 82.116H6.48C6.183 84.006 5.886 85.788 5.643 87.273ZM20.898 75.906H7.344C7.155 77.499 6.912 79.2 6.669 80.928H20.682C20.763 79.47 20.844 77.796 20.898 75.906ZM25.731 82.116H21.924C21.816 84.276 21.681 85.977 21.546 87.273H24.921V88.461H21.384C21.168 89.946 20.898 90.756 20.574 91.188C20.115 91.728 19.602 91.917 18.846 91.971C18.117 91.998 16.794 91.971 15.471 91.863C15.444 91.539 15.309 91.08 15.12 90.756C16.578 90.864 17.928 90.891 18.441 90.891C18.927 90.891 19.197 90.837 19.44 90.54C19.656 90.243 19.899 89.622 20.088 88.461H4.131C4.455 86.787 4.86 84.519 5.238 82.116H1.35V80.928H5.4C5.724 78.768 6.021 76.527 6.237 74.718H22.194C22.194 74.718 22.167 75.258 22.167 75.447C22.086 77.553 22.032 79.335 21.951 80.928H25.731V82.116ZM63.272 79.443H52.553C54.416 85.059 58.25 89.19 63.839 90.837C63.542 91.134 63.164 91.647 62.975 91.998C57.359 90.081 53.525 85.896 51.473 80.064C50.474 84.276 47.693 88.677 40.214 91.998C40.025 91.647 39.647 91.161 39.377 90.918C46.721 87.705 49.34 83.466 50.231 79.443H39.863V78.12H50.474C50.636 76.878 50.69 75.636 50.69 74.502V71.073H40.781V69.777H62.084V71.073H52.013V74.502C52.013 75.663 51.986 76.878 51.824 78.12H63.272V79.443ZM81.535 90C81.859 82.143 83.344 77.148 87.259 71.694H77.296V70.317H89.176V71.262C84.505 77.391 83.533 82.305 83.236 90H81.535ZM109.846 68.4L111.169 68.697C109.711 73.314 107.038 77.04 103.825 79.497C103.609 79.227 103.042 78.768 102.718 78.552C106.012 76.284 108.523 72.693 109.846 68.4ZM106.417 77.877H123.184C123.184 77.877 123.184 78.39 123.157 78.579C122.698 87.03 122.293 90.108 121.348 91.107C120.889 91.62 120.376 91.782 119.485 91.836C118.621 91.89 116.866 91.836 115.111 91.728C115.057 91.296 114.922 90.81 114.652 90.432C116.596 90.594 118.432 90.621 119.026 90.621C119.62 90.621 119.944 90.567 120.187 90.297C120.997 89.568 121.429 86.706 121.834 79.119H113.869C113.14 84.6 111.385 89.676 104.554 92.079C104.392 91.782 103.987 91.269 103.744 91.026C110.305 88.839 111.871 84.087 112.492 79.119H106.417V77.877ZM113.761 68.022H119.782C121.186 72.423 124.183 76.392 127.423 78.336C127.153 78.579 126.694 79.092 126.505 79.443C123.292 77.364 120.376 73.53 118.864 69.237H113.761V68.022ZM164.829 70.236V71.37H151.086V70.236H157.485C157.215 69.453 156.756 68.481 156.27 67.779L157.404 67.401C158.025 68.265 158.592 69.399 158.835 70.236H164.829ZM150.384 72.882L149.763 73.962C148.737 72.747 147.144 71.262 145.632 70.02C144.336 72.234 142.716 74.178 141.15 75.609C141.015 75.339 140.691 74.664 140.475 74.367C142.5 72.693 144.525 70.128 145.713 67.374L146.766 67.833C146.577 68.238 146.388 68.643 146.172 69.048C147.711 70.263 149.358 71.748 150.384 72.882ZM146.172 88.488L149.79 87.597L149.871 88.731C146.739 89.541 143.445 90.378 141.096 90.999L140.772 89.784C141.96 89.514 143.445 89.163 145.119 88.785V80.307H141.042V79.146H145.119V75.582H142.392V74.421H149.115V75.582H146.172V79.146H149.844V80.307H146.172V88.488ZM141.717 82.251L142.608 82.008C143.121 83.628 143.553 85.788 143.688 87.165L142.716 87.489C142.608 86.058 142.176 83.898 141.717 82.251ZM147.9 87.219L147.09 86.841C147.522 85.464 148.116 83.196 148.359 81.657L149.412 82.089C148.953 83.763 148.386 85.896 147.9 87.219ZM153.111 81.711V84.006H157.242V81.711H153.111ZM153.111 78.498V80.712H157.242V78.498H153.111ZM162.75 80.712V78.498H158.403V80.712H162.75ZM162.75 84.006V81.711H158.403V84.006H162.75ZM158.457 87.894V90.216H165.315V91.296H150.222V90.216H157.215V87.894H151.599V86.841H157.215V85.005H151.923V77.499H163.965V85.005H158.457V86.841H164.316V87.894H158.457ZM160.752 74.799H165.423V75.906H150.249V74.799H154.623C154.461 73.989 153.975 72.72 153.489 71.748L154.596 71.478C155.136 72.423 155.622 73.692 155.811 74.475L154.704 74.799H159.456C160.05 73.773 160.698 72.396 161.076 71.451L162.372 71.748C161.886 72.801 161.292 73.908 160.752 74.799ZM188.789 84.465L188.33 83.493C190.409 82.521 191.57 81.198 191.678 79.065C191.489 79.119 191.3 79.146 191.111 79.146C190.139 79.146 189.437 78.606 189.437 77.499C189.437 76.392 190.22 75.852 191.111 75.852C192.38 75.852 193.055 76.932 193.055 78.606C193.055 81.441 191.327 83.493 188.789 84.465ZM220.606 68.292L221.74 67.806C222.604 68.697 223.549 69.912 223.981 70.695L222.793 71.289C222.361 70.479 221.443 69.21 220.606 68.292ZM236.374 67.779L237.616 68.319C236.806 69.399 235.807 70.533 234.943 71.289L233.971 70.803C234.754 69.993 235.834 68.67 236.374 67.779ZM219.094 72.45V76.311H217.852V71.289H228.274V67.509H229.543V71.289H240.181V76.311H238.912V72.45H219.094ZM222.901 75.501V78.147H235.321V75.501H222.901ZM236.59 79.146H221.659V74.475H236.59V79.146ZM240.856 87.084V88.164H229.543V90.351C229.543 91.269 229.3 91.593 228.544 91.809C227.761 91.998 226.33 91.998 223.792 91.998C223.711 91.674 223.522 91.242 223.333 90.918C225.412 90.972 227.14 90.945 227.626 90.918C228.139 90.891 228.274 90.756 228.274 90.351V88.164H217.096V87.084H228.274V84.87H218.635V83.817H228.274V81.792C225.439 81.954 222.496 82.035 219.823 82.062C219.823 81.765 219.688 81.387 219.553 81.09C225.466 81.009 232.837 80.604 236.671 79.956L237.562 80.847C235.429 81.225 232.594 81.495 229.543 81.711V83.817H239.479V84.87H229.543V87.084H240.856ZM262.278 79.578L262.467 80.766C261.387 81.144 260.307 81.522 259.254 81.9V90.216C259.254 91.08 259.011 91.458 258.444 91.674C257.904 91.89 256.959 91.944 255.258 91.917C255.204 91.593 255.015 91.08 254.826 90.702C256.122 90.729 257.229 90.729 257.526 90.702C257.85 90.702 258.012 90.594 258.012 90.216V82.305L254.745 83.439L254.367 82.224C255.366 81.9 256.635 81.522 258.012 81.036V74.367H254.691V73.152H258.012V67.536H259.254V73.152H262.413V74.367H259.254V80.631L262.278 79.578ZM276.507 69.75H264.627V72.99H276.507V69.75ZM272.295 90.162H279.207V91.296H263.574V90.162H271.026V86.598H265.275V85.491H271.026V82.44C266.949 82.764 266.355 82.872 265.95 83.034V82.926C265.923 82.98 265.923 83.007 265.923 83.034C265.869 82.764 265.653 82.116 265.491 81.819C265.896 81.765 266.274 81.441 266.733 80.928C267.138 80.55 268.38 79.065 269.379 77.472H264.627C264.627 81.819 264.195 87.813 261.306 91.971C261.117 91.755 260.604 91.377 260.253 91.242C263.061 87.192 263.358 81.576 263.358 77.364V68.616H277.857V74.124H264.627V76.338H277.749V77.472H270.837C269.838 79.038 268.704 80.469 267.57 81.603L275.589 81.09C274.914 80.28 274.158 79.443 273.402 78.795L274.347 78.309C275.778 79.578 277.317 81.36 277.992 82.575L277.047 83.142C276.858 82.818 276.615 82.44 276.318 82.035L272.295 82.359V85.491H278.019V86.598H272.295V90.162ZM316.721 79.443H306.002C307.865 85.059 311.699 89.19 317.288 90.837C316.991 91.134 316.613 91.647 316.424 91.998C310.808 90.081 306.974 85.896 304.922 80.064C303.923 84.276 301.142 88.677 293.663 91.998C293.474 91.647 293.096 91.161 292.826 90.918C300.17 87.705 302.789 83.466 303.68 79.443H293.312V78.12H303.923C304.085 76.878 304.139 75.636 304.139 74.502V71.073H294.23V69.777H315.533V71.073H305.462V74.502C305.462 75.663 305.435 76.878 305.273 78.12H316.721V79.443ZM354.883 70.803H343.111V75.987L343.381 75.663C346.756 77.283 351.049 79.794 353.236 81.387L352.399 82.521C350.32 80.982 346.432 78.606 343.111 76.932V91.944H341.761V70.803H331.042V69.507H354.883V70.803ZM388.968 86.679V84.195H381.516V86.679H388.968ZM381.516 80.739V83.061H388.968V80.739H381.516ZM373.524 76.311H380.22V73.989H373.524V76.311ZM388.563 73.989H381.516V76.311H388.563V73.989ZM393.045 83.061V84.195H390.237V89.001H388.968V87.759H381.516V90.162C381.516 91.242 381.192 91.62 380.49 91.836C379.734 92.052 378.357 92.052 376.116 92.052C376.035 91.728 375.819 91.215 375.63 90.864C377.439 90.918 379.113 90.891 379.545 90.864C380.058 90.837 380.22 90.702 380.22 90.189V87.759H371.175V86.679H380.22V84.195H368.961V83.061H380.22V80.739H371.445V79.659H380.22V77.337H372.255V72.936H380.22V71.046H369.42V69.912H380.22V67.536H381.516V69.912H392.586V71.046H381.516V72.936H389.859V77.337H381.516V79.659H390.237V83.061H393.045Z" fill="#333333"/>
<path d="M44.832 25.808H26.592C29.952 34.88 36.48 41.552 46.176 44.336C45.36 45.104 44.304 46.592 43.776 47.552C34.224 44.384 27.84 37.808 24.048 28.496C21.888 35.504 16.656 42.56 4.464 47.6C4.032 46.688 2.928 45.344 2.16 44.624C14.496 39.584 19.152 32.528 20.832 25.808H3.36V22.208H21.552C21.792 20.336 21.84 18.464 21.84 16.784V11.168H5.04V7.568H42.768V11.168H25.536V16.832C25.536 18.512 25.488 20.384 25.296 22.208H44.832V25.808ZM103.216 10.928H82.96V19.472L83.584 18.752C89.296 21.488 96.832 25.808 100.624 28.688L98.128 31.904C94.864 29.216 88.432 25.28 82.96 22.352V47.6H79.168V10.928H60.832V7.376H103.216V10.928ZM156.224 11.216L153.008 12.512C152.48 10.64 151.088 7.76 149.84 5.552L152.912 4.448C154.256 6.56 155.696 9.392 156.224 11.216ZM139.664 9.104V12.32H118.784V9.104H128.624C128.048 7.76 127.232 6.08 126.512 4.832L129.728 3.824C130.736 5.504 131.888 7.568 132.416 8.96L131.984 9.104H139.664ZM128.576 21.44L126.704 23.456C126.128 22.592 125.168 21.536 124.16 20.432C123.104 22.976 121.808 25.232 120.224 26.96C119.792 26.432 118.592 25.328 117.872 24.896C120.56 22.016 122.336 17.696 123.296 13.04L126.272 13.568C125.936 15.056 125.552 16.448 125.12 17.792C126.464 18.992 127.856 20.384 128.576 21.44ZM123.056 35.408L126.08 36.032C125.024 39.344 123.296 42.752 121.424 45.008C120.8 44.528 119.504 43.76 118.736 43.424C120.656 41.312 122.144 38.336 123.056 35.408ZM133.088 36.176L135.776 35.216C137.36 37.712 139.136 41.024 139.904 43.184L137.072 44.384C136.352 42.176 134.624 38.72 133.088 36.176ZM131.408 26V29.36H139.952V32.528H131.408V47.504H128.048V32.528H118.544V29.36H128.048V26H129.344C128.768 25.424 127.808 24.656 127.184 24.224C129.824 21.584 131.648 17.552 132.56 13.28L135.584 13.808C135.2 15.344 134.768 16.832 134.288 18.224C136.064 20.048 138.08 22.448 139.088 24.032L136.88 25.808C136.112 24.464 134.624 22.544 133.136 20.816C132.224 22.784 131.072 24.56 129.776 26H131.408ZM145.376 35.312V41.936H151.664V35.312H145.376ZM151.664 22.592V16.208H145.376V22.592H151.664ZM151.664 32.192V25.664H145.376V32.192H151.664ZM161.744 41.936V45.2H145.376V47.6H142.112V20.576C141.488 21.584 140.912 22.544 140.24 23.456C139.664 22.832 138.32 21.68 137.552 21.2C140.864 16.976 143.648 10.448 145.328 4.016L148.592 4.736C147.872 7.52 146.912 10.304 145.856 12.944H161.504V16.208H154.88V22.592H160.976V25.664H154.88V32.192H161.024V35.312H154.88V41.936H161.744ZM211.44 30.848L208.992 33.008C207.552 31.136 204.48 28.4 201.84 26.576L204.192 24.656C206.784 26.336 209.952 28.928 211.44 30.848ZM203.856 21.344V14.096H193.344V10.832H203.856V3.92H207.36V10.832H219.264V14.096H207.36V21.344H218.4V24.656H194.16V21.344H203.856ZM187.824 9.68L184.944 11.552C184.128 9.728 182.304 7.088 180.816 5.072L183.552 3.536C185.136 5.456 186.912 7.952 187.824 9.68ZM191.904 11.984V14.912H176.208V11.984H191.904ZM190.608 21.104H177.936V18.272H190.608V21.104ZM190.608 24.512V27.344H177.936V24.512H190.608ZM187.872 33.872H180.912V41.792H187.872V33.872ZM190.8 30.896V44.768H180.912V47.024H178.08V30.896H190.8ZM194.448 43.616L191.808 41.744C193.488 39.2 194.352 34.88 194.784 31.232L197.664 32.096C197.184 35.936 196.32 40.736 194.448 43.616ZM204.432 42.992H208.752C210 42.992 210.24 42.176 210.384 36.512C211.104 37.088 212.448 37.616 213.36 37.808C213.024 44.48 212.16 46.112 209.04 46.112H204.048C200.496 46.112 199.632 45.056 199.632 41.648V29.504H202.944V41.6C202.944 42.8 203.184 42.992 204.432 42.992ZM212.4 32.192L215.184 30.944C217.488 34.352 219.36 38.912 219.984 41.936L216.96 43.28C216.432 40.208 214.56 35.6 212.4 32.192ZM276.208 11.888H244.816C242.464 15.68 239.824 19.136 237.232 21.728C236.464 21.152 234.976 20.144 234.064 19.616C238.48 15.776 242.608 9.632 245.104 3.584L248.608 4.592C247.984 5.936 247.36 7.328 246.64 8.672H276.208V11.888ZM259.072 38.288H266.944C267.136 36.32 267.328 33.776 267.52 30.512H244.528C244.144 33.296 243.712 35.984 243.328 38.288H258.16C256.144 36.416 252.64 34.064 249.568 32.48L251.584 30.512C254.848 32.048 258.784 34.544 260.704 36.512L259.072 38.288ZM267.952 19.904H245.968C245.632 22.352 245.296 24.896 244.912 27.44H259.312C257.44 25.712 253.888 23.408 250.768 22.064L252.784 20.048C255.904 21.392 259.6 23.6 261.52 25.328L259.456 27.44H267.664C267.76 25.184 267.856 22.736 267.952 19.904ZM277.84 30.608H271.024C270.832 33.728 270.688 36.272 270.448 38.288H276.208V41.456H270.064C269.68 43.856 269.2 45.152 268.672 45.92C267.76 47.072 266.752 47.504 265.312 47.648C263.92 47.744 261.52 47.696 259.168 47.552C259.12 46.736 258.736 45.536 258.256 44.72C260.704 44.912 262.912 44.96 263.824 44.912C264.688 44.912 265.12 44.816 265.6 44.24C265.936 43.856 266.272 42.944 266.56 41.456H239.152C239.68 38.528 240.352 34.688 240.976 30.608H234.208V27.344H241.456C241.936 23.648 242.464 19.952 242.8 16.736H271.504C271.504 16.736 271.456 18.032 271.456 18.464C271.36 21.824 271.216 24.752 271.12 27.344H277.84V30.608ZM302.24 40.496H326.048V27.104H302.24V40.496ZM326.048 10.64H302.24V23.6H326.048V10.64ZM298.64 7.136H329.792V46.928H326.048V44H302.24V47.12H298.64V7.136ZM371.136 16.64V19.76H350.448V16.64H359.376V11.84H351.84V8.768H359.376V3.92H362.688V8.768H369.936V11.84H362.688V16.64H371.136ZM362.688 29.648V34.832H371.232V37.904H362.688V47.504H359.376V37.904H350.4V34.832H359.376V29.648H351.456V26.528H355.92C355.632 24.896 354.624 22.496 353.664 20.672L356.304 19.952C357.408 21.68 358.416 24.08 358.752 25.664L356.352 26.528H362.304C363.552 24.464 364.848 21.68 365.616 19.76L368.688 20.576C367.68 22.544 366.528 24.704 365.472 26.528H370.272V29.648H362.688ZM376.224 25.184V44.816C378.72 43.136 380.88 40.976 382.752 38.48C380.112 34.592 378.096 30.032 376.656 25.184H376.224ZM388.752 25.184H379.728C380.88 28.88 382.56 32.432 384.624 35.552C386.544 32.336 387.888 28.784 388.752 25.184ZM390.432 22.064L392.688 22.88C391.632 28.544 389.712 33.824 386.832 38.432C389.04 41.024 391.632 43.088 394.464 44.48C393.648 45.152 392.592 46.448 392.016 47.36C389.328 45.872 386.976 43.76 384.816 41.264C382.8 43.808 380.496 46.064 377.808 47.792C377.424 47.216 376.848 46.544 376.224 46.016V47.6H372.96V6.032H391.536V15.248C391.536 17.072 391.2 17.984 389.712 18.512C388.224 19.04 385.824 19.088 382.176 19.088C382.032 18.08 381.552 16.88 381.072 15.92C384.048 16.016 386.544 16.016 387.264 15.968C388.032 15.92 388.224 15.776 388.224 15.2V9.296H376.224V22.208H389.856L390.432 22.064Z" fill="black"/>
</svg>
