<?xml version="1.0" standalone="no"?>
<!DOCTYPE svg PUBLIC "-//W3C//DTD SVG 1.1//EN" "http://www.w3.org/Graphics/SVG/1.1/DTD/svg11.dtd" >
<svg xmlns="http://www.w3.org/2000/svg">
<metadata>Generated by IcoMoon</metadata>
<defs>
<font id="icomoon" horiz-adv-x="1024">
<font-face units-per-em="1024" ascent="960" descent="-64" />
<missing-glyph horiz-adv-x="1024" />
<glyph unicode="&#x20;" horiz-adv-x="512" d="" />
<glyph unicode="&#xe900;" glyph-name="cw" horiz-adv-x="2904" d="M662.588 917.672c8.14-22.792-4.884-45.583-19.536-56.979-47.211-22.792-96.051-37.444-141.634-63.491-89.539-17.908-172.566-47.211-258.849-68.375-32.56-4.884-68.375 4.884-87.911 30.932 4.884 21.164-24.42 35.816-3.256 53.723 40.7 3.256 70.003 14.652 113.959 13.024 43.955 35.816 92.795 40.7 146.518 47.211 8.14 13.024 22.792 11.396 34.188 19.536 22.792 19.536 55.351 26.048 73.259 48.839 26.048 22.792 61.863 17.908 96.051 13.024 17.908-11.396 40.7-16.28 47.211-37.444zM1307.269 616.496c4.884 17.908 8.14 35.816-1.628 52.095-1.628 9.768 4.884 17.908-4.884 22.792-19.536 13.024-35.816-8.14-55.351-11.396-24.42-13.024-43.955-43.955-73.259-50.467-22.792-29.304-56.979-40.7-84.655-58.607-35.816-9.768-79.771-6.512-112.331 6.512-8.14 14.652-26.048 6.512-37.444 16.28-26.048 17.908-61.863 17.908-81.399 47.211-11.396 21.164-45.583 21.164-40.7 50.467 11.396 13.024 27.676 14.652 43.955 19.536 53.723 9.768 113.959 1.628 166.054 21.164 29.304 8.14 61.863 14.652 91.167 24.42 11.396 11.396 34.188 4.884 43.955 22.792 19.536 3.256 40.7 9.768 58.607 9.768 16.28 13.024 40.7 4.884 56.979 21.164 32.56 0 56.979 21.164 91.167 19.536 24.42 24.42 65.119 14.652 94.423 27.676 43.955 13.024 92.795 47.211 141.634 21.164h21.164c34.188-8.14 78.143-8.14 94.423-43.955 1.628-22.792-13.024-42.328-22.792-61.863-32.56-19.536-86.283-30.932-118.843-3.256-39.072 24.42-87.911 9.768-128.61-1.628-11.396-13.024-29.304-13.024-35.816-30.932 1.628-19.536-3.256-40.7 3.256-56.979 14.652-30.932-4.884-63.491 9.768-94.423 6.512-42.328 19.536-102.563 17.908-151.402 0-68.375 4.884-151.402 16.28-216.521 4.884-24.42 14.652-50.467 17.908-79.771 14.652-17.908 1.628-40.7 11.396-60.235-16.28-42.328 0-100.935-48.839-122.099-24.42-26.048-71.631-22.792-102.563-11.396-21.164 6.512-26.048 29.304-40.7 42.328 0 27.676-19.536 53.723-9.768 84.655 16.28 180.706 30.932 351.644 22.792 532.35zM428.159 702.779c16.28-17.908 22.792-37.444 32.56-58.607 16.28-17.908 35.816 1.628 52.095 3.256 27.676 29.304 65.119 66.747 115.587 61.863 21.164-8.14 45.583-6.512 56.979-27.676 9.768-13.024 6.512-29.304 1.628-43.955-17.908-37.444-63.491-50.467-94.423-73.259-24.42-13.024-58.607-22.792-71.631-50.467 0-45.583 35.816-81.399 63.491-107.447 43.955-45.583 83.027-113.959 141.634-140.006 30.932-17.908 56.979-53.723 96.051-65.119 8.14-8.14 24.42-11.396 34.188-22.792 17.908-1.628 26.048-27.676 47.211-21.164 37.444-24.42 74.887-50.467 118.843-58.607 11.396-8.14 26.048-14.652 32.56-24.42 14.652-3.256 21.164-17.908 27.676-27.676 3.256-11.396-6.512-22.792-9.768-32.56-22.792-21.164-56.979-13.024-81.399-26.048-78.143-1.628-164.426-22.792-242.569-6.512l-86.283 66.747c-55.351 68.375-96.051 141.634-151.402 210.010-6.512 16.28-29.304 22.792-35.816 40.7-26.048 17.908-35.816 48.839-71.631 52.095-14.652-21.164-19.536-45.583-19.536-68.375-8.14-19.536-4.884-45.583-16.28-66.747-11.396-13.024-6.512-32.56-19.536-45.583 0-16.28-13.024-21.164-13.024-35.816-26.048-61.863-76.515-112.331-126.983-154.658-43.955-8.14-83.027-42.328-130.238-16.28-26.048 1.628-53.723 21.164-63.491 47.211 6.512 14.652-11.396 19.536-11.396 30.932 8.14 19.536-17.908 37.444 8.14 48.839 1.628 9.768 11.396 21.164 21.164 24.42 22.792 3.256 47.211 4.884 65.119-14.652 8.14-1.628 14.652 4.884 21.164 8.14 1.628 11.396 19.536 13.024 19.536 26.048 21.164 19.536 35.816 40.7 45.583 68.375 27.676 29.304 30.932 71.631 21.164 113.959-29.304 1.628-60.235-13.024-91.167-1.628-21.164 14.652-50.467 22.792-60.235 45.583-14.652 14.652-26.048 34.188-27.676 55.351 8.14 22.792 42.328 16.28 60.235 21.164 17.908 6.512 37.444 8.14 55.351 17.908 43.955 8.14 70.003 47.211 115.587 53.723 26.048 16.28 63.491 40.7 58.607 78.143-13.024 30.932 8.14 56.979 3.256 91.167 4.884 14.652 17.908 26.048 32.56 32.56 16.28 4.884 35.816-1.628 52.095 4.884 4.884-11.396 16.28-6.512 24.42-13.024zM1802.175 479.746c35.816-39.072 74.887-87.911 50.467-144.89-1.628-19.536-30.932-13.024-32.56-34.188-40.7-6.512-81.399-6.512-118.843 6.512 0 14.652-11.396 19.536-22.792 26.048-45.583 42.328-81.399 99.307-60.235 156.286 45.583 37.444 109.075 3.256 161.17 0 6.512-3.256 14.652-9.768 22.792-9.768zM2484.299 305.552c1.628 1.628 3.256 6.512 8.14 6.512 58.607 1.628 99.307 1.628 157.914 1.628 6.512 4.884 14.652 3.256 22.792 3.256h76.515c6.512 3.256 1.628 13.024 3.256 19.536 3.256 13.024-8.14 34.188 11.396 39.072 8.14 1.628 21.164 1.628 26.048-8.14v-47.211l1.628-1.628c34.188-1.628 66.747 0 99.307-1.628 1.628-1.628 3.256-1.628 4.884-3.256 0-3.256 0-8.14-3.256-8.14-30.932-1.628-65.119 0-96.051-1.628 0-1.628-3.256 0-3.256-1.628l-1.628-3.256c-1.628-21.164 0-40.7 0-63.491l1.628-3.256 81.399-1.628c1.628-1.628 6.512-4.884 3.256-9.768l-3.256-3.256-81.399-1.628h-122.099c-3.256 1.628-6.512 4.884-4.884 8.14s4.884 4.884 8.14 4.884h76.515c8.14 3.256 3.256 14.652 4.884 21.164v47.211l-3.256 3.256c-32.56 0-61.863 0-92.795 0-1.628 1.628-3.256 1.628-4.884 1.628-3.256-3.256-4.884-4.884-9.768-4.884l-143.262-1.628c-3.256 0-6.512 0-9.768 1.628zM2129.399 370.671c1.628-13.024 0-26.048 1.628-39.072l3.256-3.256c21.164-1.628 42.328 1.628 61.863-1.628 3.256-1.628 3.256-4.884 1.628-8.14s-3.256-3.256-6.512-3.256l-126.983-1.628h-50.467c-3.256 0-3.256 3.256-4.884 4.884 0 3.256 0 6.512 4.884 8.14 24.42 1.628 52.095 0 76.515 1.628 1.628 0 4.884 3.256 4.884 4.884 3.256 14.652-9.768 42.328 13.024 45.583 6.512-1.628 16.28 0 21.164-8.14zM2635.701 360.903c1.628 0 3.256-1.628 4.884-3.256 1.628-3.256 0-8.14-3.256-9.768l-11.396-1.628h-115.587c-3.256 0-3.256 3.256-4.884 4.884 0 3.256 0 6.512 3.256 8.14 14.652 4.884 30.932 0 45.583 1.628 24.42 0 53.723 1.628 81.399 0zM2087.072 308.808c4.884-3.256 4.884-8.14 4.884-13.024-1.628-11.396-21.164-21.164-8.14-34.188 4.884-11.396 17.908-21.164 21.164-32.56 1.628-1.628-1.628-3.256-1.628-4.884-3.256-4.884-8.14-4.884-13.024-3.256-9.768 8.14-16.28 17.908-26.048 26.048-3.256 0-6.512-3.256-8.14-6.512-11.396-13.024-19.536-30.932-35.816-37.444-3.256 1.628-8.14 1.628-9.768 6.512v4.884c22.792 29.304 34.188 61.863 50.467 92.795 8.14 4.884 19.536 8.14 26.048 1.628zM2179.866 297.412c1.628-11.396-9.768-21.164-13.024-30.932 4.884-16.28 14.652-30.932 22.792-47.211 1.628-3.256 0-4.884-1.628-8.14-3.256-1.628-8.14-4.884-13.024-3.256-8.14 6.512-16.28 19.536-24.42 27.676-11.396-6.512-13.024-29.304-29.304-19.536-3.256 1.628-4.884 6.512-3.256 11.396 13.024 22.792 24.42 47.211 29.304 71.631 3.256 4.884 8.14 6.512 11.396 8.14 8.14-1.628 16.28-1.628 21.164-9.768zM2634.073 263.224c1.628-1.628 6.512-3.256 6.512-6.512s-1.628-6.512-4.884-8.14h-125.355c-1.628 1.628-4.884 1.628-6.512 4.884s1.628 9.768 4.884 9.768h125.355zM2632.445 216.013c1.628-1.628 4.884-1.628 4.884-4.884 1.628-1.628 0-4.884-1.628-6.512s-4.884-3.256-9.768-3.256h-120.471c-3.256 1.628-4.884 6.512-3.256 9.768s6.512 3.256 9.768 3.256c40.7 1.628 79.771 1.628 120.471 1.628zM2126.143 209.501c9.768-9.768 1.628-19.536 4.884-32.56 1.628-1.628 4.884-1.628 6.512-1.628h60.235c1.628-1.628 6.512-1.628 6.512-4.884s-1.628-6.512-4.884-8.14l-55.351-1.628c-3.256-1.628 0-4.884 0-6.512 16.28-21.164 35.816-34.188 56.979-48.839 1.628-4.884-1.628-9.768-4.884-11.396h-9.768c-19.536 11.396-39.072 26.048-55.351 40.7l-1.628-1.628c3.256-26.048 3.256-48.839 1.628-76.515-4.884-9.768-14.652-9.768-24.42-8.14-4.884 1.628-9.768 3.256-11.396 8.14l-1.628 6.512c0 24.42 1.628 48.839 4.884 73.259-4.884 4.884-4.884-4.884-9.768-6.512 0-3.256-3.256-3.256-3.256-4.884-11.396-11.396-21.164-24.42-34.188-34.188 0-3.256-4.884-3.256-6.512-4.884-8.14-6.512-17.908-21.164-32.56-14.652-1.628 1.628-1.628 4.884-1.628 6.512 1.628 4.884 6.512 6.512 11.396 9.768 24.42 21.164 39.072 42.328 55.351 68.375 0 1.628 0 3.256-1.628 3.256-21.164 1.628-42.328 0-65.119 1.628-1.628 1.628-4.884 6.512-1.628 9.768l4.884 3.256h74.887c1.628 0 3.256 1.628 4.884 3.256 1.628 11.396-4.884 27.676 8.14 34.188 8.14 3.256 17.908 4.884 24.42-1.628zM2738.264 201.361c8.14-6.512 1.628-17.908 3.256-27.676 0-34.188 0-63.491 0-96.051 1.628-3.256 6.512-4.884 9.768-6.512h50.467c14.652 3.256 21.164 17.908 24.42 32.56 3.256 6.512 8.14 8.14 14.652 9.768 8.14 0 16.28-1.628 21.164-9.768 1.628-16.28-6.512-30.932-19.536-39.072-30.932-13.024-73.259-4.884-107.447-6.512-11.396 1.628-22.792 4.884-26.048 16.28l-1.628 6.512c0 35.816 1.628 78.143 1.628 115.587 1.628 4.884 6.512 6.512 11.396 9.768 8.14 0 13.024-1.628 17.908-4.884zM2800.127 180.197c9.768-13.024 19.536-26.048 24.42-40.7 0-4.884 0-8.14-3.256-11.396-6.512-4.884-13.024-8.14-19.536-6.512-21.164 3.256-14.652 27.676-22.792 40.7-3.256 13.024-16.28 21.164-14.652 34.188 3.256 4.884 11.396 4.884 16.28 4.884 6.512-3.256 13.024-13.024 19.536-21.164zM2871.758 168.801c11.396-13.024 21.164-26.048 30.932-39.072 1.628-4.884 1.628-11.396-3.256-14.652-6.512-6.512-14.652-6.512-24.42-4.884-11.396 6.512-11.396 19.536-16.28 29.304-6.512 14.652-16.28 26.048-24.42 39.072-1.628 3.256 0 8.14 1.628 9.768 3.256 1.628 8.14 3.256 13.024 1.628 11.396-4.884 16.28-16.28 22.792-21.164zM2682.913 175.313c-3.256 4.884-8.14 4.884-11.396 6.512-4.884-1.628-9.768-1.628-11.396-6.512-1.628-21.164-8.14-42.328-16.28-61.863-1.628-3.256-3.256-6.512-4.884-4.884-4.884 22.792 13.024 61.863-22.792 65.119h-68.375c-9.768 0-22.792 1.628-30.932-3.256-4.884-3.256-9.768-9.768-11.396-16.28l-1.628-78.143 1.628-6.512c3.256-4.884 9.768-8.14 16.28-9.768 27.676-3.256 60.235-1.628 89.539-1.628l13.024 4.884c8.14 3.256 11.396 13.024 13.024 21.164 6.512-1.628 13.024-3.256 19.536-3.256 19.536 6.512 14.652 27.676 21.164 42.328 0 17.908 6.512 35.816 4.884 52.095zM2599.886 76.006l-3.256-1.628h-58.607l-1.628 1.628c0 26.048 0 55.351 0 81.399 0 3.256 3.256 1.628 6.512 3.256h53.723l1.628-1.628 1.628-83.027zM2365.456 77.634c-4.884 0-11.396 0-16.28 1.628l-1.628 56.979 1.628 3.256c21.164 3.256 40.7 0 61.863 1.628 3.256 1.628 3.256 4.884 3.256 6.512 0 3.256-3.256 3.256-4.884 4.884h-55.351c-1.628 0-6.512 0-6.512 3.256v60.235c1.628 1.628 3.256 1.628 3.256 3.256h55.351l4.884 1.628c0 1.628 3.256 3.256 1.628 6.512 0 3.256-3.256 3.256-4.884 4.884h-58.607l-3.256 1.628c0 19.536-1.628 40.7 1.628 60.235l1.628 1.628 68.375 1.628c3.256 1.628 3.256 4.884 4.884 8.14l-4.884 4.884-81.399 1.628-1.628 1.628c9.768 13.024 21.164 24.42 32.56 35.816 4.884 3.256 8.14 9.768 6.512 16.28-4.884 6.512-13.024 8.14-21.164 9.768-16.28 0-19.536-17.908-26.048-29.304s-16.28-21.164-17.908-34.188h-63.491l-1.628 1.628c4.884 16.28 16.28 29.304 22.792 43.955v6.512c-1.628 4.884-6.512 9.768-13.024 11.396-8.14 1.628-17.908 1.628-22.792-6.512-11.396-39.072-27.676-76.515-52.095-110.703-1.628-3.256 0-6.512 1.628-9.768 3.256-1.628 6.512-3.256 11.396-3.256 11.396 6.512 17.908 19.536 27.676 27.676v0-143.262c1.628-16.28-1.628-37.444 3.256-53.723 4.884-8.14 14.652-13.024 26.048-13.024 56.979 0 113.959 0 170.938 0l3.256 1.628c1.628 1.628 1.628 6.512-1.628 8.14-14.652 6.512-37.444 4.884-55.351 4.884zM2259.638 219.269c1.628 1.628 3.256 1.628 4.884 1.628 16.28 0 34.188 1.628 50.467-1.628v-63.491c-19.536-1.628-34.188-1.628-53.723 0l-1.628 1.628v61.863zM2313.361 79.262v0l-53.723-1.628-1.628 1.628c0 19.536-1.628 39.072 0 58.607 0 1.628 1.628 1.628 3.256 3.256 16.28 0 35.816 1.628 50.467-1.628l1.628-1.628c0-19.536 1.628-40.7 0-58.607zM2313.361 237.176c-17.908-3.256-34.188-1.628-53.723-1.628l-1.628 1.628v56.979c0 6.512 6.512 3.256 11.396 3.256 14.652 0 29.304 0 43.955 0l1.628-3.256c0-19.536 0-40.7-1.628-56.979z" />
<glyph unicode="&#xe901;" glyph-name="fb" d="M768.266 960h-133.195c-149.178 0-246.144-99.097-246.144-252.537v-116.146h-133.195c-11.721 0-21.311-9.59-21.311-21.311v-168.358c0-11.721 9.59-21.311 21.311-21.311h133.195v-425.157c0-11.721 9.59-21.311 21.311-21.311h174.751c11.721 0 21.311 9.59 21.311 21.311v426.223h156.637c11.721 0 21.311 9.59 21.311 21.311v168.358c0 5.328-2.131 10.656-6.393 14.918s-9.59 6.393-14.918 6.393h-157.702v98.031c0 46.884 11.721 71.392 72.458 71.392h89.507c11.721 0 21.311 9.59 21.311 21.311v155.571c0 11.721-8.524 21.311-20.246 21.311z" />
<glyph unicode="&#xe902;" glyph-name="line" d="M868.816 837.542c-95.433 78.964-222.324 122.458-356.816 122.458s-261.384-43.494-356.816-122.458c-96.699-79.809-149.905-186.431-149.905-299.81 0-106.834 46.449-207.122 130.481-282.497 78.331-70.096 184.953-114.857 302.344-127.314v-170.807c0-8.023 4.645-15.413 11.824-19.002 2.956-1.478 6.123-2.111 9.29-2.111 4.645 0 9.079 1.478 12.879 4.434l316.701 242.171c74.953 56.584 126.68 106.2 162.784 156.239 45.394 62.707 67.352 127.947 67.352 199.099-0.211 113.379-53.417 219.791-150.116 299.599zM763.038 215.964l-282.708-216.201v147.372c0 10.979-8.445 20.269-19.635 21.113-115.701 8.445-221.057 50.672-296.643 118.235-75.164 67.352-116.546 156.45-116.546 251.249 0 209.656 208.389 380.041 464.495 380.041s464.495-170.385 464.495-380.041c0-141.038-102.611-237.948-213.456-321.768zM632.769 629.153c0 15.835-8.445 24.492-21.536 24.492-13.090-0.211-21.113-9.29-21.113-24.914-0.211-29.136 0-58.273-0.211-87.409 0-4.223-0.422-8.445-0.845-16.257-5.067 5.912-7.812 8.868-10.346 12.035-27.025 35.048-53.839 70.096-80.864 105.356-6.545 8.656-14.991 13.724-25.969 10.346s-15.624-12.246-15.624-23.014c-0.211-56.373-0.211-112.534 0-168.696 0-9.29 3.8-17.102 12.668-21.325 15.835-7.39 30.826 3.8 31.037 23.858 0.422 27.447 0.211 55.106 0.211 82.553 0 5.278 0 10.557 0 16.046 5.278-2.322 7.812-5.278 10.134-8.234 27.025-34.626 53.839-69.252 80.653-104.089 6.756-8.656 14.357-14.991 26.181-10.979 11.612 4.012 15.413 12.668 15.413 24.069 0.211 55.317 0.422 110.845 0.211 166.162zM715.322 609.518c4.012 0.211 8.656 0.845 13.513 1.056 15.835 0.211 31.881-0.211 47.716 0.211 5.912 0.211 12.246 0.633 17.313 2.956 10.134 4.645 13.090 14.146 10.346 24.28-2.745 10.346-10.346 15.835-21.325 15.835-28.292 0-56.584 0.211-84.876 0-20.269 0-28.503-7.812-28.503-28.081-0.211-53.417-0.211-106.834 0-160.462 0-19.847 8.656-28.292 28.503-28.503 26.392-0.211 52.784 0 78.964 0 4.223 0 8.656 0.633 12.879 1.9 9.501 2.745 14.568 9.29 14.779 19.213 0.422 10.557-4.434 17.735-14.357 20.691-5.278 1.689-10.979 2.111-16.468 2.111-19.847 0.211-39.482 0.211-59.751 0.211 0 14.991 0 27.87 0 41.382 3.8 0.422 6.756 0.845 9.923 0.845 18.791 0 37.582-0.422 56.162 0.211 16.257 0.633 24.914 9.501 24.28 23.436-0.633 12.457-9.712 20.058-24.492 20.48-10.346 0.211-20.691 0-31.248 0-38.638 0-38.638 0-35.048 38.849 0.422 0.845 1.056 1.478 1.689 3.378zM330.002 480.726c-4.434 0.422-8.656 0.211-13.090 0.211-18.369 0-36.526 0-56.584 0 0 6.756 0 11.612 0 16.257 0 42.649 0 85.298 0 127.947 0 18.158-8.023 28.292-21.958 28.503-14.357 0.211-21.958-9.501-21.958-28.081 0-54.261 0-108.523 0-162.784 0-17.313 8.445-25.758 25.758-25.969 15.413-0.211 73.686-0.422 87.198 0.211 13.301 0.845 22.38 10.557 22.169 22.169 0 11.19-8.868 20.058-21.536 21.536zM419.312 632.109c-0.211 16.468-5.278 21.747-21.113 21.747-16.046 0-21.536-4.856-21.747-21.325-0.211-57.851-0.211-115.701 0-173.552 0-16.257 5.912-22.169 21.113-22.169 15.624 0 21.536 5.912 21.747 23.014 0 28.292 0 56.584 0 84.876 0 29.136 0 58.273 0 87.409z" />
<glyph unicode="&#xe903;" glyph-name="quote-right" horiz-adv-x="951" d="M438.857 768v-402.286c0-161.143-131.429-292.571-292.571-292.571h-36.571c-20 0-36.571 16.571-36.571 36.571v73.143c0 20 16.571 36.571 36.571 36.571h36.571c80.571 0 146.286 65.714 146.286 146.286v18.286c0 30.286-24.571 54.857-54.857 54.857h-128c-60.571 0-109.714 49.143-109.714 109.714v219.429c0 60.571 49.143 109.714 109.714 109.714h219.429c60.571 0 109.714-49.143 109.714-109.714zM950.857 768v-402.286c0-161.143-131.429-292.571-292.571-292.571h-36.571c-20 0-36.571 16.571-36.571 36.571v73.143c0 20 16.571 36.571 36.571 36.571h36.571c80.571 0 146.286 65.714 146.286 146.286v18.286c0 30.286-24.571 54.857-54.857 54.857h-128c-60.571 0-109.714 49.143-109.714 109.714v219.429c0 60.571 49.143 109.714 109.714 109.714h219.429c60.571 0 109.714-49.143 109.714-109.714z" />
<glyph unicode="&#xe904;" glyph-name="quote-left" horiz-adv-x="951" d="M438.857 402.286v-219.429c0-60.571-49.143-109.714-109.714-109.714h-219.429c-60.571 0-109.714 49.143-109.714 109.714v402.286c0 161.143 131.429 292.571 292.571 292.571h36.571c20 0 36.571-16.571 36.571-36.571v-73.143c0-20-16.571-36.571-36.571-36.571h-36.571c-80.571 0-146.286-65.714-146.286-146.286v-18.286c0-30.286 24.571-54.857 54.857-54.857h128c60.571 0 109.714-49.143 109.714-109.714zM950.857 402.286v-219.429c0-60.571-49.143-109.714-109.714-109.714h-219.429c-60.571 0-109.714 49.143-109.714 109.714v402.286c0 161.143 131.429 292.571 292.571 292.571h36.571c20 0 36.571-16.571 36.571-36.571v-73.143c0-20-16.571-36.571-36.571-36.571h-36.571c-80.571 0-146.286-65.714-146.286-146.286v-18.286c0-30.286 24.571-54.857 54.857-54.857h128c60.571 0 109.714-49.143 109.714-109.714z" />
<glyph unicode="&#xe905;" glyph-name="Initium" d="M512 960c-284.029 0-512-227.971-512-512s227.971-512 512-512 512 227.971 512 512-227.971 512-512 512zM512-37.839c-269.080 0-485.839 216.759-485.839 485.839s216.759 485.839 485.839 485.839 485.839-216.759 485.839-485.839-216.759-485.839-485.839-485.839zM493.314 866.569c-3.737 0-7.474-3.737-7.474-7.474v-74.745c0-3.737-3.737-7.474-7.474-7.474h-33.635c-3.737 0-7.474 3.737-7.474 7.474v74.745c0 3.737-3.737 7.474-7.474 7.474h-14.949c-3.737 0-7.474-3.737-7.474-7.474v-74.745c0-3.737-3.737-7.474-7.474-7.474h-29.898c-3.737 0-7.474 3.737-7.474 7.474v74.745c0 3.737-3.737 7.474-7.474 7.474h-11.212c-3.737 0-7.474 0-7.474-3.737v-100.905c0-3.737 3.737-7.474 7.474-7.474h164.438c3.737 0 7.474 3.737 7.474 7.474v100.905c0 3.737-3.737 7.474-7.474 7.474h-14.949zM242.92 642.336c3.737 0 7.474 3.737 7.474 7.474v14.949c0 3.737-3.737 7.474-7.474 7.474h-138.277c-3.737 0-7.474-3.737-7.474-7.474v-14.949c0-3.737 3.737-7.474 7.474-7.474h18.686c3.737 0 7.474-3.737 7.474-7.474v-156.964c0-3.737-3.737-7.474-7.474-7.474h-18.686c-3.737 0-7.474-3.737-7.474-7.474v-14.949c0-3.737 3.737-7.474 7.474-7.474h138.277c3.737 0 7.474 3.737 7.474 7.474v14.949c0 3.737-3.737 7.474-7.474 7.474h-18.686c-3.737 0-7.474 3.737-7.474 7.474v160.701c0 3.737 3.737 7.474 7.474 7.474h18.686zM190.599 481.635c0-3.737-3.737-7.474-7.474-7.474h-18.686c-3.737 0-7.474 3.737-7.474 7.474v156.964c0 3.737 3.737 7.474 7.474 7.474h18.686c3.737 0 7.474-3.737 7.474-7.474v-156.964zM508.263 612.438h-63.533c-3.737 0-7.474 3.737-7.474 7.474v18.686c0 3.737 3.737 7.474 7.474 7.474h63.533c3.737 0 7.474 3.737 7.474 7.474v11.212c0 3.737-3.737 7.474-7.474 7.474h-164.438c-3.737 0-7.474-3.737-7.474-7.474v-14.949c0-3.737 3.737-7.474 7.474-7.474h63.533c3.737 0 7.474-3.737 7.474-7.474v-18.686c0-3.737-3.737-7.474-7.474-7.474h-63.533c-3.737 3.737-7.474 0-7.474-3.737v-153.226c0-3.737 3.737-7.474 7.474-7.474h14.949c3.737 0 7.474 3.737 7.474 7.474v123.328c0 3.737 3.737 7.474 7.474 7.474h11.212c3.737 0 7.474-3.737 7.474-7.474v-123.328c0-3.737 3.737-7.474 7.474-7.474h14.949c3.737 0 7.474 3.737 7.474 7.474v123.328c0 3.737 3.737 7.474 7.474 7.474h11.212c3.737 0 7.474-3.737 7.474-7.474v-123.328c0-3.737 3.737-7.474 7.474-7.474h14.949c3.737 0 7.474 3.737 7.474 7.474v123.328c0 3.737 3.737 7.474 7.474 7.474h11.212c3.737 0 7.474-3.737 7.474-7.474v-123.328c0-3.737 3.737-7.474 7.474-7.474h14.949c3.737 0 7.474 3.737 7.474 7.474v153.226c-22.423 3.737-22.423 7.474-26.161 7.474zM231.708 810.511c0-33.024-26.771-59.796-59.796-59.796s-59.796 26.771-59.796 59.796c0 33.024 26.771 59.796 59.796 59.796s59.796-26.771 59.796-59.796z" />
<glyph unicode="&#xe906;" glyph-name="x" horiz-adv-x="826" d="M352.344 475.527l-319.312 484.473h121.118l154.151-253.247c33.032-55.054 66.065-110.108 110.108-165.161h11.011c33.032 55.054 66.065 110.108 99.097 165.161l154.151 253.247h121.118l-319.312-506.495 352.344-528.516h-132.129l-176.172 275.269c-33.032 66.065-77.075 132.129-121.118 187.183h-11.011c-33.032-55.054-66.065-121.118-110.108-187.183l-165.161-264.258h-121.118l352.344 539.527z" />
<glyph unicode="&#xe907;" horiz-adv-x="3532" d="M1980.671 501.868h30.835v-22.108c7.246 17.136 23.536 26.762 45.591 26.762 35.489 0 60.189-28.508 60.189-71.824 0-45.908-23.853-72.935-61.352-72.935-0.467-0.015-1.016-0.024-1.567-0.024-17.809 0-33.505 9.046-42.743 22.794l-0.117 0.184v-80.551h-30.835zM2048.37 389.107c23.272 0 36.653 15.867 36.653 44.745s-14.28 45.327-37.499 45.327-37.023-15.867-37.023-44.163 16.079-45.908 37.869-45.908z" />
<glyph unicode="&#xe908;" horiz-adv-x="3532" d="M2206.775 506.523c9.198-0.047 17.857-2.31 25.485-6.282l-0.309 0.147-11.054-26.128c-4.895 3.333-10.939 5.322-17.447 5.322-0.505 0-1.007-0.012-1.506-0.036l0.071 0.003c-21.791 0-28.772-17.136-28.772-53.472v-58.972h-30.835v135.028h30.835v-21.791c6.77 17.718 17.242 26.18 33.532 26.18z" />
<glyph unicode="&#xe909;" horiz-adv-x="3532" d="M2264.319 430.044c1.428-25.281 15.867-40.090 38.028-40.090 19.781 0 32.263 7.881 42.312 26.445l25.863-14.492c-15.126-27.080-37.023-40.143-67.435-40.143-42.999 0-70.608 28.508-70.608 72.353 0 41.889 28.772 72.406 70.608 72.406 43.317 0 68.757-25.863 68.757-70.661v-5.818zM2303.511 480.342c-20.045 0-32.21-9.573-37.023-29.618h73.517c-2.274 19.463-15.232 29.618-36.494 29.618z" />
<glyph unicode="&#xe90a;" horiz-adv-x="3532" d="M2406.487 405.662c3.755-13.381 13.963-20.627 30.2-20.627 13.963 0 22.108 6.981 22.108 17.718 0 13.963-13.381 15.126-31.734 22.954-25.599 10.578-38.662 21.156-38.662 40.672 0 23.272 19.463 40.408 51.409 40.408 21.156 0 36.335-8.145 43.052-22.108l-21.843-15.074c-3.529 8.265-11.588 13.953-20.975 13.953-0.491 0-0.979-0.016-1.463-0.046l0.066 0.003c-11.9 0-19.463-6.082-19.463-15.391 0-13.064 14.545-15.074 35.489-23.536 23.536-9.309 34.537-20.31 34.537-39.826 0-26.128-19.728-42.999-54.9-42.999-26.18 0-43.317 9.626-53.207 29.936z" />
<glyph unicode="&#xe90b;" horiz-adv-x="3532" d="M2529.932 579.193c0.175 0.006 0.38 0.009 0.587 0.009 10.37 0 18.776-8.406 18.776-18.776 0-0.152-0.002-0.304-0.005-0.455v0.022c0.004-0.142 0.006-0.309 0.006-0.476 0-10.516-8.525-19.040-19.040-19.040-0.039 0-0.079 0-0.118 0h0.006c-10.731 0.118-19.398 8.786-19.516 19.505v0.011c0.119 10.592 8.704 19.14 19.299 19.199h0.006zM2514.488 501.921h30.835v-134.552h-30.835z" />
<glyph unicode="&#xe90c;" horiz-adv-x="3532" d="M2708.647 587.285v-219.969h-30.835v17.401c-9.367-13.932-25.071-22.977-42.888-22.977-0.541 0-1.081 0.008-1.618 0.025l0.079-0.002c-37.499 0-61.352 27.027-61.352 72.935 0 43.317 25.017 71.824 60.453 71.824 22.108 0 38.081-9.626 45.327-26.762v107.525zM2641.794 479.179c-23.272 0-37.499-16.872-37.499-45.327s13.646-44.745 37.023-44.745c21.526 0 37.499 17.401 37.499 45.908s-14.069 44.163-37.023 44.163z" />
<glyph unicode="&#xe90d;" horiz-adv-x="3532" d="M2766.138 430.044c1.428-25.281 15.867-40.090 38.081-40.090 19.728 0 32.263 7.881 42.312 26.445l25.863-14.492c-15.074-27.080-37.023-40.143-67.382-40.143-43.052 0-70.608 28.508-70.608 72.353 0 41.889 28.719 72.406 70.608 72.406 43.264 0 68.757-25.863 68.757-70.661v-5.818zM2805.382 480.342c-20.045 0-32.263-9.573-37.023-29.618h73.57c-2.803 19.463-15.602 29.618-36.811 29.618z" />
<glyph unicode="&#xe90e;" horiz-adv-x="3532" d="M2898.363 501.868h29.037v-22.108c12.535 18.882 28.508 26.762 52.044 26.762 20.045 0 34.273-6.4 42.312-18.935 6.664-10.155 6.664-22.372 6.664-38.61v-81.662h-31.099v69.074c0 29.936-3.755 43.899-29.354 43.899-0.726 0.050-1.574 0.079-2.428 0.079-12.3 0-23.213-5.939-30.028-15.106l-0.071-0.1c-5.289-8.145-6.135-19.728-6.135-36.6v-61.299h-30.941z" />
<glyph unicode="&#xe90f;" horiz-adv-x="3532" d="M3068.985 474.842h-23.536v27.027h23.536v50.88h30.782v-50.827h23.536v-27.027h-23.536v-107.525h-30.782z" />
<glyph unicode="&#xe910;" horiz-adv-x="3532" d="M3159.321 579.193c0.175 0.006 0.38 0.009 0.587 0.009 10.37 0 18.776-8.406 18.776-18.776 0-0.152-0.002-0.304-0.005-0.455v0.022c0.003-0.126 0.005-0.275 0.005-0.423 0-10.545-8.548-19.093-19.093-19.093-0.039 0-0.078 0-0.116 0h0.006c-10.72 0.119-19.375 8.792-19.463 19.508v0.008c0.119 10.592 8.704 19.14 19.299 19.199h0.006zM3143.93 501.921h30.835v-134.552h-30.835z" />
<glyph unicode="&#xe911;" horiz-adv-x="3532" d="M3307.254 367.317v17.401c-9.39-13.934-25.111-22.977-42.944-22.977-0.54 0-1.078 0.008-1.614 0.025l0.078-0.002c-37.446 0-61.299 27.027-61.299 72.935 0 43.317 24.964 71.824 60.453 71.824 22.055 0 38.081-9.626 45.327-26.762v22.108h30.782v-134.552zM3271.236 479.179c-23.272 0-37.499-16.872-37.499-45.327s13.646-44.745 37.023-44.745c21.156 0 37.499 17.401 37.499 45.908s-14.069 44.163-37.023 44.163z" />
<glyph unicode="&#xe912;" horiz-adv-x="3532" d="M3374.688 587.285h30.782v-219.969h-30.782z" />
<glyph unicode="&#xe913;" horiz-adv-x="3532" d="M2002.779 144.227c1.428-25.281 15.867-40.090 38.081-40.090 19.728 0 32.21 7.828 42.312 26.445l25.863-14.545c-15.074-27.027-37.023-40.090-67.382-40.090-43.052 0-70.661 28.455-70.661 72.353 0 41.836 28.772 72.353 70.661 72.353 43.264 0 68.757-25.863 68.757-70.608v-5.818zM2042.023 194.525c-20.098 0-32.263-9.626-37.023-29.671h73.57c-2.592 19.463-15.338 29.671-36.547 29.671z" />
<glyph unicode="&#xe914;" horiz-adv-x="3532" d="M2136.432 301.469h30.835v-220.022h-30.835z" />
<glyph unicode="&#xe915;" horiz-adv-x="3532" d="M2225.921 144.227c1.481-25.281 15.867-40.090 38.081-40.090 19.781 0 32.263 7.828 42.312 26.445l25.863-14.545c-15.126-27.027-37.023-40.090-67.435-40.090-42.999 0-70.608 28.455-70.608 72.353 0 41.836 28.772 72.353 70.608 72.353 43.317 0 68.757-25.863 68.757-70.608v-5.818zM2265.166 194.525c-20.045 0-32.263-9.626-37.023-29.671h73.517c-2.486 19.463-15.285 29.671-36.494 29.671z" />
<glyph unicode="&#xe916;" horiz-adv-x="3532" d="M2421.825 193.626c-25.017 0-41.571-17.401-41.571-44.48 0-28.19 16.29-45.009 42.999-45.009 0.421-0.015 0.916-0.023 1.413-0.023 13.846 0 26.159 6.56 34.002 16.742l0.074 0.1v-35.436c-10.769-6.036-23.632-9.591-37.326-9.591-0.581 0-1.161 0.006-1.74 0.019l0.086-0.002c-42.312 0-71.454 29.618-71.454 72.353s30.2 72.353 74.68 72.353c0.612 0.019 1.332 0.029 2.054 0.029 12.338 0 23.946-3.125 34.076-8.626l-0.376 0.187v-34.59c-8.998 9.834-21.888 15.978-36.214 15.978-0.247 0-0.494-0.002-0.74-0.005h0.037z" />
<glyph unicode="&#xe917;" horiz-adv-x="3532" d="M2490.106 188.972h-23.536v27.027h23.536v50.88h30.782v-50.88h23.536v-27.027h-23.536v-107.525h-30.782z" />
<glyph unicode="&#xe918;" horiz-adv-x="3532" d="M2580.495 293.324c0.112 0.002 0.243 0.004 0.375 0.004 10.37 0 18.776-8.406 18.776-18.776 0-0.15-0.002-0.3-0.005-0.449v0.022c0.003-0.126 0.005-0.275 0.005-0.423 0-10.516-8.525-19.040-19.040-19.040-0.039 0-0.078 0-0.116 0h0.006c-10.724 0.089-19.398 8.744-19.516 19.452v0.011c0.149 10.635 8.805 19.199 19.462 19.199 0.019 0 0.038 0 0.058 0h-0.003zM2565.157 215.999h30.835v-134.552h-30.835z" />
<glyph unicode="&#xe919;" horiz-adv-x="3532" d="M2644.492 199.762c13.53 12.93 31.907 20.888 52.143 20.888 20.397 0 38.905-8.085 52.494-21.225l-0.021 0.020c13.457-12.819 21.829-30.87 21.843-50.877v-0.003c0.004-0.281 0.006-0.612 0.006-0.943 0-19.741-8.256-37.554-21.504-50.174l-0.028-0.027c-13.583-13.28-32.188-21.473-52.707-21.473-0.064 0-0.129 0-0.193 0h0.010c-0.034 0-0.074 0-0.114 0-20.216 0-38.546 8.072-51.943 21.17l0.014-0.014c-13.442 12.984-21.788 31.169-21.788 51.303s8.346 38.319 21.767 51.283l0.021 0.020zM2696.8 193.045c-22.954 0-41.519-19.463-41.519-44.745s18.564-44.745 41.519-44.745 41.571 19.463 41.571 44.745-18.723 44.798-41.677 44.798z" />
<glyph unicode="&#xe91a;" horiz-adv-x="3532" d="M2796.074 215.999h29.089v-22.055c12.482 18.882 28.455 26.709 51.991 26.709 20.098 0 34.325-6.4 42.312-18.882 6.717-10.155 6.717-22.372 6.717-38.662v-81.662h-31.099v69.339c0 29.936-3.808 43.899-29.354 43.899-0.711 0.048-1.541 0.075-2.377 0.075-12.33 0-23.275-5.935-30.133-15.103l-0.070-0.098c-5.289-8.145-6.082-19.781-6.082-36.6v-61.352h-30.835z" />
<glyph unicode="&#xe91b;" horiz-adv-x="3532" d="M406.088 468.442h-268.945l149.943 179.508c35.542 42.841 53.895 76.532 53.895 105.78 0 39.297-24.7 63.997-66.271 63.997-36.494 0-62.304-24.7-65.16-62.304h-62.886c0 71.877 51.673 118.473 133.653 118.473 77.484 0 125.243-42.682 125.243-111.069 0-62.886-39.879-112.867-101.072-183.052l-51.092-59.131h152.693z" />
<glyph unicode="&#xe91c;" horiz-adv-x="3532" d="M817.148 519.533c-39.176-38.208-92.786-61.775-151.9-61.775s-112.723 23.567-151.945 61.819l0.045-0.044c-38.472 37.021-62.37 88.951-62.37 146.462 0 0.815 0.005 1.629 0.014 2.441l-0.001-0.124c-0.006 0.589-0.010 1.285-0.010 1.982 0 57.798 23.882 110.018 62.316 147.33l0.050 0.049c39.311 37.905 92.878 61.256 151.9 61.256s112.588-23.352 151.966-61.32l-0.067 0.064c38.804-37.62 62.888-90.23 62.888-148.466 0-0.315-0.001-0.629-0.002-0.943v0.048c0.004-0.48 0.006-1.047 0.006-1.614 0-57.829-24.106-110.027-62.818-147.095l-0.074-0.070zM768.859 774.886c-25.961 27.012-62.396 43.794-102.749 43.794-0.21 0-0.42 0-0.63-0.001h0.032c-0.061 0-0.134 0-0.207 0-40.642 0-77.367-16.767-103.637-43.76l-0.032-0.033c-26.405-27.060-42.693-64.097-42.693-104.938 0-0.631 0.004-1.261 0.012-1.89l-0.001 0.096c-0.007-0.524-0.010-1.144-0.010-1.764 0-40.65 16.297-77.493 42.713-104.354l-0.020 0.021c26.277-27.031 62.986-43.803 103.611-43.803s77.334 16.772 103.578 43.769l0.033 0.034c26.727 27.463 43.21 65.014 43.21 106.414s-16.482 78.951-43.243 106.449l0.033-0.034z" />
<glyph unicode="&#xe91d;" horiz-adv-x="3532" d="M406.088 25.384h-268.945l149.943 179.825c35.33 42.682 53.895 76.373 53.895 105.78 0 39.297-24.7 64.050-66.271 64.050-36.494 0-62.304-24.752-65.16-62.357h-62.886c0 71.877 51.673 118.473 133.653 118.473 77.484 0 125.243-42.682 125.243-111.069 0-62.886-39.879-112.867-101.072-183.052l-51.092-58.972h152.693z" />
<glyph unicode="&#xe91e;" horiz-adv-x="3532" d="M817.148 76.475c-39.176-38.208-92.786-61.775-151.9-61.775s-112.723 23.567-151.945 61.819l0.045-0.044c-38.473 37.038-62.37 88.981-62.37 146.506 0 0.799 0.005 1.597 0.014 2.395l-0.001-0.122c-0.006 0.578-0.009 1.262-0.009 1.946 0 57.826 23.88 110.074 62.317 147.42l0.049 0.047c39.327 37.869 92.889 61.195 151.9 61.195s112.572-23.326 151.969-61.261l-0.069 0.066c38.805-37.653 62.888-90.292 62.888-148.555 0-0.302-0.001-0.603-0.002-0.905v0.047c0.004-0.466 0.006-1.017 0.006-1.569 0-57.843-24.105-110.055-62.819-147.14l-0.073-0.070zM768.859 331.986c-25.961 27.012-62.396 43.794-102.749 43.794-0.21 0-0.42 0-0.63-0.001h0.032c-0.061 0-0.134 0-0.207 0-40.642 0-77.367-16.767-103.637-43.76l-0.032-0.033c-26.415-27.601-42.675-65.109-42.675-106.414s16.26-78.813 42.729-106.471l-0.054 0.057c26.277-27.031 62.986-43.803 103.611-43.803s77.334 16.772 103.578 43.769l0.033 0.034c26.727 27.463 43.21 65.014 43.21 106.414s-16.482 78.951-43.243 106.449l0.033-0.034z" />
<glyph unicode="&#xe91f;" horiz-adv-x="3532" d="M1410.413 811.908c199.769 0 361.714-161.945 361.714-361.714s-161.945-361.714-361.714-361.714c-199.769 0-361.714 161.945-361.714 361.714v0c0.241 199.672 162.042 361.473 361.69 361.714h0.023zM1410.413 875.376c-234.821 0-425.181-190.36-425.181-425.181s190.36-425.181 425.181-425.181c234.821 0 425.181 190.36 425.181 425.181v0c0 234.821-190.36 425.181-425.181 425.181v0z" />
<glyph unicode="&#xe920;" horiz-adv-x="3532" d="M2050.433 632.4h-33.744v179.032h-55.217v28.772h143.86v-28.772h-54.9z" />
<glyph unicode="&#xe921;" horiz-adv-x="3532" d="M2187.576 632.4v17.454c-9.344-13.932-25.032-22.979-42.832-22.979-0.561 0-1.12 0.009-1.676 0.027l0.081-0.002c-37.499 0-61.352 27.027-61.352 72.935 0 43.264 25.017 71.771 60.453 71.771 22.108 0 38.081-9.573 45.327-26.762v22.108h30.835v-134.552zM2151.558 744.262c-23.272 0-37.499-16.819-37.499-45.327s13.646-44.745 37.023-44.745c21.156 0 37.499 17.454 37.499 45.908s-14.069 44.163-37.023 44.163z" />
<glyph unicode="&#xe922;" horiz-adv-x="3532" d="M2270.402 844.277c0.111 0.002 0.242 0.004 0.374 0.004 10.399 0 18.829-8.43 18.829-18.829 0-0.131-0.001-0.263-0.004-0.394v0.020c0.003-0.126 0.005-0.275 0.005-0.424 0-10.516-8.525-19.040-19.040-19.040-0.057 0-0.115 0-0.172 0.001h0.009c-10.702 0.118-19.345 8.762-19.463 19.452v0.011c0.12 10.629 8.764 19.199 19.409 19.199 0.019 0 0.038 0 0.057 0h-0.003zM2255.011 766.952h30.782v-134.552h-30.782z" />
<glyph unicode="&#xe923;" horiz-adv-x="3532" d="M2420.080 694.281c-3.262 7.109-6.622 15.983-9.445 25.092l-0.446 1.67c-4.39-12.799-7.563-21.526-9.309-25.599l-31.734-71.19-69.762 142.803h32.845l30.2-64.79c3.105-7.933 5.463-17.172 6.659-26.772l0.058-0.572c0.638 9.036 3.147 17.357 7.141 24.759l-0.16-0.324 32.792 72.618h2.644l33.426-72.618c3.62-7.115 5.932-15.454 6.393-24.283l0.006-0.152c1.547 10.105 4.28 19.198 8.097 27.699l-0.27-0.672 29.618 65.107h32.58l-70.026-142.803z" />
<glyph unicode="&#xe924;" horiz-adv-x="3532" d="M2628.995 632.4v17.454c-9.344-13.932-25.032-22.979-42.832-22.979-0.561 0-1.12 0.009-1.676 0.027l0.081-0.002c-37.499 0-61.352 27.027-61.352 72.935 0 43.264 25.017 71.771 60.453 71.771 22.108 0 38.081-9.573 45.327-26.762v22.108h30.835v-134.552zM2592.977 744.262c-23.272 0-37.499-16.819-37.499-45.327s13.646-44.745 37.023-44.745c21.156 0 37.499 17.454 37.499 45.908s-14.069 44.163-37.023 44.163z" />
<glyph unicode="&#xe925;" horiz-adv-x="3532" d="M2694.948 766.952h28.878v-22.108c12.482 18.935 28.455 26.762 51.991 26.762 20.045 0 34.325-6.4 42.312-18.882 6.664-10.208 6.664-22.372 6.664-38.662v-81.662h-31.099v69.18c0 29.936-3.755 43.846-29.301 43.846-0.722 0.049-1.565 0.078-2.415 0.078-12.308 0-23.236-5.913-30.096-15.054l-0.070-0.097c-5.289-8.145-6.082-19.781-6.082-36.653v-61.299h-30.835z" />
<glyph unicode="&#xe926;" glyph-name="logo-1" horiz-adv-x="3873" d="M2184.366 513.238h36.536v-26.195c8.586 20.367 27.887 31.71 54.020 31.71 42.050 0 71.317-33.778 71.317-85.041 0-54.396-28.263-86.42-72.695-86.42-0.563-0.019-1.225-0.029-1.89-0.029-21.092 0-39.68 10.72-50.613 27.008l-0.138 0.219v-95.757h-36.536zM2264.644 379.629c27.511 0 43.366 18.8 43.366 53.017s-16.858 53.707-44.432 53.707-43.868-18.8-43.868-52.328 19.114-54.396 44.933-54.396zM2452.273 518.753c10.935-0.043 21.238-2.702 30.331-7.382l-0.375 0.176-13.098-31.334c-5.8 3.949-12.961 6.306-20.672 6.306-0.598 0-1.193-0.014-1.784-0.042l0.084 0.003c-25.819 0-34.092-20.305-34.092-63.358v-69.311h-36.473v159.741h36.536v-25.819c7.834 21.057 20.242 31.021 39.544 31.021zM2520.456 428.197c1.692-29.955 18.8-47.503 45.121-47.503 23.375 0 38.228 9.275 50.135 31.334l30.645-17.234c-17.86-32.024-43.868-47.503-79.839-47.503-51.012 0-83.725 33.716-83.725 85.73 0 49.571 34.092 85.73 83.725 85.73 51.263 0 81.469-30.645 81.469-83.662v-6.894zM2566.956 487.732c-23.814 0-38.228-11.343-43.868-35.094h87.109c-3.196 23.062-18.111 35.094-43.241 35.094zM2689.159 399.244c4.512-15.792 16.544-24.441 35.846-24.441 16.482 0 26.133 8.272 26.133 20.994 0 16.544-15.855 17.923-37.601 27.198-30.331 12.534-45.811 25.067-45.811 48.255 0 27.511 23.062 47.816 60.976 47.816 25.067 0 42.99-9.588 50.949-26.133l-25.819-17.923c-4.225 9.829-13.824 16.586-25.001 16.586-0.53 0-1.057-0.015-1.58-0.045l0.072 0.003c-14.163 0-23.125-7.27-23.125-18.236 0-15.542 17.234-17.923 42.050-27.887 27.887-11.030 40.985-24.127 40.985-47.189 0-31.334-23.438-50.949-65.112-50.949-30.958 0-51.325 11.343-62.982 35.408zM2835.176 604.859c0.076 0.001 0.166 0.001 0.256 0.001 12.287 0 22.247-9.96 22.247-22.247 0-0.177-0.002-0.353-0.006-0.529v0.026c0.006-0.187 0.009-0.406 0.009-0.627 0-12.441-10.070-22.53-22.504-22.561h-0.003c-12.694 0.106-22.956 10.368-23.062 23.052v0.010c0.071 12.648 10.341 22.874 22.999 22.874 0.022 0 0.044 0 0.066 0h-0.003zM2816.94 513.238h36.473v-159.428h-36.473zM3046.933 614.447v-260.637h-36.536v20.681c-11.044-16.507-29.613-27.23-50.686-27.23-0.688 0-1.373 0.011-2.055 0.034l0.099-0.003c-44.432 0-72.695 32.024-72.695 86.42 0 51.263 29.642 85.041 71.63 85.041 26.195 0 45.121-11.343 53.707-31.71v127.405zM2967.72 486.353c-27.511 0-44.432-19.929-44.432-53.707s16.231-53.017 43.868-53.017c25.506 0 44.432 20.681 44.432 54.396s-16.67 52.328-43.868 52.328zM3114.614 428.197c1.755-29.955 18.8-47.503 45.121-47.503 23.438 0 38.228 9.275 50.135 31.334l30.645-17.234c-17.923-32.024-43.868-47.503-79.902-47.503-50.949 0-83.662 33.716-83.662 85.73 0 49.571 34.092 85.73 83.662 85.73 51.325 0 81.469-30.645 81.469-83.662v-6.894zM3161.114 487.732c-23.751 0-38.228-11.343-43.868-35.094h87.109c-2.82 23.062-17.986 35.094-43.116 35.094zM3271.285 513.238h34.468v-26.195c14.79 22.435 33.716 31.71 61.603 31.71 23.751 0 40.609-7.583 50.135-22.373 7.896-12.095 7.896-26.509 7.896-45.811v-96.76h-36.912v81.97c0 35.47-4.449 51.952-34.781 51.952-0.847 0.057-1.835 0.090-2.831 0.090-14.574 0-27.511-7.007-35.627-17.835l-0.083-0.115c-6.267-9.651-7.207-23.438-7.207-43.429v-72.633h-36.661zM3473.892 481.214h-27.887v32.024h27.887v60.287h36.473v-60.287h27.887v-32.024h-27.887v-127.405h-36.473zM3580.992 604.859c0.058 0.001 0.126 0.001 0.194 0.001 12.287 0 22.247-9.96 22.247-22.247 0-0.177-0.002-0.353-0.006-0.528v0.026c0.006-0.187 0.009-0.407 0.009-0.627 0-12.419-10.034-22.494-22.438-22.56h-0.006c-12.707 0.105-22.984 10.36-23.124 23.049v0.013c0.106 12.656 10.39 22.874 23.061 22.874 0.022 0 0.045 0 0.067 0h-0.003zM3562.693 513.238h36.536v-159.428h-36.536zM3756.212 353.81v20.681c-11.072-16.508-29.66-27.227-50.751-27.227-0.665 0-1.327 0.011-1.986 0.032l0.096-0.002c-44.432 0-72.695 32.024-72.695 86.42 0 51.263 29.642 85.041 71.63 85.041 26.195 0 45.121-11.343 53.707-31.71v26.195h36.536v-159.428zM3713.535 486.353c-27.574 0-44.432-19.929-44.432-53.707s16.168-53.017 43.868-53.017c25.067 0 44.432 20.681 44.432 54.396s-16.67 52.328-43.868 52.328zM3836.115 614.447h36.786v-260.637h-36.473zM2210.562 89.475c1.692-29.955 18.8-47.503 45.121-47.503 23.375 0 38.228 9.338 50.135 31.334l30.645-17.234c-17.86-32.024-43.868-47.503-79.839-47.503-50.949 0-83.662 33.778-83.662 85.73 0 49.633 34.029 85.73 83.662 85.73 51.263 0 81.469-30.582 81.469-83.662v-6.894zM2257.061 149.072c-23.751 0-38.228-11.343-43.868-35.094h86.733c-2.569 23.062-17.735 35.094-42.865 35.094zM2368.862 275.788h36.536v-260.637h-36.536zM2475.022 89.475c1.692-29.955 18.8-47.503 45.059-47.503 23.438 0 38.228 9.338 50.135 31.334l30.645-17.234c-17.923-32.024-43.868-47.503-79.902-47.503-50.949 0-83.662 33.778-83.662 85.73 0 49.633 34.092 85.73 83.662 85.73 51.325 0 81.469-30.582 81.469-83.662v-6.894zM2521.459 149.072c-23.751 0-38.228-11.343-43.868-35.094h87.109c-2.945 23.062-18.048 35.094-43.241 35.094zM2707.271 148.070c-29.642 0-49.257-20.681-49.257-52.704 0-33.402 19.302-53.393 50.949-53.393 0.531-0.020 1.154-0.031 1.78-0.031 16.426 0 31.029 7.802 40.307 19.901l0.089 0.121v-41.988c-12.787-7.189-28.067-11.424-44.337-11.424-0.65 0-1.299 0.007-1.946 0.020l0.097-0.002c-50.135 0-84.665 35.157-84.665 85.73s35.784 85.73 88.488 85.73c0.725 0.022 1.578 0.035 2.433 0.035 14.619 0 28.373-3.702 40.376-10.221l-0.446 0.222v-40.985c-10.634 11.689-25.906 18.997-42.885 18.997-0.345 0-0.69-0.003-1.034-0.009l0.052 0.001zM2787.987 142.555h-27.887v32.024h27.887v60.224h36.473v-60.224h27.95v-32.024h-27.95v-127.405h-36.473zM2895.275 266.137c0.132 0.003 0.287 0.004 0.443 0.004 12.287 0 22.247-9.96 22.247-22.247 0-0.156-0.002-0.311-0.005-0.466v0.023c0.002-0.112 0.003-0.244 0.003-0.376 0-12.46-10.101-22.561-22.561-22.561-0.045 0-0.090 0-0.135 0h0.007c-12.702 0.141-22.957 10.418-23.062 23.115v0.010c0.281 12.485 10.468 22.498 22.994 22.498 0.024 0 0.048 0 0.072 0h-0.004zM2877.039 174.578h36.473v-159.428h-36.473zM2970.853 155.276c16.032 15.32 37.806 24.75 61.783 24.75 24.168 0 46.098-9.58 62.2-25.15l-0.025 0.024c15.889-15.196 25.778-36.551 25.819-60.217v-0.008c0.005-0.332 0.008-0.725 0.008-1.118 0-23.391-9.783-44.498-25.48-59.451l-0.034-0.032c-16.074-15.772-38.119-25.506-62.439-25.506-0.081 0-0.162 0-0.242 0h0.013c-0.060 0-0.13 0-0.201 0-23.913 0-45.591 9.567-61.417 25.082l0.014-0.014c-15.96 15.232-25.884 36.67-25.884 60.426 0 0.193 0.001 0.387 0.002 0.58v-0.030c-0.001 0.174-0.002 0.38-0.002 0.587 0 23.647 9.929 44.974 25.846 60.040l0.038 0.036zM3032.832 147.38c-27.261 0-49.257-23.125-49.257-53.080s21.997-53.017 49.257-53.017 49.195 23.062 49.195 53.017-21.997 53.080-48.881 53.080zM3150.586 174.578h34.405v-26.195c14.79 22.373 33.778 31.334 61.666 31.334 23.751 0 40.609-7.52 50.135-22.373 7.959-12.032 7.959-26.509 7.959-45.748v-96.76h-36.849v82.221c0 35.47-4.512 52.015-34.781 52.015-0.86 0.059-1.865 0.093-2.877 0.093-14.593 0-27.543-7.035-35.643-17.899l-0.084-0.118c-6.267-9.651-7.207-23.375-7.207-43.366v-72.633h-36.473zM318.731 473.631h-318.731l177.665 213.072c41.925 50.573 63.859 90.493 63.859 125.337 0 46.625-29.266 75.891-78.523 75.891-43.241 0-73.823-29.266-77.145-73.886h-74.513c0 84.728 61.164 139.688 158.3 139.688 91.872 0 148.399-50.135 148.399-131.603 0-74.513-47.252-133.734-119.759-216.895l-60.412-69.75h180.861zM805.726 533.856c-46.42-45.272-109.94-73.196-179.983-73.196s-133.564 27.925-180.037 73.248l0.053-0.052c-45.551 43.871-73.844 105.387-73.844 173.511 0 1.108 0.007 2.214 0.022 3.319l-0.002-0.168c-0.007 0.708-0.012 1.545-0.012 2.383 0 68.461 28.272 130.319 73.777 174.536l0.058 0.056c46.598 44.87 110.063 72.509 179.983 72.509s133.385-27.639 180.065-72.587l-0.082 0.079c45.979-44.605 74.515-106.967 74.515-175.994 0-0.345-0.001-0.69-0.002-1.035v0.054c0.006-0.655 0.010-1.43 0.010-2.206 0-68.547-28.563-130.422-74.436-174.374l-0.087-0.082zM748.51 836.606c-30.776 32.192-74.060 52.203-122.019 52.203-0.153 0-0.306 0-0.459-0.001h0.024c-0.073 0-0.159 0-0.245 0-48.156 0-91.671-19.867-122.798-51.851l-0.037-0.039c-31.286-32.063-50.585-75.947-50.585-124.338 0-0.726 0.004-1.45 0.013-2.174l-0.001 0.11c-0.008-0.617-0.012-1.346-0.012-2.076 0-48.189 19.308-91.869 50.611-123.725l-0.025 0.026c31.136-32.029 74.631-51.901 122.767-51.901s91.632 19.873 122.728 51.861l0.039 0.040c31.669 32.54 51.199 77.034 51.199 126.089s-19.53 93.548-51.238 126.129l0.039-0.041zM318.731-51.341h-318.731l177.665 213.072c41.925 50.573 63.859 90.493 63.859 125.337 0 46.563-29.266 75.829-78.523 75.829-43.241 0-73.823-29.266-77.145-73.886h-74.513c0 85.166 61.164 140.44 158.3 140.44 91.872 0 148.399-50.573 148.399-131.603 0-74.513-47.252-133.734-119.759-216.895l-60.412-70.376h180.861zM805.726 9.197c-46.42-45.272-109.94-73.196-179.983-73.196s-133.564 27.925-180.037 73.248l0.053-0.052c-45.549 43.871-73.84 105.385-73.84 173.507 0 0.999 0.006 1.996 0.018 2.993l-0.001-0.151c-0.007 0.708-0.012 1.545-0.012 2.383 0 68.461 28.272 130.319 73.777 174.536l0.058 0.056c46.598 44.87 110.063 72.509 179.983 72.509s133.385-27.639 180.065-72.587l-0.082 0.079c45.979-44.605 74.515-106.967 74.515-175.994 0-0.345-0.001-0.69-0.002-1.035v0.054c0.005-0.563 0.007-1.229 0.007-1.895 0-68.546-28.562-130.42-74.434-174.372l-0.086-0.082zM748.51 311.947c-30.752 32.006-73.913 51.891-121.72 51.891-0.258 0-0.516-0.001-0.774-0.002h0.040c-0.073 0-0.159 0-0.245 0-48.156 0-91.671-19.867-122.798-51.851l-0.037-0.039c-31.298-32.704-50.565-77.147-50.565-126.089s19.266-93.384 50.629-126.156l-0.064 0.067c31.136-32.029 74.631-51.901 122.767-51.901s91.632 19.873 122.728 51.861l0.039 0.040c31.669 32.54 51.199 77.034 51.199 126.089s-19.53 93.548-51.238 126.129l0.039-0.041zM1508.677 880.913c236.703 0 428.588-191.886 428.588-428.588s-191.886-428.588-428.588-428.588c-236.703 0-428.588 191.886-428.588 428.588 0 0.022 0 0.044 0 0.066v-0.004c0.25 236.603 191.986 428.339 428.565 428.588h0.024zM1508.677 956.177c-278.236 0-503.79-225.555-503.79-503.79s225.555-503.79 503.79-503.79c278.236 0 503.79 225.555 503.79 503.79v0c-0.036 278.209-225.577 503.728-503.79 503.728v0zM2267.026 667.903h-39.92v212.132h-65.426v34.092h170.458v-34.092h-65.112zM2429.525 667.903v20.681c-11.085-16.508-29.683-27.226-50.784-27.226-0.653 0-1.304 0.010-1.952 0.031l0.095-0.002c-44.432 0-72.695 32.024-72.695 86.42 0 51.325 29.642 85.041 71.63 85.041 26.195 0 45.121-11.343 53.707-31.647v26.133h36.536v-159.428zM2386.847 800.509c-27.511 0-44.432-19.991-44.432-53.707s16.231-53.080 43.868-53.080c25.067 0 44.432 20.681 44.432 54.459s-16.67 52.328-43.868 52.328zM2527.663 918.952c0.188 0.006 0.409 0.009 0.631 0.009 12.321 0 22.31-9.988 22.31-22.31 0-0.157-0.002-0.314-0.005-0.471v0.023c0.004-0.149 0.006-0.326 0.006-0.502 0-12.46-10.101-22.561-22.561-22.561-0.068 0-0.136 0-0.204 0.001h0.010c-12.68 0.14-22.922 10.382-23.062 23.049v0.013c0.141 12.551 10.313 22.679 22.867 22.749h0.007zM2509.427 827.331h36.473v-159.428h-36.473zM2705.014 741.288c-3.872 8.343-7.851 18.729-11.195 29.395l-0.524 1.939c-5.139-15.166-8.962-25.506-11.030-30.269l-37.601-84.414-82.659 169.204h38.729l35.784-76.769c3.704-9.318 6.539-20.172 8.010-31.455l0.074-0.694c0.73 10.603 3.636 20.379 8.274 29.093l-0.19-0.391 38.917 86.106h3.133l39.544-86.106c4.281-8.412 7.019-18.27 7.575-28.707l0.008-0.183c1.832 11.95 5.070 22.703 9.593 32.752l-0.319-0.791 35.157 77.145h38.541l-82.973-169.204zM2952.554 667.903v20.681c-11.085-16.508-29.683-27.226-50.784-27.226-0.653 0-1.304 0.010-1.952 0.031l0.095-0.002c-44.432 0-72.695 32.024-72.695 86.42 0 51.325 29.642 85.041 71.63 85.041 26.195 0 45.121-11.343 53.707-31.647v26.133h36.724v-159.428zM2909.877 800.509c-27.511 0-44.432-19.991-44.432-53.707s16.231-53.080 43.868-53.080c25.067 0 44.432 20.681 44.432 54.459s-16.67 52.328-43.868 52.328zM3030.764 827.331h34.405v-26.133c14.79 22.373 33.716 31.647 61.666 31.647 23.751 0 40.609-7.583 50.135-22.373 7.959-12.032 7.959-26.509 7.959-45.811v-96.76h-37.1v81.97c0 35.47-4.512 52.015-34.781 52.015-0.842 0.057-1.826 0.089-2.817 0.089-14.61 0-27.578-7.032-35.704-17.896l-0.083-0.117c-6.267-9.651-7.207-23.438-7.207-43.366v-72.695h-36.473z" />
<glyph unicode="&#xea3a;" glyph-name="arrow-up2" d="M877.254 557.254l-320 320c-24.992 24.994-65.514 24.994-90.508 0l-320-320c-24.994-24.994-24.994-65.516 0-90.51 24.994-24.996 65.516-24.996 90.51 0l210.744 210.746v-613.49c0-35.346 28.654-64 64-64s64 28.654 64 64v613.49l210.746-210.746c12.496-12.496 28.876-18.744 45.254-18.744s32.758 6.248 45.254 18.746c24.994 24.994 24.994 65.514 0 90.508z" />
<glyph unicode="&#xea3c;" glyph-name="arrow-right2" d="M621.254 82.746l320 320c24.994 24.992 24.994 65.516 0 90.51l-320 320c-24.994 24.992-65.516 24.992-90.51 0-24.994-24.994-24.994-65.516 0-90.51l210.746-210.746h-613.49c-35.346 0-64-28.654-64-64s28.654-64 64-64h613.49l-210.746-210.746c-12.496-12.496-18.744-28.876-18.744-45.254s6.248-32.758 18.744-45.254c24.994-24.994 65.516-24.994 90.51 0z" />
<glyph unicode="&#xea91;" glyph-name="facebook2" d="M928 960h-832c-52.8 0-96-43.2-96-96v-832c0-52.8 43.2-96 96-96h416v448h-128v128h128v64c0 105.8 86.2 192 192 192h128v-128h-128c-35.2 0-64-28.8-64-64v-64h192l-32-128h-160v-448h288c52.8 0 96 43.2 96 96v832c0 52.8-43.2 96-96 96z" />
<glyph unicode="&#xea96;" glyph-name="twitter" d="M1024 733.6c-37.6-16.8-78.2-28-120.6-33 43.4 26 76.6 67.2 92.4 116.2-40.6-24-85.6-41.6-133.4-51-38.4 40.8-93 66.2-153.4 66.2-116 0-210-94-210-210 0-16.4 1.8-32.4 5.4-47.8-174.6 8.8-329.4 92.4-433 219.6-18-31-28.4-67.2-28.4-105.6 0-72.8 37-137.2 93.4-174.8-34.4 1-66.8 10.6-95.2 26.2 0-0.8 0-1.8 0-2.6 0-101.8 72.4-186.8 168.6-206-17.6-4.8-36.2-7.4-55.4-7.4-13.6 0-26.6 1.4-39.6 3.8 26.8-83.4 104.4-144.2 196.2-146-72-56.4-162.4-90-261-90-17 0-33.6 1-50.2 3 93.2-59.8 203.6-94.4 322.2-94.4 386.4 0 597.8 320.2 597.8 597.8 0 9.2-0.2 18.2-0.6 27.2 41 29.4 76.6 66.4 104.8 108.6z" />
</font>
</defs>
</svg>
