<svg xmlns="http://www.w3.org/2000/svg" viewBox="0 0 547 117"><defs><style>.cls-1{fill:#d70c18;}.cls-2{fill:#fff;}</style></defs><g id="圖層_5" data-name="圖層 5"><rect class="cls-1" y="0.24" width="317.33" height="116.71"/><path class="cls-2" d="M76.94,18c1.69,4.91-5.15,6.51-8.31,7.8-1.09.45-2.18.91-3.25,1.41-.74.34-1.41.81-2.16,1.11a13.43,13.43,0,0,1-2.25.55c-1.69.37-3.36.79-5,1.24-3.35.91-6.66,1.93-10,2.88-1.9.55-3.8,1.07-5.72,1.55a7.93,7.93,0,0,1-5.85-1.08c-1.64-1-1.74-2.5-2.49-4.08a1.82,1.82,0,0,1,.41-2.28c.2-.17,1-.12,1.3-.16l1.32-.2,2.58-.43c.87-.13,1.73-.23,2.6-.29s1.76.17,2.59-.39A20,20,0,0,1,45.42,24a22.9,22.9,0,0,1,6-1.64q1.08-.16,2.16-.3a7.2,7.2,0,0,0,1.14-.09c.44-.13.55-.36.91-.63.73-.56,1.73-.57,2.46-1.13,2.07-1.66,4.82-2.28,6.48-4.35a7.12,7.12,0,0,1,4.22-1.47,8.45,8.45,0,0,1,4.67.6c1.34.74,3,1.44,3.51,3"/><path class="cls-2" d="M133.43,43.41a9,9,0,0,0,.4-2.42c0-.85-.5-1.59-.56-2.42s.33-1.41-.46-1.77c-1.65-1.17-3.17.69-4.82,1a19,19,0,0,0-3.5,2.83c-.8.67-1.79,1-2.64,1.62s-1.45,1.34-2.25,1.93c-1.7,1.27-3.69,2.09-5.46,3.27-1.49,1-4.86.6-6.51.29-3-.58-5.6-2.06-8.38-3.18a22.1,22.1,0,0,1-3.59-1.58c-1.28-.82-2-2.26-3.26-3.11s-2.29-1.44-2-3c1-1.1,2.48-1.31,3.86-1.65,4.75-.9,9.92-.21,14.54-1.8,2.61-.68,5.37-1.3,7.92-2.2.67-.24,1.38-.57,2.1-.81a16,16,0,0,0,2-1.19c1.58-.8,3.25-.33,4.85-.77,2.25-.61,4.47-1.3,6.69-2,1.29-.42,2.54-1,3.87-1.26a9,9,0,0,0,3.08-.82c2.27-1.46,5.14-.82,7.54-1.89a41.67,41.67,0,0,1,6.47-2.34,9.13,9.13,0,0,1,3.45-.26c2,.26,4,.74,5.9,1.15a15.37,15.37,0,0,1,4.79,1.45,4.64,4.64,0,0,1,1.85,2,5.64,5.64,0,0,1-.72,3.05c-.24.48-.51.95-.77,1.42-.82,1.5-2.17,1.85-3.73,2.27a9.84,9.84,0,0,1-4.79.21,6.14,6.14,0,0,1-2.39-1.17c-2.74-1.75-6.08-1.25-9.06-.49-.41.11-.81.23-1.21.36a3.57,3.57,0,0,0-1.2.51,7.67,7.67,0,0,1-1.08.7c-1,.53-1.86,1-1.85,2.21,0,1.45-.25,3.13.34,4.5,1.31,2.76-.41,5.51.83,8.27.55,3.72,1.65,8.95,1.51,13.22a124.58,124.58,0,0,0,1.45,19c.22,1.32.64,2.61,1,3.91.19.81.24,1.65.43,2.47a16,16,0,0,1,.75,4.85,59,59,0,0,1-.63,6.22c-.32,2.27-1,4.5-3.29,5.5-2.22,2.43-6.15,2-9,1a7.94,7.94,0,0,1-3.33-3.22,7.8,7.8,0,0,1-.49-2.21c-.45-1.9-1.22-3.69-.58-5.66,1.37-15.85,2.75-30.86,1.92-46.64"/><path class="cls-2" d="M56.41,36.69a18.61,18.61,0,0,1,2.82,5.1,2.12,2.12,0,0,0,2.52.39,7.72,7.72,0,0,0,2.33-1c.67-.54,1.23-1.26,1.87-1.83a13.43,13.43,0,0,1,4.67-3A8.17,8.17,0,0,1,73.91,36c1.79.69,4.06.62,5,2.48a4.1,4.1,0,0,1,.2,3.79c-1.58,3.24-5.51,4.41-8.26,6.48-2.21,1.17-5.17,2-6.27,4.48-.07,3.92,3.1,7.09,5.58,9.37,3.79,3.92,7.3,9.91,12.4,12.26,1.5.69,2.76,2.1,4,3.14a16.85,16.85,0,0,0,2.18,1.55c.86.5,1.8.69,2.65,1.26s1.91.83,2.58,1.62c.27.32.73.39,1.08.57.75.4,1.25,1.19,2.11,1.37a5.5,5.5,0,0,1,1.35.2,9.69,9.69,0,0,1,1.27.85,29.85,29.85,0,0,0,6,3.24c.84.3,1.74.35,2.57.66a9.68,9.68,0,0,1,2,1.42c1.18.82,2.76,1.56,3.32,3a3.47,3.47,0,0,1-.71,3c-.85,1-2.4,1.31-3.65,1.5s-2.57.78-3.84.93c-.7.08-1.42.07-2.12.12-1.51.11-3,.27-4.53.42a78.12,78.12,0,0,1-9.17.58c-1.68,0-3.64.22-5.16-.65a59.15,59.15,0,0,1-5.83-4.42c-2.5-1.9-4.19-4.53-6-7.1s-3.64-5.42-5.52-8.09c-1.52-2.16-3-4.65-5.09-6.33-.73-.6-1.21-1.44-1.93-2a17.56,17.56,0,0,1-1.72-1.73c-1.12-1.25-2.29-2.37-4-2.52a9.74,9.74,0,0,0-1.36,3.22c-.18.78-.14,1.58-.27,2.36s-.36,1.27-.48,1.92a12.89,12.89,0,0,1-1,4.21,8.23,8.23,0,0,0-.88,2.27,18.8,18.8,0,0,1-1,2.59c-.19.46-.5.86-.7,1.31-.38.83-.58,1.71-1,2.54a28.89,28.89,0,0,1-1.59,2.67,35.92,35.92,0,0,1-3.93,4.85c-.82.84-1.66,1.65-2.54,2.42a14.56,14.56,0,0,1-2.08,1.76,12.5,12.5,0,0,1-2.61.94c-1.89.6-3.61,1.45-5.63,1.55a6.55,6.55,0,0,1-3.42-.86,16.92,16.92,0,0,0-1.73-.39,7.09,7.09,0,0,1-1.69-.92,7.6,7.6,0,0,1-1.6-1.5,2.51,2.51,0,0,1-.5-1.07c-.12-.83,0-1.12-.49-1.82-.69-.91-.32-1.52-.52-2.5a13.23,13.23,0,0,1-.36-1.41c-.07-.79.6-1.41,1-2a3.87,3.87,0,0,1,1.72-1.63A6.79,6.79,0,0,1,25,87.86a4.54,4.54,0,0,1,1.52.59c.76.47,1.09,1.17,2,.61.71-.41,1.13-1.18,1.75-1.71s.65-1.07,1.11-1.52a15.63,15.63,0,0,0,1.44-1.61,13.47,13.47,0,0,0,2-3.92c2.48-2.62,2.76-6.34,1.79-9.92-2.54-.21-5.23,1.1-7.92.21-1.79-1.31-4.41-2-5.3-4A8.62,8.62,0,0,1,21,61.77c.76-2.07,3.66-1.45,5.31-1.79,1.52-.62,3.31-.76,4.82-1.52.86-.43,1.87-.56,2.74-1s1.66-1,2.48-1.57a19.3,19.3,0,0,1,2.53-1.46c1-.43,2-.57,2.93-1.07A14.69,14.69,0,0,0,44,51.72a5.55,5.55,0,0,0,2.32-4.83,13.73,13.73,0,0,1-.39-2,10.61,10.61,0,0,1,.28-2.1c.14-.69.31-1.38.39-2.08.12-1.06-.15-1.77.49-2.71a5.14,5.14,0,0,1,2.33-1.89A7.16,7.16,0,0,1,51.94,36c.64,0,1.45-.44,2.08-.26.37.1.64.44,1.06.55a3.08,3.08,0,0,1,1.33.4"/><path class="cls-2" d="M199.19,71.05l-.23,0a2.31,2.31,0,0,0-1-1.33,3.6,3.6,0,0,0-1.92-.48,3.28,3.28,0,0,0-2.71,1.22,5.39,5.39,0,0,0-1,3.42,5.76,5.76,0,0,0,1,3.62,3.46,3.46,0,0,0,2.87,1.25,4.54,4.54,0,0,0,1.63-.32,5,5,0,0,0,1.49-.88l.2,0L199.14,79a7.18,7.18,0,0,1-1.61.57,8.4,8.4,0,0,1-1.76.18,6.08,6.08,0,0,1-4.4-1.52A5.6,5.6,0,0,1,189.8,74a5.31,5.31,0,0,1,1.69-4.12A6.42,6.42,0,0,1,196,68.3a8.15,8.15,0,0,1,1.78.19,10.06,10.06,0,0,1,1.8.61c-.09.29-.18.6-.25.92S199.23,70.69,199.19,71.05Z"/><path class="cls-2" d="M200.31,75.67a4.05,4.05,0,0,1,1.07-3,4.69,4.69,0,0,1,6,0,4.07,4.07,0,0,1-3,7,4,4,0,0,1-3-1.06A4,4,0,0,1,200.31,75.67Zm2.37,0a6.1,6.1,0,0,0,.38,2.58,1.47,1.47,0,0,0,2.56,0,6.06,6.06,0,0,0,.39-2.58,6.15,6.15,0,0,0-.39-2.59,1.33,1.33,0,0,0-1.29-.76,1.31,1.31,0,0,0-1.27.75A6.21,6.21,0,0,0,202.68,75.67Z"/><path class="cls-2" d="M209.8,79.52c0-.86,0-1.61.07-2.26s0-1.18,0-1.6,0-1,0-1.58,0-1.39-.07-2.26l.53.05h1.19l.52-.05v1.06a3.31,3.31,0,0,1,1.07-.94,2.86,2.86,0,0,1,1.3-.29,2.46,2.46,0,0,1,1.38.38,2.19,2.19,0,0,1,.85,1.11,3.31,3.31,0,0,1,1.1-1.13,2.9,2.9,0,0,1,1.46-.36,2.69,2.69,0,0,1,1.05.19,2,2,0,0,1,.8.58,2.3,2.3,0,0,1,.47,1,12.84,12.84,0,0,1,.13,2.19v1c0,.45,0,.91,0,1.4s0,1,.06,1.53l-.65-.06-.57,0-.56,0-.61.06c0-.7.08-1.35.1-2s0-1.16,0-1.68a6.36,6.36,0,0,0-.28-2.35,1,1,0,0,0-1-.56,1.07,1.07,0,0,0-1,.56,4.51,4.51,0,0,0-.3,2v2.55c0,.24,0,.68,0,1.3a1.1,1.1,0,0,1,0,.16l-.63-.06-.57,0-.56,0-.64.06c0-.61.08-1.19.1-1.75s0-1.09,0-1.6a7.36,7.36,0,0,0-.28-2.65,1,1,0,0,0-1-.54,1.07,1.07,0,0,0-1,.55,4.56,4.56,0,0,0-.3,2v2.55c0,.25,0,.69.06,1.31v.15l-.59-.06-.57,0-.54,0Z"/><path class="cls-2" d="M223.76,79.52c0-.86.06-1.61.07-2.26s0-1.18,0-1.6,0-1,0-1.58,0-1.39-.07-2.26l.54.05h1.19l.51-.05v1.06a3.31,3.31,0,0,1,1.07-.94,2.86,2.86,0,0,1,1.3-.29,2.51,2.51,0,0,1,1.39.38,2.25,2.25,0,0,1,.85,1.11,3.23,3.23,0,0,1,1.1-1.13,2.85,2.85,0,0,1,1.46-.36,2.73,2.73,0,0,1,1.05.19,2.09,2.09,0,0,1,.8.58,2.18,2.18,0,0,1,.46,1,11.85,11.85,0,0,1,.13,2.19v1c0,.45,0,.91,0,1.4s0,1,.06,1.53l-.65-.06-.57,0-.56,0-.61.06c0-.7.08-1.35.11-2s0-1.16,0-1.68a6.15,6.15,0,0,0-.28-2.35,1,1,0,0,0-1-.56,1.09,1.09,0,0,0-1,.56,4.51,4.51,0,0,0-.3,2v2.55c0,.24,0,.68.06,1.3,0,.07,0,.13,0,.16l-.64-.06-.57,0-.56,0-.63.06c0-.61.07-1.19.09-1.75s0-1.09,0-1.6a7.7,7.7,0,0,0-.27-2.65,1,1,0,0,0-1-.54,1.07,1.07,0,0,0-1,.55,4.76,4.76,0,0,0-.29,2v2.55c0,.25,0,.69.05,1.31a.36.36,0,0,1,0,.15l-.58-.06-.57,0-.55,0Z"/><path class="cls-2" d="M237.19,75.67a3.71,3.71,0,0,1,4.05-4.06,4,4,0,0,1,3,1.06,4.1,4.1,0,0,1,1,3,4,4,0,1,1-8.07,0Zm2.37,0a6.26,6.26,0,0,0,.38,2.58,1.33,1.33,0,0,0,1.28.75,1.34,1.34,0,0,0,1.29-.75,6.26,6.26,0,0,0,.38-2.58,6.35,6.35,0,0,0-.38-2.59,1.35,1.35,0,0,0-1.29-.76,1.33,1.33,0,0,0-1.28.75A6.37,6.37,0,0,0,239.56,75.67Z"/><path class="cls-2" d="M246.68,79.52c0-.71.08-1.39.1-2s0-1.24,0-1.82,0-1.3,0-2-.05-1.28-.1-1.91l.53.05h1.16l.5-.05v1.11A3.24,3.24,0,0,1,250,72a3,3,0,0,1,1.38-.31,2.65,2.65,0,0,1,1.07.2,2.22,2.22,0,0,1,.83.58,1.9,1.9,0,0,1,.38.78,7.17,7.17,0,0,1,.11,1.57v.83c0,.45,0,.85,0,1.19,0,.5,0,1,0,1.42s0,.88.08,1.3l-.63-.06-.57,0-.57,0-.62.06c0-.46.06-1,.09-1.64s0-1.34,0-2.11a5.56,5.56,0,0,0-.28-2.26,1,1,0,0,0-1-.51,1.1,1.1,0,0,0-1,.61,4.75,4.75,0,0,0-.31,2c0,.45,0,1,0,1.64s0,1.39.06,2.23a5.9,5.9,0,0,0-.59-.06l-.56,0-.56,0Z"/><path class="cls-2" d="M258.21,79.52q-.69-2.65-1.53-5.4c-.56-1.83-1.16-3.7-1.82-5.6l.64,0h1.44l.64,0c.31,1.35.65,2.69,1,4s.74,2.68,1.15,4q.76-2.19,1.44-4.17c.45-1.32.89-2.6,1.3-3.86l.38,0h.86l.39,0c.38,1.27.78,2.57,1.21,3.89s.89,2.66,1.37,4c.46-1.29.88-2.59,1.27-3.91s.75-2.65,1.09-4l.34,0h.79l.34,0c-.58,1.63-1.16,3.36-1.77,5.18s-1.23,3.77-1.88,5.82l-.43-.06-.41,0-.38,0-.45.06q-.56-1.86-1.2-3.81c-.43-1.29-.9-2.62-1.39-4-.49,1.22-1,2.49-1.41,3.79s-.91,2.63-1.35,4l-.43-.06-.39,0-.39,0Z"/><path class="cls-2" d="M273.21,75.69a3.43,3.43,0,0,0,.67,2.21,2.2,2.2,0,0,0,1.79.82,3.21,3.21,0,0,0,1.07-.19,3.61,3.61,0,0,0,1-.58l.15.12-.35.91a3.89,3.89,0,0,1-1.18.55,5.83,5.83,0,0,1-1.48.18,3.88,3.88,0,0,1-2.94-1.1,4.26,4.26,0,0,1-1.07-3.07,4,4,0,0,1,1.06-2.85,3.78,3.78,0,0,1,2.81-1.08,3.31,3.31,0,0,1,2.54.92,3.65,3.65,0,0,1,.89,2.64v.31c0,.08,0,.14,0,.2Zm0-.8h2.73a1.79,1.79,0,0,1,0-.21,1.39,1.39,0,0,0,0-.17,3.41,3.41,0,0,0-.32-1.65,1,1,0,0,0-.94-.56,1.22,1.22,0,0,0-1.1.64,3.48,3.48,0,0,0-.39,1.81Z"/><path class="cls-2" d="M283.49,78.5a2.38,2.38,0,0,1-.91.9,2.52,2.52,0,0,1-1.27.31,2.12,2.12,0,0,1-1.59-.6,2.28,2.28,0,0,1-.58-1.64,1.92,1.92,0,0,1,.41-1.25,2.76,2.76,0,0,1,1.28-.79l.82-.26a6.71,6.71,0,0,0,1.72-.69s0-.07,0-.11V74.2A1.6,1.6,0,0,0,283,73a1.45,1.45,0,0,0-1.11-.43,1.69,1.69,0,0,0-1,.3,3,3,0,0,0-.82.94l-.2-.61c-.05-.15-.11-.29-.16-.42a5.66,5.66,0,0,1,1.42-.93,3.62,3.62,0,0,1,1.45-.3,3.31,3.31,0,0,1,2.22.67,2.38,2.38,0,0,1,.78,1.91v.08l-.05,2.81v.3a2.32,2.32,0,0,0,.22,1.27,1,1,0,0,0,.84.27h.05v.41a4.92,4.92,0,0,1-.85.26,4.14,4.14,0,0,1-.84.09,1.38,1.38,0,0,1-1.45-1.16Zm-.07-3.22a3.31,3.31,0,0,0-1.61.69,1.69,1.69,0,0,0-.5,1.29,1.75,1.75,0,0,0,.26,1,.85.85,0,0,0,.74.35,1,1,0,0,0,.82-.39,1.79,1.79,0,0,0,.29-1.11Z"/><path class="cls-2" d="M287.72,79.52c0-.91.07-1.85.1-2.84s0-2,0-3.17,0-2.29,0-3.27-.06-1.92-.1-2.8l.66.09.54,0,.55,0a6,6,0,0,0,.65-.08c0,.91-.07,1.85-.1,2.84s0,2,0,3.17,0,2.29,0,3.27.06,1.92.1,2.8a3.4,3.4,0,0,0-.57-.08,6.13,6.13,0,0,0-.62,0c-.21,0-.42,0-.62,0A3.81,3.81,0,0,0,287.72,79.52Z"/><path class="cls-2" d="M292.33,72.72h-1.09c0-.06,0-.11,0-.16v-.25a1.94,1.94,0,0,0,0-.27c0-.06,0-.11,0-.16l.09,0,.82,0h.18c0-.07,0-.15,0-.23s0-.21,0-.39,0-.43,0-.67,0-.52-.05-.88l1.1-.44c.36-.16.72-.32,1.06-.49l.17.13c0,.62-.06,1.13-.07,1.54s0,.72,0,.94V72h.82l.74,0a1.85,1.85,0,0,0,0,.26v.16c0,.08,0,.21,0,.37a.08.08,0,0,1,0,0h-1.6v.37q-.06,1.66-.06,2.37v.65a8.31,8.31,0,0,0,.18,2.29.7.7,0,0,0,.7.44,4.88,4.88,0,0,0,.93-.17h0v.6a5.22,5.22,0,0,1-1,.34,3.35,3.35,0,0,1-.87.11,2.12,2.12,0,0,1-1.57-.54,2.19,2.19,0,0,1-.54-1.59s0-.49,0-1.38,0-1.77,0-2.63Z"/><path class="cls-2" d="M297.27,79.52c0-.57.08-1.27.1-2.11s0-2,0-3.62,0-3,0-3.93-.06-1.74-.1-2.42l.62.1.55,0a5.44,5.44,0,0,0,.57,0l.61-.1c-.05.44-.09.91-.12,1.42s-.05,1-.05,1.62V73a3,3,0,0,1,1.07-1,3,3,0,0,1,1.42-.33,2.6,2.6,0,0,1,1.06.2,2.11,2.11,0,0,1,.82.58,1.93,1.93,0,0,1,.4.81,7,7,0,0,1,.12,1.54c0,.11,0,.39,0,.83s0,.85,0,1.19q0,.89,0,1.53c0,.42,0,.82.07,1.19l-.63-.06-.56,0-.56,0-.63.06c0-.46.07-1,.09-1.64s0-1.34,0-2.11a5.56,5.56,0,0,0-.28-2.26,1,1,0,0,0-1-.51,1.09,1.09,0,0,0-1.05.61,4.72,4.72,0,0,0-.32,2q0,.75,0,1.74c0,.65,0,1.36.07,2.13l-.6-.06-.57,0-.56,0Z"/><path class="cls-2" d="M190.11,97.48c.13-.83.25-1.54.34-2.13s.16-1,.19-1.27l1-7.6.33,0,.36,0,.38,0,.34,0c.57,1.28,1.17,2.55,1.79,3.8s1.27,2.49,1.93,3.72c.63-1.19,1.25-2.41,1.87-3.66s1.21-2.54,1.8-3.86l.35,0,.39,0,.39,0,.35,0,.92,7.69c.1.86.19,1.53.26,2s.16.92.25,1.3l-.73-.06-.64,0-.64,0-.69.06s0-.09,0-.17c0-1.12-.09-1.82-.12-2.09L200,90.09c-.61,1.15-1.21,2.34-1.81,3.56s-1.22,2.5-1.85,3.83l-.12,0h-.41l-.12,0q-.94-2-1.83-3.75c-.6-1.19-1.19-2.32-1.76-3.38l-.39,3.34,0,.12c-.19,1.74-.29,3-.29,3.67l-.35-.06-.31,0-.31,0Z"/><path class="cls-2" d="M208.91,96.46a2.53,2.53,0,0,1-.91.9,2.57,2.57,0,0,1-1.27.31,2.09,2.09,0,0,1-1.59-.6,2.25,2.25,0,0,1-.58-1.64,1.89,1.89,0,0,1,.41-1.26,2.7,2.7,0,0,1,1.28-.78l.82-.26a7.05,7.05,0,0,0,1.72-.69s0-.07,0-.11v-.17a1.63,1.63,0,0,0-.41-1.16,1.47,1.47,0,0,0-1.11-.43,1.75,1.75,0,0,0-1,.3,3.1,3.1,0,0,0-.82.94c-.08-.25-.14-.46-.2-.61l-.15-.42a5.44,5.44,0,0,1,1.41-.93,3.67,3.67,0,0,1,1.46-.3,3.29,3.29,0,0,1,2.22.67,2.41,2.41,0,0,1,.77,1.91v.08l0,2.81v.3a2.35,2.35,0,0,0,.22,1.26,1,1,0,0,0,.85.28h0v.4a4,4,0,0,1-.85.27,4.14,4.14,0,0,1-.84.09,1.46,1.46,0,0,1-.95-.3A1.44,1.44,0,0,1,208.91,96.46Zm-.07-3.22a3.31,3.31,0,0,0-1.62.69,1.68,1.68,0,0,0-.49,1.29,1.75,1.75,0,0,0,.25,1,.87.87,0,0,0,.75.34,1,1,0,0,0,.82-.38,1.86,1.86,0,0,0,.29-1.11Z"/><path class="cls-2" d="M214.25,97.85v-.13a1.56,1.56,0,0,1-.76-.48,1.2,1.2,0,0,1-.27-.79,1.49,1.49,0,0,1,.42-1,3.29,3.29,0,0,1,1.19-.79v-.2a2.82,2.82,0,0,1-1.55-.78,2.17,2.17,0,0,1-.52-1.51,2.27,2.27,0,0,1,.9-1.88,3.75,3.75,0,0,1,2.42-.71l1.07.06c.62.05,1.19.07,1.72.07h.69l.76,0v.79L219,90.38h-.25a1.75,1.75,0,0,1,.63.67,2.13,2.13,0,0,1,.21,1,2.27,2.27,0,0,1-1,2,4.44,4.44,0,0,1-2.67.71h-.27a.82.82,0,0,0-.52.24.75.75,0,0,0-.19.53c0,.49.76.76,2.29.82h.28a5.18,5.18,0,0,1,1.89.31,1.85,1.85,0,0,1,.75.77,2.38,2.38,0,0,1,.25,1.13,2.92,2.92,0,0,1-1.22,2.43,5,5,0,0,1-3.19,1,4.79,4.79,0,0,1-2.51-.55,1.7,1.7,0,0,1-.91-1.52,1.79,1.79,0,0,1,.41-1.19A2.71,2.71,0,0,1,214.25,97.85Zm.7.09a1.55,1.55,0,0,0-.61.58,1.64,1.64,0,0,0-.22.86,1.68,1.68,0,0,0,.55,1.32,2.16,2.16,0,0,0,1.49.5,2.9,2.9,0,0,0,1.72-.45,1.45,1.45,0,0,0,.62-1.24,1.34,1.34,0,0,0-.41-1.07,2.11,2.11,0,0,0-1.28-.4Zm0-5.83a2.86,2.86,0,0,0,.29,1.46,1,1,0,0,0,.91.46,1,1,0,0,0,.93-.48,3.56,3.56,0,0,0,.28-1.62,2.32,2.32,0,0,0-.29-1.29,1,1,0,0,0-.87-.43,1,1,0,0,0-.92.5A2.52,2.52,0,0,0,215,92.11Z"/><path class="cls-2" d="M225.3,96.46a2.38,2.38,0,0,1-.91.9,2.54,2.54,0,0,1-1.27.31,2.1,2.1,0,0,1-1.59-.6,2.25,2.25,0,0,1-.58-1.64,2,2,0,0,1,.41-1.26,2.7,2.7,0,0,1,1.28-.78l.82-.26a6.88,6.88,0,0,0,1.72-.69.37.37,0,0,0,0-.11.76.76,0,0,0,0-.17,1.59,1.59,0,0,0-.42-1.16,1.47,1.47,0,0,0-1.11-.43,1.75,1.75,0,0,0-1,.3,3.24,3.24,0,0,0-.82.94c-.08-.25-.14-.46-.19-.61l-.16-.42a5.8,5.8,0,0,1,1.41-.93,3.7,3.7,0,0,1,1.46-.3,3.27,3.27,0,0,1,2.22.67,2.38,2.38,0,0,1,.78,1.91v.08l0,2.81v.3a2.38,2.38,0,0,0,.21,1.26,1,1,0,0,0,.85.28h.05v.4a4.41,4.41,0,0,1-.85.27,4.3,4.3,0,0,1-.84.09,1.49,1.49,0,0,1-1-.3A1.44,1.44,0,0,1,225.3,96.46Zm-.07-3.22a3.27,3.27,0,0,0-1.61.69,1.69,1.69,0,0,0-.5,1.29,1.83,1.83,0,0,0,.25,1,.87.87,0,0,0,.75.34.94.94,0,0,0,.82-.38,1.86,1.86,0,0,0,.29-1.11Z"/><path class="cls-2" d="M228.63,97.48v-.26q.9-1.36,2.81-4.29l1.5-2.29-.78,0h-.54c-.43,0-1.12,0-2.06,0h-.18a.88.88,0,0,1,0-.17c0-.06,0-.15,0-.27s0-.21,0-.28a1.11,1.11,0,0,1,0-.17l1.51,0h3.36l1.46,0V90c-.38.56-.9,1.36-1.58,2.4l-2.71,4.19.87,0h.54c.49,0,1,0,1.43,0l1.37-.08c0,.1,0,.19,0,.26a1.48,1.48,0,0,0,0,.2,1.28,1.28,0,0,0,0,.19c0,.08,0,.19,0,.33q-.7,0-1.53-.06l-1.89,0-1.94,0C229.69,97.43,229.15,97.45,228.63,97.48Z"/><path class="cls-2" d="M237.05,86.88a1.2,1.2,0,0,1,1.23-1.22,1.16,1.16,0,0,1,.85.36,1.19,1.19,0,0,1,.35.86,1.18,1.18,0,0,1-.35.86,1.22,1.22,0,0,1-.87.35,1.18,1.18,0,0,1-.86-.35A1.14,1.14,0,0,1,237.05,86.88Zm0,10.6c0-.83.07-1.54.09-2.14s0-1.18,0-1.71,0-1.23,0-1.86-.05-1.29-.09-2l.58,0h1.24l.57,0c0,.7-.07,1.36-.09,2s0,1.25,0,1.86,0,1.1,0,1.71,0,1.32.09,2.14l-.61-.06-.58,0-.59,0Z"/><path class="cls-2" d="M241.47,97.48c.05-.71.08-1.39.1-2s0-1.24,0-1.82,0-1.3,0-2,0-1.28-.1-1.91l.53,0h1.16l.5,0v1.11a3.24,3.24,0,0,1,1.11-1,3,3,0,0,1,1.38-.31,2.65,2.65,0,0,1,1.07.2,2.22,2.22,0,0,1,.83.58,1.9,1.9,0,0,1,.38.78,7.88,7.88,0,0,1,.11,1.57v.83c0,.45,0,.85,0,1.19,0,.5,0,1,0,1.42s0,.88.08,1.3l-.63-.06-.57,0-.57,0-.62.06c0-.46.06-1,.09-1.64s0-1.34,0-2.11a5.56,5.56,0,0,0-.28-2.26,1,1,0,0,0-1-.51,1.11,1.11,0,0,0-1.05.6,4.83,4.83,0,0,0-.31,2c0,.45,0,1,0,1.64s0,1.39.06,2.23a5.9,5.9,0,0,0-.59-.06l-.56,0-.56,0Z"/><path class="cls-2" d="M252.47,93.65a3.42,3.42,0,0,0,.66,2.21,2.2,2.2,0,0,0,1.79.82,3.21,3.21,0,0,0,1.07-.19,3.61,3.61,0,0,0,1-.58l.16.12-.36.91a3.78,3.78,0,0,1-1.18.55,5.77,5.77,0,0,1-1.48.18,3.91,3.91,0,0,1-2.94-1.1,4.26,4.26,0,0,1-1.06-3.07,3.9,3.9,0,0,1,1.06-2.85,3.74,3.74,0,0,1,2.8-1.08,3.35,3.35,0,0,1,2.55.92,3.65,3.65,0,0,1,.88,2.64v.31c0,.08,0,.14,0,.2Zm0-.8h2.72s0-.13,0-.21a1.49,1.49,0,0,0,0-.17,3.41,3.41,0,0,0-.32-1.65,1,1,0,0,0-.94-.56,1.19,1.19,0,0,0-1.09.64,3.48,3.48,0,0,0-.39,1.81Z"/><path class="cls-2" d="M223.42,52.88v1.73h-12.7v2.88H207.4l0-19.81c-.52.84-1.05,1.67-1.62,2.42l-1.06-.79c.45-1,.87-1.85,1.21-2.8l-1.78,1.63a24.5,24.5,0,0,0-2.07-3.59,26.15,26.15,0,0,1-2.46,4.08h.64v3.55h6.28v1.7h-6.28v1.36a31.32,31.32,0,0,1,6,4.12l-2.23,2.5a54.14,54.14,0,0,0-3.78-4.8V57.71H197v-9.9A30,30,0,0,1,190,55.14l-.79-1.09a32.8,32.8,0,0,0,7.07-10.17H190v-1.7h7V38.63h1A26.78,26.78,0,0,0,200.78,29l3.06.76a18.52,18.52,0,0,1-1,3.29,16,16,0,0,1,3.41,2.83c1.32-3.85,1.77-7.93,2.34-13.45l3.44.68a37.92,37.92,0,0,1-1.36,7.22h12.28V32h-5.29V37H222v1.7h-4.34v5.9H222v1.7h-4.38v6.54Zm-32.8-12.55-1-.87a33.16,33.16,0,0,0,3.78-10.66l3.06.72a18,18,0,0,1-1.1,3.21A18.71,18.71,0,0,1,199,35.87l-2.16,2a42.16,42.16,0,0,0-2.11-3.74A26.9,26.9,0,0,1,190.62,40.33Zm15.87-11.79H190.2v-1.7h8.43a41.56,41.56,0,0,0-4.16-3.78l.53-1.17a22.48,22.48,0,0,1,6.27,2.83l-1.51,2.12h6.73Zm7.9,3.44h-3.67V37h3.67Zm0,6.76h-3.67v5.9h3.67Zm0,7.6h-3.67v6.54h3.67Zm1-16.59a54.74,54.74,0,0,0-2-7l1.2-.6a24.37,24.37,0,0,1,3.86,6.39Z"/><path class="cls-2" d="M244.25,30.5H231.66V28.8h5.79c-1.25-2.15-2.65-4.5-3.52-5.74l.95-.95a27.58,27.58,0,0,1,5.82,5.18l-2,1.51h5.52Zm-11.49,5.14V34.06h10.62v1.58Zm10.62,5.22H232.76V39.27h10.62Zm3.7,3.51,1.33.27c-.23,4-1.1,7.33-2.84,9.63L243,52.38V57h-2.87V54.73h-4.35v2.76h-2.95v-13H243V52A14.06,14.06,0,0,0,247.08,44.37Zm-7,1.82h-4.31v6.87h4.31Zm12.7-15.69H245V28.8h7.79V22.45h3.4V28.8h7.94v1.7h-7.94V37h7.44v1.7H245.84V37h7Zm6.73,17.58c1.73,6.19,2,8.61-3.86,8.61-5.52,0-6.27-.41-6.27-4.49V42.37h3.32v9.22c0,1.51.34,2,2.72,2,2.72,0,2.76-.49,2.72-5.51Zm-7.41-9.22A26.17,26.17,0,0,1,258.87,43l-2.22,2.53A69.34,69.34,0,0,0,251.47,40ZM265.53,51l-3,1.47a58.32,58.32,0,0,0-3.17-8.2l1.05-.72A26.93,26.93,0,0,1,265.53,51Z"/><path class="cls-2" d="M178.15,57A8,8,0,0,0,176,55.29l-.33-.16h0a7.17,7.17,0,0,0-1.59-.85c-.87-.22-1.81-.11-2.69-.3-1.24-.27-2.47-.57-3.73-.77a10.74,10.74,0,0,0-4.72.16,4.46,4.46,0,0,0-2,1,3.1,3.1,0,0,0-.53,1.56,8,8,0,0,0-.2,1.62A11.62,11.62,0,0,0,162,63.32a17.89,17.89,0,0,0,1.86,2.61A12.25,12.25,0,0,0,166,68.21,5.38,5.38,0,0,1,167.9,70c.35.58.4.75,1.07,1a12.83,12.83,0,0,0,3.54.5,19.44,19.44,0,0,0,4.7-.14c1.16-.2,1.37-1,2.31-1.56s1.32-.6,1.73-1.57C183.07,63.86,180.82,60.16,178.15,57Z"/><path class="cls-1" d="M488.46.05A58.45,58.45,0,1,0,546.9,58.5,58.51,58.51,0,0,0,488.46.05ZM532.25,58.5a43.79,43.79,0,1,1-43.79-43.79A43.83,43.83,0,0,1,532.25,58.5Z"/><polygon class="cls-1" points="407.79 0.05 342.28 97.53 404.53 97.53 404.53 116.94 419.19 116.94 419.19 82.87 369.79 82.87 425.45 0.05 407.79 0.05"/></g></svg>