<svg width="150" height="58" viewBox="0 0 150 58" fill="none" xmlns="http://www.w3.org/2000/svg">
<g clip-path="url(#clip0_347_207)">
<path d="M29.8705 4.06196C29.773 4.77819 29.5691 5.29643 29.2649 5.60214C28.9723 5.89474 28.6404 6.03741 28.2488 6.03741C28.0566 6.03741 27.4583 5.92968 25.6168 5.20327C23.0489 4.19735 20.5726 3.68638 18.2551 3.68638C15.1092 3.68638 12.0973 4.47976 9.30226 6.04614C6.50286 7.61252 4.24937 9.84709 2.60292 12.6873C0.95793 15.523 0.125244 18.5685 0.125244 21.7347C0.125244 24.7394 0.877864 27.6116 2.36272 30.2741C3.85341 32.9469 6.00063 35.0228 8.7418 36.4479C11.4699 37.8673 14.6303 38.585 18.1357 38.585C20.807 38.585 23.1799 38.141 25.1903 37.2646C27.1992 36.3897 29.1513 34.9631 30.9958 33.0269L31.1151 32.9017V28.7485L30.3523 29.6394C28.5196 31.7808 26.761 33.305 25.1233 34.1711C23.5031 35.03 21.6892 35.4638 19.7341 35.4638C17.3642 35.4638 15.4164 34.8772 13.9432 33.7199C12.4641 32.5582 11.3578 30.804 10.6561 28.5097C9.94133 26.1704 9.5774 23.5355 9.5774 20.6807C9.5774 17.826 10.0724 15.1329 11.0462 12.7819C11.7901 10.9811 12.9809 9.50208 14.5895 8.38844C16.1938 7.2777 17.98 6.71287 19.9001 6.71287C22.2016 6.71287 24.2921 7.47132 26.1118 8.96637C27.9358 10.4658 29.2023 12.664 29.8763 15.4998L29.9549 15.8331H31.6611V3.68638H29.9185L29.8676 4.06196H29.8705Z" fill="#25B6D8"/>
<path d="M73.4875 6.1743L73.9097 6.18594C75.3407 6.22234 75.9419 6.48291 76.1923 6.69545C76.5388 6.98806 76.7076 7.38548 76.7076 7.91246C76.7076 8.32152 76.648 8.78154 76.5286 9.27503C76.4078 9.77872 76.0686 10.7541 75.5198 12.1763L70.6517 25.0539L65.168 10.7119C64.2246 8.22107 64.1227 7.62276 64.1227 7.48156C64.1227 7.23699 64.1897 7.02591 64.3265 6.8352C64.4648 6.6445 64.6526 6.51203 64.9001 6.4276C65.3325 6.28348 66.0822 6.20196 67.1303 6.18594L67.5568 6.18012V4.43031H51.021V6.18449H51.4548C52.3821 6.18449 53.0794 6.30531 53.5307 6.5426C53.9762 6.77697 54.3809 7.18167 54.7361 7.74505C55.1175 8.35209 55.675 9.59966 56.3913 11.4514L57.665 14.7457L53.0576 25.936L47.1109 11.134C46.169 8.75824 45.9725 7.8091 45.9725 7.4306C45.9725 7.09433 46.1006 6.83084 46.3772 6.59937C46.5431 6.46108 47.0221 6.22234 48.3657 6.18449L48.7864 6.17284V4.43031H33.8956V6.14664L34.2887 6.18449C35.1767 6.26746 35.8041 6.5426 36.1564 6.9997C36.433 7.36218 37.0415 8.47874 38.3633 11.7454L49.0004 38.3128L49.1082 38.585H50.5712L59.0888 18.34L66.8246 38.585H68.3531L78.5914 11.4557C79.7108 8.63159 80.018 7.89353 80.0733 7.78144C80.3572 7.253 80.6804 6.8585 81.037 6.61102C81.3849 6.36937 81.826 6.22525 82.3487 6.18303L82.7475 6.151V4.43031H73.4861V6.1743H73.4875Z" fill="#25B6D8"/>
<path d="M113.045 25.8618C112.311 28.3715 111.531 30.2873 110.721 31.5581C109.931 32.8013 108.986 33.7199 107.914 34.2891C106.839 34.8598 105.463 35.1494 103.825 35.1494H101.131C99.2047 35.1494 98.5875 35.0301 98.407 34.9646C97.9572 34.7841 97.6689 34.5264 97.5234 34.1799C97.4084 33.9033 97.2715 33.1565 97.2715 31.1665V10.4324C97.2715 8.38412 97.4113 7.77125 97.4972 7.582C97.698 7.12344 97.9557 6.81482 98.2964 6.62849C98.7986 6.33443 99.4872 6.18449 100.343 6.18449H102.183V4.43031H84.0737V6.18449H85.5804C86.4044 6.18449 87.0566 6.32133 87.5195 6.59355C87.9678 6.85558 88.2634 7.15256 88.4002 7.4801C88.4861 7.68245 88.6288 8.33462 88.6288 10.4324V31.8391C88.6288 33.8873 88.489 34.5002 88.3987 34.6996C88.2139 35.1524 87.9649 35.4581 87.6272 35.6415C87.125 35.9356 86.4364 36.0855 85.5819 36.0855H84.0752V37.8397H113.614L114.922 25.5488H113.138L113.047 25.8603L113.045 25.8618Z" fill="#FF622B"/>
<path d="M131.289 8.38703C132.894 7.2763 134.68 6.71147 136.6 6.71147C138.903 6.71147 140.992 7.46991 142.812 8.96496C144.636 10.4644 145.902 12.6626 146.576 15.4984L146.655 15.8317H148.361V3.68643H146.618L146.567 4.06201C146.47 4.77824 146.266 5.29649 145.962 5.60219C145.669 5.8948 145.337 6.03746 144.946 6.03746C144.754 6.03746 144.155 5.92973 142.314 5.20332C139.747 4.19594 137.271 3.68497 134.953 3.68497C131.808 3.68497 128.796 4.47836 126.001 6.04474C123.201 7.61112 120.948 9.84569 119.301 12.6858C117.656 15.5231 116.822 18.5685 116.822 21.7348C116.822 24.7394 117.575 27.6116 119.06 30.2742C120.55 32.9469 122.698 35.0228 125.439 36.448C128.167 37.8673 131.327 38.585 134.833 38.585C137.504 38.585 139.877 38.141 141.887 37.2647C143.896 36.3898 145.848 34.9631 147.693 33.027L147.812 32.9018V28.7485L147.049 29.6395C145.216 31.7809 143.458 33.305 141.82 34.1712C140.2 35.0301 138.386 35.4639 136.431 35.4639C134.061 35.4639 132.113 34.8772 130.64 33.7199C129.161 32.5582 128.055 30.8041 127.353 28.5098C126.638 26.1704 126.274 23.5355 126.274 20.6808C126.274 17.8261 126.769 15.133 127.743 12.7819C128.487 10.9812 129.678 9.50213 131.286 8.38849L131.289 8.38703Z" fill="#25B6D8"/>
<path d="M14.7307 45.7502V46.8216H10.3256V48.8204C10.3256 49.1465 10.2965 49.4478 10.2674 49.736H15.7992V50.8599H10.643C11.1335 52.0623 11.8134 53.0289 12.6795 53.735C13.4729 54.5065 14.7016 55.1601 16.3626 55.709L15.2358 56.8852C13.8048 56.3102 12.6068 55.5255 11.6387 54.5065C10.9021 53.7495 10.2805 52.7829 9.76078 51.579C9.52931 52.154 9.22652 52.7028 8.86549 53.2124C7.91198 54.623 6.42421 55.8516 4.40363 56.9361L2.98865 56.3218C5.14024 55.2635 6.62801 54.1659 7.45051 53.0289C7.99932 52.3098 8.38946 51.5921 8.64859 50.8599H3.45157V49.736H8.92372C8.96739 49.4216 8.98195 49.1217 8.98195 48.8204V46.8216H4.46186V45.7502H14.7307Z" fill="#656464"/>
<path d="M42.2064 46.0122V47.1885H36.2277V49.0576C37.7882 49.8932 39.2891 50.8875 40.7332 52.0375L39.6647 52.8994C38.4943 51.9327 37.3544 51.0957 36.2277 50.4173V56.8866H34.8127V47.1899H29.4541V46.0137H42.2064V46.0122Z" fill="#656464"/>
<path d="M57.5238 54.1134C57.3506 54.8064 57.0027 55.6813 56.483 56.728L55.2994 56.2185C55.79 55.329 56.1379 54.5327 56.3243 53.8529C56.5703 52.8732 56.6999 51.9065 56.6999 50.9661V49.1756H63.4734V53.2007H57.7102C57.6519 53.5268 57.5952 53.8281 57.5224 54.1149L57.5238 54.1134ZM60.7294 45.3848C60.8604 45.4372 60.9317 45.5027 60.9317 45.5551C60.9317 45.6323 60.8604 45.6861 60.7148 45.6978C60.6857 45.7371 60.6566 45.7633 60.6435 45.7764C61.351 46.3776 62.0017 46.7954 62.5942 47.0429C63.0702 47.3049 63.7195 47.5393 64.5434 47.7489L63.7049 48.8204C63.0702 48.5729 62.5068 48.2977 62.0148 48.011V48.6122H58.0581V47.9717C57.5093 48.3371 56.9459 48.6762 56.368 48.9645L55.4581 48.0488C57.1613 47.369 58.5778 46.3631 59.69 45.0311L60.7294 45.3833V45.3848ZM57.8703 51.6183C57.8557 51.8541 57.8412 52.0754 57.8266 52.285H62.2885V51.6183H57.8688H57.8703ZM63.4167 53.7612V56.7789H62.2332V56.4266H59.0261V56.7789H57.8426V53.7612H63.4167V53.7612ZM57.8848 50.8075H62.2899V50.0883H57.8848V50.8075ZM61.5679 47.7504C61.5388 47.7504 61.5242 47.7373 61.5096 47.7111C60.9899 47.3704 60.4833 46.9395 59.9928 46.43C59.4876 46.9264 58.9534 47.3573 58.3754 47.7489H61.5679V47.7504ZM62.2317 55.4993V54.6885H59.0247V55.4993H62.2317ZM65.7561 47.0443C65.9584 47.0575 66.0749 47.1099 66.0749 47.1885C66.0749 47.254 65.9875 47.3588 65.8434 47.4884V54.0741H64.6584V46.9788L65.7561 47.0443V47.0443ZM68.3851 45.4896C68.5293 45.5158 68.6166 45.5682 68.6166 45.6468C68.6166 45.7516 68.5001 45.8565 68.2701 45.9598V55.3945C68.2701 55.8909 68.0969 56.2694 67.7795 56.5052C67.5059 56.7542 66.826 56.8837 65.7284 56.8837L65.2233 55.7599H66.3791C66.7838 55.7599 67.0007 55.5765 67.0298 55.198V45.3455L68.388 45.4882L68.3851 45.4896Z" fill="#656464"/>
<path d="M87.8732 48.2337C88.0042 48.2992 88.0756 48.3516 88.0756 48.404C88.0756 48.5088 87.9897 48.6005 87.8441 48.6661L86.9343 49.7899H88.9708V50.8089H86.2122V51.9327H88.6389V52.9518H86.515C87.0929 53.6709 87.7713 54.2707 88.5807 54.7423L87.7291 55.5517C87.1512 55.0815 86.646 54.5589 86.2122 53.9839V56.8852H85.0287V53.9708C84.8409 54.2852 84.6531 54.572 84.4799 54.8209C84.0752 55.396 83.6268 55.9317 83.1071 56.4281L81.8639 55.6565C82.5001 55.2387 83.0634 54.7933 83.5395 54.2969C83.8277 53.997 84.1887 53.5515 84.6225 52.9503H82.4273V51.9313H85.0272V50.8075H82.0371V49.7884H86.7741L85.9211 49.423L86.9459 47.7897L87.8703 48.2337H87.8732ZM86.0535 45.28C86.2704 45.2931 86.3869 45.3455 86.3869 45.4503C86.3869 45.5027 86.301 45.5944 86.1554 45.6978V46.6251H88.5807V47.6456H82.3705V46.6251H84.9122V45.1883L86.0521 45.28H86.0535ZM84.7972 49.3837L83.6705 49.5788C83.4827 49.0562 83.2512 48.5598 82.9921 48.1027L84.1188 47.8931C84.4377 48.4157 84.6531 48.9121 84.7972 49.3823V49.3837ZM93.852 46.5217C92.798 46.9919 91.744 47.3311 90.6741 47.5408V49.2789H94.6759V50.3504H93.4924V56.7789H92.3089V50.3504H90.6755V50.7026C90.6755 51.8134 90.6319 52.7014 90.5751 53.355C90.4892 54.1382 90.3014 54.8573 90.0263 55.5372C89.853 55.9681 89.5924 56.4383 89.2605 56.9361L88.192 56.2694C88.438 55.9171 88.6258 55.642 88.7408 55.4207C88.9869 54.9505 89.1601 54.4541 89.2605 53.9577C89.4047 53.2254 89.492 52.1409 89.492 50.7041V46.2612L90.3451 46.5232C90.7934 46.4315 91.1836 46.3267 91.5155 46.2233C92.0643 46.053 92.7136 45.7793 93.4938 45.3994L94.3891 46.235C94.4474 46.3005 94.4896 46.3529 94.5187 46.4053C94.475 46.4839 94.4328 46.5232 94.3891 46.5232L94.114 46.4708C94.0427 46.4708 93.9553 46.497 93.8534 46.5232L93.852 46.5217Z" fill="#656464"/>
<path d="M111.899 46.0384C111.423 46.1695 110.887 46.2859 110.311 46.4038V46.9788H112.216V47.8421H110.311V48.5088H112.216V49.3837H110.311V50.0374H118.716V49.3837H116.853V48.5088H118.716V47.8421H116.853V46.9788H118.716V46.3121H116.796V45.3455H119.959V50.0359H120.913V52.5966H119.67V51.0156H109.401V52.5966H108.159V50.0359H109.069V45.2916L109.66 45.5653C109.993 45.5129 110.311 45.4605 110.628 45.3819C111.003 45.2902 111.364 45.1606 111.711 44.9903L112.491 45.7211C112.579 45.7997 112.622 45.8783 112.622 45.9569C112.622 46.0355 112.579 46.0617 112.506 46.0617L112.188 45.9831C112.117 45.9831 112.015 46.0093 111.9 46.0355L111.899 46.0384ZM117.257 51.5659L117.908 51.9313C117.994 51.9837 118.038 52.0361 118.038 52.0885C118.038 52.1933 117.937 52.285 117.749 52.3884L115.583 53.8136H120.739V54.8326H115.208V55.4993C115.208 55.9957 115.02 56.3742 114.673 56.6101C114.385 56.8575 113.633 56.9885 112.449 56.9885L111.944 55.8647H113.244C113.692 55.8647 113.937 55.6813 113.966 55.3028V54.8326H108.275V53.8136H113.966V53.1992L114.774 53.291L115.727 52.4932H111.091V51.5659H116.679L116.955 51.4742C117.07 51.4742 117.171 51.5135 117.257 51.5659V51.5659ZM116.262 45.4765C116.348 45.5158 116.391 45.5551 116.391 45.5944C116.391 45.6992 116.32 45.7648 116.174 45.8041C115.901 46.0137 115.64 46.2088 115.394 46.366C115.711 46.5756 116.03 46.7707 116.348 46.9803L115.669 47.5422C115.294 47.2802 114.947 47.0458 114.615 46.8376C114.225 47.0458 113.791 47.2685 113.301 47.4898L112.679 46.9279C113.113 46.7445 113.488 46.5494 113.82 46.3529C113.445 46.1578 113.084 45.9744 112.737 45.8041L113.344 45.2945C113.749 45.478 114.168 45.6861 114.572 45.8958C114.89 45.6861 115.193 45.4256 115.496 45.1388L116.262 45.478V45.4765ZM116.32 47.9848C116.406 48.011 116.451 48.0503 116.451 48.1027C116.451 48.1944 116.378 48.2599 116.234 48.2977C115.959 48.5074 115.7 48.6908 115.468 48.8466C115.742 49.03 116.017 49.2251 116.292 49.4216L115.614 49.9835C115.295 49.7477 115.007 49.5264 114.719 49.3168C114.343 49.5264 113.88 49.7477 113.346 49.9835L112.739 49.4216C113.2 49.2265 113.619 49.0169 113.967 48.8073C113.563 48.5714 113.158 48.3487 112.784 48.1536L113.404 47.6441C113.838 47.8654 114.27 48.1012 114.689 48.3487C114.978 48.1391 115.267 47.9047 115.556 47.6441L116.321 47.9833L116.32 47.9848Z" fill="#656464"/>
<path d="M137.83 45.5944C137.903 45.5027 137.961 45.4503 138.003 45.4503L139.072 46.2073L137.613 49.3837C138.436 50.247 138.855 51.0433 138.855 51.7755C138.855 52.5587 138.638 53.1861 138.233 53.6432C137.814 54.1018 137.28 54.3231 136.645 54.3231L136.14 53.1992C136.747 53.0944 137.152 52.911 137.338 52.6504C137.511 52.4408 137.613 52.1147 137.613 51.6707C137.613 51.1219 137.194 50.3897 136.37 49.4754L137.526 46.6266H135.865V57.0293H134.623V45.5959H137.828L137.83 45.5944ZM147.203 51.1088V52.1278H144.778V55.3028C144.778 55.6172 144.922 55.7599 145.225 55.7599H145.673C145.876 55.7599 146.02 55.709 146.135 55.591C146.222 55.4993 146.323 55.1587 146.41 54.5851L147.652 54.885C147.521 55.6682 147.334 56.1661 147.074 56.4004C146.8 56.6479 146.454 56.7789 146.02 56.7789H144.951C143.998 56.7789 143.536 56.4659 143.536 55.8647V52.1278H142.453C142.395 53.4205 142.151 54.3755 141.688 55.0029C141.268 55.6565 140.344 56.2432 138.914 56.7789L138.063 55.9171C139.275 55.5241 140.07 55.0815 140.475 54.5837C140.909 54.1397 141.153 53.3157 141.212 52.1278H139.131V51.1088H147.205H147.203ZM143.679 45.229C143.911 45.2552 144.04 45.3062 144.04 45.3979C144.04 45.4634 143.94 45.5682 143.766 45.6978V46.5217H147.088V49.423H145.845V47.5408H140.372V49.423H139.128V46.5217H142.407V45.1373L143.678 45.229H143.679ZM145.224 48.9135V49.9326H140.992V48.9135H145.224Z" fill="#656464"/>
</g>
<defs>
<clipPath id="clip0_347_207">
<rect width="150" height="57.1429" fill="white"/>
</clipPath>
</defs>
</svg>
