<svg width="57" height="66" viewBox="0 0 57 66" fill="none" xmlns="http://www.w3.org/2000/svg">
<path d="M53.6454 36.991H12.9038C11.381 36.991 10.1465 38.2254 10.1465 39.7483V62.7429C10.1465 64.2657 11.381 65.5002 12.9038 65.5002H53.6454C55.1683 65.5002 56.4027 64.2657 56.4027 62.7429V39.7483C56.4027 38.2254 55.1683 36.991 53.6454 36.991Z" fill="#BB0505"/>
<path d="M40.5527 65.5002V36.991H26.6923V65.5002H40.5527Z" fill="#F49D31"/>
<path d="M47.9088 11.7783L4.70081 29.6246C3.29333 30.206 2.62361 31.8182 3.20495 33.2257L6.391 40.9395C6.97234 42.347 8.58459 43.0167 9.99207 42.4354L53.2001 24.5891C54.6076 24.0077 55.2773 22.3955 54.6959 20.988L51.5099 13.2742C50.9285 11.8667 49.3163 11.197 47.9088 11.7783Z" fill="#D60C18"/>
<path d="M38.3225 30.7341L33.0312 17.9233L20.2205 23.2146L25.5118 36.0253L38.3225 30.7341Z" fill="#F7B239"/>
<path d="M44.74 13.0866L45.1048 12.2084C46.5728 8.67452 44.8975 4.61838 41.3636 3.15044C37.8298 1.6825 33.7736 3.35782 32.3057 6.89166L26.6242 20.569L44.74 13.0866Z" fill="#F7B239"/>
<path d="M7.86449 28.3179L25.9803 20.8354L12.306 15.1527C8.77212 13.6848 4.71598 15.3601 3.24804 18.8939C1.7801 22.4278 3.45542 26.4839 6.98926 27.9518L7.86747 28.3166L7.86449 28.3179Z" fill="#F7B239"/>
</svg>
