<svg width="20" height="20" viewBox="0 0 20 20" fill="none" xmlns="http://www.w3.org/2000/svg">
<path fill-rule="evenodd" clip-rule="evenodd" d="M17.9876 10.1357C17.9871 9.59018 17.938 9.04578 17.8408 8.50861H10.1587V11.5877H14.5462C14.3585 12.5668 13.7694 13.4289 12.9151 13.9745V15.9636H15.5533C17.0946 14.5792 17.9998 12.5424 17.9998 10.1158L17.9876 10.1357Z" fill="#4285F4"/>
<path fill-rule="evenodd" clip-rule="evenodd" d="M10.1592 17.9129C12.1452 17.9658 14.0768 17.2755 15.5579 15.9835L12.9197 13.9944C11.6411 14.8012 10.0515 14.9847 8.61526 14.4911C7.17901 13.9976 6.05814 12.8828 5.58006 11.4723H2.87256V13.5369C4.25908 16.2214 7.078 17.9143 10.1592 17.9129Z" fill="#34A853"/>
<path fill-rule="evenodd" clip-rule="evenodd" d="M5.59618 11.4682C5.25381 10.4881 5.25381 9.42495 5.59618 8.44484V6.37622H2.87237C1.70921 8.62821 1.70921 11.2848 2.87237 13.5368L5.59618 11.4682Z" fill="#FBBC05"/>
<path fill-rule="evenodd" clip-rule="evenodd" d="M10.1592 5.18281C11.3196 5.16366 12.4408 5.59262 13.2785 6.37624L15.6149 4.09281C14.1428 2.7323 12.1869 1.98216 10.1592 2.00032C7.078 1.99891 4.25908 3.69179 2.87256 6.37624L5.59637 8.44486C6.2453 6.5171 8.07952 5.20578 10.1592 5.18281Z" fill="#EA4335"/>
</svg>
