<svg width="24" height="26" viewBox="0 0 24 26" fill="none" xmlns="http://www.w3.org/2000/svg">
<path d="M20.6286 10.353H2.5552C1.87966 10.353 1.33203 10.9007 1.33203 11.5762V21.7768C1.33203 22.4524 1.87966 23 2.5552 23H20.6286C21.3042 23 21.8518 22.4524 21.8518 21.7768V11.5762C21.8518 10.9007 21.3042 10.353 20.6286 10.353Z" fill="#BB0505"/>
<path d="M14.8203 23V10.353H8.67166V23H14.8203Z" fill="#F49D31"/>
<path d="M21.9613 5.5459H1.22317C0.54763 5.5459 0 6.09353 0 6.76906V10.4714C0 11.1469 0.54763 11.6946 1.22317 11.6946H21.9613C22.6368 11.6946 23.1845 11.1469 23.1845 10.4714V6.76906C23.1845 6.09353 22.6368 5.5459 21.9613 5.5459Z" fill="#D60C18"/>
<path d="M14.8203 11.6946V5.5459H8.67166V11.6946H14.8203Z" fill="#F7B239"/>
<path d="M20.441 5.54599L20.7393 5.24769C21.9396 4.04736 21.9396 2.10058 20.7393 0.900247C19.539 -0.300082 17.5922 -0.300082 16.3918 0.900247L11.7461 5.54599H20.441Z" fill="#F7B239"/>
<path d="M2.74204 5.54599H11.4369L6.79261 0.900247C5.59229 -0.300082 3.6455 -0.300082 2.44517 0.900247C1.24484 2.10058 1.24484 4.04736 2.44517 5.24769L2.74347 5.54599H2.74204Z" fill="#F7B239"/>
</svg>
