<svg width="26" height="20" viewBox="0 0 26 20" fill="none" xmlns="http://www.w3.org/2000/svg">
<path d="M13.4073 0.291638L24.3247 6.63539C24.7495 6.88235 24.7495 7.49481 24.3247 7.74177L13.4073 14.0855C12.7364 14.4753 11.9084 14.4753 11.2385 14.0855L0.321049 7.74177C-0.103723 7.49481 -0.103723 6.88235 0.321049 6.63539L11.2385 0.291638C11.9084 -0.0972127 12.7364 -0.0972127 13.4073 0.291638Z" fill="#171717"/>
<path d="M13.4073 0.291638L24.3247 6.63539C24.7495 6.88235 24.7495 7.49481 24.3247 7.74177L13.4073 14.0855C12.7364 14.4753 11.9084 14.4753 11.2385 14.0855L0.321049 7.74177C-0.103723 7.49481 -0.103723 6.88235 0.321049 6.63539L11.2385 0.291638C11.9084 -0.0972127 12.7364 -0.0972127 13.4073 0.291638Z" fill="#171717"/>
<path d="M24.3211 7.74626L13.41 14.0864C12.7364 14.4726 11.9102 14.4726 11.2367 14.0864L4.03444 9.90155L0.316559 7.74626C-0.10552 7.49481 -0.10552 6.88414 0.316559 6.63269L11.2367 0.292536C11.9102 -0.0936209 12.7364 -0.0936209 13.41 0.292536L24.3211 6.63269C24.7522 6.88414 24.7522 7.49481 24.3211 7.74626Z" fill="#171717"/>
<path d="M14.0871 15.2512C13.5456 15.561 12.9385 15.7235 12.3233 15.7235C11.7082 15.7235 11.1011 15.561 10.5668 15.2557L4.03444 11.4597V14.8318C4.03444 15.5861 4.42958 16.2776 5.08515 16.6548L9.6382 19.2861C11.2996 20.238 13.3471 20.238 14.9995 19.2861L19.5615 16.6548C20.2081 16.2776 20.6122 15.5861 20.6122 14.8318V11.4597L14.0871 15.2512Z" fill="#171717"/>
<path d="M24.5187 16.0235V9.18941L22.9013 10.1288V16.0226C22.5215 16.2812 22.2718 16.7168 22.2718 17.2107C22.2718 18.0046 22.9157 18.6485 23.7096 18.6485C24.5034 18.6485 25.1473 18.0055 25.1473 17.2116C25.1473 16.7177 24.8977 16.283 24.5187 16.0235Z" fill="#171717"/>
</svg>
