<?xml version="1.0" encoding="utf-8"?>
<!-- Generator: Adobe Illustrator 24.0.2, SVG Export Plug-In . SVG Version: 6.00 Build 0)  -->
<svg version="1.1" id="_x35_1d4abee-92ac-4a2c-80e7-9d72afc11533"
	 xmlns="http://www.w3.org/2000/svg" xmlns:xlink="http://www.w3.org/1999/xlink" x="0px" y="0px" viewBox="0 0 133 125"
	 style="enable-background:new 0 0 133 125;" xml:space="preserve">
<style type="text/css">
	.st0{fill:#666666;}
</style>
<g>
	<path class="st0" d="M92.8,8.6H79.2c-15.4,0-25.3,10.2-25.3,25.9v12H40.2c-1.2,0-2.1,1-2.1,2.2V66c0,1.2,1,2.1,2.1,2.1h13.7v43.7
		c0,1.2,1,2.1,2.1,2.1h17.9c1.2,0,2.1-1,2.1-2.1V68.1H92c1.2,0,2.1-1,2.1-2.1V48.7c0-0.6-0.2-1.1-0.6-1.5s-1-0.6-1.5-0.6H76.2V36.3
		c0-4.9,1.2-7.3,7.5-7.3h9.2c1.2,0,2.1-1,2.1-2.1V10.7C94.9,9.5,94,8.6,92.8,8.6z"/>
</g>
</svg>
