<?xml version="1.0" encoding="utf-8"?>
<!-- Generator: Adobe Illustrator 24.0.2, SVG Export Plug-In . SVG Version: 6.00 Build 0)  -->
<svg version="1.1" id="_x35_1d4abee-92ac-4a2c-80e7-9d72afc11533"
	 xmlns="http://www.w3.org/2000/svg" xmlns:xlink="http://www.w3.org/1999/xlink" x="0px" y="0px" viewBox="0 0 133 125"
	 style="enable-background:new 0 0 133 125;" xml:space="preserve">
<style type="text/css">
	.st0{fill:#FFFFFF;}
	.st1{fill:#666666;}
</style>
<path class="st0" d="M44.8,67.6c0,0.7-0.6,1.2-1.2,1.2H26.2c-0.4,0-0.7-0.1-0.8-0.4c-0.1-0.3-0.4-0.6-0.4-0.8v-27l0,0
	c0-0.7,0.6-1.1,1.2-1.1h4.4c0.7,0,1.2,0.6,1.2,1.2v21.4h11.8c0.7,0,1.2,0.6,1.2,1.2C44.8,63.3,44.8,67.6,44.8,67.6z"/>
<path class="st0" d="M55.4,67.6c0,0.7-0.6,1.2-1.2,1.2h-4.4c-0.7,0-1.2-0.6-1.2-1.2v-27l0,0c0-0.7,0.6-1.2,1.2-1.1h4.4l0,0
	c0.7,0,1.2,0.6,1.2,1.2V67.6z"/>
<path class="st0" d="M85.3,67.5c0,0.7-0.6,1.2-1.2,1.2h-4.4c-0.1,0-0.2,0-0.3,0h-0.1h-0.1h-0.1L79,68.6c-0.1-0.1-0.3-0.2-0.3-0.3
	L66.4,51.6v16c0,0.7-0.6,1.2-1.2,1.2h-4.4c-0.7,0-1.2-0.6-1.2-1.2v-27c0.1-0.6,0.7-0.9,1.2-0.9h4.8h0.1h0.1h0.1H66l0,0l0.1,0.1
	l0.1,0.1l0.1,0.1l12.4,16.8V40.6l0,0c0-0.7,0.6-1.2,1.2-1.2h4.4h-0.1c0.7,0,1.2,0.6,1.2,1.2C85.3,40.6,85.3,67.5,85.3,67.5z"/>
<path class="st0" d="M109.5,56.2c0,0.7-0.6,1.2-1.2,1.2H96.5V62h11.8c0.7,0,1.2,0.6,1.2,1.2v4.3c0,0.7-0.6,1.2-1.2,1.2H90.8
	c-0.4,0-0.7-0.1-0.8-0.4c-0.2-0.3-0.4-0.6-0.4-0.8V40.6c0-0.4,0.1-0.7,0.4-0.8c0.3-0.2,0.6-0.4,0.8-0.4h17.4c0.7,0,1.2,0.6,1.2,1.2
	V45c0,0.7-0.6,1.2-1.2,1.2H96.5v4.6h11.8c0.7,0,1.2,0.6,1.2,1.2C109.5,52.2,109.5,56.2,109.5,56.2z"/>
<path class="st1" d="M66.8,2.6C32.5,2.6,4.6,25.1,4.6,52.7c0,24.9,22.2,45.6,52,49.5c2,0.5,4.8,1.3,5.5,3c0.7,1.6,0.5,4,0.2,5.6
	c0,0-0.7,4.4-0.9,5.3c-0.3,1.6-1.2,6.1,5.4,3.4c6.7-2.7,35.8-20.9,48.9-35.9c8.9-9.8,13.3-19.8,13.3-30.9
	C129,25.1,101.1,2.6,66.8,2.6z M44.8,67.6c0,0.7-0.6,1.2-1.2,1.2H26.2c-0.4,0-0.7-0.1-0.8-0.4c-0.1-0.3-0.4-0.6-0.4-0.8v-27l0,0
	c0-0.7,0.6-1.1,1.2-1.1h4.4c0.7,0,1.2,0.6,1.2,1.2v21.4h11.8c0.7,0,1.2,0.6,1.2,1.2C44.8,63.3,44.8,67.6,44.8,67.6z M55.4,67.6
	c0,0.7-0.6,1.2-1.2,1.2h-4.4c-0.7,0-1.2-0.6-1.2-1.2v-27l0,0c0-0.7,0.6-1.2,1.2-1.1h4.4l0,0c0.7,0,1.2,0.6,1.2,1.2V67.6z M85.3,67.5
	c0,0.7-0.6,1.2-1.2,1.2h-4.4c-0.1,0-0.2,0-0.3,0h-0.1h-0.1h-0.1L79,68.6c-0.1-0.1-0.3-0.2-0.3-0.3L66.4,51.6v16
	c0,0.7-0.6,1.2-1.2,1.2h-4.4c-0.7,0-1.2-0.6-1.2-1.2v-27c0.1-0.6,0.7-0.9,1.2-0.9h4.8h0.1h0.1h0.1H66l0,0l0.1,0.1l0.1,0.1l0.1,0.1
	l12.4,16.8V40.6l0,0c0-0.7,0.6-1.2,1.2-1.2h4.4h-0.1c0.7,0,1.2,0.6,1.2,1.2C85.3,40.6,85.3,67.5,85.3,67.5z M109.5,56.2
	c0,0.7-0.6,1.2-1.2,1.2H96.5V62h11.8c0.7,0,1.2,0.6,1.2,1.2v4.3c0,0.7-0.6,1.2-1.2,1.2H90.8c-0.4,0-0.7-0.1-0.8-0.4
	c-0.2-0.3-0.4-0.6-0.4-0.8V40.6c0-0.4,0.1-0.7,0.4-0.8c0.3-0.2,0.6-0.4,0.8-0.4h17.4c0.7,0,1.2,0.6,1.2,1.2V45
	c0,0.7-0.6,1.2-1.2,1.2H96.5v4.6h11.8c0.7,0,1.2,0.6,1.2,1.2C109.5,52.2,109.5,56.2,109.5,56.2z"/>
</svg>
