<?xml version="1.0" encoding="utf-8"?>
<!-- Generator: Adobe Illustrator 23.1.0, SVG Export Plug-In . SVG Version: 6.00 Build 0)  -->
<svg version="1.1" id="圖層_1" xmlns="http://www.w3.org/2000/svg" xmlns:xlink="http://www.w3.org/1999/xlink" x="0px" y="0px"
	 viewBox="0 0 1078.6 163.4" style="enable-background:new 0 0 1078.6 163.4;" xml:space="preserve">
<style type="text/css">
	.st0{fill:#FFFFFF;}
	.st1{fill:#E72F00;}
</style>
<title>2020logo</title>
<path class="st0" d="M100.1,25.2c1,2.9-0.6,5.6-2.4,7.1C92,35.1,85.7,37,80,40.1c-11.1,2.2-21.5,6-32.4,8.7
	c-4.1,0.7-8.6-0.6-10.9-3.9c0.6-2.6-3-4.4-0.4-6.7c5-0.5,8.8-1.8,14.2-1.6c5.4-4.4,11.5-5,18.4-5.9c1.1-1.6,3-1.4,4.2-2.4
	c3-2.4,6.9-3.3,9.3-6.2c3.3-2.8,7.8-2.3,12-1.7C96.4,21.8,99.2,22.5,100.1,25.2"/>
<path class="st0" d="M180.8,62.7c0.6-2.2,1-4.5-0.2-6.6c-0.2-1.3,0.6-2.3-0.7-2.8c-2.4-1.7-4.5,1-6.9,1.4c-3.1,1.6-5.4,5.5-9.1,6.4
	c-2.9,3.6-7.1,5-10.6,7.4c-4.6,1.2-9.5,0.9-14-0.8c-1.1-1.9-3.4-0.9-4.7-2.1c-3.4-2.2-7.8-2.2-10.1-5.9c-1.5-2.7-5.8-2.7-5-6.4
	c1.5-1.6,3.5-1.9,5.5-2.4c6.8-1.3,14.2-0.3,20.8-2.6c3.7-1,7.7-1.9,11.3-3.2c1.4-1.5,4.3-0.6,5.4-2.8c2.4-0.6,4.9-1,7.4-1.2
	c2.1-1.7,5.1-0.7,7.1-2.7c4,0,7.1-2.7,11.3-2.4c3.1-3.2,8.1-1.9,11.8-3.5c5.5-1.7,11.5-5.9,17.7-2.5h2.6c4.2,1.1,9.7,1.1,11.8,5.4
	c0.3,2.8-1.7,5.3-2.9,7.8c-4,2.4-10.7,3.8-14.9,0.5c-4.9-3.2-10.9-1.3-16,0.2c-1.4,1.6-3.7,1.6-4.5,3.8c0.2,2.4-0.4,5,0.5,7.1
	c1.9,3.9-0.6,7.9,1.2,11.8c0.8,5.3,2.4,12.8,2.2,18.9c0,9.1,0.7,18.2,2.1,27.2c0.6,3.1,1.8,6.4,2.2,9.9c1.9,2.2,0.2,5,1.4,7.5
	c-2.1,5.2-0.1,12.7-6.1,15.4c-3,3.4-8.9,2.8-12.8,1.5c-2.6-0.9-3.3-3.7-5.1-5.2c0-3.4-2.5-6.7-1.2-10.6c2-22.6,3.9-44.1,2.8-66.6"/>
<path class="st0" d="M70.8,51.9c2,2.2,2.9,4.7,4,7.3c2.1,2.3,4.4-0.3,6.6-0.5c3.5-3.6,8.1-8.4,14.4-7.8c2.6,1,5.8,0.9,7.1,3.5
	c1.2,1.7,0.9,3.6,0.3,5.4c-2.3,4.6-7.9,6.3-11.8,9.3c-3.2,1.7-7.4,2.8-9,6.4c-0.1,5.6,4.4,10.1,8,13.4c5.4,5.6,10.4,14.2,17.7,17.5
	c3.9,2.3,7.1,6.8,12.1,8.1c1.1,1.1,3.2,1.5,4.2,2.8c2.3,0.3,3.3,3.5,5.9,2.7c4.6,3.2,9.4,6.3,14.9,7.3c1.4,1,3.3,1.8,4,3.1
	c1.8,0.4,2.6,2.3,3.6,3.5c0.5,1.5-0.8,2.8-1.2,4c-2.8,2.7-7.1,1.6-10.1,3.4c-9.7,0.3-20.7,2.9-30.3,0.9l-10.8-8.3
	c-6.9-8.5-12.1-17.8-18.9-26.4c-0.8-2-3.6-2.8-4.5-5c-3.3-2.2-4.5-6.2-9-6.6c-1.6,2.5-2.4,5.5-2.4,8.5c-1.1,2.4-0.7,5.8-2.1,8.3
	c-1.5,1.7-0.9,4.1-2.4,5.7c-0.1,2-1.6,2.6-1.7,4.5c-3.3,7.7-9.5,14-15.8,19.3c-5.5,1.1-10.4,5.2-16.3,2c-3.6-0.3-6.7-2.6-8-5.9
	c0.8-1.8-1.5-2.4-1.5-3.8c1.1-2.4-2.2-4.6,1-6.1c0.3-1.4,1.3-2.5,2.6-3c2.9-0.5,5.8-0.6,8.1,1.9c1.1,0.3,1.8-0.6,2.6-1
	c0.2-1.5,2.5-1.7,2.4-3.2c2.7-2.3,4.6-5.2,5.7-8.6c3.5-3.7,3.9-9,2.6-14.2c-3.6-0.3-7.5,1.6-11.3,0.3c-2.6-1.9-6.3-2.8-7.6-5.7
	c-1.9-1.9-3.1-4.3-3.5-6.9c1.1-2.9,5.2-2.1,7.6-2.6c2.2-0.9,4.7-1.1,6.9-2.2c5.5-1.1,8.8-6,14.4-6.8c3.3-2.1,8-5,7.4-9.7
	c-1.7-3.8,1-7.2,0.4-11.3c0.7-1.8,2.2-3.3,4-4c2.1-0.6,4.4,0.3,6.6-0.7c0.8,1.3,2.4,0.7,3.3,1.5"/>
<path class="st0" d="M242.7,80c4.5,4.9,9.4,10.9,6.4,18.2c-0.3,2.5-3.8,1.6-4,4.2c-5,0.8-10.2,0.8-14.9-0.9
	c-0.1-1.8-1.4-2.4-2.9-3.3c-5.7-5.2-10.1-12.4-7.6-19.6c5.7-4.6,13.6-0.4,20.1,0C240.7,79.3,241.6,79.8,242.7,80"/>
<path class="st0" d="M328,101.7c0.3-0.3,0.5-0.8,1-0.9c7.3-0.2,12.4-0.3,19.8-0.2c0.8-0.6,1.9-0.3,2.9-0.5l9.6-0.1
	c0.8-0.5,0.2-1.7,0.5-2.5c0.3-1.6-0.9-4.3,1.3-4.8c1.1-0.1,2.6-0.3,3.2,1v5.9l0.2,0.3c4.3,0.2,8.3-0.1,12.3,0.2
	c0.2,0.2,0.5,0.2,0.6,0.5c0.1,0.4,0,0.9-0.5,1.1c-3.8,0.3-8.1,0-12,0.2c-0.1,0.2-0.3,0-0.4,0.2l-0.2,0.3c-0.1,2.8-0.1,5.1-0.1,7.8
	l0.3,0.4l10.1,0.1c0.3,0.3,0.8,0.7,0.5,1.2l-0.5,0.5l-10.2,0.1l-15.2-0.1c-0.4-0.3-0.9-0.5-0.6-1.1c0.2-0.4,0.6-0.6,1-0.7h9.5
	c1.1-0.4,0.3-1.8,0.6-2.6v-5.8l-0.5-0.4c-4,0-7.7,0.1-11.7-0.1c-0.2-0.1-0.4-0.2-0.6-0.2c-0.3,0.4-0.7,0.6-1.2,0.7l-18,0.2
	c-0.4-0.1-0.8-0.1-1.1-0.2"/>
<path class="st0" d="M283.7,93.5c0.2,1.6,0.2,3.3,0.1,4.9l0.5,0.4c2.6,0.3,5.3-0.3,7.8,0.2c0.4,0.3,0.3,0.6,0.2,1
	c-0.2,0.3-0.5,0.5-0.9,0.5l-15.9,0.1h-6.4c-0.4-0.1-0.5-0.4-0.7-0.7c0-0.4,0.1-0.9,0.6-1c3-0.2,6.4,0,9.6-0.1
	c0.3-0.1,0.5-0.3,0.6-0.6c0.4-1.8-1.2-5.3,1.7-5.7C281.9,92.7,283.1,92.5,283.7,93.5"/>
<path class="st0" d="M347,94.7c0.2,0,0.4,0.2,0.6,0.4c0.2,0.4,0,1-0.4,1.2c0,0,0,0,0,0l-1.5,0.2l-14.5-0.1c-0.3-0.1-0.5-0.3-0.7-0.6
	c-0.1-0.4,0.1-0.7,0.4-0.9c1.8-0.6,3.9,0,5.7-0.2C339.8,94.7,343.5,94.6,347,94.7"/>
<path class="st0" d="M278.4,101.3c0.5,0.4,0.8,1.1,0.6,1.7c-0.2,1.4-2.6,2.7-1,4.2c0.6,1.4,2.3,2.7,2.8,4c0.1,0.2-0.1,0.4-0.1,0.6
	c-0.4,0.5-1.1,0.7-1.7,0.5c-1.2-1-2.1-2.3-3.3-3.2c-0.4,0.1-0.8,0.4-1,0.9c-1.3,1.6-2.5,3.8-4.5,4.7c-0.5,0-1-0.3-1.3-0.8l0-0.7
	c2.9-3.6,4.4-7.8,6.4-11.7C276.1,100.9,277.6,100.6,278.4,101.3"/>
<path class="st0" d="M289.9,102.8c0.1,1.5-1.1,2.6-1.7,4c0.7,2,1.7,4,2.8,5.8c0.2,0.4,0,0.7-0.2,1c-0.5,0.3-1.1,0.5-1.6,0.3
	c-1.1-0.9-2-2.5-3-3.5c-1.3,0.7-1.5,3.6-3.7,2.5c-0.4-0.3-0.6-0.9-0.4-1.4c1.7-2.8,3-5.9,3.8-9.1c0.3-0.5,0.9-0.9,1.5-1
	C288.3,101.6,289.5,101.8,289.9,102.8"/>
<path class="st0" d="M346.8,106.9c0.3,0.2,0.8,0.3,0.8,0.8c0,0.4-0.3,0.8-0.7,1l-0.9,0.1h-14.9c-0.3-0.1-0.6-0.3-0.8-0.6
	c-0.2-0.6,0.2-1.1,0.7-1.3l0.4-0.1L346.8,106.9z"/>
<path class="st0" d="M346.6,112.9c0.3,0.1,0.6,0.3,0.7,0.6c0.1,0.3,0,0.6-0.1,0.8c-0.3,0.3-0.7,0.4-1.1,0.3l-15.1-0.1
	c-0.4-0.2-0.6-0.8-0.4-1.2c0.2-0.4,0.7-0.4,1.1-0.5C336.6,112.8,341.5,112.8,346.6,112.9"/>
<path class="st0" d="M283.2,113.6c1.2,1.2,0.2,2.5,0.6,4c0.2,0.3,0.6,0.2,0.8,0.3h7.4c0.3,0.1,0.7,0.3,0.8,0.7
	c0,0.5-0.3,0.9-0.7,1.1l-7,0.1c-0.5,0.2,0.1,0.6,0.1,0.9c2,2.6,4.4,4.2,7.1,6.1c0.3,0.6-0.2,1.1-0.6,1.4h-1.2c-2.4-1.5-4.8-3.2-7-5
	l-0.2,0.2c0.4,3.1,0.5,6.3,0.3,9.5c-0.6,1.1-1.9,1.1-3,1.1c-0.6-0.1-1.2-0.5-1.4-1.1l-0.1-0.9c-0.1-3.1,0.1-6.2,0.6-9.2
	c-0.6-0.5-0.7,0.6-1.2,0.8c0,0.4-0.4,0.3-0.5,0.7c-1.4,1.3-2.6,3.1-4.3,4.3c0,0.4-0.6,0.4-0.8,0.7c-1,0.9-2.3,2.7-4,1.8
	c-0.2-0.2-0.3-0.6-0.3-0.9c0.2-0.5,0.9-0.9,1.3-1.3c2.8-2.5,5.1-5.4,7-8.6c0-0.2,0-0.3-0.1-0.4c-2.7-0.2-5.4,0.1-8.1-0.2
	c-0.3-0.3-0.6-0.8-0.3-1.2l0.6-0.3l9.5-0.1c0.3,0,0.5-0.3,0.6-0.5c0.3-1.5-0.7-3.5,1.1-4.3C281.2,113,282.5,112.8,283.2,113.6"/>
<path class="st0" d="M359.9,114.7c1,0.9,0.2,2.3,0.4,3.5c0,4.3-0.1,7.9,0.1,12c0.2,0.5,0.8,0.6,1.2,0.8h6.3c1.9-0.5,2.7-2.3,3.1-4.1
	c0.4-0.7,1.1-1.1,1.8-1.2c1-0.1,2,0.3,2.6,1.2c0.2,2-0.8,3.9-2.4,5c-3.9,1.6-9.1,0.7-13.5,0.9c-1.3-0.2-2.8-0.6-3.3-2l-0.1-0.8
	c0.1-4.6,0.1-9.9,0.2-14.5c0.2-0.7,0.9-0.9,1.5-1.1C358.5,114.2,359.3,114.3,359.9,114.7"/>
<path class="st0" d="M367.5,117.3c1.2,1.5,2.3,3.2,3.1,5c0.1,0.5,0,1-0.4,1.4c-0.7,0.6-1.6,0.9-2.5,0.8c-2.6-0.4-1.7-3.4-2.9-5
	c-0.4-1.6-2.1-2.6-1.8-4.3c0.4-0.7,1.4-0.7,2.1-0.6C366,115.4,366.8,116.3,367.5,117.3"/>
<path class="st0" d="M376.6,118.9c1.4,1.6,2.7,3.2,3.9,4.9c0.2,0.6,0.1,1.3-0.4,1.8c-0.8,0.7-1.9,1-3,0.7c-1.4-0.7-1.4-2.4-2-3.6
	c-0.9-1.7-1.9-3.4-3.1-4.9c-0.1-0.4,0-0.9,0.3-1.3c0.5-0.3,1.1-0.4,1.7-0.2C375.1,116.8,375.8,118.1,376.6,118.9"/>
<path class="st0" d="M352.8,118c-0.4-0.5-0.9-0.7-1.5-0.8c-0.5,0.2-1.3,0.2-1.5,0.9c-0.3,2.6-1,5.2-2.1,7.6
	c-0.2,0.3-0.4,0.8-0.7,0.7c-0.7-2.8,1.6-7.7-2.8-8.2h-8.6c-1.2,0.1-2.8-0.2-3.8,0.5c-0.7,0.5-1.2,1.2-1.4,2l-0.1,9.7l0.3,0.8
	c0.5,0.6,1.2,1.1,2,1.3c3.8,0.3,7.5,0.3,11.3,0.1l1.7-0.6c1-0.5,1.6-1.5,1.6-2.6c0.8,0.3,1.6,0.4,2.5,0.4c2.4-0.7,1.9-3.5,2.6-5.4
	C352.4,122.2,353.1,120.1,352.8,118z M342.5,130.5l-0.4,0.3l-7.3-0.1l-0.1-0.1c0-3.3,0-7,0.1-10.1c0.1-0.4,0.5-0.2,0.8-0.4l6.8,0.1
	l0.2,0.2L342.5,130.5z"/>
<path class="st0" d="M313.2,130.3c-0.7,0.1-1.4,0-2-0.3l-0.1-7.2l0.3-0.4c2.6-0.4,5.2-0.1,7.8-0.3c0.4-0.1,0.4-0.5,0.4-0.9
	s-0.4-0.4-0.6-0.6l-7-0.1c-0.3-0.1-0.8,0-0.8-0.5v-7.5c0.1-0.2,0.3-0.2,0.5-0.3l7-0.1l0.6-0.3c0.1-0.3,0.4-0.5,0.2-0.8
	c0-0.3-0.4-0.4-0.6-0.7l-7.4-0.1l-0.4-0.3c0-2.5-0.1-5.1,0.1-7.5l0.3-0.2l8.5-0.1c0.4-0.2,0.5-0.6,0.7-1l-0.6-0.6l-10.3-0.1
	l-0.2-0.2c1.2-1.6,2.6-3.1,4.1-4.5c0.6-0.5,0.9-1.3,0.8-2.1c-0.7-0.8-1.6-1.2-2.6-1.1c-2,0.1-2.4,2.3-3.3,3.6
	c-0.8,1.4-2,2.6-2.3,4.2l-7.9,0.1l-0.1-0.2c0.6-2,2-3.7,2.8-5.6l0.1-0.9c-0.2-0.7-0.8-1.2-1.6-1.4c-1.1-0.1-2.3-0.2-2.9,0.9
	c-1.3,5-3.5,9.7-6.5,13.9c-0.1,0.4-0.1,0.8,0.2,1.2c0.4,0.3,0.9,0.4,1.4,0.4c1.5-0.8,2.2-2.4,3.4-3.5l0.1,0.1v17.9
	c0.2,2.1-0.2,4.7,0.4,6.8c0.7,1.1,1.9,1.7,3.2,1.7c7.1,0,14.2,0.1,21.3-0.1l0.4-0.3c0.2-0.3,0.1-0.8-0.1-1
	C318.2,130,315.4,130.3,313.2,130.3z M299.9,112.5c0.1-0.2,0.4-0.2,0.6-0.3c2.1-0.1,4.2,0,6.2,0.2l-0.1,7.9c-2.2,0.1-4.4,0.1-6.6,0
	l-0.1-0.2L299.9,112.5z M306.8,130l-0.1,0.1h-6.5l-0.2-0.1c0-2.5-0.2-5,0-7.3c0.1-0.2,0.2-0.3,0.4-0.3c2.1-0.1,4.3,0,6.4,0.2
	l0.1,0.2C306.7,125.2,307,127.7,306.8,130z M306.8,110.2c-2.2,0.3-4.4,0.3-6.6,0.2l-0.1-0.2V103c0.1-0.8,0.9-0.3,1.3-0.5
	c1.8,0,3.7,0,5.4,0.1l0.1,0.5C306.8,105.5,306.9,108.2,306.8,110.2z"/>
<rect y="63.2" class="st0" width="49.9" height="2.1"/>
<rect x="104.1" y="63.2" class="st0" width="22.1" height="2.1"/>
<rect x="166" y="63.2" class="st0" width="14.3" height="2.1"/>
<rect x="198" y="63.6" class="st0" width="197.6" height="2.1"/>
<rect x="0.1" y="102.5" class="st0" width="32.7" height="2.1"/>
<rect x="67.2" y="102.5" class="st0" width="8.4" height="2.1"/>
<rect x="107" y="102.5" class="st0" width="69.4" height="2.1"/>
<rect x="201.5" y="102.5" class="st0" width="28" height="2.1"/>
<rect x="248.2" y="102.5" class="st0" width="16.2" height="2.1"/>
<rect x="382" y="102.5" class="st0" width="13.6" height="2.1"/>
<rect x="0.1" y="118.3" class="st0" width="33.2" height="2.1"/>
<rect x="63.2" y="118.3" class="st0" width="22.1" height="2.1"/>
<rect x="133.1" y="118.3" class="st0" width="42.3" height="2.1"/>
<rect x="203.9" y="118.3" class="st0" width="60.5" height="2.1"/>
<rect x="382" y="118.3" class="st0" width="13.6" height="2.1"/>
<rect x="0.1" y="126.6" class="st0" width="14.9" height="2.1"/>
<rect x="59.3" y="126.6" class="st0" width="32" height="2.1"/>
<rect x="150.3" y="126.6" class="st0" width="23.6" height="2.1"/>
<rect x="206.4" y="126.6" class="st0" width="58.5" height="2.1"/>
<rect x="381" y="126.6" class="st0" width="14.6" height="2.1"/>
<rect x="0.1" y="140.9" class="st0" width="15.4" height="2.1"/>
<rect x="49" y="140.9" class="st0" width="54.6" height="2.1"/>
<rect x="153.3" y="140.9" class="st0" width="21.6" height="2.1"/>
<rect x="205.4" y="140.9" class="st0" width="190.2" height="2.1"/>
<path class="st0" d="M809.2,71.3h5.8v4.2c1.4-3.3,4.5-5.1,8.6-5.1c6.7,0,11.4,5.4,11.4,13.6c0,8.7-4.5,13.8-11.6,13.8
	c-3.4,0.1-6.6-1.5-8.4-4.4v15.3h-5.8L809.2,71.3z M822,92.6c4.4,0,6.9-3,6.9-8.5s-2.7-8.6-7.1-8.6s-7,3-7,8.3S817.8,92.6,822,92.6z"
	/>
<path class="st0" d="M851.9,70.4c1.7,0,3.3,0.4,4.8,1.2l-2.1,5c-1.1-0.7-2.3-1.1-3.6-1c-4.1,0-5.4,3.2-5.4,10.1v11.1h-5.8V71.2h5.8
	v4.1C846.8,72,848.8,70.4,851.9,70.4z"/>
<path class="st0" d="M862.8,84.9c0.3,4.8,3,7.6,7.2,7.6c3.7,0,6.1-1.5,8-5l4.9,2.8c-2.9,5.1-7,7.6-12.8,7.6
	c-8.1,0-13.3-5.4-13.3-13.7c0-7.9,5.4-13.7,13.3-13.7c8.2,0,13,4.9,13,13.3v1.1H862.8z M870.2,75.4c-3.8,0-6.1,1.8-7,5.6h13.9
	C876.6,77.3,874.2,75.4,870.2,75.4z"/>
<path class="st0" d="M889.7,89.5c0.7,2.5,2.6,3.9,5.7,3.9c2.6,0,4.2-1.3,4.2-3.3c0-2.6-2.5-2.9-6-4.3c-4.8-2-7.3-4-7.3-7.7
	c0-4.4,3.7-7.6,9.7-7.6c4,0,6.9,1.5,8.1,4.2l-4.1,2.9c-0.7-1.7-2.4-2.7-4.2-2.6c-2.3,0-3.7,1.2-3.7,2.9c0,2.5,2.8,2.9,6.7,4.4
	c4.5,1.8,6.5,3.8,6.5,7.5c0,5-3.7,8.1-10.4,8.1c-5,0-8.2-1.8-10.1-5.7L889.7,89.5z"/>
<path class="st0" d="M913,56.7c2,0,3.6,1.5,3.6,3.5c0,0,0,0.1,0,0.1c0.1,2-1.5,3.6-3.5,3.7c0,0-0.1,0-0.1,0c-2,0-3.7-1.7-3.7-3.7
	C909.3,58.3,911,56.7,913,56.7z M910.1,71.3h5.8v25.4h-5.8V71.3z"/>
<path class="st0" d="M946.8,55.1v41.6H941v-3.3c-1.9,2.8-5,4.4-8.4,4.3c-7.1,0-11.6-5.1-11.6-13.8c0-8.2,4.7-13.6,11.4-13.6
	c4.2,0,7.2,1.8,8.6,5.1V55.1H946.8z M934.2,75.6c-4.4,0-7.1,3.2-7.1,8.6s2.6,8.5,7,8.5c4.1,0,7.1-3.3,7.1-8.7S938.5,75.6,934.2,75.6
	z"/>
<path class="st0" d="M957.6,84.9c0.3,4.8,3,7.6,7.2,7.6c3.7,0,6.1-1.5,8-5l4.9,2.8c-2.9,5.1-7,7.6-12.8,7.6
	c-8.1,0-13.3-5.4-13.3-13.7c0-7.9,5.4-13.7,13.3-13.7c8.2,0,13,4.9,13,13.3v1.1H957.6z M965,75.4c-3.8,0-6.1,1.8-7,5.6h13.9
	C971.5,77.3,969,75.4,965,75.4L965,75.4z"/>
<path class="st0" d="M982.6,71.3h5.5v4.2c2.4-3.6,5.4-5.1,9.8-5.1c3.8,0,6.5,1.2,8,3.6c1.3,1.9,1.3,4.2,1.3,7.3v15.4h-5.9V83.7
	c0-5.7-0.7-8.3-5.5-8.3c-2.4-0.2-4.7,0.9-6.2,2.8c-1,1.5-1.2,3.7-1.2,6.9v11.6h-5.8L982.6,71.3z"/>
<path class="st0" d="M1014.9,76.4h-4.5v-5.1h4.5v-9.6h5.8v9.6h4.4v5.1h-4.5v20.3h-5.8L1014.9,76.4z"/>
<path class="st0" d="M1032,56.7c2,0,3.6,1.5,3.6,3.5c0,0,0,0.1,0,0.1c0.1,2-1.5,3.6-3.5,3.7c0,0-0.1,0-0.1,0c-2,0-3.7-1.7-3.7-3.7
	C1028.3,58.3,1030,56.7,1032,56.7z M1029.1,71.3h5.8v25.4h-5.8V71.3z"/>
<path class="st0" d="M1060,96.7v-3.3c-1.9,2.8-5,4.4-8.4,4.3c-7.1,0-11.6-5.1-11.6-13.8c0-8.2,4.7-13.6,11.4-13.6
	c4.2,0,7.2,1.8,8.6,5.1v-4.2h5.8v25.4H1060z M1053.2,75.6c-4.4,0-7.1,3.2-7.1,8.6s2.6,8.5,7,8.5c4,0,7.1-3.3,7.1-8.7
	S1057.5,75.6,1053.2,75.6L1053.2,75.6z"/>
<path class="st0" d="M1072.7,55.1h5.8v41.6h-5.8V55.1z"/>
<path class="st0" d="M813.3,138.9c0.3,4.8,3,7.6,7.2,7.6c3.7,0,6.1-1.5,8-5l4.9,2.8c-2.9,5.1-7,7.6-12.8,7.6
	c-8.1,0-13.3-5.4-13.3-13.7c0-7.9,5.4-13.7,13.3-13.7c8.2,0,13,4.9,13,13.3v1.1L813.3,138.9z M820.8,129.4c-3.8,0-6.1,1.8-7,5.6
	h13.9C827.2,131.3,824.8,129.4,820.8,129.4L820.8,129.4z"/>
<path class="st0" d="M838.6,109.2h5.8v41.6h-5.8V109.2z"/>
<path class="st0" d="M855.5,138.9c0.3,4.8,3,7.6,7.2,7.6c3.7,0,6.1-1.5,8-5l4.9,2.8c-2.9,5.1-7,7.6-12.8,7.6
	c-8.1,0-13.3-5.4-13.3-13.7c0-7.9,5.4-13.7,13.3-13.7c8.2,0,13,4.9,13,13.3v1.1L855.5,138.9z M863,129.4c-3.8,0-6.1,1.8-7,5.6h13.9
	C869.4,131.3,867,129.4,863,129.4z"/>
<path class="st0" d="M892.6,129.6c-4.7,0-7.8,3.3-7.8,8.4c0,5.3,3.1,8.5,8.1,8.5c2.6,0.1,5.1-1.1,6.7-3.2v6.7
	c-2.3,1.2-4.8,1.9-7.4,1.8c-8,0-13.5-5.6-13.5-13.7s5.7-13.7,14.1-13.7c2.4-0.1,4.7,0.5,6.8,1.6v6.5
	C897.8,130.6,895.2,129.5,892.6,129.6z"/>
<path class="st0" d="M905.5,130.4H901v-5.1h4.5v-9.6h5.8v9.6h4.5v5.1h-4.4v20.3h-5.8V130.4z"/>
<path class="st0" d="M922.6,110.7c2,0,3.6,1.5,3.6,3.5c0,0.1,0,0.1,0,0.2c0,2-1.5,3.6-3.5,3.7c0,0-0.1,0-0.1,0c-2,0-3.7-1.7-3.7-3.7
	C918.9,112.3,920.5,110.7,922.6,110.7z M919.7,125.3h5.8v25.4h-5.8V125.3z"/>
<path class="st0" d="M934.7,128.4c5.5-5.3,14.3-5.3,19.8,0.1c2.6,2.5,4.1,6,4.1,9.6c0,3.6-1.4,7.2-4.1,9.7c-2.7,2.6-6.3,4.1-10,4.1
	c-3.7,0-7.2-1.4-9.8-4c-2.7-2.5-4.1-6.1-4.1-9.7C930.5,134.4,932,130.9,934.7,128.4z M944.5,129.7c-4.3,0-7.9,3.7-7.9,8.5
	s3.5,8.5,7.9,8.5s7.9-3.7,7.9-8.5S948.9,129.7,944.5,129.7L944.5,129.7z"/>
<path class="st0" d="M963.3,125.3h5.5v4.2c2.4-3.6,5.4-5,9.8-5c3.8,0,6.5,1.2,8,3.6c1.3,1.9,1.3,4.2,1.3,7.3v15.4H982v-13.1
	c0-5.7-0.7-8.3-5.5-8.3c-2.4-0.2-4.7,0.9-6.2,2.9c-1,1.5-1.2,3.7-1.2,6.9v11.6h-5.8L963.3,125.3z"/>
<path class="st0" d="M511.5,77.6h-50.9l28.3-34c6.7-8.1,10.2-14.4,10.2-20c0-7.4-4.7-12.1-12.5-12.1c-6.9,0-11.8,4.7-12.3,11.8
	h-11.9c0-13.5,9.8-22.3,25.3-22.3c14.6,0,23.7,8,23.7,21c0,11.9-7.5,21.3-19.1,34.6l-9.7,11.2h28.9L511.5,77.6z"/>
<path class="st0" d="M589.2,68c-16,15.6-41.5,15.6-57.4,0c-7.6-7.4-11.9-17.5-11.8-28.1c-0.1-10.6,4.2-20.8,11.8-28.2
	c16-15.4,41.4-15.4,57.4,0c7.6,7.4,11.9,17.6,11.9,28.2C601.1,50.5,596.8,60.7,589.2,68z M580,19.6c-5.1-5.3-12.2-8.3-19.5-8.3
	c-7.4,0-14.5,3-19.6,8.3c-5.3,5.4-8.2,12.6-8.1,20.2c-0.1,7.5,2.8,14.7,8.1,20.1c10.5,10.8,27.8,11.1,38.6,0.6
	c0.2-0.2,0.4-0.4,0.6-0.6C590.9,48.7,590.9,30.8,580,19.6L580,19.6z"/>
<path class="st0" d="M511.5,161.4h-50.9l28.3-34c6.7-8.1,10.2-14.4,10.2-20c0-7.4-4.7-12.1-12.5-12.1c-6.9,0-11.8,4.7-12.3,11.8
	h-11.9c0-13.6,9.8-22.4,25.3-22.4c14.6,0,23.7,8.1,23.7,21c0,11.9-7.5,21.3-19.1,34.6l-9.7,11.1h28.9L511.5,161.4z"/>
<path class="st0" d="M589.2,151.7c-16,15.6-41.5,15.6-57.4,0c-7.6-7.4-11.9-17.5-11.8-28.1c-0.1-10.6,4.2-20.8,11.8-28.2
	c16-15.4,41.4-15.4,57.4,0c7.6,7.4,11.9,17.6,11.9,28.2C601.1,134.2,596.8,144.4,589.2,151.7z M580,103.4
	c-5.1-5.3-12.2-8.3-19.5-8.3c-7.4,0-14.5,3-19.6,8.3c-10.8,11.3-10.8,29,0,40.2c10.5,10.8,27.8,11.1,38.6,0.6
	c0.2-0.2,0.4-0.4,0.6-0.6C590.9,132.5,590.9,114.6,580,103.4L580,103.4z"/>
<path class="st1" d="M701.3,11.6c38.9,0,70.4,31.5,70.4,70.3s-31.5,70.4-70.3,70.4c-38.9,0-70.4-31.5-70.4-70.3c0,0,0,0,0-0.1
	C631,43.1,662.5,11.7,701.3,11.6 M701.4,1.6C657,1.6,621,37.6,621,82s35.9,80.4,80.3,80.4c44.4,0,80.4-35.9,80.4-80.3c0,0,0,0,0-0.1
	C781.7,37.6,745.7,1.6,701.4,1.6L701.4,1.6z"/>
<path class="st0" d="M822.3,46.6H816V12.8h-10.5V7.3h27.2v5.4h-10.4V46.6z"/>
<path class="st0" d="M848.3,46.6v-3.3c-1.9,2.8-5,4.4-8.4,4.3c-7.1,0-11.6-5.1-11.6-13.8c0-8.2,4.7-13.6,11.4-13.6
	c4.2,0,7.2,1.8,8.6,5v-4.2h5.8v25.4H848.3z M841.5,25.5c-4.4,0-7.1,3.2-7.1,8.6s2.6,8.5,7,8.5c4,0,7.1-3.3,7.1-8.7
	S845.8,25.5,841.5,25.5L841.5,25.5z"/>
<path class="st0" d="M863.9,6.6c2,0,3.6,1.5,3.6,3.5c0,0.1,0,0.1,0,0.2c0,2-1.5,3.6-3.5,3.7c0,0-0.1,0-0.1,0c-2,0-3.7-1.7-3.7-3.7
	C860.3,8.2,861.9,6.5,863.9,6.6z M861,21.2h5.8v25.4H861V21.2z"/>
<path class="st0" d="M892.2,34.9c-0.7-1.6-1.3-3.3-1.9-5c-0.8,2.4-1.4,4.1-1.8,4.8l-6,13.5l-13.2-27h6.2l5.7,12.3
	c0.6,1.7,1,3.4,1.3,5.2c0.1-1.6,0.6-3.2,1.3-4.6l6.2-13.7h0.5l6.3,13.7c0.7,1.4,1.1,3,1.2,4.6c0.3-1.8,0.8-3.5,1.5-5.1l5.6-12.3h6.2
	l-13.3,27L892.2,34.9z"/>
<path class="st0" d="M931.7,46.6v-3.3c-1.9,2.8-5,4.4-8.4,4.3c-7.1,0-11.6-5.1-11.6-13.8c0-8.2,4.7-13.6,11.4-13.6
	c4.2,0,7.2,1.8,8.6,5v-4.2h5.8v25.4H931.7z M924.9,25.5c-4.4,0-7.1,3.2-7.1,8.6s2.6,8.5,7,8.5c4,0,7.1-3.3,7.1-8.7
	S929.3,25.5,924.9,25.5z"/>
<path class="st0" d="M944.2,21.2h5.5v4.2c2.4-3.6,5.4-5,9.8-5c3.8,0,6.5,1.2,8,3.6c1.3,1.9,1.3,4.2,1.3,7.3v15.4h-5.9V33.5
	c0-5.7-0.7-8.3-5.5-8.3c-2.4-0.1-4.7,0.9-6.2,2.9c-1.1,1.5-1.2,3.7-1.2,6.9v11.6h-5.8L944.2,21.2z"/>
</svg>
