<?xml version="1.0" encoding="utf-8"?>
<!-- Generator: Adobe Illustrator 23.1.0, SVG Export Plug-In . SVG Version: 6.00 Build 0)  -->
<svg version="1.1" id="圖層_1" xmlns="http://www.w3.org/2000/svg" xmlns:xlink="http://www.w3.org/1999/xlink" x="0px" y="0px"
	 viewBox="0 0 96 76" style="enable-background:new 0 0 96 76;" xml:space="preserve">
<g id="Artboard_1">
	<path d="M58.6,74.2h-18c-0.8,0-1.5-0.5-1.9-1.3c-0.3-0.8-0.1-1.6,0.5-2.2l24.6-23.9H2.5c-1.1,0-2-0.9-2-2V32.7c0-0.5,0.2-1,0.6-1.4
		c0.4-0.4,0.8-0.6,1.4-0.6L64,30.9L39.2,5.6c-0.6-0.6-0.7-1.4-0.4-2.2c0.3-0.7,1-1.2,1.8-1.2h18c0.5,0,1.1,0.2,1.4,0.6l33.9,34.5
		c0.4,0.4,0.6,0.9,0.6,1.4V40c0,0.5-0.2,1.1-0.6,1.4L60,73.7C59.6,74,59.1,74.2,58.6,74.2z M45.5,70.2h12.3l32.5-30.9L57.8,6.2H45.4
		l24.9,25.2c0.6,0.6,0.7,1.4,0.4,2.2s-1,1.2-1.8,1.2L4.5,34.7v8.2h64.3c0.8,0,1.5,0.5,1.9,1.3c0.3,0.8,0.1,1.6-0.5,2.2L45.5,70.2z"
		/>
</g>
</svg>
