<svg xmlns="http://www.w3.org/2000/svg" width="67.441" height="89.897" viewBox="0 0 67.441 89.897">
  <g id="Group_22086" data-name="Group 22086" transform="translate(0 16.24) rotate(-20)">
    <g id="Group_22017" data-name="Group 22017">
      <path id="Path_20779" data-name="Path 20779" d="M9.826,64.809a2.159,2.159,0,0,0,.965.228H41.007a2.158,2.158,0,0,0,1.526-.632,16.785,16.785,0,0,0,4.949-11.947V32.662a6.471,6.471,0,0,0-8.861-6.017,6.469,6.469,0,0,0-8.633-4.317,6.471,6.471,0,0,0-8.4-4.4V6.475a6.475,6.475,0,0,0-12.95,0V30.5H6.475A6.482,6.482,0,0,0,0,36.979V48.909a17.776,17.776,0,0,0,9.826,15.9Z"/>
      <path id="Path_20780" data-name="Path 20780" d="M30,62.662A2.161,2.161,0,0,1,32.158,60.5h2.158v9.279a2.158,2.158,0,0,0,4.317,0V32.158a2.158,2.158,0,0,1,4.317,0v30.5a2.158,2.158,0,1,0,4.317,0V49.712a2.158,2.158,0,0,1,4.317,0v12.95a2.158,2.158,0,1,0,4.317,0V54.029a2.158,2.158,0,1,1,4.317,0v8.633a2.158,2.158,0,1,0,4.317,0V58.345a2.158,2.158,0,1,1,4.317,0V78.14A12.487,12.487,0,0,1,65.756,86.4H37a13.38,13.38,0,0,1-7-11.81Z" transform="translate(-25.683 -25.683)" fill="#fff"/>
    </g>
    <g id="Group_22018" data-name="Group 22018" transform="translate(4.883 67.797)">
      <path id="Path_20781" data-name="Path 20781" d="M41.531,500.912a2.952,2.952,0,0,1-.476,1.656A3.225,3.225,0,0,1,39.76,503.7a4.448,4.448,0,0,1-4.022-.159A3.5,3.5,0,0,1,34.388,502a5.338,5.338,0,0,1-.449-2.244v-.2a5.365,5.365,0,0,1,.449-2.247,3.5,3.5,0,0,1,1.346-1.549,4.041,4.041,0,0,1,2.192-.564,4.128,4.128,0,0,1,1.878.409,3.015,3.015,0,0,1,1.271,1.183,3.539,3.539,0,0,1,.457,1.831H39.2a1.536,1.536,0,0,0-.353-1.024,1.23,1.23,0,0,0-.981-.4,1.155,1.155,0,0,0-1.147.631,4.022,4.022,0,0,0-.306,1.727v.2a3.98,3.98,0,0,0,.306,1.735,1.175,1.175,0,0,0,1.164.616,1.37,1.37,0,0,0,.953-.322,1.135,1.135,0,0,0,.365-.87Z" transform="translate(-33.939 -491.739)"/>
      <path id="Path_20782" data-name="Path 20782" d="M96.144,483.438v-12.2H98.63v12.2Z" transform="translate(-87.194 -471.232)"/>
      <path id="Path_20783" data-name="Path 20783" d="M128.049,472.42a1.285,1.285,0,0,1,0,1.827,1.413,1.413,0,0,1-1,.354,1.4,1.4,0,0,1-1-.354,1.294,1.294,0,0,1,0-1.827,1.4,1.4,0,0,1,1-.353A1.415,1.415,0,0,1,128.049,472.42Zm-2.232,11.726v-8.593H128.3v8.593Z" transform="translate(-112.475 -471.94)"/>
      <path id="Path_20784" data-name="Path 20784" d="M161.471,500.912a2.953,2.953,0,0,1-.477,1.656A3.224,3.224,0,0,1,159.7,503.7a4.448,4.448,0,0,1-4.022-.159,3.5,3.5,0,0,1-1.35-1.545,5.338,5.338,0,0,1-.449-2.244v-.2a5.365,5.365,0,0,1,.449-2.247,3.5,3.5,0,0,1,1.346-1.549,4.041,4.041,0,0,1,2.192-.564,4.129,4.129,0,0,1,1.878.409,3.014,3.014,0,0,1,1.271,1.183,3.539,3.539,0,0,1,.457,1.831h-2.327a1.536,1.536,0,0,0-.353-1.024,1.231,1.231,0,0,0-.981-.4,1.155,1.155,0,0,0-1.148.631,4.025,4.025,0,0,0-.306,1.727v.2a3.983,3.983,0,0,0,.306,1.735,1.175,1.175,0,0,0,1.163.616,1.371,1.371,0,0,0,.953-.322,1.135,1.135,0,0,0,.365-.87Z" transform="translate(-136.621 -491.739)"/>
      <path id="Path_20785" data-name="Path 20785" d="M218.528,480.063l-.794.786v2.541h-2.478V471.184h2.478V477.8l.357-.469L220.2,474.8h2.97l-3.05,3.566,3.288,5.027h-2.843Z" transform="translate(-189.167 -471.184)"/>
      <path id="Path_20786" data-name="Path 20786" d="M278.954,484.919a1.242,1.242,0,0,1,.488.469,1.287,1.287,0,0,1,.175.663,1.3,1.3,0,0,1-.175.671,1.243,1.243,0,0,1-.488.469,1.6,1.6,0,0,1-1.437,0,1.242,1.242,0,0,1-.488-.469,1.3,1.3,0,0,1-.175-.671,1.284,1.284,0,0,1,.175-.663,1.241,1.241,0,0,1,.488-.469,1.6,1.6,0,0,1,1.437,0Zm-1.727-1.33-.3-7.934h2.637l-.3,7.934Z" transform="translate(-241.902 -475.012)"/>
    </g>
  </g>
</svg>
