<?xml version="1.0" encoding="utf-8"?>
<!-- Generator: Adobe Illustrator 24.0.1, SVG Export Plug-In . SVG Version: 6.00 Build 0)  -->
<svg version="1.1" id="圖層_1" xmlns="http://www.w3.org/2000/svg" xmlns:xlink="http://www.w3.org/1999/xlink" x="0px" y="0px"
	 viewBox="0 0 328 106" style="enable-background:new 0 0 328 106;" xml:space="preserve">
<style type="text/css">
	.st0{fill:#5ECAA4;}
</style>
<polygon class="st0" points="41.3,105 328,105 328,49.7 299.5,49.7 298.5,49.7 298.5,48.7 298.5,1 1,1 1,70 40.3,70 41.3,70 
	41.3,71 "/>
<polygon points="328,106 328,104 42.3,104 42.3,71 42.3,69 40.3,69 2,69 2,2 297.5,2 297.5,48.7 297.5,50.7 299.5,50.7 328,50.7 
	328,48.7 299.5,48.7 299.5,0 0,0 0,71 40.3,71 40.3,106 "/>
<g>
	<path d="M26.7,49.6V46l8-8.5c1.1-1.3,2-2.3,2.4-3.2c0.5-0.9,0.7-1.7,0.7-2.4c0-1.1-0.3-1.9-0.8-2.6c-0.5-0.6-1.3-0.9-2.3-0.9
		c-0.7,0-1.3,0.2-1.8,0.5c-0.5,0.4-0.9,0.8-1.2,1.5s-0.4,1.3-0.4,2.1h-5.2c0-1.5,0.4-2.9,1.1-4.2s1.7-2.3,3.1-3
		c1.3-0.7,2.8-1.1,4.6-1.1c1.8,0,3.2,0.3,4.5,0.8c1.2,0.6,2.1,1.4,2.8,2.4c0.6,1.1,0.9,2.3,0.9,3.8c0,1.1-0.2,2.1-0.7,3.1
		c-0.4,1-1.1,2-1.8,3c-0.8,1-1.8,2.2-3.1,3.5l-4.1,4.3h10.5v4.2H26.7z"/>
	<path d="M62.6,45.3c-0.7,1.6-1.7,2.7-2.9,3.5c-1.3,0.8-2.7,1.1-4.5,1.1c-1.7,0-3.2-0.4-4.5-1.1c-1.3-0.8-2.3-1.9-3-3.5
		c-0.7-1.6-1.1-3.6-1.1-6v-4.4c0-2.4,0.4-4.4,1.1-5.9c0.7-1.6,1.7-2.7,2.9-3.5s2.8-1.1,4.5-1.1c1.7,0,3.2,0.4,4.5,1.1
		s2.2,1.9,2.9,3.5c0.7,1.6,1.1,3.6,1.1,5.9v4.4C63.7,41.7,63.3,43.7,62.6,45.3z M57.7,29.8c-0.6-0.9-1.4-1.3-2.5-1.3
		s-1.9,0.4-2.5,1.3c-0.6,0.9-0.8,2.3-0.8,4.4V40c0,2.1,0.3,3.5,0.8,4.4c0.6,0.9,1.4,1.3,2.5,1.3c1.1,0,1.9-0.4,2.5-1.3
		s0.8-2.4,0.8-4.4v-5.8C58.5,32.2,58.2,30.7,57.7,29.8z"/>
	<path d="M66.9,49.6V46l8-8.5c1.1-1.3,2-2.3,2.4-3.2c0.5-0.9,0.7-1.7,0.7-2.4c0-1.1-0.3-1.9-0.8-2.6c-0.5-0.6-1.3-0.9-2.3-0.9
		c-0.7,0-1.3,0.2-1.8,0.5c-0.5,0.4-0.9,0.8-1.2,1.5s-0.4,1.3-0.4,2.1h-5.2c0-1.5,0.4-2.9,1.1-4.2s1.7-2.3,3.1-3
		c1.3-0.7,2.8-1.1,4.6-1.1c1.8,0,3.2,0.3,4.5,0.8c1.2,0.6,2.1,1.4,2.8,2.4c0.6,1.1,0.9,2.3,0.9,3.8c0,1.1-0.2,2.1-0.7,3.1
		c-0.4,1-1.1,2-1.8,3c-0.8,1-1.8,2.2-3.1,3.5l-4.1,4.3H84v4.2H66.9z"/>
	<path d="M102.9,45.3c-0.7,1.6-1.7,2.7-2.9,3.5c-1.3,0.8-2.7,1.1-4.5,1.1c-1.7,0-3.2-0.4-4.5-1.1c-1.3-0.8-2.3-1.9-3-3.5
		c-0.7-1.6-1.1-3.6-1.1-6v-4.4c0-2.4,0.4-4.4,1.1-5.9c0.7-1.6,1.7-2.7,2.9-3.5s2.8-1.1,4.5-1.1c1.7,0,3.2,0.4,4.5,1.1
		s2.2,1.9,2.9,3.5c0.7,1.6,1.1,3.6,1.1,5.9v4.4C103.9,41.7,103.6,43.7,102.9,45.3z M97.9,29.8c-0.6-0.9-1.4-1.3-2.5-1.3
		s-1.9,0.4-2.5,1.3c-0.6,0.9-0.8,2.3-0.8,4.4V40c0,2.1,0.3,3.5,0.8,4.4c0.6,0.9,1.4,1.3,2.5,1.3c1.1,0,1.9-0.4,2.5-1.3
		s0.8-2.4,0.8-4.4v-5.8C98.8,32.2,98.5,30.7,97.9,29.8z"/>
</g>
<g>
	<path d="M135.5,46v2.5h-24.1V46h13.1c1.4-3.3,2.9-8.6,3.8-12.5l2.8,0.5c-1.1,3.9-2.6,8.7-3.9,12H135.5z M134.4,32.3h-21.8v-2.5
		h21.8V32.3z M118.6,45c-0.4-3-1.5-7.5-2.4-11l2.5-0.6c1.1,3.5,2.1,7.9,2.6,10.9L118.6,45z M122.6,29.6c-0.2-1.2-0.8-3-1.3-4.4
		l2.5-0.6c0.5,1.3,1.1,3.1,1.4,4.3L122.6,29.6z"/>
	<path d="M159.5,38c-0.1,0.4-0.3,0.9-0.4,1.3h3.6v2.1h-4.5c-0.8,1.6-1.9,2.9-3.2,4c2.9,0.8,5.4,1.5,7.5,2.2l-2.2,1.8
		c-2-0.8-4.7-1.6-7.7-2.5c-3,1.5-7,2.2-12.3,2.6c-0.2-0.8-0.6-1.7-1-2.3c3.8-0.2,6.9-0.6,9.4-1.3c-2.1-0.5-4.2-1-6.5-1.5
		c0.8-0.9,1.8-1.9,2.6-3.1h-6.3v-2.1h7.9c0.6-0.9,1.2-1.8,1.6-2.7l1.3,0.3v-4.3c-2.5,2.5-6.2,4.6-9.7,5.7c-0.3-0.6-1-1.5-1.5-2
		c3-0.8,6.2-2.3,8.5-4.1h-7.8v-2.1h10.6V28c-2.8,0.2-5.6,0.3-8.2,0.3c-0.1-0.5-0.3-1.4-0.5-1.9c6.1-0.1,13.4-0.6,17.4-1.5l1.9,1.8
		c-2.3,0.5-5.1,0.9-8.1,1.1v2.5h10.6v2.1h-8.6c3.1,1.1,7.3,2.8,9.5,4l-1.2,1.8c-2.1-1.2-6.4-3-9.6-4.2l1.2-1.6h-1.9v5h-1.3
		c-0.4,0.6-0.7,1.3-1.2,1.9h7.2c0.2-0.6,0.5-1.2,0.6-1.9L159.5,38z M147.7,41.4c-0.5,0.7-1,1.3-1.5,1.9c1.9,0.4,3.8,0.8,5.7,1.3
		c1.4-0.8,2.5-1.9,3.4-3.2H147.7z"/>
	<path d="M176,38.5c0.5,0.9,1.1,2.2,1.3,2.9l-1.1,0.4h0.4v2.5c0,2.1-0.5,4-3.9,5.2c-0.2-0.4-0.8-1.1-1.1-1.4
		c1.6-0.5,2.4-1.2,2.8-1.9h-3.3v-3.9h1.6v2.4h2.1c0-0.1,0-0.3,0-0.4v-2.4h1.1c-0.1-0.2-0.2-0.5-0.3-0.8c-4,0.4-4.6,0.5-5,0.7
		c-0.1-0.3-0.3-1.1-0.5-1.5c0.4,0,0.9-0.3,1.4-0.7c0.3-0.2,0.8-0.6,1.4-1.2c-1.6,0.1-2,0.2-2.3,0.3c-0.1-0.4-0.3-1.2-0.5-1.6
		c0.3-0.1,0.6-0.2,0.9-0.5c0.3-0.2,1.2-1.2,1.8-2.2h-4.2v15.3h-2.4V25.9h10v8.4h-2.8l1,0.5c-0.6,0.8-1.3,1.6-2,2.3l1.8-0.1
		c0.4-0.4,0.8-0.9,1.1-1.3l1.3,0.9c-1.2,1.3-2.5,2.5-3.8,3.5l2.2-0.2c-0.2-0.4-0.3-0.7-0.5-1L176,38.5z M168.8,27.7v1.7h5.3v-1.7
		H168.8z M168.8,32.5h5.3V31h-5.3V32.5z M188.8,46.6c0,1.3-0.2,2-1,2.4c-0.8,0.4-2,0.5-3.7,0.5c-0.1-0.7-0.4-1.8-0.7-2.5
		c1.1,0,2.2,0,2.5,0c0.4,0,0.5-0.1,0.5-0.5V34.3h-5.6l1,0.5c-0.6,0.8-1.3,1.6-1.9,2.2l1.7-0.1c0.4-0.4,0.8-0.9,1.2-1.3l1.3,0.9
		c-1.2,1.3-2.5,2.5-3.8,3.5l2.2-0.2c-0.2-0.4-0.3-0.7-0.5-1l1.2-0.4c0.5,0.9,1.1,2.2,1.4,2.9l-1.3,0.5c-0.1-0.2-0.2-0.5-0.3-0.9
		c-4,0.4-4.6,0.6-5,0.8c-0.1-0.3-0.3-1.1-0.5-1.5c0.4-0.1,0.9-0.3,1.4-0.8c0.2-0.2,0.8-0.6,1.4-1.2c-1.6,0.1-2,0.2-2.3,0.4
		c-0.1-0.4-0.3-1.1-0.5-1.6c0.3-0.1,0.6-0.2,0.9-0.5c0.3-0.2,1.2-1.2,1.8-2.3h-1.7v-8.4h10.2V46.6z M182.1,46.9v-0.8H180v3.1h-1.8
		v-7.4h1.8v2.8h2.2v-2.4h1.7v4.7H182.1z M180.9,27.7v1.7h5.5v-1.7H180.9z M186.3,32.5V31h-5.5v1.6H186.3z"/>
	<path d="M200.6,46.6c-2.8,0.8-5.7,1.6-7.9,2.1l-0.4-2.2c1-0.2,2.3-0.5,3.7-0.8v-7.3h-3.4v-2.1h3.4v-2.6h-2.2v-0.9
		c-0.3,0.4-0.6,0.6-0.9,0.9c-0.1-0.6-0.5-1.9-0.8-2.6c1.7-1.5,3.5-3.9,4.5-6.5l1.6,0.9c-0.1,0.3-0.3,0.7-0.5,1.1
		c1.4,1.1,2.7,2.3,3.6,3.2l-0.9,2.1c-0.8-1.1-2.2-2.4-3.6-3.5c-0.6,1.2-1.3,2.2-2.1,3.2h5v2.1h-1.9v2.6h2.6v2.1h-2.6v6.9l2.7-0.6
		L200.6,46.6z M194.6,39.6c0.4,1.5,0.7,3.5,0.8,4.8l-1.5,0.5c-0.1-1.3-0.4-3.3-0.8-4.9L194.6,39.6z M198.1,44.1
		c0.3-1.3,0.8-3.3,0.9-4.7l1.6,0.5c-0.4,1.6-0.9,3.5-1.2,4.7L198.1,44.1z M206.1,34.5c-0.2,3.9-0.7,6.9-1.5,9.3
		c2.1,2.7,4.9,3.3,8,3.3c0.7,0,3.3,0,4.3,0c-0.3,0.5-0.6,1.5-0.7,2.1h-3.7c-3.5,0-6.5-0.6-8.7-3.3c-0.8,1.6-1.8,2.8-3.1,3.8
		c-0.3-0.5-0.8-1.3-1.2-1.7c1.3-0.8,2.2-2.2,2.9-3.9c-0.6-1.2-1.3-2.8-1.7-4.6l1.6-0.6c0.2,1,0.6,2,0.9,2.8c0.3-1.5,0.6-3.2,0.8-5.1
		h-3.5c0.8-2,1.9-5,2.8-7.6h-2.3v-2.2h5.1c-0.8,2.5-1.8,5.5-2.7,7.8h1.2l0.4-0.1L206.1,34.5z M209.8,28.8h-3.1v-1.9h3.1v-2.1h2v2.1
		h3.7v3.6h1.4v1.9h-1.4V36h-3.7v1.6h4v2h-4v1.8h4.5v2h-4.5v2.9h-2v-2.9H206v-2h3.8v-1.8h-3.2v-2h3.2V36h-3.1v-1.9h3.1v-1.8h-3.9
		v-1.9h3.9V28.8z M211.8,28.8v1.7h1.9v-1.7H211.8z M213.6,32.4h-1.9v1.8h1.9V32.4z"/>
	<path d="M242.1,32.1c-0.7,4.3-1.7,7.8-3.3,10.7c1.4,2,3.2,3.6,5.3,4.6c-0.6,0.5-1.3,1.5-1.7,2.1c-2.1-1.1-3.8-2.6-5.2-4.5
		c-1.5,1.9-3.4,3.4-5.8,4.6c-0.2-0.6-1-1.7-1.5-2.2c2.5-1.2,4.4-2.7,5.9-4.7c-1.1-2-1.9-4.3-2.5-6.8c-0.5,0.8-0.9,1.5-1.4,2.2
		c-0.3-0.4-1-0.9-1.5-1.4h-3v6.2l4.2-0.9l0.2,2.3c-4.4,1.1-9.2,2.2-12.5,2.9l-0.5-2.5l1.5-0.3V32.7h2.3v11.3l2.3-0.5V29h-5.5v-2.4
		h12.3V29h-4.3v5.3h3.4v0.8c1.8-2.7,2.9-6.5,3.6-10.4l2.5,0.4c-0.3,1.6-0.7,3.1-1.1,4.5h8.1v2.3H242.1z M234.8,32.5
		c0.6,2.8,1.3,5.5,2.5,7.7c1.1-2.3,1.8-5,2.3-8.2H235L234.8,32.5z"/>
	<path d="M260,41c2.2,2.2,6.3,4.5,11,5.4c-0.5,0.5-1.2,1.6-1.6,2.2c-3.8-1-7.2-3-9.4-5v5.9h-2.7v-6c-2.6,2.4-6,4.2-9.6,5.2
		c-0.3-0.6-1.1-1.6-1.6-2.1c4.4-1,8.8-3.2,11.1-6v-2.1h-6v5h-2.6v-7.1h8.6v-1.8h-10.4v-2.2h10.4v-1.6h2.2c-0.5-0.4-1.2-1-1.7-1.3
		c1.5-1.2,2.7-3.1,3.3-5l2.3,0.6c-0.2,0.5-0.4,0.9-0.6,1.4h7.7v2h-5.3c0.9,0.6,1.8,1.5,2.3,2.1l-1.7,1.5c-0.6-0.7-1.8-1.8-2.8-2.6
		l1.2-0.9h-2.6c-0.6,0.9-1.2,1.7-1.9,2.3h0.1v1.6h10v2.2h-10v1.8h8.6v4.8c0,1.1-0.2,1.6-1,2c-0.8,0.3-2,0.4-3.5,0.4
		c-0.2-0.6-0.6-1.4-0.9-2c1,0.1,2.1,0.1,2.3,0c0.3,0,0.4-0.1,0.4-0.4v-2.6h-6V41z M250.7,28.5c-0.9,1.3-1.8,2.6-2.8,3.5
		c-0.4-0.4-1.2-1.3-1.7-1.6c1.6-1.4,3.1-3.6,3.9-5.8l2.2,0.6c-0.2,0.5-0.4,0.9-0.6,1.3h6.5v2h-4.5c0.8,0.7,1.7,1.6,2.2,2.1l-1.6,1.4
		c-0.5-0.7-1.7-1.9-2.6-2.7l1-0.8H250.7z"/>
</g>
<g>
	<path d="M82.6,84.4c-0.8,2.2-2.2,4.4-3.7,5.8c-0.5-0.4-1.5-1.1-2-1.5c1.4-1.2,2.6-3,3.3-4.9L82.6,84.4z M88.1,83.4h-9.6v-17h9.6
		V83.4z M85.6,68.4h-4.8v3h4.8V68.4z M85.6,73.3h-4.8v3h4.8V73.3z M85.6,78.3h-4.8v3.1h4.8V78.3z M86,83.8c1.1,1.3,2.4,3.1,2.9,4.3
		l-2.1,1.1c-0.5-1.2-1.7-3.1-2.8-4.5L86,83.8z M101.9,74h-3.2v13.1c0,1.3-0.3,2.1-1.1,2.5c-0.8,0.4-2.1,0.5-4.1,0.5
		c-0.1-0.7-0.5-1.8-0.9-2.5c1.4,0.1,2.7,0.1,3.1,0c0.4,0,0.6-0.1,0.6-0.6v-9.9c-1.7,3.5-4,6.7-6.4,8.6c-0.4-0.5-1.2-1.4-1.7-1.8
		c2.9-2.1,5.6-6,7.2-10h-6.5v-2.3h7.4v-6.2h2.5v6.2h3.2V74z"/>
	<path d="M127.5,71.1c0,0,0,0.9-0.1,1.2c-0.6,10.9-1.1,14.9-2.3,16.3c-0.7,0.9-1.4,1.1-2.5,1.2c-1,0.1-2.7,0.1-4.3,0
		c-0.1-0.7-0.4-1.8-0.9-2.6c1.8,0.2,3.4,0.2,4.1,0.2c0.6,0,0.9-0.1,1.2-0.4c0.9-0.9,1.5-4.6,1.9-13.4h-8.4
		c-0.4,5.6-2.2,12.1-9.9,16.6c-0.4-0.6-1.3-1.6-1.9-2c7-4,8.8-9.7,9.2-14.6h-8.4v-2.6h8.5v-0.7v-5h2.6v5v0.7H127.5z"/>
	<path d="M140.9,80l-2.3,2c-1.7-2.1-4-4.4-5.9-6l2.2-1.9C136.8,75.6,139.3,78.1,140.9,80z"/>
	<path d="M169.2,84.3h-8.3c2.8,1.2,5.7,2.7,7.6,3.9l-1.7,1.9c-1.7-1.1-4.6-2.8-7.3-4l1.3-1.7h-16.1v-2.2h2.3l-0.4-14.8
		c1.7-0.5,3.7-1.2,5.1-1.8l1,2h3.2v-2h2.1v2h3.5v1.9H158v1.2h3.2v6.8H158v1.3h3.7l0,1.8H158v1.7h6.6c0.1-0.9,0.1-1.9,0.2-3H162V77
		h2.9c0.1-1,0.1-2,0.1-3h-2.8v-2.1h2.9c0-1.1,0-2.1,0-3.1h-3.2v-2.2h5.6c-0.1,5-0.3,11.5-0.6,15.6h2.3V84.3z M154.6,86
		c-2.1,1.5-5.2,3.1-7.6,4.1c-0.5-0.5-1.3-1.3-1.9-1.8c2.5-0.9,5.6-2.6,7.2-3.9L154.6,86z M149.4,82.1h6.5v-1.7h-3.8l0-1.8h3.8v-1.3
		h-3.2v-6.8h3.2v-1.2h-3.5v-1.5c-1.1,0.4-2.3,0.6-3.4,0.9l0.1,2.9h2.7v2.1h-2.7l0.1,3h2.7V79h-2.7L149.4,82.1z M154.2,71.9v1.4h1.9
		v-1.4H154.2z M154.2,74.5V76h1.9v-1.5H154.2z M159.6,71.9h-1.9v1.4h1.9V71.9z M159.6,74.5h-1.9V76h1.9V74.5z"/>
	<path d="M171.3,77.5c0.6-1.8,1.1-4.8,1.3-6.9l2,0.2c-0.2,2.2-0.6,5.3-1.3,7.3L171.3,77.5z M179.2,74c-0.3-1-0.9-2.5-1.5-3.8v19.9
		h-2.3V65.3h2.3v4.4l1.5-0.7c0.7,1.3,1.4,3.1,1.8,4.1L179.2,74z M194.7,87.6c0,1.2-0.2,1.8-1.1,2.1c-0.8,0.4-2.1,0.4-4,0.4
		c-0.1-0.6-0.4-1.6-0.7-2.1c1.2,0.1,2.6,0,2.9,0c0.4,0,0.5-0.1,0.5-0.5V86h-8.8c-0.3,1.6-0.9,3.1-1.9,4.4c-0.3-0.5-1.3-1.4-1.8-1.7
		c1.5-1.9,1.6-4.6,1.6-6.7v-4.9h13.2V87.6z M196.3,73.9v1.9h-16.4v-1.9h6.8v-1.6h-5.4v-1.8h5.4v-1.4h-6.2v-1.9h6.2v-2h2.5v2h6.2v1.9
		h-6.2v1.4h5.5v1.8h-5.5v1.6H196.3z M192.3,84.2v-1.7h-8.5c0,0.5-0.1,1.1-0.1,1.7H192.3z M183.9,78.9v1.8h8.5v-1.8H183.9z"/>
	<path d="M212.2,87.2h10.2v2.3h-22.8v-2.3h9.9v-4h-7.3V81h7.3v-3.7h-6v-2.2c-1.2,0.8-2.4,1.6-3.5,2.2c-0.4-0.6-1-1.5-1.6-2.1
		c3.2-1.4,6.9-4.1,9.5-6.8h-4.3v-2.3h8.6c2.4,3.6,6.9,7.1,11.3,8.8c-0.5,0.5-1.3,1.6-1.7,2.3c-1.2-0.5-2.3-1.2-3.5-2v2.1h-6.2V81
		h7.3v2.2h-7.3V87.2z M203.6,75.1h14.7c-2.8-1.9-5.4-4.3-7.3-6.7C209,70.8,206.3,73.2,203.6,75.1z"/>
	<path d="M243.7,68.8c-0.5,3.2-1.8,5.6-5.1,7.1c-0.2-0.5-0.7-1.1-1.2-1.6v13.2c0,1.1-0.2,1.8-0.9,2.2c-0.8,0.4-1.8,0.4-3.6,0.4
		c-0.1-0.6-0.5-1.6-0.8-2.1c1.3,0,2.4,0,2.8,0c0.4,0,0.5-0.1,0.5-0.5v-4.4h-6c-0.2,2.5-0.8,5.1-2.1,7c-0.4-0.3-1.3-0.9-1.8-1.1
		c1.8-2.8,2-6.8,2-9.8v-4.3l-0.2,0.3c-0.4-0.4-1.3-1.2-1.8-1.5c1.9-2,3.3-5.2,4.1-8.4l2.3,0.5c-0.2,0.6-0.4,1.3-0.6,1.9h2.8l0.4-0.1
		l1.5,0.9c-0.4,1.1-1,2.4-1.6,3.6h3.2v1.9c2.6-1.1,3.5-3,4-5.3H238v-2.1h11.7c0,0,0,0.6,0,0.9c-0.2,4.4-0.4,6.2-1,6.8
		c-0.4,0.5-0.8,0.7-1.5,0.8c-0.6,0.1-1.6,0.1-2.7,0c-0.1-0.6-0.3-1.5-0.6-2.1c0.9,0.1,1.8,0.1,2.2,0.1c0.4,0,0.6,0,0.7-0.2
		c0.3-0.3,0.5-1.4,0.6-4.2H243.7z M230.4,69.7c-0.4,0.8-0.7,1.7-1.1,2.4h2.8c0.4-0.7,0.7-1.6,1-2.4H230.4z M229.5,79.3
		c0,0.6,0,1.3,0,1.9h2.1v-2.7h-2.1V79.3z M229.5,76.6h2.1V74h-2.1V76.6z M233.3,76.6h2V74h-2V76.6z M235.3,81.2v-2.7h-2v2.7H235.3z
		 M250.5,85.2h-4.9V90h-2.4v-4.8h-5.3v-2.2h5.3v-2.9h-2.6c-0.4,0.9-0.8,1.7-1.3,2.4c-0.4-0.3-1.4-0.8-1.9-1c1.1-1.5,1.9-3.7,2.3-5.9
		l2.1,0.4c-0.1,0.6-0.3,1.3-0.5,1.9h1.9v-2.6h2.4V78h4.4v2.2h-4.4v2.9h4.9V85.2z"/>
	<path d="M261.5,81.4c-0.4-0.9-1.3-2.4-2.1-3.7v12.4H257V78.4c-0.9,2.7-2.1,5.3-3.3,6.9c-0.3-0.7-0.9-1.7-1.3-2.3
		c1.8-2.2,3.5-6.2,4.3-9.6h-3.6V71h3.9v-5.6h2.4V71h3.9v2.4h-3.9v1.2c1,1.2,3.1,4.1,3.6,4.9L261.5,81.4z M277.3,76.8h-3.7v13.3h-2.5
		V76.8h-4.3c0,4.1-0.5,9.6-3,13.3c-0.4-0.4-1.5-1-2.1-1.3c2.5-3.5,2.7-8.7,2.7-12.4v-8.1c3.3-0.6,7.1-1.6,9.2-2.6l2.1,2
		c-2.5,1.1-5.9,1.9-9,2.5v4.4h10.5V76.8z"/>
</g>
</svg>
