<?xml version="1.0" encoding="utf-8"?>
<!-- Generator: Adobe Illustrator 23.1.0, SVG Export Plug-In . SVG Version: 6.00 Build 0)  -->
<svg version="1.1" id="圖層_1" xmlns="http://www.w3.org/2000/svg" xmlns:xlink="http://www.w3.org/1999/xlink" x="0px" y="0px"
	 viewBox="0 0 328 122.1" style="enable-background:new 0 0 328 122.1;" xml:space="preserve">
<style type="text/css">
	.st0{fill:#5ECAA4;}
	.st1{enable-background:new    ;}
	.st2{fill:#FFFFFF;}
</style>
<g>
	<g id="Subtraction_1" transform="translate(355 280)">
		<path class="st0" d="M-63.5-159.1h-215.4v-48.7v-1.2h-1.2h-73.6v-69.8h326.2v80.9h-34.8h-1.2v1.2V-159.1z"/>
		<path d="M-64.8-160.3v-36.3v-2.5h2.5h33.5v-78.4h-323.8v67.3h72.4h2.5v2.5v47.5H-64.8 M-62.3-157.9L-62.3-157.9h-217.9v-49.9H-355
			V-280h328.7v83.4h-36V-157.9L-62.3-157.9z"/>
	</g>
	<g class="st1">
		<path class="st2" d="M41.6,32.1c1.3,0.9,2.3,2.1,3,3.7c0.7,1.6,1,3.2,1,5.1c0,2-0.4,3.7-1.1,5.3s-2,2.8-3.4,3.7
			c-1.5,0.9-3.3,1.4-5.2,1.4c-2.1,0-3.9-0.6-5.5-1.6c-1.6-1.1-2.7-2.5-3.5-4.3s-1.2-3.8-1.2-6v-2c0-3.2,0.5-6.1,1.6-8.6
			c1.1-2.5,2.7-4.6,4.9-6.1c2.2-1.5,5.1-2.3,8.5-2.3H41v4.3h-0.3c-2,0-3.9,0.4-5.2,1.1s-2.5,1.8-3.3,3c-0.7,1.2-1.2,2.8-1.5,4.4
			c0.7-0.8,1.6-1.5,2.7-1.9c1.1-0.4,2.2-0.7,3.4-0.7C38.7,30.7,40.3,31.1,41.6,32.1z M38.1,46.3c0.7-0.5,1.3-1.2,1.6-2.1
			c0.4-0.9,0.6-2,0.6-3.1s-0.2-2.1-0.6-3.1c-0.4-1-0.9-1.6-1.6-2.2s-1.6-0.8-2.6-0.8c-1.1,0-2.1,0.3-3,0.9c-0.9,0.7-1.6,1.4-2,2.4
			v1.6c0,1.6,0.2,2.9,0.7,3.9c0.4,1.1,1.1,1.9,1.8,2.5s1.6,0.8,2.5,0.8C36.6,47,37.4,46.8,38.1,46.3z"/>
		<path class="st2" d="M70.4,44.1h-3.8v6.7h-5.2v-6.7h-13l-0.1-3.2l13-20.4h4.2h1.1v19.4h3.8V44.1z M61.5,39.9V27.5l-0.4,0.7
			l-7.4,11.7C53.7,39.9,61.5,39.9,61.5,39.9z"/>
		<path class="st2" d="M81.9,50.8h-5.5l12.1-26.1H72.9v-4.2H94v2.9L81.9,50.8z"/>
	</g>
	<g class="st1">
		<path class="st2" d="M135.8,85.2c-1.6,2.4-3.5,4.6-5.7,6.6v8.3c0,2-0.4,3-1.8,3.6c-1.4,0.6-3.6,0.6-7,0.6
			c-0.2-0.9-0.7-2.5-1.1-3.4c2.5,0.2,4.9,0.1,5.7,0.1c0.7,0,0.9-0.2,0.9-0.9v-5.5c-5.7,4.3-12.5,7.4-19.7,9.5
			c-0.4-0.7-1.5-2.2-2.1-3c6.5-1.6,12.5-4.1,17.5-7.5c-6,0.5-11.7,0.9-16,1.3l-0.3-2.9c1.3-0.1,2.8-0.2,4.3-0.2V76.1h7
			c0.5-1.1,1-2.4,1.2-3.4l3.9,0.5c-0.5,1-1.1,2-1.6,2.9h9v11.1c0.9-1.1,1.8-2.2,2.6-3.4L135.8,85.2z M113.7,78.9v2.7h13.1v-2.7
			H113.7z M113.7,86.5h13.1v-2.5h-13.1V86.5z M113.7,91.6c4-0.2,8.5-0.6,12.9-0.9l0.2-0.2v-1.6h-13.1V91.6z"/>
		<path class="st2" d="M148.4,73.7c-0.7,2.3-1.6,4.6-2.7,6.8v23.9h-3V86.1c-0.9,1.4-1.8,2.7-2.8,3.8c-0.2-0.8-1.1-2.6-1.6-3.4
			c2.9-3.4,5.5-8.4,7.1-13.6L148.4,73.7z M155.5,99.3l2.2,1.6c-2.1,1.6-5.5,2.8-8.6,3.5c-0.4-0.7-1.1-1.6-1.7-2.2
			c3-0.6,6.1-1.7,8-2.9h-5.5V86.8h19.1v12.5C168.9,99.3,155.5,99.3,155.5,99.3z M155.1,76.8h-6.5v-2.4h21.9v2.4h-7v1.8h6v6.8h-20.1
			v-6.8h5.8L155.1,76.8L155.1,76.8z M152,83.4h3v-2.9h-3V83.4z M152.9,90.4h13v-1.6h-13V90.4z M152.9,93.9h13v-1.7h-13V93.9z
			 M152.9,97.4h13v-1.7h-13V97.4z M160.7,76.8h-3.2v1.8h3.2V76.8z M157.6,83.4h3.2v-2.9h-3.2V83.4z M162.9,99.3c3,1,6.3,2.3,8.3,3.3
			l-2.8,1.8c-1.7-1-4.7-2.3-7.5-3.3L162.9,99.3z M163.4,80.5v2.9h3.1v-2.9H163.4z"/>
		<path class="st2" d="M191.9,85.6c2.4,7.1,6.6,13,13.2,15.7c-0.8,0.7-1.9,2-2.4,3c-6.5-3-10.6-8.6-13.3-15.9
			c-1.7,6.2-5.5,12.2-13.3,15.9c-0.5-0.8-1.6-2-2.5-2.7c8.2-3.6,11.6-9.8,13-16h-12.2v-3.3h12.8c0.4-3.4,0.4-6.7,0.4-9.5h3.4
			c0,2.8-0.1,6.1-0.5,9.5h13.9v3.3L191.9,85.6L191.9,85.6z"/>
		<path class="st2" d="M239.1,88.3c0,0,0,0.8,0,1.3c-0.4,8.9-0.9,12.3-1.9,13.4c-0.6,0.7-1.2,1.1-2.1,1.1c-0.9,0.1-2.4,0.1-3.9,0
			c0-0.7-0.2-1.6-0.6-2.4h-6.2c-3,0-3.9-1-3.9-3.9v-3.7c-0.7,0.7-1.2,1.1-1.8,1.7c-0.4-0.7-1.4-2-2-2.7c1-0.7,1.9-1.5,2.8-2.4
			l-3.7,1.1v8.6c0,1.7-0.4,2.5-1.4,3c-1,0.5-2.5,0.6-4.9,0.6c-0.2-0.8-0.6-2.1-1-3c1.6,0.1,3.1,0.1,3.5,0.1c0.5,0,0.7-0.2,0.7-0.7
			v-7.8l-4.5,1.3l-0.5-3.2c1.4-0.3,3.1-0.7,4.9-1.2v-7.1h-4.7v-3h4.7v-6.7h3v6.7h3.5v3h-3.5v6.4c1.1-0.3,2.4-0.7,3.5-1l0.4,2.8
			c1.3-1.3,2.5-2.8,3.4-4.3h-2.1v-12h16.2v12h-10.7c-0.3,0.7-0.7,1.4-1.2,2H239.1z M233.6,101.5c0.5,0,0.8-0.1,1.1-0.4
			c0.6-0.7,1-3.4,1.3-10.1h-12.7c-0.2,0.4-0.6,0.7-0.8,1.1h0.7v6c0,1,0.2,1.3,1.1,1.3h6.2c0.8,0,2.1-0.1,2.8-0.2
			C233.4,99.8,233.4,100.8,233.6,101.5L233.6,101.5z M230.8,91.7c-0.2,0.7-0.5,1.5-0.9,2.1c1.5,1.1,3.3,2.5,4.2,3.4l-1.6,1.6
			c-0.8-0.9-2.2-2.2-3.6-3.3c-1,1.4-2.2,2.5-3.7,3.4c-0.3-0.5-1.1-1.3-1.5-1.7c2.4-1.3,4.1-3.6,4.7-6L230.8,91.7z M223.8,79h10.5
			v-2.4h-10.5V79z M223.8,83.8h10.5v-2.5h-10.5V83.8z"/>
		<path class="st2" d="M256.2,92c-2,0-3.2-0.2-4-0.7c-2.6,1.1-5.3,2-8,2.9c-0.4-0.7-1.3-2-1.9-2.7c3-0.7,6.1-1.7,8.9-2.9v-0.2v-6.2
			h2.9v5.2c4.1-2,7.8-4.6,10.2-7.7l2.7,1.4c-2.8,3.4-6.6,6.2-11,8.5h0.4h6.4c1.6,0,1.9-0.5,2-3.5c0.7,0.4,1.8,0.8,2.6,1
			c-0.4,4.1-1.2,5.1-4.4,5.1L256.2,92L256.2,92z M249.8,83.8c-1.1,2.1-2.5,4.8-4.5,6.3l-2.5-1.6c1.9-1.5,3.5-3.9,4.4-6L249.8,83.8z
			 M246.8,82.5h-3.1v-6.9h13c-0.2-0.8-0.5-1.9-0.8-2.6l3-0.5c0.4,1,0.8,2.2,1.1,3.2h12.7v6.9h-3.3v-4h-22.6L246.8,82.5L246.8,82.5z
			 M267,94.3h3.2v9.9H267v-1.3h-20.5v-8.2h3.1v5.2h6.9V93h3.2v6.9h7.2L267,94.3L267,94.3z M258.8,83.9c-1.2-1.1-3.8-2.7-5.8-3.6
			l1.6-1.9c2,0.8,4.7,2.2,6,3.4L258.8,83.9z M268.1,82.7c2.1,1.8,4.6,4.4,5.7,6.2l-2.5,1.7c-1.1-1.7-3.5-4.4-5.6-6.3L268.1,82.7z"/>
	</g>
	<g class="st1">
		<path class="st2" d="M110.9,23.9c-0.9,2.4-2,4.8-3.4,7.1v23.4h-3.2V36c-0.9,1.3-1.9,2.4-2.8,3.4c-0.3-0.7-1.2-2.5-1.8-3.2
			c3.3-3.2,6.3-8.2,8.2-13.3L110.9,23.9z M131.1,49.9v3h-21.4v-3h12c1.2-4.5,2.5-11.5,3.1-16.6l3.4,0.6c-0.9,5.2-2.2,11.6-3.4,16
			C124.7,49.9,131.1,49.9,131.1,49.9z M129.8,31.9h-18.8v-3.1h18.8V31.9z M115.4,48.6c-0.2-3.6-1.2-9.7-2.1-14.4l2.9-0.7
			c1.1,4.7,2.1,10.7,2.5,14.1L115.4,48.6z M119.3,28.6c-0.2-1.5-0.9-3.7-1.6-5.4l3-0.7c0.7,1.7,1.4,3.9,1.7,5.3L119.3,28.6z"/>
		<path class="st2" d="M165.3,49.8v3.2h-30.7v-3.2h16.6c1.8-4.3,3.8-11,4.8-15.9l3.6,0.7c-1.3,5-3.3,11.1-4.9,15.2
			C154.8,49.8,165.3,49.8,165.3,49.8z M163.9,32.3h-27.8v-3.2h27.8V32.3z M143.8,48.5c-0.5-3.8-1.9-9.6-3.1-14l3.2-0.8
			c1.3,4.5,2.7,10.1,3.3,13.9L143.8,48.5z M148.9,28.9c-0.2-1.5-1.1-3.9-1.6-5.6l3.2-0.8c0.7,1.7,1.5,4,1.8,5.4L148.9,28.9z"/>
		<path class="st2" d="M195.9,39.6c-0.2,0.6-0.3,1.1-0.5,1.6h4.6v2.7h-5.8c-1.1,2-2.4,3.7-4.1,5.1c3.7,1,6.9,2,9.5,2.9l-2.9,2.3
			c-2.5-1-6-2-9.9-3.2c-3.9,1.9-9,2.8-15.7,3.3c-0.2-1-0.7-2.1-1.2-2.9c4.9-0.2,8.9-0.7,12-1.6c-2.6-0.7-5.4-1.3-8.3-1.9
			c1.1-1.1,2.2-2.5,3.4-3.9h-8v-2.7h10c0.8-1.1,1.5-2.4,2.1-3.4l1.7,0.4v-5.4c-3.2,3.2-7.9,5.9-12.4,7.3c-0.4-0.8-1.3-2-2-2.5
			c3.9-1.1,8-3,10.8-5.2h-9.9v-2.7h13.4v-2.9c-3.5,0.2-7.1,0.4-10.4,0.4c-0.1-0.7-0.4-1.8-0.7-2.5c7.8-0.2,17.1-0.8,22.2-2l2.4,2.3
			c-2.9,0.7-6.5,1.1-10.3,1.5v3.2h13.5v2.7h-11c3.9,1.4,9.3,3.6,12.1,5.1l-1.5,2.4c-2.7-1.5-8.2-3.9-12.2-5.4l1.5-2H186v6.4h-1.7
			c-0.4,0.8-0.9,1.6-1.5,2.5h9.2c0.3-0.7,0.6-1.6,0.8-2.5L195.9,39.6z M180.8,43.9c-0.7,0.8-1.3,1.6-2,2.4c2.5,0.5,4.9,1.1,7.2,1.6
			c1.8-1.1,3.2-2.4,4.3-4.1L180.8,43.9L180.8,43.9z"/>
		<path class="st2" d="M212.3,23.8c-0.7,2.5-1.6,4.9-2.8,7.3v23.3h-3V37c-0.7,1.1-1.4,2.1-2.1,3c-0.2-0.8-1.1-2.6-1.6-3.4
			c2.7-3.4,5.1-8.5,6.6-13.6L212.3,23.8z M214.7,47.7h-2.8V30h2.8V47.7z M226.4,45.6c-0.8,3.1-3.3,6.5-9.8,8.9
			c-0.4-0.7-1.4-1.8-2.1-2.4c5.6-1.7,7.8-4.1,8.5-6.5h-7.1v-2.7h7.6v-0.4v-3.5h-3.2c-0.7,1.3-1.6,2.6-2.4,3.5
			c-0.6-0.5-1.8-1.3-2.5-1.6c1.8-1.9,3.3-4.7,4.1-7.5l3,0.7c-0.2,0.8-0.6,1.6-0.8,2.4h11.9v2.6h-6.7v3.6v0.4h7.8v2.7L226.4,45.6
			L226.4,45.6z M234.4,33.2h-18.6v-2.7h11.9c0.2-1.1,0.4-2.4,0.6-3.5h-10.7v-2.6h11.3l0.5-0.2l2.2,0.2c-0.2,2-0.5,4.1-0.8,6.1h3.7
			L234.4,33.2L234.4,33.2z M228.3,46.1c2.2,2,5.2,4.6,6.7,6.2l-2.4,1.9c-1.4-1.6-4.3-4.4-6.6-6.5L228.3,46.1z"/>
		<path class="st2" d="M246.1,39.3c-0.6,3-1.5,6-2.7,8.5c0.7,0.4,1.4,1,2.7,1.7c2.4,1.5,5.5,1.6,9.5,1.6c4.2,0,10-0.3,13.8-0.8
			c-0.4,0.9-0.9,2.5-0.9,3.3c-2.6,0.2-9,0.4-13,0.4c-4.5,0-7.5-0.4-9.9-1.8c-1.4-0.8-2.6-2-3.4-2c-0.7,0-2,2.2-2.9,4.3l-2.2-3
			c0.9-1.2,1.8-2.2,2.7-3l0,0c1.3-1.9,2.4-4.6,3-7.2h-4.3c0.8-2,1.9-4.8,2.7-7.5h-3.4V31h7.5c-0.7,2.5-1.7,5.2-2.6,7.6h1.2l0.5-0.1
			L246.1,39.3z M241.7,29.6c-0.5-1.6-1.4-4-2-5.8l2.9-0.8c0.7,1.8,1.6,4.2,2.1,5.7L241.7,29.6z M256.1,45.6
			c-1.8,1.7-4.6,3.4-6.9,4.4c-0.6-0.6-1.6-1.5-2.4-2c2.4-0.8,4.8-2.1,6.4-3.4h-6.9v-2.5h5.7v-2.7h-4.4v-2.4h4.4V35h3v2.1h4.8V35h3
			v2.1h4.5v2.4h-4.5v2.7h5.9v2.5h-7.4c2.4,1.1,5,2.6,6.6,3.9l-2.8,1.4c-1.4-1.1-3.9-2.8-6.1-3.9l1.8-1.3h-7.1L256.1,45.6z
			 M256.5,31.3c-0.2,0.7-0.4,1.7-0.6,2.3c-6.7,1.1-7.8,1.4-8.4,1.7c-0.2-0.7-0.7-1.9-1.1-2.4c0.4-0.2,1-0.8,1-2V24h9.3v6.1h-6.8v2.1
			L256.5,31.3z M249.9,26.1v2h4.1v-2C254,26.1,249.9,26.1,249.9,26.1z M255,42.3h4.8v-2.7H255V42.3z M261.5,34.4
			c-2.6,0-3.3-1-3.3-3.5V24h9.5v6.1h-6.9v0.7c0,0.9,0.1,1.3,0.9,1.3h4c0.7,0,1.7-0.1,2.2-0.2c0.1,0.7,0.2,1.6,0.2,2.2
			c-0.5,0.2-1.5,0.2-2.4,0.2C265.8,34.4,261.5,34.4,261.5,34.4z M260.8,26.1v2h4.2v-2C265,26.1,260.8,26.1,260.8,26.1z"/>
		<path class="st2" d="M289.3,22.9c0,1.3-0.1,3.1-0.2,5.2c0.5,4.3,2.6,18,14.6,23.4c-0.9,0.7-1.9,1.9-2.4,2.7
			c-8.1-3.9-11.9-11.4-13.7-17.5c-1.7,6.5-5.4,13.4-13.1,17.7c-0.6-0.8-1.6-1.9-2.6-2.5c14.1-7.3,13.7-23.4,13.8-28.9
			C285.7,22.9,289.3,22.9,289.3,22.9z"/>
	</g>
</g>
</svg>
