<?xml version="1.0" encoding="utf-8"?>
<!-- Generator: Adobe Illustrator 24.0.1, SVG Export Plug-In . SVG Version: 6.00 Build 0)  -->
<svg version="1.1" id="圖層_1" xmlns="http://www.w3.org/2000/svg" xmlns:xlink="http://www.w3.org/1999/xlink" x="0px" y="0px"
	 viewBox="0 0 331 143" style="enable-background:new 0 0 331 143;" xml:space="preserve">
<style type="text/css">
	.st0{fill:#5ECAA4;}
	.st1{enable-background:new    ;}
	.st2{fill:#FFFFFF;}
</style>
<path class="st0" d="M330,142H1V46.6h52.2h1v-1V1h219.2v70.5v1h1H330V142z"/>
<path d="M329,141V73.5h-54.5h-2v-2V2H55.2v43.6v2h-2H2V141H329 M331,143L331,143L0,143V45.6h53.2V0h221.2v71.5H331V143L331,143z"/>
<g class="st1">
	<path class="st2" d="M94.7,66v-5.8l13.1-13.9c1.9-2.1,3.2-3.8,4-5.2c0.8-1.4,1.2-2.7,1.2-3.9c0-1.8-0.4-3.2-1.3-4.2
		c-0.9-1-2.1-1.5-3.7-1.5c-1.2,0-2.1,0.3-3,0.9c-0.8,0.6-1.5,1.4-1.9,2.4c-0.4,1-0.7,2.2-0.7,3.4h-8.4c0-2.5,0.6-4.7,1.8-6.8
		c1.2-2,2.8-3.7,5-4.9c2.2-1.2,4.6-1.8,7.4-1.8c2.9,0,5.3,0.5,7.3,1.4c2,0.9,3.5,2.2,4.5,4c1,1.7,1.5,3.8,1.5,6.2
		c0,1.8-0.4,3.5-1.1,5.1s-1.7,3.3-3,4.9c-1.3,1.6-3,3.5-5.1,5.7l-6.7,7h17V66H94.7z"/>
	<path class="st2" d="M153.3,59c-1.1,2.6-2.7,4.5-4.8,5.7s-4.5,1.9-7.3,1.9c-2.8,0-5.2-0.6-7.3-1.9s-3.7-3.1-4.8-5.7
		c-1.2-2.6-1.7-5.8-1.7-9.7v-7.2c0-3.9,0.6-7.1,1.7-9.7c1.1-2.6,2.7-4.5,4.8-5.7s4.5-1.8,7.3-1.8c2.8,0,5.2,0.6,7.3,1.8
		s3.7,3.1,4.8,5.7c1.1,2.6,1.7,5.8,1.7,9.7v7.2C155,53.2,154.4,56.4,153.3,59z M145.2,33.8c-0.9-1.4-2.3-2.2-4-2.2s-3.1,0.7-4,2.2
		c-0.9,1.4-1.4,3.8-1.4,7.1v9.4c0,3.4,0.5,5.8,1.4,7.2c0.9,1.4,2.3,2.2,4.1,2.2c1.8,0,3.1-0.7,4-2.2s1.3-3.9,1.3-7.2V41
		C146.6,37.7,146.1,35.3,145.2,33.8z"/>
	<path class="st2" d="M160.3,66v-5.8l13.1-13.9c1.9-2.1,3.2-3.8,4-5.2c0.8-1.4,1.2-2.7,1.2-3.9c0-1.8-0.4-3.2-1.3-4.2
		c-0.9-1-2.1-1.5-3.7-1.5c-1.2,0-2.1,0.3-3,0.9c-0.8,0.6-1.5,1.4-1.9,2.4c-0.4,1-0.7,2.2-0.7,3.4h-8.4c0-2.5,0.6-4.7,1.8-6.8
		c1.2-2,2.8-3.7,5-4.9c2.2-1.2,4.6-1.8,7.4-1.8c2.9,0,5.3,0.5,7.3,1.4c2,0.9,3.5,2.2,4.5,4c1,1.7,1.5,3.8,1.5,6.2
		c0,1.8-0.4,3.5-1.1,5.1s-1.7,3.3-3,4.9c-1.3,1.6-3,3.5-5.1,5.7l-6.7,7h17V66H160.3z"/>
	<path class="st2" d="M218.9,59c-1.1,2.6-2.7,4.5-4.8,5.7s-4.5,1.9-7.3,1.9c-2.8,0-5.2-0.6-7.3-1.9s-3.7-3.1-4.8-5.7
		c-1.2-2.6-1.7-5.8-1.7-9.7v-7.2c0-3.9,0.6-7.1,1.7-9.7c1.1-2.6,2.7-4.5,4.8-5.7c2.1-1.2,4.5-1.8,7.3-1.8c2.8,0,5.2,0.6,7.3,1.8
		c2.1,1.2,3.7,3.1,4.8,5.7c1.1,2.6,1.7,5.8,1.7,9.7v7.2C220.6,53.2,220,56.4,218.9,59z M210.8,33.8c-0.9-1.4-2.3-2.2-4-2.2
		s-3.1,0.7-4,2.2c-0.9,1.4-1.4,3.8-1.4,7.1v9.4c0,3.4,0.5,5.8,1.4,7.2c0.9,1.4,2.3,2.2,4.1,2.2c1.8,0,3.1-0.7,4-2.2s1.3-3.9,1.3-7.2
		V41C212.2,37.7,211.7,35.3,210.8,33.8z"/>
</g>
<g class="st1">
	<path class="st2" d="M66.7,110.7v3.9H29.3v-3.9h20.3c2.2-5.2,4.6-13.4,5.8-19.4l4.4,0.8c-1.6,6.1-4,13.5-6,18.6H66.7z M65,89.4
		H31.1v-3.9H65V89.4z M40.4,109.2c-0.6-4.6-2.3-11.7-3.8-17.1l3.9-1c1.6,5.5,3.3,12.3,4,17L40.4,109.2z M46.7,85.3
		c-0.3-1.8-1.3-4.7-2-6.8l3.9-1c0.8,2.1,1.8,4.9,2.2,6.6L46.7,85.3z"/>
	<path class="st2" d="M104,98.3c-0.2,0.7-0.4,1.3-0.6,2h5.6v3.3h-7.1c-1.3,2.5-2.9,4.5-5,6.2c4.5,1.2,8.4,2.4,11.6,3.5l-3.5,2.8
		c-3.1-1.2-7.3-2.5-12.1-3.9c-4.7,2.3-11,3.4-19.2,4c-0.3-1.2-0.9-2.6-1.5-3.5c6-0.3,10.8-0.9,14.7-2c-3.2-0.8-6.6-1.6-10.1-2.3
		c1.3-1.3,2.7-3,4.1-4.8h-9.8v-3.3h12.2c1-1.4,1.8-2.9,2.6-4.2l2.1,0.5V90c-3.9,3.9-9.6,7.2-15.1,8.9c-0.5-1-1.6-2.4-2.4-3.1
		c4.7-1.3,9.7-3.6,13.2-6.4H71.6v-3.3H88v-3.5c-4.3,0.3-8.7,0.5-12.7,0.5c-0.1-0.8-0.5-2.2-0.8-3c9.5-0.2,20.9-1,27.1-2.4l2.9,2.8
		c-3.5,0.8-7.9,1.3-12.6,1.8v3.9h16.5v3.3H95c4.7,1.7,11.3,4.4,14.8,6.2l-1.8,2.9c-3.3-1.8-10-4.7-14.9-6.6l1.8-2.4h-3v7.8h-2.1
		c-0.5,1-1.1,2-1.8,3h11.2c0.4-0.9,0.7-1.9,1-3L104,98.3z M85.6,103.6c-0.8,1-1.6,2-2.4,2.9c3,0.6,6,1.3,8.8,2
		c2.2-1.3,3.9-2.9,5.3-5H85.6z"/>
	<path class="st2" d="M129.7,99.1c0.8,1.5,1.6,3.4,2.1,4.5l-1.6,0.6h0.5v3.9c0,3.2-0.8,6.2-6,8c-0.3-0.7-1.2-1.8-1.8-2.2
		c2.5-0.8,3.7-1.8,4.4-2.9h-5.2v-6h2.5v3.7h3.3c0-0.2,0-0.4,0-0.6v-3.8h1.7c-0.1-0.4-0.3-0.8-0.4-1.2c-6.2,0.6-7.2,0.8-7.8,1.1
		c-0.1-0.5-0.5-1.7-0.8-2.4c0.6,0,1.4-0.5,2.2-1.1c0.4-0.3,1.2-1,2.2-1.9c-2.4,0.2-3.1,0.3-3.5,0.5c-0.1-0.5-0.5-1.8-0.8-2.4
		c0.4-0.1,0.9-0.3,1.3-0.8c0.4-0.4,1.8-1.9,2.8-3.5h-6.5v23.8h-3.7V79.4h15.6v13.1H126l1.6,0.8c-1,1.3-2,2.5-3.1,3.5l2.7-0.1
		c0.6-0.7,1.2-1.3,1.7-2.1l2.1,1.4c-1.8,2-3.9,3.8-5.9,5.4l3.5-0.3c-0.3-0.5-0.5-1.1-0.7-1.6L129.7,99.1z M118.4,82.2v2.6h8.2v-2.6
		H118.4z M118.4,89.8h8.2v-2.5h-8.2V89.8z M149.5,111.7c0,2-0.3,3.2-1.6,3.8c-1.3,0.7-3.1,0.8-5.8,0.8c-0.1-1-0.6-2.8-1.1-3.8
		c1.7,0,3.4,0,3.9,0c0.6,0,0.8-0.2,0.8-0.8V92.5h-8.7l1.6,0.8c-0.9,1.3-2,2.5-3,3.5l2.6-0.1c0.6-0.7,1.3-1.3,1.8-2.1l2.1,1.4
		c-1.8,2-3.9,3.9-5.9,5.5l3.4-0.3c-0.3-0.5-0.5-1.1-0.8-1.5l1.9-0.7c0.8,1.4,1.8,3.4,2.2,4.6l-2,0.8c-0.1-0.4-0.3-0.8-0.5-1.4
		c-6.2,0.7-7.2,0.9-7.9,1.2c-0.1-0.5-0.4-1.8-0.7-2.4c0.6-0.1,1.3-0.5,2.2-1.2c0.4-0.3,1.2-1,2.2-1.9c-2.5,0.2-3.2,0.3-3.5,0.5
		c-0.2-0.5-0.5-1.8-0.8-2.4c0.5-0.1,0.9-0.3,1.3-0.8c0.4-0.3,1.9-1.9,2.8-3.5h-2.6V79.4h15.9V111.7z M139.2,112.2v-1.2h-3.4v4.8
		h-2.8v-11.5h2.8v4.4h3.4v-3.7h2.6v7.3H139.2z M137.3,82.2v2.6h8.5v-2.6H137.3z M145.8,89.8v-2.5h-8.5v2.5H145.8z"/>
	<path class="st2" d="M168,111.7c-4.3,1.2-8.9,2.4-12.3,3.3l-0.6-3.5c1.5-0.3,3.5-0.8,5.7-1.3V98.9h-5.3v-3.3h5.3v-4h-3.4v-1.5
		c-0.5,0.5-1,1-1.4,1.5c-0.2-0.9-0.8-3-1.3-4c2.6-2.4,5.4-6.1,7-10.1l2.5,1.3c-0.2,0.5-0.5,1.1-0.7,1.6c2.1,1.6,4.2,3.5,5.5,5
		l-1.4,3.3c-1.3-1.6-3.5-3.7-5.6-5.5c-1,1.8-2.1,3.5-3.2,5h7.7v3.3h-3v4h4.1v3.3h-4.1v10.7l4.2-1L168,111.7z M158.6,100.8
		c0.6,2.3,1.1,5.4,1.3,7.4l-2.3,0.8c-0.1-2.1-0.7-5.2-1.2-7.6L158.6,100.8z M164.1,107.7c0.5-2,1.2-5.2,1.5-7.4l2.4,0.8
		c-0.6,2.5-1.3,5.5-1.9,7.3L164.1,107.7z M176.6,92.9c-0.3,6-1.1,10.7-2.3,14.5c3.2,4.2,7.6,5.1,12.5,5.1c1.1,0,5.2,0,6.7,0
		c-0.5,0.8-0.9,2.3-1.1,3.2h-5.8c-5.4,0-10.1-1-13.6-5.1c-1.2,2.5-2.8,4.4-4.7,5.9c-0.4-0.8-1.2-2-1.8-2.6c2-1.3,3.5-3.4,4.6-6.1
		c-1-1.9-2-4.3-2.7-7.1l2.6-1c0.4,1.6,0.9,3.1,1.4,4.3c0.5-2.3,1-5,1.3-7.9H168c1.3-3.2,2.9-7.7,4.3-11.8h-3.7v-3.4h7.9
		c-1.3,3.8-2.9,8.5-4.2,12.1h1.9l0.5-0.1L176.6,92.9z M182.2,84h-4.8v-2.9h4.8v-3.3h3.1v3.3h5.7v5.5h2.2v2.9H191v5.6h-5.7v2.6h6.2
		v3.1h-6.2v2.8h7.1v3.1h-7.1v4.5h-3.1v-4.5h-5.8v-3.1h5.8v-2.8h-5v-3.1h5v-2.6h-4.8v-2.9h4.8v-2.7h-6v-2.9h6V84z M185.3,84v2.6h2.9
		V84H185.3z M188.2,89.6h-2.9v2.7h2.9V89.6z"/>
	<path class="st2" d="M232.5,89.1c-1,6.7-2.6,12.2-5.2,16.6c2.1,3.2,4.9,5.6,8.3,7.2c-0.9,0.8-2.1,2.3-2.6,3.3
		c-3.3-1.7-5.9-4.1-8-7.1c-2.4,2.9-5.3,5.3-9,7.2c-0.4-0.9-1.5-2.6-2.3-3.4c3.9-1.8,6.9-4.2,9.1-7.3c-1.7-3.1-2.9-6.7-3.9-10.6
		c-0.7,1.2-1.4,2.3-2.2,3.4c-0.5-0.6-1.5-1.5-2.4-2.1h-4.7v9.7l6.6-1.4l0.4,3.5c-6.9,1.6-14.2,3.4-19.5,4.5l-0.7-3.9l2.4-0.5V90h3.5
		v17.6l3.5-0.8V84.3h-8.6v-3.8h19.1v3.8h-6.7v8.3h5.3v1.3c2.7-4.2,4.5-10,5.6-16.2l3.9,0.7c-0.5,2.4-1.1,4.8-1.7,7.1h12.6v3.7H232.5
		z M221.2,89.8c0.9,4.4,2.1,8.5,3.9,12.1c1.7-3.6,2.8-7.8,3.5-12.7h-7.1L221.2,89.8z"/>
	<path class="st2" d="M260.4,103c3.4,3.4,9.8,7,17.2,8.4c-0.8,0.8-1.9,2.4-2.5,3.4c-6-1.5-11.2-4.6-14.7-7.7v9.2h-4.2V107
		c-4,3.7-9.4,6.6-14.9,8.1c-0.5-1-1.6-2.5-2.4-3.3c6.9-1.5,13.7-5,17.3-9.3v-3.3h-9.3v7.7h-4.1v-11h13.4v-2.7H240v-3.4h16.3v-2.5
		h3.4c-0.7-0.6-1.9-1.6-2.6-2c2.3-1.9,4.2-4.8,5.2-7.8l3.6,0.9c-0.3,0.8-0.6,1.5-0.9,2.2H277v3.1h-8.2c1.3,1,2.8,2.3,3.7,3.2
		l-2.6,2.3c-0.9-1.1-2.8-2.9-4.3-4.1l1.8-1.5h-4.1c-0.9,1.4-1.9,2.6-3,3.7h0.2v2.5H276v3.4h-15.6v2.7h13.3v7.4
		c0,1.8-0.4,2.6-1.6,3.1c-1.3,0.5-3.1,0.5-5.4,0.5c-0.3-1-0.9-2.2-1.3-3.1c1.6,0.1,3.2,0.1,3.7,0c0.5,0,0.7-0.1,0.7-0.5v-4.1h-9.3
		V103z M245.9,83.6c-1.3,2.1-2.8,4-4.3,5.4c-0.5-0.6-1.9-2-2.6-2.6c2.5-2.2,4.8-5.6,6.1-9l3.5,1c-0.3,0.7-0.6,1.4-1,2.1h10v3.1h-7.1
		c1.3,1.1,2.6,2.4,3.4,3.3l-2.5,2.2c-0.8-1.1-2.6-2.9-4-4.2l1.6-1.3H245.9z"/>
</g>
</svg>
