<?xml version="1.0" encoding="utf-8"?>
<!-- Generator: Adobe Illustrator 23.1.0, SVG Export Plug-In . SVG Version: 6.00 Build 0)  -->
<svg version="1.1" id="圖層_1" xmlns="http://www.w3.org/2000/svg" xmlns:xlink="http://www.w3.org/1999/xlink" x="0px" y="0px"
	 viewBox="0 0 401 148.9" style="enable-background:new 0 0 401 148.9;" xml:space="preserve">
<style type="text/css">
	.st0{fill:#5ECAA4;}
	.st1{enable-background:new    ;}
	.st2{fill:#FFFFFF;}
</style>
<g>
	<g id="Subtraction_1" transform="translate(355 280)">
		<path class="st0" d="M0.6-132.5h-262.8v-59.4v-1.5h-1.5h-89.8v-85.1h398v98.7H2.1H0.6v1.5V-132.5z"/>
		<path d="M-0.9-134v-44.3v-3h3H43V-277h-395v82.1h88.3h3v3v57.9H-0.9 M2.1-131L2.1-131l-265.8,0v-60.9H-355V-280H46v101.7H2.1V-131
			L2.1-131z"/>
	</g>
	<g class="st1">
		<path class="st2" d="M50.8,39.2c1.6,1.1,2.8,2.6,3.6,4.5c0.8,1.9,1.2,3.9,1.2,6.2c0,2.4-0.5,4.5-1.4,6.5s-2.4,3.4-4.2,4.5
			c-1.8,1.1-4,1.7-6.4,1.7c-2.6,0-4.8-0.7-6.7-2c-1.9-1.3-3.3-3.1-4.3-5.3s-1.5-4.6-1.5-7.3v-2.5c0-3.9,0.6-7.4,1.9-10.5
			s3.3-5.6,6-7.4s6.2-2.8,10.4-2.8H50V30h-0.4c-2.5,0-4.7,0.5-6.4,1.4c-1.7,0.9-3.1,2.2-4,3.7s-1.5,3.4-1.8,5.4c0.9-1,2-1.8,3.3-2.3
			c1.3-0.5,2.7-0.8,4.2-0.8C47.2,37.5,49.2,38,50.8,39.2z M46.5,56.5c0.9-0.6,1.6-1.5,2-2.6c0.5-1.1,0.7-2.4,0.7-3.8
			c0-1.4-0.2-2.6-0.7-3.8s-1.1-2-2-2.7s-2-1-3.2-1c-1.4,0-2.6,0.4-3.7,1.1c-1.1,0.8-1.9,1.7-2.4,2.9v2c0,1.9,0.3,3.5,0.8,4.8
			c0.5,1.3,1.3,2.3,2.2,3c0.9,0.7,2,1,3.1,1C44.6,57.4,45.6,57.1,46.5,56.5z"/>
		<path class="st2" d="M85.9,53.8h-4.6V62H75v-8.2H59.1L59,49.9L74.8,25h5.1h1.4v23.7h4.6V53.8z M75,48.7V33.6l-0.5,0.8l-9,14.3H75z
			"/>
		<path class="st2" d="M99.9,62h-6.7L108,30.1H89V25h25.7v3.5L99.9,62z"/>
	</g>
	<g class="st1">
		<path class="st2" d="M165.7,104c-2,2.9-4.3,5.6-6.9,8v10.1c0,2.5-0.5,3.7-2.2,4.4c-1.7,0.7-4.4,0.7-8.5,0.7
			c-0.2-1.1-0.8-3-1.4-4.1c3,0.2,6,0.1,6.9,0.1c0.8,0,1.1-0.3,1.1-1.1v-6.7c-6.9,5.3-15.2,9-24,11.6c-0.5-0.9-1.8-2.7-2.6-3.6
			c7.9-2,15.3-5,21.4-9.1c-7.3,0.6-14.3,1.1-19.5,1.6l-0.4-3.5c1.6-0.1,3.4-0.2,5.3-0.3V92.8h8.6c0.6-1.4,1.2-2.9,1.5-4.1l4.7,0.6
			c-0.6,1.2-1.3,2.4-2,3.5h11v13.5c1.1-1.3,2.2-2.7,3.2-4.2L165.7,104z M138.7,96.2v3.3h16v-3.3H138.7z M138.7,105.5h16v-3.1h-16
			V105.5z M138.7,111.7c4.9-0.3,10.4-0.7,15.7-1.1l0.3-0.3v-1.9h-16V111.7z"/>
		<path class="st2" d="M181.1,89.9c-0.9,2.8-2,5.6-3.3,8.3v29.1h-3.7V105c-1.1,1.7-2.2,3.3-3.4,4.6c-0.3-1-1.3-3.2-1.9-4.1
			c3.5-4.1,6.7-10.3,8.7-16.6L181.1,89.9z M189.7,121.1l2.7,1.9c-2.6,1.9-6.7,3.4-10.5,4.3c-0.5-0.8-1.4-2-2.1-2.7
			c3.6-0.7,7.5-2.1,9.7-3.5h-6.7v-15.2h23.3v15.2H189.7z M189.2,93.7h-7.9v-2.9h26.7v2.9h-8.6v2.2h7.3v8.3h-24.5v-8.3h7.1V93.7z
			 M185.5,101.7h3.7v-3.5h-3.7V101.7z M186.5,110.3h15.8v-2h-15.8V110.3z M186.5,114.5h15.8v-2.1h-15.8V114.5z M186.5,118.8h15.8
			v-2.1h-15.8V118.8z M196.1,93.7h-3.9v2.2h3.9V93.7z M192.3,101.7h3.9v-3.5h-3.9V101.7z M198.7,121.2c3.6,1.2,7.7,2.8,10.1,4
			l-3.4,2.2c-2.1-1.2-5.7-2.8-9.2-4L198.7,121.2z M199.3,98.2v3.5h3.8v-3.5H199.3z"/>
		<path class="st2" d="M234.1,104.4c2.9,8.7,8.1,15.8,16.1,19.2c-1,0.8-2.3,2.5-2.9,3.7c-7.9-3.7-12.9-10.5-16.2-19.4
			c-2.1,7.6-6.7,14.9-16.2,19.4c-0.6-1-1.9-2.4-3-3.3c10-4.4,14.1-11.9,15.8-19.5h-14.9v-4h15.6c0.5-4.2,0.5-8.2,0.5-11.6h4.2
			c0,3.4-0.1,7.4-0.6,11.6h16.9v4H234.1z"/>
		<path class="st2" d="M291.7,107.7c0,0,0,1,0,1.6c-0.5,10.9-1.1,15-2.3,16.4c-0.7,0.9-1.5,1.3-2.6,1.4c-1.1,0.1-2.9,0.1-4.8,0
			c0-0.8-0.3-2-0.7-2.9h-7.6c-3.7,0-4.7-1.2-4.7-4.8v-4.5c-0.8,0.8-1.5,1.4-2.2,2.1c-0.5-0.8-1.7-2.5-2.4-3.3
			c1.2-0.8,2.3-1.8,3.4-2.9l-4.5,1.3v10.5c0,2.1-0.5,3.1-1.7,3.7c-1.2,0.6-3.1,0.7-6,0.7c-0.2-1-0.7-2.6-1.2-3.6
			c1.9,0.1,3.8,0.1,4.3,0.1c0.6,0,0.8-0.2,0.8-0.8v-9.5l-5.5,1.6l-0.6-3.9c1.7-0.4,3.8-0.9,6-1.5v-8.7h-5.7V97h5.7v-8.2h3.7V97h4.3
			v3.6h-4.3v7.8c1.4-0.4,2.9-0.8,4.3-1.2l0.5,3.4c1.6-1.6,3-3.4,4.2-5.3h-2.6V90.6h19.8v14.6h-13c-0.4,0.8-0.9,1.7-1.5,2.5H291.7z
			 M285,123.8c0.6,0,1-0.1,1.4-0.5c0.7-0.8,1.2-4.1,1.6-12.3h-15.5c-0.3,0.5-0.7,0.9-1,1.3h0.8v7.3c0,1.2,0.3,1.6,1.4,1.6h7.6
			c1,0,2.6-0.1,3.4-0.3C284.7,121.8,284.8,123,285,123.8L285,123.8z M281.6,111.9c-0.3,0.8-0.6,1.8-1.1,2.6c1.8,1.3,4,3.1,5.1,4.2
			l-2,2c-1-1.1-2.7-2.7-4.4-4c-1.2,1.7-2.7,3.1-4.5,4.1c-0.4-0.6-1.3-1.6-1.8-2.1c2.9-1.6,5-4.4,5.7-7.3L281.6,111.9z M273,96.4
			h12.8v-2.9H273V96.4z M273,102.2h12.8v-3H273V102.2z"/>
		<path class="st2" d="M312.6,112.3c-2.4,0-3.9-0.3-4.9-0.9c-3.2,1.3-6.5,2.5-9.8,3.5c-0.5-0.9-1.6-2.5-2.3-3.3
			c3.7-0.9,7.4-2.1,10.9-3.5v-0.2v-7.6h3.5v6.3c5-2.5,9.5-5.6,12.4-9.4l3.3,1.7c-3.4,4.2-8.1,7.6-13.4,10.4h0.5h7.8
			c1.9,0,2.3-0.6,2.5-4.3c0.8,0.5,2.2,1,3.2,1.2c-0.5,5-1.5,6.2-5.4,6.2H312.6z M304.7,102.2c-1.3,2.6-3.1,5.8-5.5,7.7l-3.1-1.9
			c2.3-1.8,4.3-4.7,5.4-7.3L304.7,102.2z M301.1,100.6h-3.8v-8.4h15.8c-0.3-1-0.6-2.3-1-3.2l3.7-0.6c0.5,1.2,1,2.7,1.3,3.9h15.5v8.4
			h-4v-4.9h-27.6V100.6z M325.7,115.1h3.9v12.1h-3.9v-1.6h-25v-10h3.8v6.3h8.4v-8.4h3.9v8.4h8.8V115.1z M315.7,102.4
			c-1.5-1.4-4.6-3.3-7.1-4.4l1.9-2.3c2.5,1,5.7,2.7,7.3,4.1L315.7,102.4z M327.1,100.9c2.6,2.2,5.6,5.4,7,7.6l-3,2.1
			c-1.3-2.1-4.3-5.4-6.8-7.7L327.1,100.9z"/>
	</g>
	<g class="st1">
		<path class="st2" d="M135.3,29.1c-1.1,2.9-2.5,5.9-4.1,8.7v28.5h-3.9V43.9c-1.1,1.6-2.3,2.9-3.4,4.2c-0.4-0.9-1.5-3-2.2-3.9
			c4-3.9,7.7-10,10-16.2L135.3,29.1z M159.9,60.9v3.7h-26.1v-3.7h14.6c1.5-5.5,3.1-14,3.8-20.2l4.1,0.7c-1.1,6.3-2.7,14.2-4.2,19.5
			H159.9z M158.4,38.9h-22.9v-3.8h22.9V38.9z M140.8,59.3c-0.3-4.4-1.5-11.8-2.6-17.6l3.5-0.8c1.3,5.7,2.6,13,3,17.2L140.8,59.3z
			 M145.5,34.9c-0.3-1.8-1.1-4.5-1.9-6.6l3.7-0.9c0.8,2.1,1.7,4.7,2.1,6.5L145.5,34.9z"/>
		<path class="st2" d="M201.7,60.7v3.9h-37.4v-3.9h20.3c2.2-5.2,4.6-13.4,5.8-19.4l4.4,0.8c-1.6,6.1-4,13.5-6,18.6H201.7z M200,39.4
			h-33.9v-3.9H200V39.4z M175.4,59.2c-0.6-4.6-2.3-11.7-3.8-17.1l3.9-1c1.6,5.5,3.3,12.3,4,17L175.4,59.2z M181.7,35.3
			c-0.3-1.8-1.3-4.7-2-6.8l3.9-1c0.8,2.1,1.8,4.9,2.2,6.6L181.7,35.3z"/>
		<path class="st2" d="M239,48.3c-0.2,0.7-0.4,1.3-0.6,2h5.6v3.3h-7.1c-1.3,2.5-2.9,4.5-5,6.2c4.5,1.2,8.4,2.4,11.6,3.5l-3.5,2.8
			c-3.1-1.2-7.3-2.5-12.1-3.9c-4.7,2.3-11,3.4-19.2,4c-0.3-1.2-0.9-2.6-1.5-3.5c6-0.3,10.8-0.9,14.7-2c-3.2-0.8-6.6-1.6-10.1-2.3
			c1.3-1.3,2.7-3,4.1-4.8h-9.8v-3.3h12.2c1-1.4,1.8-2.9,2.6-4.2l2.1,0.5V40c-3.9,3.9-9.6,7.2-15.1,8.9c-0.5-1-1.6-2.4-2.4-3.1
			c4.7-1.3,9.7-3.6,13.2-6.4h-12.1v-3.3H223v-3.5c-4.3,0.3-8.7,0.5-12.7,0.5c-0.1-0.8-0.5-2.2-0.8-3c9.5-0.2,20.9-1,27.1-2.4
			l2.9,2.8c-3.5,0.8-7.9,1.3-12.6,1.8v3.9h16.5v3.3H230c4.7,1.7,11.3,4.4,14.8,6.2l-1.8,2.9c-3.3-1.8-10-4.7-14.9-6.6l1.8-2.4h-3
			v7.8h-2.1c-0.5,1-1.1,2-1.8,3h11.2c0.4-0.9,0.7-1.9,1-3L239,48.3z M220.6,53.6c-0.8,1-1.6,2-2.4,2.9c3,0.6,6,1.3,8.8,2
			c2.2-1.3,3.9-2.9,5.3-5H220.6z"/>
		<path class="st2" d="M259,29c-0.9,3-2,6-3.4,8.9v28.4h-3.7V45.1c-0.8,1.3-1.7,2.6-2.6,3.7c-0.3-1-1.3-3.2-2-4.1
			c3.3-4.2,6.2-10.4,8-16.6L259,29z M261.9,58.2h-3.4V36.6h3.4V58.2z M276.2,55.6c-1,3.8-4,7.9-11.9,10.8c-0.5-0.8-1.7-2.2-2.6-2.9
			c6.8-2.1,9.5-5,10.4-7.9h-8.7v-3.3h9.3v-0.5v-4.3h-3.9c-0.9,1.6-1.9,3.2-2.9,4.3c-0.7-0.6-2.2-1.6-3-2c2.2-2.3,4-5.7,5-9.2
			l3.6,0.8c-0.3,1-0.7,1.9-1,2.9h14.5v3.2h-8.2v4.4v0.5h9.5v3.3H276.2z M286,40.5h-22.7v-3.3h14.5c0.3-1.4,0.5-2.9,0.7-4.3h-13v-3.2
			h13.8l0.6-0.2l2.7,0.3c-0.3,2.4-0.6,5-1,7.4h4.5V40.5z M278.5,56.2c2.7,2.4,6.3,5.6,8.2,7.6l-2.9,2.3c-1.7-2-5.3-5.4-8.1-7.9
			L278.5,56.2z"/>
		<path class="st2" d="M300.3,47.9c-0.7,3.6-1.8,7.3-3.3,10.4c0.8,0.5,1.7,1.2,3.3,2.1c2.9,1.8,6.7,2,11.6,2c5.1,0,12.2-0.4,16.8-1
			c-0.5,1.1-1.1,3-1.1,4c-3.2,0.2-11,0.5-15.9,0.5c-5.5,0-9.1-0.5-12.1-2.2c-1.7-1-3.2-2.4-4.2-2.4c-0.9,0-2.4,2.7-3.5,5.3l-2.7-3.6
			c1.1-1.5,2.2-2.7,3.3-3.7l0,0c1.6-2.3,2.9-5.6,3.7-8.8h-5.3c1-2.5,2.3-5.9,3.3-9.2h-4.2v-3.5h9.1c-0.9,3-2.1,6.4-3.2,9.3h1.5
			l0.6-0.1L300.3,47.9z M294.9,36.1c-0.6-1.9-1.7-4.9-2.5-7.1l3.5-1c0.8,2.2,2,5.1,2.6,6.9L294.9,36.1z M312.5,55.6
			c-2.2,2.1-5.6,4.1-8.4,5.4c-0.7-0.7-2-1.8-2.9-2.4c2.9-1,5.9-2.6,7.8-4.1h-8.4v-3h7v-3.3h-5.4v-2.9h5.4v-2.6h3.6v2.6h5.8v-2.6h3.6
			v2.6h5.5v2.9h-5.5v3.3h7.2v3h-9c2.9,1.4,6.1,3.2,8,4.7l-3.4,1.7c-1.7-1.4-4.7-3.4-7.5-4.8l2.2-1.6h-8.7L312.5,55.6z M312.9,38.2
			c-0.3,0.9-0.5,2.1-0.7,2.8c-8.2,1.4-9.5,1.7-10.3,2.1c-0.2-0.8-0.8-2.3-1.3-2.9c0.5-0.3,1.2-1,1.2-2.5v-8.4h11.4v7.5h-8.3v2.6
			L312.9,38.2z M304.9,31.8v2.4h5v-2.4H304.9z M311.1,51.6h5.8v-3.3h-5.8V51.6z M319,42c-3.2,0-4-1.2-4-4.3v-8.4h11.6v7.5h-8.4v0.9
			c0,1.1,0.1,1.6,1.1,1.6h4.9c0.8,0,2.1-0.1,2.7-0.3c0.1,0.8,0.2,2,0.3,2.7c-0.6,0.2-1.8,0.3-2.9,0.3H319z M318.2,31.8v2.4h5.1v-2.4
			H318.2z"/>
		<path class="st2" d="M353,27.9c0,1.6-0.1,3.8-0.3,6.3c0.6,5.3,3.2,22,17.8,28.5c-1.1,0.9-2.3,2.3-2.9,3.3
			c-9.9-4.7-14.5-13.9-16.7-21.4c-2.1,7.9-6.6,16.4-16,21.6c-0.7-1-1.9-2.3-3.2-3.1c17.2-8.9,16.7-28.5,16.8-35.2H353z"/>
	</g>
</g>
</svg>
