<?xml version="1.0" encoding="utf-8"?>
<!-- Generator: Adobe Illustrator 24.0.1, SVG Export Plug-In . SVG Version: 6.00 Build 0)  -->
<svg version="1.1" id="圖層_1" xmlns="http://www.w3.org/2000/svg" xmlns:xlink="http://www.w3.org/1999/xlink" x="0px" y="0px"
	 viewBox="0 0 651 202" style="enable-background:new 0 0 651 202;" xml:space="preserve">
<style type="text/css">
	.st0{fill:#FFFFFF;}
	.st1{enable-background:new    ;}
	.st2{fill:#343434;}
</style>
<path class="st0" d="M649.5,200.5H78v-65.1v-1.5h-1.5h-75V1.5h565.4l0,91.2v1.5h1.5h81.1L649.5,200.5z"/>
<path d="M648,199l0-103.3h-79.6h-3v-3l0-89.7H3v129.4h73.5h3v3V199H648 M651,202L651,202L651,202z M651,202H76.5v-66.6H0V0h568.4
	l0,92.7H651V202L651,202z"/>
<g class="st1">
	<path class="st2" d="M51.3,94.8v-7l15.9-16.8c2.2-2.5,3.8-4.6,4.8-6.3c1-1.7,1.4-3.3,1.4-4.7c0-2.2-0.5-3.8-1.6-5
		c-1.1-1.2-2.6-1.8-4.5-1.8c-1.4,0-2.6,0.3-3.6,1c-1,0.7-1.8,1.7-2.3,2.9c-0.5,1.2-0.8,2.6-0.8,4.2H50.3c0-3,0.7-5.7,2.1-8.2
		c1.4-2.5,3.4-4.4,6-5.9c2.6-1.4,5.6-2.2,9-2.2c3.5,0,6.4,0.6,8.8,1.7c2.4,1.1,4.2,2.7,5.5,4.8c1.2,2.1,1.9,4.6,1.9,7.6
		c0,2.1-0.4,4.2-1.3,6.2s-2.1,4-3.6,6c-1.6,2-3.6,4.3-6.1,6.9l-8.1,8.5H85v8.2H51.3z"/>
	<path class="st2" d="M122.2,86.3c-1.4,3.1-3.3,5.4-5.8,6.9s-5.4,2.2-8.8,2.2c-3.4,0-6.3-0.7-8.8-2.2s-4.5-3.8-5.8-6.9
		c-1.4-3.1-2.1-7-2.1-11.7v-8.7c0-4.7,0.7-8.6,2.1-11.7c1.4-3.1,3.3-5.4,5.8-6.9s5.4-2.2,8.8-2.2c3.4,0,6.3,0.7,8.8,2.2
		s4.4,3.8,5.8,6.9c1.4,3.1,2.1,7,2.1,11.7v8.7C124.2,79.3,123.6,83.2,122.2,86.3z M112.4,55.9c-1.1-1.7-2.7-2.6-4.9-2.6
		s-3.8,0.9-4.9,2.6c-1.1,1.7-1.7,4.6-1.7,8.6v11.4c0,4.1,0.6,7,1.7,8.7c1.1,1.8,2.8,2.6,4.9,2.6c2.2,0,3.8-0.9,4.9-2.6
		s1.6-4.7,1.6-8.7V64.5C114.1,60.5,113.5,57.6,112.4,55.9z"/>
	<path class="st2" d="M130.6,94.8v-7l15.9-16.8c2.2-2.5,3.8-4.6,4.8-6.3c1-1.7,1.4-3.3,1.4-4.7c0-2.2-0.5-3.8-1.6-5
		c-1.1-1.2-2.6-1.8-4.5-1.8c-1.4,0-2.6,0.3-3.6,1c-1,0.7-1.8,1.7-2.3,2.9c-0.5,1.2-0.8,2.6-0.8,4.2h-10.2c0-3,0.7-5.7,2.1-8.2
		c1.4-2.5,3.4-4.4,6-5.9c2.6-1.4,5.6-2.2,9-2.2c3.5,0,6.4,0.6,8.8,1.7c2.4,1.1,4.2,2.7,5.5,4.8c1.2,2.1,1.9,4.6,1.9,7.6
		c0,2.1-0.4,4.2-1.3,6.2s-2.1,4-3.6,6c-1.6,2-3.6,4.3-6.1,6.9l-8.1,8.5h20.6v8.2H130.6z"/>
	<path class="st2" d="M201.6,86.3c-1.4,3.1-3.3,5.4-5.8,6.9s-5.4,2.2-8.8,2.2c-3.4,0-6.3-0.7-8.8-2.2s-4.5-3.8-5.8-6.9
		c-1.4-3.1-2.1-7-2.1-11.7v-8.7c0-4.7,0.7-8.6,2.1-11.7c1.4-3.1,3.3-5.4,5.8-6.9s5.4-2.2,8.8-2.2c3.4,0,6.3,0.7,8.8,2.2
		s4.4,3.8,5.8,6.9c1.4,3.1,2.1,7,2.1,11.7v8.7C203.6,79.3,202.9,83.2,201.6,86.3z M191.8,55.9c-1.1-1.7-2.7-2.6-4.9-2.6
		s-3.8,0.9-4.9,2.6c-1.1,1.7-1.7,4.6-1.7,8.6v11.4c0,4.1,0.6,7,1.7,8.7c1.1,1.8,2.8,2.6,4.9,2.6c2.2,0,3.8-0.9,4.9-2.6
		s1.6-4.7,1.6-8.7V64.5C193.4,60.5,192.9,57.6,191.8,55.9z"/>
</g>
<g class="st1">
	<path class="st2" d="M257.2,87.3v4.9h-46.3v-4.9H236c2.7-6.4,5.7-16.6,7.2-24.1l5.5,1c-2,7.6-4.9,16.7-7.5,23H257.2z M255.1,61h-42
		v-4.9h42V61z M224.6,85.5c-0.7-5.7-2.8-14.5-4.7-21.2l4.9-1.2c2,6.8,4.1,15.3,4.9,21.1L224.6,85.5z M232.3,55.9
		c-0.4-2.3-1.6-5.8-2.5-8.5l4.8-1.2c1,2.6,2.2,6,2.8,8.2L232.3,55.9z"/>
	<path class="st2" d="M303.3,72c-0.3,0.8-0.5,1.7-0.8,2.4h7v4.1h-8.7c-1.6,3.1-3.6,5.6-6.2,7.6c5.5,1.5,10.5,3,14.4,4.3l-4.3,3.5
		c-3.8-1.5-9-3.1-14.9-4.8c-5.8,2.9-13.6,4.3-23.7,5c-0.4-1.5-1.1-3.3-1.9-4.4c7.4-0.4,13.4-1.1,18.2-2.5c-4-1-8.2-2-12.5-2.9
		c1.6-1.7,3.4-3.7,5-5.9h-12.1v-4.1h15.1c1.2-1.7,2.3-3.5,3.2-5.1l2.6,0.6v-8.3c-4.8,4.8-11.9,8.9-18.7,11.1c-0.6-1.2-2-3-3-3.8
		c5.8-1.6,12-4.4,16.3-7.9h-15V57h20.3v-4.4c-5.3,0.4-10.7,0.6-15.7,0.6c-0.1-1-0.6-2.8-1-3.7c11.8-0.3,25.8-1.2,33.5-2.9l3.6,3.4
		c-4.4,1-9.8,1.7-15.6,2.2V57h20.4v4.1h-16.6c5.9,2.1,14,5.4,18.3,7.6l-2.3,3.5c-4.1-2.2-12.3-5.8-18.4-8.2l2.2-3h-3.7v9.7h-2.6
		c-0.7,1.2-1.4,2.4-2.2,3.7h13.8c0.5-1.1,0.9-2.3,1.2-3.7L303.3,72z M280.5,78.6c-1,1.3-2,2.5-3,3.6c3.7,0.7,7.4,1.6,10.9,2.5
		c2.8-1.6,4.9-3.6,6.6-6.1H280.5z"/>
	<path class="st2" d="M335.2,72.9c0.9,1.8,2,4.3,2.5,5.6l-2,0.8h0.7v4.8c0,4-0.9,7.6-7.4,9.9c-0.4-0.8-1.5-2.2-2.2-2.8
		c3.1-0.9,4.6-2.2,5.4-3.6h-6.4v-7.5h3.1v4.6h4.1c0-0.3,0-0.5,0-0.8v-4.7h2.1c-0.2-0.5-0.4-0.9-0.5-1.5c-7.6,0.8-8.9,1-9.7,1.4
		c-0.2-0.6-0.6-2.1-0.9-3c0.8-0.1,1.7-0.6,2.8-1.4c0.5-0.4,1.5-1.2,2.8-2.4c-3,0.3-3.8,0.4-4.4,0.6c-0.2-0.7-0.6-2.2-1-3
		c0.5-0.1,1.1-0.4,1.7-0.9c0.5-0.5,2.3-2.3,3.5-4.3h-8.1v29.5h-4.6V48.6h19.3v16.2h-5.4l1.9,1c-1.2,1.6-2.5,3.1-3.8,4.4l3.4-0.2
		c0.7-0.8,1.5-1.7,2.1-2.5l2.5,1.8c-2.3,2.4-4.8,4.7-7.3,6.7l4.3-0.4c-0.3-0.7-0.6-1.4-0.9-1.9L335.2,72.9z M321.2,52.1v3.2h10.2
		v-3.2H321.2z M321.2,61.5h10.2v-3.1h-10.2V61.5z M359.7,88.5c0,2.5-0.4,3.9-1.9,4.7c-1.6,0.8-3.8,0.9-7.1,0.9
		c-0.2-1.3-0.8-3.5-1.4-4.7c2.1,0.1,4.3,0.1,4.9,0.1c0.7-0.1,0.9-0.3,0.9-1V64.9h-10.7l2,1c-1.1,1.6-2.5,3.1-3.7,4.3l3.3-0.2
		c0.8-0.8,1.6-1.7,2.2-2.6l2.5,1.8c-2.3,2.4-4.8,4.8-7.3,6.8l4.3-0.4c-0.3-0.7-0.6-1.4-0.9-1.9l2.4-0.8c1,1.8,2.2,4.2,2.7,5.7
		l-2.5,1c-0.2-0.5-0.4-1-0.7-1.7c-7.6,0.8-8.9,1.1-9.7,1.5c-0.1-0.6-0.5-2.2-0.9-2.9c0.8-0.2,1.7-0.6,2.8-1.5
		c0.5-0.4,1.5-1.2,2.7-2.4c-3.1,0.3-3.9,0.4-4.4,0.7c-0.2-0.7-0.6-2.2-1-3c0.6-0.1,1.1-0.4,1.7-0.9c0.5-0.4,2.3-2.3,3.5-4.4H340
		V48.6h19.7V88.5z M346.9,89.1v-1.5h-4.2v5.9h-3.5V79.3h3.5v5.5h4.2v-4.6h3.3v9H346.9z M344.6,52.1v3.2h10.5v-3.2H344.6z
		 M355.1,61.5v-3.1h-10.5v3.1H355.1z"/>
	<path class="st2" d="M382.5,88.5c-5.4,1.5-11,3-15.2,4.1l-0.8-4.3c1.9-0.4,4.4-1,7.1-1.6v-14H367v-4.1h6.6v-4.9h-4.3v-1.8
		c-0.6,0.7-1.2,1.2-1.8,1.8c-0.3-1.1-1-3.7-1.6-4.9c3.3-3,6.7-7.6,8.7-12.5l3.1,1.7c-0.3,0.6-0.6,1.4-0.9,2c2.7,2,5.3,4.4,6.9,6.2
		l-1.7,4.1c-1.6-2-4.3-4.6-6.9-6.8c-1.2,2.2-2.6,4.3-4,6.2h9.6v4.1H377v4.9h5.1v4.1H377v13.2l5.3-1.2L382.5,88.5z M370.9,75.1
		c0.7,2.9,1.4,6.7,1.6,9.2l-2.8,1c-0.1-2.5-0.8-6.4-1.5-9.4L370.9,75.1z M377.7,83.7c0.6-2.5,1.5-6.4,1.8-9.1l3,1
		c-0.8,3.1-1.7,6.8-2.4,9L377.7,83.7z M393.2,65.3c-0.4,7.4-1.3,13.3-2.9,17.9c4,5.1,9.5,6.3,15.5,6.3c1.4,0,6.4,0,8.3-0.1
		c-0.6,1-1.1,2.9-1.4,4h-7.2c-6.7,0-12.5-1.2-16.8-6.3c-1.5,3.1-3.4,5.4-5.9,7.3c-0.5-1-1.5-2.4-2.3-3.3c2.4-1.6,4.3-4.2,5.7-7.6
		c-1.2-2.4-2.4-5.3-3.3-8.8l3.2-1.2c0.5,2,1.1,3.8,1.8,5.3c0.7-2.9,1.2-6.1,1.6-9.8h-6.8c1.6-3.9,3.6-9.6,5.3-14.7h-4.5v-4.2h9.8
		c-1.6,4.7-3.5,10.5-5.3,15h2.4l0.7-0.1L393.2,65.3z M400.2,54.3h-6v-3.6h6v-4.1h3.8v4.1h7.1v6.9h2.8v3.6h-2.8v7H404v3.2h7.7v3.8
		H404v3.4h8.7v3.8H404v5.6h-3.8v-5.6H393v-3.8h7.2v-3.4h-6.1v-3.8h6.1v-3.2h-6v-3.6h6v-3.4h-7.5v-3.6h7.5V54.3z M404,54.3v3.3h3.6
		v-3.3H404z M407.6,61.2H404v3.4h3.6V61.2z"/>
	<path class="st2" d="M462.4,60.6c-1.3,8.3-3.3,15.1-6.4,20.6c2.7,3.9,6.1,7,10.3,8.9c-1.1,1-2.6,2.8-3.3,4.1
		c-4.1-2.1-7.3-5.1-9.9-8.7c-2.9,3.6-6.6,6.5-11.2,8.9c-0.5-1.1-1.9-3.3-2.8-4.3c4.8-2.2,8.5-5.2,11.3-9c-2.1-3.8-3.6-8.3-4.8-13.1
		c-0.9,1.5-1.8,2.9-2.7,4.2c-0.6-0.7-1.9-1.8-2.9-2.7h-5.8v12l8.2-1.7l0.5,4.4c-8.5,2-17.6,4.2-24.1,5.6l-0.9-4.8l2.9-0.6V61.7h4.4
		v21.7l4.4-0.9V54.6h-10.6v-4.7h23.6v4.7h-8.3v10.3h6.5v1.6c3.4-5.1,5.6-12.4,6.9-20l4.8,0.8c-0.6,3-1.3,5.9-2.1,8.7h15.6v4.5H462.4
		z M448.4,61.4c1.1,5.5,2.6,10.5,4.8,14.9c2.1-4.4,3.4-9.6,4.4-15.8h-8.8L448.4,61.4z"/>
	<path class="st2" d="M497,77.8c4.2,4.3,12.2,8.6,21.3,10.4c-1,1-2.4,3-3.1,4.3c-7.4-1.9-13.8-5.7-18.2-9.6v11.3h-5.1V82.8
		c-4.9,4.6-11.6,8.1-18.4,10c-0.6-1.2-2-3.1-3-4.1c8.5-1.9,16.9-6.1,21.4-11.5v-4.1h-11.5v9.6h-5.1V69h16.6v-3.4h-20.1v-4.2h20.1
		v-3.1h4.2c-0.9-0.8-2.3-1.9-3.2-2.5c2.8-2.3,5.2-5.9,6.4-9.7l4.4,1.1c-0.3,0.9-0.7,1.8-1.1,2.8h14.9v3.8h-10.2
		c1.7,1.2,3.5,2.9,4.5,4l-3.3,2.9c-1.1-1.4-3.4-3.5-5.3-5l2.2-1.8h-5c-1.1,1.7-2.4,3.3-3.7,4.5h0.2v3.1h19.3v4.2H497V69h16.5v9.2
		c0,2.2-0.5,3.2-2,3.8c-1.6,0.6-3.8,0.7-6.7,0.7c-0.3-1.2-1.1-2.8-1.7-3.8c1.9,0.1,4,0.1,4.5,0.1c0.6,0,0.8-0.2,0.8-0.7v-5H497V77.8
		z M479,53.8c-1.7,2.6-3.5,4.9-5.3,6.7c-0.7-0.8-2.3-2.4-3.3-3.2c3.1-2.8,6-7,7.6-11.2l4.3,1.2c-0.4,0.9-0.7,1.7-1.2,2.6h12.4v3.8
		h-8.7c1.6,1.4,3.2,3,4.2,4.1l-3.1,2.8c-1-1.4-3.3-3.6-5-5.3l1.9-1.6H479z"/>
</g>
<g class="st1">
	<path class="st2" d="M157.7,160c-1.6,4.2-4.3,8.5-7.1,11.1c-0.9-0.8-2.8-2.2-3.8-2.9c2.7-2.3,5-5.8,6.3-9.4L157.7,160z
		 M168.2,158.1h-18.6v-32.7h18.6V158.1z M163.5,129.3h-9.3v5.7h9.3V129.3z M163.5,138.8h-9.3v5.8h9.3V138.8z M163.5,148.2h-9.3v5.9
		h9.3V148.2z M164.2,158.8c2.2,2.5,4.6,5.9,5.6,8.3l-4.1,2.1c-1-2.4-3.3-6-5.5-8.6L164.2,158.8z M195,140.1h-6.2v25.3
		c0,2.6-0.6,4-2.2,4.8c-1.6,0.7-4.1,0.9-7.9,0.9c-0.2-1.3-1-3.4-1.7-4.7c2.7,0.1,5.1,0.1,5.9,0.1c0.8,0,1.1-0.3,1.1-1.1v-19.1
		c-3.3,6.8-7.6,12.8-12.3,16.6c-0.8-1-2.2-2.7-3.3-3.5c5.6-4,10.7-11.6,13.9-19.3h-12.5v-4.5H184v-12h4.8v12h6.2V140.1z"/>
	<path class="st2" d="M246.8,165.6v4h-38.1v-4H225v-4.3h-11.5v-3.8H225v-3.8h-9.8c-1.5,2.5-3.3,4.9-5.1,6.6
		c-0.4-0.9-1.6-3.3-2.3-4.3c-0.5,5.4-1.8,11.3-5.4,15.5c-0.7-0.9-2.8-2.6-3.7-3.1c4.2-5,4.6-12,4.6-17.3v-10.1h6.7
		c-0.7-0.7-1.5-1.6-2.1-2.1c4-0.7,8.5-1.7,12.7-2.7c-3.7-1-7.5-2-10.9-2.7l2.7-2h-8.6v-3.8h18.5c-0.7-1.2-1.6-2.4-2.4-3.4l3.4-1.6
		c1.3,1.5,2.8,3.4,3.6,5h17.6v3.8h-7.7l2.3,1.5c-2.1,1-4.6,2.1-7.3,3.1c3.5,1,6.7,2,9.3,2.9l-2.4,2.1h7.5v4H208v6.2
		c0,1.5-0.1,3.1-0.2,4.8c2.8-2.6,5.2-6.3,6.6-10.3l4.2,1.2c-0.4,1-0.8,1.9-1.2,2.9h7.7v-3.8h4.8v3.8h13.5v3.8h-13.5v3.8h12.1v3.8
		h-12.1v4.3H246.8z M236.3,141.2c-2.8-1-6.3-2.1-10-3.2c-4.3,1.3-8.6,2.3-12.7,3.2H236.3z M214.6,131.7c3.8,0.9,7.9,1.9,11.9,3
		c3.1-0.9,5.8-1.9,8-3H214.6z"/>
	<path class="st2" d="M270,151.5l-4.4,3.8c-3.3-4-7.7-8.5-11.4-11.5l4.3-3.7C262.2,143.1,267,148,270,151.5z"/>
	<path class="st2" d="M324.6,159.9h-16c5.3,2.3,11.1,5.3,14.6,7.4l-3.3,3.6c-3.3-2.2-8.9-5.4-14-7.7l2.6-3.3h-31v-4.2h4.4l-0.8-28.6
		c3.3-0.9,7.2-2.3,9.8-3.4l1.9,3.8h6.1v-3.8h4.1v3.8h6.7v3.6h-6.7v2.2h6.2v13.1h-6.2v2.5h7.2l-0.1,3.5h-7.1v3.3h12.7
		c0.1-1.7,0.2-3.7,0.3-5.8h-5.3v-4.1h5.5c0.1-1.9,0.2-3.9,0.2-5.9h-5.5v-4.1h5.6c0.1-2,0.1-4.1,0.1-6h-6.1v-4.3h10.9
		c-0.2,9.6-0.6,22.2-1.1,30.1h4.5V159.9z M296.5,163.2c-4,2.9-10,6-14.6,8c-0.9-1-2.5-2.5-3.7-3.4c4.8-1.8,10.9-5,13.9-7.5
		L296.5,163.2z M286.3,155.7h12.5v-3.3h-7.2l-0.1-3.5h7.3v-2.5h-6.2v-13.1h6.2v-2.2h-6.7v-2.8c-2.1,0.7-4.4,1.2-6.5,1.8l0.2,5.6h5.3
		v4.1h-5.1l0.2,5.8h5.3v4.1h-5.1L286.3,155.7z M295.6,135.9v2.7h3.7v-2.7H295.6z M295.6,141.1v2.8h3.7v-2.8H295.6z M306.1,135.9
		h-3.6v2.7h3.6V135.9z M306.1,141.1h-3.6v2.8h3.6V141.1z"/>
	<path class="st2" d="M328.6,146.8c1.2-3.5,2.2-9.2,2.5-13.4l3.8,0.5c-0.3,4.3-1.2,10.3-2.4,14.1L328.6,146.8z M343.8,140.1
		c-0.6-1.9-1.7-4.9-2.9-7.4V171h-4.5v-47.7h4.5v8.5l2.9-1.3c1.3,2.5,2.8,5.9,3.4,7.9L343.8,140.1z M373.6,166.2c0,2.3-0.4,3.5-2,4.1
		c-1.6,0.7-4,0.8-7.6,0.8c-0.2-1.2-0.8-3-1.4-4.1c2.4,0.1,4.9,0.1,5.6,0.1c0.7-0.1,1-0.3,1-0.9v-2.9h-17c-0.6,3-1.7,6-3.6,8.4
		c-0.6-0.9-2.5-2.7-3.5-3.3c2.9-3.7,3.2-8.8,3.2-12.8V146h25.4V166.2z M376.7,139.9v3.6h-31.6v-3.6h13.2v-3h-10.3v-3.4h10.3v-2.7
		h-11.9v-3.6h11.9v-3.8h4.8v3.8h12v3.6h-12v2.7h10.5v3.4H363v3H376.7z M369.1,159.7v-3.2h-16.3c-0.1,1-0.1,2.1-0.2,3.2H369.1z
		 M352.7,149.5v3.4h16.3v-3.4H352.7z"/>
	<path class="st2" d="M407.4,165.4h19.7v4.4h-43.9v-4.4h19.1v-7.6h-14v-4.2h14v-7.1h-11.6v-4.2c-2.3,1.6-4.6,3-6.8,4.2
		c-0.7-1.2-1.9-2.9-3-4c6.2-2.7,13.3-7.9,18.4-13.1H391v-4.5h16.6c4.6,6.9,13.3,13.7,21.7,17c-1,1-2.5,3-3.3,4.4
		c-2.2-1-4.5-2.3-6.7-3.8v4.1h-11.9v7.1h14.1v4.2h-14.1V165.4z M390.8,142.2H419c-5.4-3.6-10.3-8.2-14-12.8
		C401.2,133.9,396,138.5,390.8,142.2z"/>
	<path class="st2" d="M467.9,130c-1,6.1-3.4,10.9-9.8,13.7c-0.5-0.9-1.4-2.2-2.3-3v25.4c0,2.1-0.4,3.4-1.8,4.2
		c-1.5,0.7-3.5,0.7-6.9,0.7c-0.2-1.1-0.9-3-1.5-4.1c2.5,0.1,4.7,0.1,5.3,0.1c0.7-0.1,0.9-0.3,0.9-0.9v-8.5h-11.5
		c-0.5,4.8-1.6,9.8-4,13.6c-0.7-0.6-2.5-1.7-3.4-2.1c3.5-5.5,3.8-13.1,3.8-18.9v-8.3l-0.5,0.6c-0.8-0.7-2.5-2.2-3.5-2.9
		c3.6-3.9,6.3-9.9,7.9-16.2l4.4,1c-0.4,1.2-0.7,2.5-1.1,3.7h5.5l0.7-0.2l2.8,1.8c-0.8,2.2-2,4.7-3.1,6.9h6.2v3.7
		c4.9-2.2,6.8-5.8,7.6-10.2H457v-4h22.6c0,0,0,1.1-0.1,1.7c-0.4,8.4-0.8,11.9-1.9,13.2c-0.7,0.9-1.6,1.3-3,1.5
		c-1.1,0.2-3.2,0.2-5.3,0.1c-0.1-1.2-0.5-2.9-1.1-4c1.8,0.2,3.5,0.2,4.2,0.2c0.7,0.1,1.1-0.1,1.4-0.5c0.6-0.6,0.9-2.8,1.2-8.1H467.9
		z M442.3,131.8c-0.7,1.6-1.4,3.2-2.2,4.7h5.3c0.7-1.4,1.4-3.1,1.9-4.7H442.3z M440.6,150.2c0,1.2,0,2.4-0.1,3.7h4v-5.3h-4V150.2z
		 M440.6,145.1h4v-4.9h-4V145.1z M447.9,145.1h3.9v-4.9h-3.9V145.1z M451.8,153.9v-5.3h-3.9v5.3H451.8z M481,161.7h-9.5v9.2H467
		v-9.2h-10.3v-4.2H467v-5.6h-5.1c-0.7,1.8-1.6,3.3-2.4,4.6c-0.8-0.6-2.7-1.5-3.6-1.9c2.1-2.9,3.6-7.1,4.5-11.4l4,0.8
		c-0.3,1.2-0.6,2.5-0.9,3.7h3.6v-5h4.6v5h8.5v4.2h-8.5v5.6h9.5V161.7z"/>
	<path class="st2" d="M502.2,154.4c-0.8-1.7-2.5-4.6-4.1-7.1v23.9h-4.6v-22.6c-1.8,5.3-4,10.2-6.4,13.4c-0.5-1.4-1.7-3.3-2.4-4.5
		c3.4-4.2,6.7-11.9,8.3-18.6h-6.9v-4.6h7.4v-10.9h4.6v10.9h7.4v4.6h-7.4v2.4c1.9,2.3,6,7.9,7,9.4L502.2,154.4z M532.7,145.5h-7.1
		v25.6h-4.8v-25.6h-8.3c-0.1,7.9-0.9,18.6-5.7,25.5c-0.8-0.8-2.9-2-4-2.4c4.7-6.8,5.1-16.7,5.1-23.9V129c6.4-1.2,13.6-3.1,17.8-5.1
		l4.1,3.8c-4.8,2-11.3,3.6-17.3,4.7v8.4h20.2V145.5z"/>
</g>
</svg>
