<?xml version="1.0" encoding="utf-8"?>
<!-- Generator: Adobe Illustrator 23.1.0, SVG Export Plug-In . SVG Version: 6.00 Build 0)  -->
<svg version="1.1" id="圖層_1" xmlns="http://www.w3.org/2000/svg" xmlns:xlink="http://www.w3.org/1999/xlink" x="0px" y="0px"
	 viewBox="0 0 168.6 42" style="enable-background:new 0 0 168.6 42;" xml:space="preserve">
<style type="text/css">
	.st0{fill:#22AFE3;}
	.st1{fill:#FFFFFF;}
</style>
<rect class="st0" width="168.6" height="42"/>
<path d="M168.6,42H0V0h168.6V42z M1.5,40h165.7V2H1.5V40z"/>
<g>
	<path class="st1" d="M36.6,26.8c-0.7,1.7-1.7,3.4-2.8,4.5c-0.3-0.3-0.9-0.7-1.3-0.9c1.1-1,2-2.4,2.6-3.9L36.6,26.8z M41,26h-7.4
		V12.8H41V26z M39.5,14.1h-4.4v2.7h4.4V14.1z M39.5,18h-4.4v2.7h4.4V18z M39.5,22h-4.4v2.7h4.4V22z M39.3,26.4
		c0.9,1,1.9,2.4,2.3,3.4l-1.3,0.7c-0.4-1-1.4-2.4-2.2-3.5L39.3,26.4z M51.9,18.5h-2.7v10.9c0,0.9-0.2,1.4-0.8,1.7
		c-0.6,0.3-1.6,0.3-3.2,0.3c-0.1-0.4-0.3-1.1-0.5-1.5c1.2,0,2.2,0,2.5,0c0.3,0,0.5-0.1,0.5-0.5v-8.8c-1.4,3.1-3.4,5.8-5.4,7.5
		c-0.3-0.4-0.7-0.9-1.1-1.2c2.4-1.7,4.6-5,6-8.3h-5.5V17h6.1v-4.9h1.5V17h2.7V18.5z"/>
	<path class="st1" d="M57,20.6v3.1c0,2.4-0.4,5.6-2.3,7.8c-0.2-0.3-0.8-0.8-1.2-1c1.7-2,1.9-4.7,1.9-6.8v-4.4h2.7
		c-0.2-0.3-0.5-0.6-0.8-0.8c1.7-0.3,3.6-0.7,5.4-1.2c-1.6-0.5-3.3-0.9-4.8-1.2l0.9-0.8h-3.4v-1.3h7.8c-0.4-0.5-0.8-1.1-1.1-1.6
		l1.1-0.6c0.5,0.6,1.2,1.5,1.6,2.1H72v1.3h-3.2l0.8,0.5c-0.9,0.5-2,1-3.2,1.4c1.5,0.5,3,0.9,4,1.3l-0.8,0.8h3.1v1.3H57z M73,29.3
		v1.3H57.4v-1.3h6.9v-2.1h-4.9v-1.3h4.9V24h-4.4c-0.6,1-1.3,1.9-2,2.6c-0.1-0.3-0.5-1-0.8-1.3c1.2-1.1,2.2-2.7,2.8-4.4l1.4,0.4
		c-0.2,0.5-0.4,0.9-0.6,1.4h3.7v-1.8h1.5v1.8h5.7V24h-5.7v1.9h5.2v1.3h-5.2v2.1H73z M69.1,19.2c-1.2-0.5-2.8-1-4.5-1.5
		c-1.9,0.6-3.9,1.1-5.7,1.5H69.1z M59.4,15.2c1.6,0.4,3.5,0.9,5.3,1.4c1.4-0.4,2.6-0.9,3.5-1.4H59.4z"/>
	<path class="st1" d="M85.8,19.6c1.5,4.6,4.2,8.5,8.3,10.1c-0.4,0.4-0.9,1-1.2,1.5c-4.1-1.9-6.7-5.7-8.4-10.5
		c-1,4.1-3.3,8.1-8.4,10.5c-0.2-0.4-0.7-1-1.2-1.3c5.2-2.3,7.3-6.3,8.2-10.3h-7.8V18h8c0.3-2.2,0.3-4.3,0.3-6h1.7c0,1.7,0,3.8-0.3,6
		h8.7v1.6H85.8z"/>
	<path class="st1" d="M105.2,27c0,0.4,0.1,1.1,0.1,1.5c-6,1.6-6.8,1.9-7.3,2.2c-0.1-0.4-0.5-1-0.7-1.3c0.3-0.2,0.8-0.7,0.8-1.6V12
		h1.6v6.5h5.4V20h-5.4v8.3L105.2,27z M112.6,29.3c1,0,1.1-0.8,1.3-3.8c0.4,0.3,1,0.6,1.5,0.7c-0.2,3.4-0.6,4.6-2.6,4.6h-3.5
		c-2,0-2.6-0.6-2.6-2.9V12h1.6v6.5h5.7V20h-5.7v7.9c0,1.2,0.2,1.4,1.2,1.4H112.6z"/>
	<path class="st1" d="M121.3,23.4v5.9c0,0.9-0.2,1.3-0.7,1.5c-0.5,0.3-1.3,0.3-2.6,0.3c0-0.4-0.2-1-0.4-1.5c0.9,0,1.7,0,2,0
		c0.3,0,0.4-0.1,0.4-0.4v-5.4l-2.3,0.7l-0.4-1.5c0.7-0.2,1.7-0.5,2.7-0.8v-4.6h-2.5v-1.5h2.5V12h1.5v4.2h2.3v1.5h-2.3v4.2
		c0.7-0.2,1.4-0.4,2.1-0.7l0.2,1.5L121.3,23.4z M136.2,23.6h-3v7.7h-1.5v-7.7h-3.4c-0.1,2.7-0.8,5.6-4,7.8c-0.2-0.4-0.7-0.9-1.1-1.1
		c2.8-1.9,3.4-4.4,3.6-6.7H124v-1.4h2.7V19h1.5v3.1h3.4V19h1.5v3.1h3V23.6z M134.7,19.3c-0.2-0.4-0.5-0.9-0.8-1.5
		c-7.6,0.5-8.5,0.5-9.1,0.8c-0.1-0.3-0.3-1-0.5-1.5c0.4,0,0.8-0.4,1.2-0.9c0.5-0.5,2.1-2.4,3.1-4.2l1.6,0.5
		c-1.1,1.6-2.4,3.3-3.6,4.5l6.4-0.4c-0.5-0.7-1-1.4-1.5-2l1.2-0.7c1.2,1.5,2.6,3.4,3.2,4.6L134.7,19.3z"/>
</g>
</svg>
