<svg xmlns="http://www.w3.org/2000/svg" width="323" height="60" viewBox="0 0 323 60">
  <g id="Group_22101" data-name="Group 22101" transform="translate(-0.591 0.577)">
    <g id="Group_22088" data-name="Group 22088" transform="translate(0.233 -0.243)">
      <g id="Rectangle_807" data-name="Rectangle 807" transform="translate(323.358 -0.333) rotate(90)" fill="#3a3838" stroke="#000" stroke-width="3">
        <rect width="60" height="323" stroke="none"/>
        <rect x="1.5" y="1.5" width="57" height="320" fill="none"/>
      </g>
    </g>
    <g id="Group_22097" data-name="Group 22097" transform="translate(188.033 19.687)">
      <g id="Group_22095" data-name="Group 22095" transform="translate(0 0)">
        <path id="Path_20907" data-name="Path 20907" d="M14.927.371a2.766,2.766,0,0,0-3.778,1.012l-5.618,9.73V2.767A2.766,2.766,0,1,0,0,2.767V21.434c0,.031,0,.061,0,.092,0,.047,0,.094.007.141s.011.1.018.151.01.073.017.109c.01.057.023.113.037.169.007.029.014.058.022.087.016.059.035.116.055.173.01.027.019.054.03.08.021.055.045.109.07.163.013.029.027.057.041.086q.037.073.079.143c.019.032.038.064.058.095s.054.082.083.122.049.068.075.1.058.071.089.106.058.065.088.1.067.067.1.1.059.055.09.082.085.069.128.1c.027.02.053.041.08.06.054.038.109.073.166.107.015.009.029.02.044.029h0l.018.009c.062.035.126.067.191.1l.057.028c.061.027.124.051.188.073l.072.026c.055.018.111.032.168.047.034.009.067.019.1.026s.094.017.141.025.089.015.134.02.082.006.123.009.1.007.154.008l.035,0c.031,0,.061,0,.091,0,.048,0,.1,0,.143-.007s.1-.011.146-.017.077-.011.115-.018c.054-.01.108-.022.161-.035l.1-.025c.055-.015.108-.033.162-.052l.093-.034c.05-.02.1-.041.149-.064l.1-.049q.065-.033.127-.07c.038-.022.075-.044.112-.068s.07-.047.1-.071.08-.058.119-.089.058-.048.087-.072.078-.069.116-.105.053-.054.08-.081.069-.073.1-.112.055-.068.082-.1.054-.07.08-.107.058-.088.086-.133c.014-.023.03-.045.044-.068l2.994-5.185,2.994,5.185a2.765,2.765,0,0,0,3.778,1.012h0a2.766,2.766,0,0,0,1.012-3.778l-4.1-7.106a2.755,2.755,0,0,0-.574-.7l4.677-8.1A2.766,2.766,0,0,0,14.927.371Z" transform="translate(0 0)" fill="#fff"/>
        <path id="Path_20908" data-name="Path 20908" d="M389.185,18.673h-5.531V2.771A2.765,2.765,0,0,0,380.889,0h0a2.766,2.766,0,0,0-2.766,2.766V21.438a2.766,2.766,0,0,0,2.766,2.766h8.3a2.766,2.766,0,1,0,0-5.531Z" transform="translate(-335.212 -0.004)" fill="#fff"/>
        <path id="Path_20909" data-name="Path 20909" d="M159.62,6.825A11.325,11.325,0,1,0,170.946,18.15,11.338,11.338,0,0,0,159.62,6.825Zm0,17.285a5.959,5.959,0,1,1,5.959-5.959A5.966,5.966,0,0,1,159.62,24.11Z" transform="translate(-131.466 -6.05)" fill="#fff"/>
        <path id="Path_20910" data-name="Path 20910" d="M228.32,80.632a.819.819,0,1,0-.819-.819A.819.819,0,0,0,228.32,80.632Z" transform="translate(-201.683 -70.03)" fill="#fff"/>
        <circle id="Ellipse_522" data-name="Ellipse 522" cx="0.819" cy="0.819" r="0.819" transform="translate(28.854 8.965)" fill="#fff"/>
        <path id="Path_20911" data-name="Path 20911" d="M223.248,101.24a.488.488,0,0,0-.488.488,2.622,2.622,0,0,1-5.2,0,.488.488,0,0,0-.976,0,3.591,3.591,0,0,0,7.151,0A.488.488,0,0,0,223.248,101.24Z" transform="translate(-192.006 -89.751)" fill="#fff"/>
      </g>
      <g id="Group_22096" data-name="Group 22096" transform="translate(63.262 10.367)">
        <path id="Path_20912" data-name="Path 20912" d="M561.006,108.353V111.6a.805.805,0,0,1-.7.8h0a7.5,7.5,0,0,1-.95.061,4.255,4.255,0,0,1-.828-.071,1.381,1.381,0,0,1-.592-.256,1.135,1.135,0,0,1-.358-.511,2.493,2.493,0,0,1-.122-.858V101.14a.9.9,0,0,1,.235-.664,1.686,1.686,0,0,1,.644-.378,7.7,7.7,0,0,1,1.614-.358,16.275,16.275,0,0,1,1.962-.112,6.536,6.536,0,0,1,4.25,1.185,3.949,3.949,0,0,1,1.43,3.208,3.582,3.582,0,0,1-.654,2.166,4.694,4.694,0,0,1-1.553,1.39q.736,1,1.451,1.88.362.445.645.847a1.322,1.322,0,0,1-.256,1.832l-.011.007a2.073,2.073,0,0,1-1.216.378,2.608,2.608,0,0,1-.776-.1,1.866,1.866,0,0,1-.572-.286,2.328,2.328,0,0,1-.45-.45,5.877,5.877,0,0,1-.388-.572l-1.717-2.758Zm1.287-2.717a1.782,1.782,0,0,0,1.226-.4,1.488,1.488,0,0,0,.45-1.175,1.412,1.412,0,0,0-.5-1.175,2.54,2.54,0,0,0-1.584-.4,4.669,4.669,0,0,0-.49.021c-.123.014-.259.034-.409.061v3.065Z" transform="translate(-557.451 -98.688)" fill="#fff"/>
        <path id="Path_20913" data-name="Path 20913" d="M667.812,120.156a8.4,8.4,0,0,1,2.013.225,4.519,4.519,0,0,1,1.553.684,3.093,3.093,0,0,1,.991,1.165,3.73,3.73,0,0,1,.347,1.665v4.577a1.268,1.268,0,0,1-.3.869,2.956,2.956,0,0,1-.7.582,7.306,7.306,0,0,1-3.739.8,8.566,8.566,0,0,1-1.951-.2,4.619,4.619,0,0,1-1.492-.613,2.81,2.81,0,0,1-.961-1.042,3.086,3.086,0,0,1-.337-1.471,2.769,2.769,0,0,1,.838-2.166,4.52,4.52,0,0,1,2.6-.94l2.677-.286v-.143a.877.877,0,0,0-.521-.848,3.513,3.513,0,0,0-1.5-.255,6.965,6.965,0,0,0-1.512.163q-.449.1-.845.23a.768.768,0,0,1-.929-.376l0-.007a1.774,1.774,0,0,1-.184-.787,1.309,1.309,0,0,1,.255-.848,1.97,1.97,0,0,1,.787-.541,6.151,6.151,0,0,1,1.4-.327A12.19,12.19,0,0,1,667.812,120.156Zm.163,8.03a4.584,4.584,0,0,0,.766-.071,1.865,1.865,0,0,0,.623-.194v-1.635l-1.471.123a2.271,2.271,0,0,0-.94.245.66.66,0,0,0-.368.613.812.812,0,0,0,.317.664A1.729,1.729,0,0,0,667.976,128.186Z" transform="translate(-651.23 -116.887)" fill="#fff"/>
        <path id="Path_20914" data-name="Path 20914" d="M761.992,99.89a6.112,6.112,0,0,1,.409-2.34,4.472,4.472,0,0,1,1.134-1.645,4.655,4.655,0,0,1,1.7-.971,6.722,6.722,0,0,1,2.094-.317,4.4,4.4,0,0,1,.8.072,3.16,3.16,0,0,1,.633.174V92.185a.771.771,0,0,1,.645-.763h.009a5.84,5.84,0,0,1,.92-.071,4.8,4.8,0,0,1,.807.061,1.379,1.379,0,0,1,.6.245,1.109,1.109,0,0,1,.368.5,2.328,2.328,0,0,1,.123.827v9.686a1.745,1.745,0,0,1-.9,1.533,6.242,6.242,0,0,1-1.532.684,7.976,7.976,0,0,1-4.546-.072,4.831,4.831,0,0,1-1.778-1.062,4.57,4.57,0,0,1-1.1-1.665A6.011,6.011,0,0,1,761.992,99.89Zm5.8-2.554a2.21,2.21,0,0,0-1.7.633,2.726,2.726,0,0,0-.593,1.921,2.866,2.866,0,0,0,.552,1.91,1.983,1.983,0,0,0,1.594.644,1.855,1.855,0,0,0,.664-.113,1.5,1.5,0,0,0,.46-.256v-4.5A1.873,1.873,0,0,0,767.8,97.336Z" transform="translate(-738.78 -91.349)" fill="#fff"/>
        <path id="Path_20915" data-name="Path 20915" d="M871.987,120.156a8.4,8.4,0,0,1,2.013.225,4.52,4.52,0,0,1,1.553.684,3.1,3.1,0,0,1,.991,1.165,3.731,3.731,0,0,1,.347,1.665v4.577a1.268,1.268,0,0,1-.3.869,2.957,2.957,0,0,1-.7.582,7.307,7.307,0,0,1-3.739.8,8.568,8.568,0,0,1-1.951-.2,4.62,4.62,0,0,1-1.491-.613,2.809,2.809,0,0,1-.961-1.042,3.084,3.084,0,0,1-.337-1.471,2.768,2.768,0,0,1,.838-2.166,4.52,4.52,0,0,1,2.6-.94L873.52,124v-.143a.877.877,0,0,0-.521-.848,3.515,3.515,0,0,0-1.5-.255,6.965,6.965,0,0,0-1.512.163q-.449.1-.845.23a.768.768,0,0,1-.929-.376l0-.007a1.774,1.774,0,0,1-.184-.787,1.309,1.309,0,0,1,.255-.848,1.97,1.97,0,0,1,.787-.541,6.153,6.153,0,0,1,1.4-.327A12.189,12.189,0,0,1,871.987,120.156Zm.163,8.03a4.583,4.583,0,0,0,.766-.071,1.865,1.865,0,0,0,.623-.194v-1.635l-1.471.123a2.272,2.272,0,0,0-.94.245.66.66,0,0,0-.368.613.812.812,0,0,0,.317.664A1.729,1.729,0,0,0,872.15,128.186Z" transform="translate(-832.234 -116.887)" fill="#fff"/>
        <path id="Path_20916" data-name="Path 20916" d="M969.641,131.356a.742.742,0,0,1-.635.738H969a6.564,6.564,0,0,1-.909.062,4.792,4.792,0,0,1-.807-.062,1.371,1.371,0,0,1-.6-.245,1.175,1.175,0,0,1-.378-.5,2.164,2.164,0,0,1-.133-.828v-6.13a1.74,1.74,0,0,1,.174-.807,1.893,1.893,0,0,1,.5-.6,3.614,3.614,0,0,1,.807-.48,8.385,8.385,0,0,1,1.032-.378,8.742,8.742,0,0,1,1.144-.255,7.671,7.671,0,0,1,1.185-.092,2.79,2.79,0,0,1,1.553.378,1.372,1.372,0,0,1,.572,1.236,2.085,2.085,0,0,1-.082.562.705.705,0,0,1-.3.363,1.939,1.939,0,0,1-.784.179q-.449.041-.879.123t-.807.173a3.563,3.563,0,0,0-.644.215Z" transform="translate(-919.784 -118.323)" fill="#fff"/>
      </g>
    </g>
    <g id="Group_22098" data-name="Group 22098" transform="translate(22.023 12.103)">
      <path id="Path_20917" data-name="Path 20917" d="M34.281,7.039a1.744,1.744,0,0,1-.617,1.855c-1.52.747-3.169,1.236-4.637,2.06-2.91.566-5.64,1.57-8.473,2.266a2.89,2.89,0,0,1-2.859-1.03c.155-.67-.8-1.159-.1-1.752a24.834,24.834,0,0,1,3.708-.412c1.417-1.159,3.014-1.313,4.816-1.545.284-.413.773-.361,1.108-.618.773-.619,1.8-.851,2.421-1.623A3.9,3.9,0,0,1,32.787,5.8c.515.36,1.262.54,1.494,1.236" transform="translate(-8.076 -5.682)" fill="#fff"/>
      <path id="Path_20918" data-name="Path 20918" d="M74.631,18.927a2.229,2.229,0,0,0-.052-1.725c-.052-.334.155-.592-.181-.747-.619-.438-1.184.258-1.8.361-.825.411-1.417,1.442-2.4,1.674a10.185,10.185,0,0,1-2.781,1.931,6.086,6.086,0,0,1-3.658-.206c-.283-.489-.875-.232-1.236-.541-.877-.567-2.035-.567-2.654-1.544-.386-.7-1.519-.7-1.313-1.675A2.7,2.7,0,0,1,60,15.836c1.777-.335,3.709-.077,5.434-.67.977-.256,2.008-.488,2.962-.823.359-.386,1.133-.154,1.415-.721a10.373,10.373,0,0,1,1.932-.309c.541-.438,1.339-.181,1.854-.7,1.056,0,1.855-.7,2.962-.618.824-.824,2.112-.49,3.091-.927,1.442-.438,3.013-1.546,4.636-.669h.67c1.107.283,2.549.283,3.091,1.416a4.014,4.014,0,0,1-.747,2.035c-1.056.618-2.806,1-3.889.128-1.288-.824-2.86-.335-4.2.051-.36.412-.979.412-1.184,1a6.25,6.25,0,0,0,.128,1.855c.49,1.03-.155,2.06.31,3.091a29.6,29.6,0,0,1,.567,4.944,46.331,46.331,0,0,0,.541,7.107c.155.8.464,1.675.567,2.6.489.566.052,1.313.36,1.957-.541,1.365-.026,3.323-1.6,4.019-.8.876-2.344.72-3.348.386-.695-.232-.876-.979-1.34-1.365,0-.9-.644-1.752-.308-2.781a123.87,123.87,0,0,0,.721-17.436" transform="translate(-27.306 -7.732)" fill="#fff"/>
      <path id="Path_20919" data-name="Path 20919" d="M22.494,21.025a6.913,6.913,0,0,1,1.056,1.906c.541.592,1.159-.078,1.726-.13.927-.953,2.112-2.19,3.76-2.034.67.258,1.52.232,1.855.927a1.535,1.535,0,0,1,.077,1.417c-.592,1.21-2.06,1.649-3.09,2.421-.825.437-1.932.747-2.344,1.673-.026,1.469,1.159,2.652,2.086,3.5,1.417,1.469,2.73,3.708,4.636,4.584,1.03.592,1.854,1.777,3.168,2.111.283.284.824.387,1.107.721.593.077.85.928,1.546.7a10.339,10.339,0,0,0,3.889,1.906c.361.258.849.463,1.056.8.464.1.67.592.927.927.129.387-.206.721-.309,1.056-.721.7-1.854.413-2.653.876-2.549.077-5.408.747-7.933.232l-2.833-2.163c-1.8-2.215-3.169-4.662-4.945-6.9-.206-.515-.953-.721-1.184-1.312-.876-.567-1.185-1.623-2.344-1.726a3.965,3.965,0,0,0-.619,2.215c-.283.618-.18,1.519-.541,2.163-.386.438-.231,1.081-.619,1.494-.026.515-.412.67-.438,1.185a14.566,14.566,0,0,1-4.146,5.048c-1.442.284-2.73,1.366-4.276.515a2.478,2.478,0,0,1-2.086-1.545c.206-.463-.387-.618-.387-1,.284-.618-.566-1.211.258-1.6a1.112,1.112,0,0,1,.669-.8,2.138,2.138,0,0,1,2.113.49c.283.077.463-.154.67-.258.051-.386.644-.437.618-.849a4.989,4.989,0,0,0,1.494-2.241,3.8,3.8,0,0,0,.67-3.708c-.953-.076-1.957.412-2.962.078-.67-.489-1.649-.746-1.984-1.494a3.214,3.214,0,0,1-.927-1.8c.284-.772,1.365-.541,1.984-.668.566-.232,1.236-.284,1.8-.567,1.442-.284,2.292-1.571,3.761-1.777.875-.54,2.086-1.313,1.931-2.55-.438-1,.257-1.879.1-2.962a1.931,1.931,0,0,1,1.056-1.056c.541-.155,1.159.077,1.726-.18.206.335.619.18.876.386" transform="translate(-3.963 -12.663)" fill="#fff"/>
      <path id="Path_20920" data-name="Path 20920" d="M113.679,34.321c1.184,1.287,2.472,2.858,1.673,4.764-.077.644-1,.412-1.056,1.108a7.914,7.914,0,0,1-3.889-.232c-.025-.463-.362-.617-.747-.875-1.494-1.365-2.652-3.245-1.983-5.125,1.493-1.21,3.554-.1,5.254,0a1.448,1.448,0,0,0,.748.361" transform="translate(-50.153 -18.619)" fill="#fff"/>
      <path id="Path_20921" data-name="Path 20921" d="M160.985,43.7c.069-.077.132-.216.255-.239,1.917-.046,3.238-.07,5.177-.062.208-.147.5-.086.756-.124l2.528-.023c.208-.131.055-.439.131-.649.085-.409-.24-1.135.348-1.26.287-.037.688-.069.835.263v1.554l.054.077c1.112.046,2.179-.023,3.229.054.046.039.124.062.147.132.015.116-.008.247-.131.278-1.005.069-2.11.008-3.153.054-.022.038-.085.007-.108.038l-.053.093c-.039.717-.017,1.32-.024,2.055l.077.092,2.65.038c.078.078.209.178.132.318l-.132.131-2.666.031-3.987-.016c-.093-.069-.224-.139-.17-.293a.33.33,0,0,1,.262-.171l2.481-.014c.278-.1.084-.479.17-.672V43.866l-.116-.093c-1.043,0-2.025.016-3.059-.015a.243.243,0,0,0-.163-.054.5.5,0,0,1-.316.185l-4.714.039a2.117,2.117,0,0,1-.293-.062" transform="translate(-75.125 -22.318)" fill="#fff"/>
      <path id="Path_20922" data-name="Path 20922" d="M135.737,41.56a10.033,10.033,0,0,1,.038,1.283l.124.092c.687.077,1.382-.077,2.04.054.093.077.085.155.062.262a.242.242,0,0,1-.224.132l-4.157.03-1.67-.015c-.092-.022-.131-.092-.184-.17.007-.1.023-.231.146-.254.781-.047,1.685,0,2.5-.039a.214.214,0,0,0,.155-.147c.116-.486-.317-1.383.44-1.483.263.03.58-.024.727.254" transform="translate(-61.487 -22.31)" fill="#fff"/>
      <path id="Path_20923" data-name="Path 20923" d="M166.466,42.346a.212.212,0,0,1,.147.108.237.237,0,0,1-.116.317l-.387.038-3.8-.023c-.085-.023-.131-.093-.186-.163a.238.238,0,0,1,.093-.247,6.917,6.917,0,0,1,1.5-.054c.873.007,1.846-.015,2.75.023" transform="translate(-75.653 -22.775)" fill="#fff"/>
      <path id="Path_20924" data-name="Path 20924" d="M134.477,45.51a.4.4,0,0,1,.146.434c-.054.378-.672.718-.255,1.111.155.37.6.7.719,1.05.031.046-.031.115-.031.17a.4.4,0,0,1-.447.132c-.31-.256-.541-.588-.85-.835a.377.377,0,0,0-.248.225c-.347.423-.664,1-1.166,1.22a.434.434,0,0,1-.332-.2l.014-.187a17.077,17.077,0,0,0,1.669-3.057.632.632,0,0,1,.782-.063" transform="translate(-61.601 -24.22)" fill="#fff"/>
      <path id="Path_20925" data-name="Path 20925" d="M140.454,46.057c.031.394-.3.688-.447,1.036a6.732,6.732,0,0,0,.741,1.52c.054.093-.008.18-.054.264a.521.521,0,0,1-.425.093c-.293-.225-.518-.649-.8-.912-.348.194-.4.935-.966.649a.291.291,0,0,1-.108-.356,8.153,8.153,0,0,0,.981-2.37.592.592,0,0,1,.387-.254c.263.022.564.053.687.331" transform="translate(-64.574 -24.373)" fill="#fff"/>
      <path id="Path_20926" data-name="Path 20926" d="M166.426,48.337c.078.045.2.092.2.208a.308.308,0,0,1-.187.255l-.223.022h-3.894a.588.588,0,0,1-.2-.147.273.273,0,0,1,.186-.339l.093-.016Z" transform="translate(-75.652 -25.584)" fill="#fff"/>
      <path id="Path_20927" data-name="Path 20927" d="M166.376,51.289a.334.334,0,0,1,.186.155.223.223,0,0,1-.039.217.318.318,0,0,1-.3.093l-3.964-.017a.243.243,0,0,1-.116-.317c.062-.107.192-.107.3-.131,1.321-.023,2.588-.023,3.932,0" transform="translate(-75.656 -26.961)" fill="#fff"/>
      <path id="Path_20928" data-name="Path 20928" d="M135.571,51.532c.3.318.046.657.154,1.059.046.077.147.039.217.07h1.947c.077.038.194.069.209.17a.285.285,0,0,1-.186.277l-1.839.039c-.131.046.015.147.023.224a7.885,7.885,0,0,0,1.855,1.607c.077.164-.046.294-.17.371h-.317a17.08,17.08,0,0,1-1.831-1.313l-.062.038a14.74,14.74,0,0,1,.078,2.48c-.148.294-.495.3-.781.279a.5.5,0,0,1-.372-.279l-.038-.239a12.115,12.115,0,0,1,.17-2.411c-.17-.139-.178.147-.316.224.007.093-.116.085-.132.17a11.913,11.913,0,0,1-1.112,1.129c-.008.116-.154.116-.2.185-.27.231-.611.7-1.059.464a.263.263,0,0,1-.069-.24c.053-.139.223-.239.347-.333a9,9,0,0,0,1.839-2.248c0-.039.007-.086-.039-.109-.711-.046-1.406.016-2.117-.054-.076-.07-.162-.208-.069-.317l.162-.092,2.473-.023c.069.007.131-.07.162-.124.07-.386-.177-.927.278-1.112.255-.047.6-.093.8.107" transform="translate(-61.437 -27.013)" fill="#fff"/>
      <path id="Path_20929" data-name="Path 20929" d="M175.755,52.062c.255.231.046.595.108.911.009,1.137-.014,2.079.024,3.138.054.131.2.155.308.2h1.654a1.28,1.28,0,0,0,.82-1.06.636.636,0,0,1,.478-.316.741.741,0,0,1,.688.3,1.437,1.437,0,0,1-.634,1.3c-1.027.432-2.4.178-3.539.223a.988.988,0,0,1-.873-.525l-.039-.2c.016-1.2.039-2.581.054-3.8.046-.178.239-.239.394-.294a.8.8,0,0,1,.557.125" transform="translate(-81.549 -27.27)" fill="#fff"/>
      <path id="Path_20930" data-name="Path 20930" d="M179.308,52.833a6.092,6.092,0,0,1,.812,1.32.445.445,0,0,1-.093.371.881.881,0,0,1-.664.2c-.673-.1-.456-.9-.766-1.314-.1-.41-.557-.688-.478-1.136.109-.186.363-.178.556-.147a4.088,4.088,0,0,1,.633.7" transform="translate(-83.118 -27.353)" fill="#fff"/>
      <path id="Path_20931" data-name="Path 20931" d="M183.764,53.631c.356.424.711.842,1.02,1.283a.524.524,0,0,1-.093.478.913.913,0,0,1-.8.187c-.356-.194-.371-.619-.518-.944a8.921,8.921,0,0,0-.819-1.282.327.327,0,0,1,.078-.333.58.58,0,0,1,.439-.054c.286.125.463.472.688.665" transform="translate(-85.185 -27.743)" fill="#fff"/>
      <path id="Path_20932" data-name="Path 20932" d="M167.976,53.6a.584.584,0,0,0-.393-.208c-.14.046-.333.038-.387.223a6.148,6.148,0,0,1-.557,2c-.053.085-.1.216-.185.17-.186-.734.408-2.01-.726-2.134h-2.257a2,2,0,0,0-1.005.132.891.891,0,0,0-.371.518l-.038,2.541.077.2a.976.976,0,0,0,.518.332,24.574,24.574,0,0,0,2.951.039l.441-.147a.809.809,0,0,0,.424-.688,1.676,1.676,0,0,0,.651.093c.617-.193.5-.919.671-1.406A6.759,6.759,0,0,0,167.976,53.6Zm-2.712,3.284-.093.069-1.908-.015-.038-.038c.008-.865-.009-1.824.023-2.65.023-.093.131-.062.2-.093l1.786.016.053.054Z" transform="translate(-75.625 -27.951)" fill="#fff"/>
      <path id="Path_20933" data-name="Path 20933" d="M148.44,51.181a.987.987,0,0,1-.526-.077l-.03-1.886.069-.093c.672-.108,1.352-.022,2.04-.076.1-.031.092-.14.116-.224-.016-.093-.116-.108-.17-.163l-1.839-.023c-.077-.023-.209-.007-.216-.131V46.545c.03-.053.084-.062.123-.092l1.839-.015.171-.078c.015-.069.116-.124.053-.2-.006-.092-.115-.116-.169-.169l-1.924-.015-.092-.077c.007-.656-.038-1.336.03-1.962l.078-.062,2.226-.031c.107-.046.122-.162.184-.247l-.147-.162-2.689-.039-.054-.037a9.738,9.738,0,0,1,1.075-1.183.559.559,0,0,0,.2-.54.862.862,0,0,0-.688-.294c-.518.023-.618.611-.865.943a3.87,3.87,0,0,0-.6,1.1l-2.063.015-.031-.037a9.868,9.868,0,0,1,.742-1.461l.015-.226a.523.523,0,0,0-.409-.355c-.278-.038-.6-.046-.758.225a10.992,10.992,0,0,1-1.707,3.631.318.318,0,0,0,.054.3.517.517,0,0,0,.356.093c.394-.2.587-.64.888-.911l.015.023v4.689a13.712,13.712,0,0,0,.093,1.777,1,1,0,0,0,.835.448c1.862-.009,3.708.015,5.586-.023l.108-.07a.194.194,0,0,0-.039-.263A8.587,8.587,0,0,0,148.44,51.181Zm-3.493-4.65c.038-.055.1-.055.154-.077a10.358,10.358,0,0,1,1.631.053l-.023,2.079a16.029,16.029,0,0,1-1.739,0l-.038-.054Zm1.8,4.574-.038.039h-1.7l-.061-.039c-.007-.665-.054-1.306-.015-1.923a.141.141,0,0,1,.108-.093,10.627,10.627,0,0,1,1.669.053l.038.039C146.725,49.853,146.8,50.51,146.747,51.1Zm0-5.192a8.7,8.7,0,0,1-1.739.039l-.038-.039V44.028c.023-.2.232-.093.347-.131.472,0,.974-.015,1.414.015l.038.132C146.762,44.692,146.778,45.4,146.748,45.912Z" transform="translate(-66.455 -22.305)" fill="#fff"/>
      <rect id="Rectangle_885" data-name="Rectangle 885" width="13.07" height="0.556" transform="translate(0 11.304)" fill="#fff"/>
      <rect id="Rectangle_886" data-name="Rectangle 886" width="5.795" height="0.556" transform="translate(27.235 11.304)" fill="#fff"/>
      <rect id="Rectangle_887" data-name="Rectangle 887" width="3.735" height="0.556" transform="translate(43.461 11.304)" fill="#fff"/>
      <rect id="Rectangle_888" data-name="Rectangle 888" width="51.726" height="0.555" transform="translate(51.832 11.427)" fill="#fff"/>
      <rect id="Rectangle_889" data-name="Rectangle 889" width="8.547" height="0.555" transform="translate(0.015 21.605)" fill="#fff"/>
      <rect id="Rectangle_890" data-name="Rectangle 890" width="2.19" height="0.555" transform="translate(17.577 21.605)" fill="#fff"/>
      <rect id="Rectangle_891" data-name="Rectangle 891" width="18.157" height="0.555" transform="translate(28.009 21.605)" fill="#fff"/>
      <rect id="Rectangle_892" data-name="Rectangle 892" width="7.34" height="0.555" transform="translate(52.734 21.605)" fill="#fff"/>
      <rect id="Rectangle_893" data-name="Rectangle 893" width="4.249" height="0.555" transform="translate(64.969 21.605)" fill="#fff"/>
      <rect id="Rectangle_894" data-name="Rectangle 894" width="3.562" height="0.555" transform="translate(99.995 21.605)" fill="#fff"/>
      <rect id="Rectangle_895" data-name="Rectangle 895" width="8.677" height="0.556" transform="translate(0.015 25.724)" fill="#fff"/>
      <rect id="Rectangle_896" data-name="Rectangle 896" width="5.795" height="0.556" transform="translate(16.547 25.724)" fill="#fff"/>
      <rect id="Rectangle_897" data-name="Rectangle 897" width="11.075" height="0.556" transform="translate(34.833 25.724)" fill="#fff"/>
      <rect id="Rectangle_898" data-name="Rectangle 898" width="15.84" height="0.556" transform="translate(53.378 25.724)" fill="#fff"/>
      <rect id="Rectangle_899" data-name="Rectangle 899" width="3.562" height="0.556" transform="translate(99.995 25.724)" fill="#fff"/>
      <rect id="Rectangle_900" data-name="Rectangle 900" width="3.912" height="0.556" transform="translate(0.015 27.913)" fill="#fff"/>
      <rect id="Rectangle_901" data-name="Rectangle 901" width="8.37" height="0.556" transform="translate(15.518 27.913)" fill="#fff"/>
      <rect id="Rectangle_902" data-name="Rectangle 902" width="6.181" height="0.556" transform="translate(39.341 27.913)" fill="#fff"/>
      <rect id="Rectangle_903" data-name="Rectangle 903" width="15.326" height="0.556" transform="translate(54.021 27.913)" fill="#fff"/>
      <rect id="Rectangle_904" data-name="Rectangle 904" width="3.82" height="0.556" transform="translate(99.738 27.913)" fill="#fff"/>
      <rect id="Rectangle_905" data-name="Rectangle 905" width="4.041" height="0.555" transform="translate(0.015 31.648)" fill="#fff"/>
      <rect id="Rectangle_906" data-name="Rectangle 906" width="14.294" height="0.555" transform="translate(12.813 31.648)" fill="#fff"/>
      <rect id="Rectangle_907" data-name="Rectangle 907" width="5.666" height="0.555" transform="translate(40.113 31.648)" fill="#fff"/>
      <rect id="Rectangle_908" data-name="Rectangle 908" width="49.794" height="0.555" transform="translate(53.764 31.648)" fill="#fff"/>
    </g>
    <g id="Group_22099" data-name="Group 22099" transform="translate(147.156 23.1)">
      <path id="Path_20934" data-name="Path 20934" d="M18.2,0,0,18.2" fill="#5ecaa4" stroke="#5ecaa4" stroke-linecap="round" stroke-width="3"/>
      <path id="Path_20778" data-name="Path 20778" d="M-1-.969,17.114,16.97" transform="translate(1 1.013)" fill="none" stroke="#22afe3" stroke-linecap="round" stroke-width="3"/>
    </g>
  </g>
</svg>
